<?xml version="1.0" ?><svg viewBox="0 0 24 24" xmlns="http://www.w3.org/2000/svg"><title/><g id="target"><path d="M20.66,7l1.19-1.19A.47.47,0,0,0,22,5.31.5.5,0,0,0,21.5,5H19V2.5A.5.5,0,0,0,18.69,2a.48.48,0,0,0-.54.11L17,3.34A9.89,9.89,0,0,0,12,2a10.06,10.06,0,1,0,8.66,5ZM18.5,6h1.79l-2,2H16V5.71l2-2V5.5A.5.5,0,0,0,18.5,6ZM18,12a6,6,0,1,1-3-5.18V8.29l-.56.56a4,4,0,1,0,.71.71L15.71,9h1.47A6,6,0,0,1,18,12Zm-3,0a3,3,0,1,1-3-3,3,3,0,0,1,1.73.56l-2.08,2.09a.48.48,0,0,0,0,.7.48.48,0,0,0,.7,0l2.09-2.08A3,3,0,0,1,15,12Zm-3,9A9,9,0,1,1,16.22,4.07L15.15,5.15A.47.47,0,0,0,15,5.5v.18A7,7,0,1,0,18.32,9h.18a.47.47,0,0,0,.35-.15l1.08-1.07A9,9,0,0,1,12,21Z"/></g></svg>