<svg xmlns="http://www.w3.org/2000/svg"  viewBox="0 0 128 128" width="64px" height="64px"><path fill="#fff" d="M64 96L34 96 24 86 34 76 64 76"/><path fill="#444b54" d="M64 70L104 70 114 60 104 50 64 50"/><path fill="#fff" d="M64 44L14 44 4 34 14 24 64 24"/><path fill="#444b54" d="M64 127c-1.7 0-3-1.3-3-3V14c0-1.7 1.3-3 3-3 1.7 0 3 1.3 3 3v110C67 125.7 65.7 127 64 127zM54 47H14c-.8 0-1.6-.3-2.1-.9l-10-10c-1.2-1.2-1.2-3.1 0-4.2l10-10c.6-.6 1.3-.9 2.1-.9h40c1.7 0 3 1.3 3 3s-1.3 3-3 3H15.2l-7 7 7 7H54c1.7 0 3 1.3 3 3S55.7 47 54 47zM54 99H34c-.8 0-1.6-.3-2.1-.9l-10-10c-1.2-1.2-1.2-3.1 0-4.2l10-10c.6-.6 1.3-.9 2.1-.9h20c1.7 0 3 1.3 3 3s-1.3 3-3 3H35.2l-7 7 7 7H54c1.7 0 3 1.3 3 3S55.7 99 54 99z"/><path fill="#444b54" d="M104 73H64c-1.7 0-3-1.3-3-3s1.3-3 3-3h38.8l7-7-7-7H64c-1.7 0-3-1.3-3-3s1.3-3 3-3h40c.8 0 1.6.3 2.1.9l10 10c1.2 1.2 1.2 3.1 0 4.2l-10 10C105.6 72.7 104.8 73 104 73zM84 127H44c-1.7 0-3-1.3-3-3s1.3-3 3-3h40c1.7 0 3 1.3 3 3S85.7 127 84 127zM99 127c-.8 0-1.6-.3-2.1-.9-.1-.1-.3-.3-.4-.4-.1-.2-.2-.3-.3-.5-.1-.2-.1-.4-.2-.6 0-.2-.1-.4-.1-.6s0-.4.1-.6c0-.2.1-.4.2-.6s.2-.3.3-.5c.1-.2.2-.3.4-.5.7-.7 1.7-1 2.7-.8.2 0 .4.1.6.2s.4.2.5.3c.2.1.3.2.5.4.6.6.9 1.3.9 2.1 0 .2 0 .4-.1.6 0 .2-.1.4-.2.6s-.2.4-.3.5c-.1.2-.2.3-.4.4-.1.1-.3.3-.5.4s-.3.2-.5.3c-.2.1-.4.1-.6.2C99.4 127 99.2 127 99 127z"/></svg>