<svg xmlns="http://www.w3.org/2000/svg"  viewBox="0 0 80 80" width="16px" height="16px"><path fill="#8bb7f0" d="M22,61.5C10.145,61.5,0.5,51.855,0.5,40S10.145,18.5,22,18.5h36c11.855,0,21.5,9.645,21.5,21.5 S69.855,61.5,58,61.5H22z"/><path fill="#4e7ab5" d="M58,19c11.579,0,21,9.421,21,21c0,11.579-9.421,21-21,21H22C10.421,61,1,51.579,1,40 c0-11.579,9.421-21,21-21H58 M58,18H22C9.85,18,0,27.85,0,40v0c0,12.15,9.85,22,22,22h36c12.15,0,22-9.85,22-22v0 C80,27.85,70.15,18,58,18L58,18z"/><path fill="#fff" d="M58,56L58,56c8.837,0,16-7.163,16-16v0c0-8.837-7.163-16-16-16h0c-8.837,0-16,7.163-16,16v0	C42,48.837,49.163,56,58,56z"/></svg>