<?xml version="1.0" ?><!DOCTYPE svg  PUBLIC '-//W3C//DTD SVG 1.1//EN'  'http://www.w3.org/Graphics/SVG/1.1/DTD/svg11.dtd'><svg style="enable-background:new 0 0 512 512;" version="1.1" viewBox="0 0 512 512" xml:space="preserve" xmlns="http://www.w3.org/2000/svg" xmlns:xlink="http://www.w3.org/1999/xlink"><g><g id="_x32_0-Search"><g><path d="M243,418.801v2.936c-12.422-15.898-22.92-33-31.39-51.012h5.044c4.848,0,8.586-4.319,7.827-9.107      c-0.5-3.154-0.876-6.349-1.124-9.579c-0.316-4.126-3.751-7.314-7.89-7.314h-14.435c-8.386-24.162-13.333-49.602-14.564-75.725      H243l0,0c0,2.327,2.949,3.317,4.357,1.463c6.617-8.71,14.397-16.489,23.106-23.106c1.853-1.408,0.864-4.357-1.463-4.357h0      v-75.725h41.968c5.905,17.012,10.099,34.659,12.496,52.73c0.323,2.436,2.565,4.137,5.005,3.843      c5.473-0.658,10.905-0.929,16.356-0.832c2.773,0.049,4.936-2.351,4.584-5.101c-2.208-17.28-5.913-34.211-11.055-50.64h82.22      c12.35,22.817,20.085,48.478,21.965,75.725h-24.221c-2.869,0-4.125,3.625-1.865,5.392c6.382,4.99,12.248,10.611,17.501,16.771      c2.061,2.417,5.054,3.838,8.231,3.838h0.355c-0.068,0.987-0.147,1.972-0.233,2.954c-0.207,2.346,0.344,4.699,1.609,6.686      c5.543,8.709,9.99,18.178,13.151,28.214c0.918,2.915,5.087,2.83,5.816-0.139C466.875,290.454,469,273.47,469,256      c0-117.504-95.638-212.996-212.993-213c-0.005,0-0.009,0-0.014,0C138.538,43.004,43,138.598,43,256      c0,117.441,95.577,213,213,213c17.244,0,34.011-2.069,50.075-5.959c3.163-0.766,3.307-5.163,0.208-6.157      c-22.988-7.371-42.973-21.509-57.6-40.062C246.812,414.45,243,415.779,243,418.801z M403.569,141.275H328.85      c-10.45-24.849-24.351-48.251-41.445-69.624C334.376,79.628,375.438,105.173,403.569,141.275z M269,90.264      c12.422,15.898,22.92,33,31.39,51.012H269V90.264z M243,243h-56.532c1.231-26.122,6.178-51.563,14.564-75.725H243V243z       M243,141.275h-31.39c8.47-18.012,18.968-35.113,31.39-51.012V141.275z M224.595,71.651      C207.5,93.025,193.6,116.427,183.15,141.275h-74.718C136.562,105.173,177.624,79.628,224.595,71.651z M91.425,167.275h82.22      c-7.607,24.308-12.075,49.713-13.193,75.725H69.459C71.34,215.753,79.074,190.092,91.425,167.275z M91.425,344.725      C79.074,321.908,71.34,296.247,69.459,269h90.993c1.117,26.012,5.586,51.417,13.193,75.725H91.425z M108.431,370.725h74.718      c10.45,24.849,24.351,48.251,41.446,69.624C177.624,432.372,136.562,406.827,108.431,370.725z" style="fill:#2175AA;"/><path d="M467.361,448.976l-45.452-45.452c50.243-65.298,3.515-160.53-79.122-160.53      c-55.026,0-99.793,44.767-99.793,99.792c0,82.725,95.32,129.299,160.53,79.122l45.452,45.452c5.075,5.076,13.308,5.077,18.385,0      C472.438,462.284,472.438,454.053,467.361,448.976z M268.994,342.787c0-40.689,33.104-73.792,73.793-73.792      s73.792,33.103,73.792,73.792s-33.103,73.792-73.792,73.792S268.994,383.476,268.994,342.787z" style="fill:#2175AA;"/></g></g><g id="_x31_9-Web_Page"/><g id="_x31_8-Wifi"/><g id="_x31_7-Hotspot"/><g id="_x31_6-Satelite"/><g id="_x31_5-Receiver"/><g id="_x31_4-Receiver"/><g id="_x31_3-Receiver"/><g id="_x31_2-Ethernet"/><g id="_x31_1-Code"/><g id="_x31_0-Homegroup"/><g id="_x30_9-Sharing_Option"/><g id="_x30_8-Data"/><g id="_x30_7-Connectivity"/><g id="_x30_6-Computer"/><g id="_x30_5-Laptop"/><g id="_x30_4-Mobile"/><g id="_x30_3-Network"/><g id="_x30_2-Click"/><g id="_x30_1-Website"/></g></svg>