<svg xmlns="http://www.w3.org/2000/svg" enable-background="new 0 0 52 52" viewBox="0 0 52 52"><path fill="#D8E9F7" d="M32.28311,27.759c-0.22477,0.87955-0.9284,1.62232-1.82758,1.85687
					c-1.27699,0.35479-1.65084-0.2459-4.45656-0.80135v10.8482h-7.75012c-1.14344-3.95812-2.98081-7.71105-5.5023-11.03389
					c-1.69074-2.22831-2.81468-4.89637-3.19579-7.79903h6.93893c-0.55822,2.81884-1.15646,3.17865-0.80141,4.45656
					c0.23455,0.89918,0.97732,1.60282,1.85693,1.82758c1.75916,0.43002,3.34241-0.86977,3.34241-2.55079
					c0-0.98142-0.5806-1.47-0.95775-3.73336h6.0691v4.54455c2.44787-0.40806,2.67336-0.95775,3.73336-0.95775
					C31.41334,24.41659,32.71313,25.99984,32.28311,27.759z"/><path fill="#DDECF8" d="M26.49899,40.16264h-8.62598l-0.10449-0.36133c-1.15381-3.99365-2.97754-7.65088-5.42041-10.87012
					c-1.77002-2.33301-2.90869-5.11182-3.29297-8.03662l-0.07422-0.56494h8.11768l-0.11865,0.59717
					c-0.22412,1.13428-0.4585,1.88916-0.62939,2.44092c-0.25195,0.81396-0.35645,1.15088-0.18018,1.78467
					c0.18604,0.71533,0.77393,1.29199,1.49854,1.47705c0.18164,0.04443,0.37012,0.06738,0.55566,0.06738
					c1.19287,0,2.16309-0.95703,2.16309-2.13379c0-0.37451-0.10938-0.67334-0.2749-1.12598
					c-0.19775-0.5415-0.46924-1.2832-0.67627-2.52539l-0.09717-0.58203h7.15967v4.44385
					c0.88037-0.18066,1.38525-0.37402,1.8042-0.53467c0.47021-0.18018,0.8418-0.32227,1.4292-0.32227
					c0.96387,0,1.85938,0.43701,2.45703,1.19873c0.6084,0.7749,0.81934,1.78174,0.57959,2.76221
					c-0.2749,1.07715-1.1333,1.94727-2.1875,2.22217c-0.84277,0.23438-1.43262,0.09033-2.34912-0.19287
					c-0.44824-0.13916-0.98438-0.30518-1.7334-0.4751V40.16264z M18.62301,39.16264h6.87598V28.2056l0.59717,0.11865
					c1.12695,0.22314,1.88135,0.45654,2.43213,0.62695c0.7998,0.24707,1.1582,0.35938,1.79346,0.18262
					c0.71533-0.18604,1.29199-0.77393,1.47705-1.49854c0.16504-0.67578,0.02148-1.37109-0.396-1.90234
					c-0.40674-0.51904-1.01563-0.81641-1.67041-0.81641c-0.40234,0-0.6543,0.09619-1.07129,0.25635
					c-0.51709,0.19775-1.22559,0.46875-2.58008,0.69482l-0.58203,0.09717v-4.63525h-4.9668
					c0.16943,0.80518,0.36035,1.32813,0.52002,1.76416c0.1875,0.5127,0.33545,0.91797,0.33545,1.46924
					c0,1.72803-1.41895,3.13379-3.16309,3.13379c-0.26563,0-0.53369-0.03271-0.79785-0.09717
					c-1.07715-0.2749-1.94727-1.1333-2.22217-2.1875c-0.25244-0.90918-0.08545-1.44775,0.19092-2.34033
					c0.13916-0.44971,0.30615-0.9873,0.47705-1.74219h-5.7417c0.42725,2.54443,1.46289,4.95313,3.01416,6.99707
					C15.58834,31.54691,17.43014,35.19047,18.62301,39.16264z"/><path fill="#70C392" d="M19.71482,10.73415c-0.53244,2.17814,1.56046,3.95425,3.54767,3.14693
					c0.87961-0.35182,1.79829-0.60593,2.73648-0.76228v7.71099h-6.0691c0.4079,2.44787,0.95775,2.67338,0.95775,3.73336
					c0,1.68102-1.58325,2.98081-3.34241,2.55079c-0.87961-0.22476-1.62238-0.9284-1.85693-1.82758
					c-0.3548-1.27701,0.24579-1.65084,0.80141-4.45656H9.55076c-0.09777-0.73299-0.16619-1.47576-0.16619-2.22825
					c0-9.16724,7.44715-16.57532,16.61439-16.5851v7.66219c-2.81884-0.55822-3.17864-1.15642-4.45656-0.80141
					C20.64329,9.11177,19.93958,9.85454,19.71482,10.73415z"/><path fill="#B78BBE" d="M42.44723,20.82979h-6.76302c0.55544-2.80484,1.15382-3.18748,0.80141-4.45656
					c-0.23461-0.89912-0.97732-1.60275-1.85693-1.82758c-1.75916-0.43002-3.34241,0.86983-3.34241,2.55078
					c0,0.98136,0.5806,1.47015,0.95775,3.73336h-6.24507v-7.71099c-2.44772,0.4079-2.67344,0.95775-3.73336,0.95775
					c-1.68096,0-2.98081-1.58325-2.55079-3.34241c0.22476-0.87961,0.92846-1.62238,1.82758-1.85693
					c1.27702-0.35476,1.65084,0.24579,4.45656,0.80141V2.01644c0.33231,0,0.65485-0.00978,0.9871,0.00978
					c8.17036,0.46909,14.89431,7.02691,15.56866,15.17776C42.65249,18.44514,42.60357,19.65706,42.44723,20.82979z"/><g><path fill="#F3B941" d="M42.44723,20.82979c-0.37139,2.71697-1.37799,5.22868-2.8831,7.35923
					c-2.50193,3.53788-4.45657,7.3983-5.69778,11.47369h-7.86739v-10.8482c2.81386,0.55706,3.17866,1.15639,4.45656,0.80135
					c0.89918-0.23455,1.60281-0.97732,1.82758-1.85687c0.43002-1.75916-0.86977-3.34241-2.55079-3.34241
					c-0.97754,0-1.44733,0.57667-3.73336,0.95775v-4.54455h6.24507c-0.4079-2.44772-0.95775-2.67344-0.95775-3.73336
					c0-1.68096,1.58325-2.98081,3.34241-2.55078c0.87961,0.22482,1.62232,0.92846,1.85693,1.82758
					c0.355,1.2784-0.2441,1.64229-0.80141,4.45656H42.44723z"/></g><g opacity=".1"><path d="M39.56666,28.20249c-2.51001,3.53998-4.45996,7.39996-5.70001,11.46997c-0.87,2.84003-1.39996,5.77002-1.54999,8.76001
			c-0.03998,0.89001-0.78998,1.58002-1.67999,1.58002h-9.28998c-0.17999,0-0.36005-0.03003-0.52002-0.09003h6.28998
			c0.91003,0,1.67999-0.71997,1.73004-1.63c0.33997-7.5,3.07996-14.65997,7.44995-20.82996
			c2.22003-3.13,3.42004-7.07001,3.07001-11.28003c-0.47998-5.78998-3.90997-10.78998-8.75-13.51001
			c6.46002,1.89001,11.37,7.65002,11.94,14.54999C42.88667,21.3325,41.71669,25.1525,39.56666,28.20249z"/></g><g><path fill="#3E5176" d="M33.86665,39.67246c-0.87,2.84003-1.39996,5.77002-1.54999,8.76001
				c-0.03998,0.89001-0.78998,1.58002-1.67999,1.58002h-9.28998c-0.73999,0-1.35004-0.48999-1.58002-1.16003
				c-0.06-0.15997-0.09003-0.32996-0.09998-0.5c-0.12006-2.94-0.60004-5.85999-1.42004-8.67999H33.86665z"/><path fill="#273961" d="M33.86665,39.67246c-0.87,2.84003-1.39996,5.77002-1.54999,8.76001
				c-0.03998,0.89001-0.78998,1.58002-1.67999,1.58002h-9.28998c-0.73999,0-1.35004-0.48999-1.58002-1.16003
				c5.32001-0.65997,10.56-4.38,13.02002-9.17999H33.86665z" opacity=".5"/><line x1="19.351" x2="26.357" y1="44.845" y2="44.845" fill="#F4C45F"/></g><path fill="#293C66" d="M43.55123,17.12162C42.43877,3.67441,26.87263-3.81043,15.6155,4.43595
		c-0.18945,0.13879-0.37988,0.27502-0.56348,0.42108c-7.57894,6.02886-8.80238,16.84833-3.10529,24.39252
		c2.40576,3.17041,4.20166,6.77295,5.33838,10.70703c0.00067,0.00226,0.00226,0.00391,0.00293,0.00616
		c0.79926,2.74384,1.26276,5.58124,1.37646,8.43622c0.06299,1.46289,1.24023,2.60889,2.68018,2.60889h9.29395
		c1.44043,0,2.61767-1.11133,2.68017-2.5249c0.13959-2.85718,0.6449-5.72052,1.50037-8.50995
		c0.00024-0.00079,0.00085-0.00146,0.0011-0.00226C37.9255,29.77355,44.29508,26.5567,43.55123,17.12162z M10.73336,21.82963
		h4.50244c-0.4269,1.6248-0.89157,2.3534-0.51514,3.7085c0.45996,1.76609,2.29055,2.98156,4.24127,2.58472
		c1.66772-0.33942,2.92572-1.8064,2.92572-3.55981c0-0.9086-0.44879-1.71782-0.72217-2.7334h3.8335
		c0.10326,3.28634-0.24989,3.79672,0.35352,4.30811c0.22412,0.18896,0.52002,0.27051,0.81104,0.22314
		c1.95738-0.32614,3.01819-0.94434,3.56885-0.94434c1.93286,0,2.31357,2.94317,0.23389,3.27734
		c-1.09337,0.1752-3.66774-1.41714-4.60205-0.65234c-0.23145,0.18994-0.36523,0.47363-0.36523,0.77295v9.84814h-6.00635
		C15.99531,29.03399,12.08632,28.3568,10.73336,21.82963z M24.99899,3.05735v5.36749
		c-0.65479-0.17204-5.20235-2.05363-6.25537,2.07178c-0.06915,0.28284-0.10571,0.5675-0.11078,0.84943
		c0.06963,0.71874,0.06078,1.42141,0.78217,2.34052c1.91532,2.44002,4.50284,0.95901,5.58398,0.67041v5.47266h-5.06934
		c-0.29395,0-0.57324,0.12939-0.76318,0.35352c-0.18994,0.22461-0.27148,0.521-0.22314,0.81104
		c0.33771,2.02765,0.94434,2.97367,0.94434,3.56885c0,1.28592-1.43273,2.02728-2.48224,1.42365
		c-1.17417-0.67514-0.78061-1.81429-0.57684-2.47101c1.41801-4.58464,1.05834-3.53581-6.38477-3.68604
		C9.68712,11.50603,16.11683,3.62062,24.99899,3.05735z M41.54928,19.82963h-4.61133
		c0.43737-1.66686,0.89479-2.34463,0.51514-3.70947c-1.05214-4.02892-7.16699-3.25944-7.16699,0.97607
		c0,0.64185,0.1546,1.07996,0.32593,1.52844c0.01373,0.03772,0.02637,0.0752,0.04028,0.11316
		c0.10938,0.29883,0.23438,0.64063,0.35596,1.0918h-4.00928c-0.1198-6.74417,0.26762-6.94771-0.35352-7.47412
		c-0.9936-0.83808-3.6872,0.95696-4.79486,0.66229c-1.61893-0.44728-1.61629-2.76502-0.04059-3.17743
		c0.92087-0.25444,1.12584,0.25186,3.99463,0.81934c0.29492,0.05908,0.59766-0.01855,0.8291-0.20801
		c0.23145-0.18994,0.36523-0.47363,0.36523-0.77295V3.04862c7.66998,0.47705,13.92193,6.59064,14.55615,14.2522
		c0.03418,0.42279,0.04694,0.84271,0.04858,1.2608C41.60183,18.98075,41.58419,19.40385,41.54928,19.82963z M26.99899,38.66264
		V30.0684c1.43576,0.37723,2.38196,0.88411,3.7085,0.51514c1.22803-0.31982,2.22656-1.33154,2.54687-2.58691
		c0.27686-1.13135,0.03223-2.29395-0.67139-3.18994c-1.88326-2.39916-4.25201-1.02429-5.58398-0.66699v-2.31006h5.24512
		c1.58988,0,0.82127-2.39319,0.25012-3.88068c-0.14105-0.38947-0.20813-0.60114-0.20813-0.85272
		c0-1.90162,2.79483-2.2899,3.26013-0.35852c0.29019,1.21806-2.10464,5.09192,0.13782,5.09192h5.57471
		c-0.44141,2.08691-1.29932,4.06689-2.51123,5.78223c-2.47754,3.50342-4.36426,7.21729-5.61426,11.05078H26.99899z
		 M31.32076,48.39017c-0.01514,0.34619-0.31494,0.61768-0.68213,0.61768h-9.29395c-0.35986,0-0.66553-0.31152-0.68213-0.69189
		c-0.0329-0.82581-0.10364-1.64935-0.19171-2.47119h5.88556c0.55225,0,1-0.44775,1-1s-0.44775-1-1-1h-6.15576
		c-0.17267-1.06317-0.38074-2.12085-0.64508-3.16553h12.98004C31.85525,43.21616,31.44766,45.80296,31.32076,48.39017z"/></svg>