<svg xmlns="http://www.w3.org/2000/svg"  viewBox="0 0 48 48" width="48px" height="48px"><linearGradient id="Hu7ysVsFecGuYNQ0wpqwUa" x1="43.311" x2="38.034" y1="45.447" y2="39.915" gradientTransform="matrix(1 0 0 -1 0 50)" gradientUnits="userSpaceOnUse"><stop offset="0" stop-color="#f1f7fe" stop-opacity="0"/><stop offset=".006" stop-color="#edf5fe" stop-opacity=".012"/><stop offset=".104" stop-color="#b8d5fa" stop-opacity=".2"/><stop offset=".2" stop-color="#8bbaf6" stop-opacity=".384"/><stop offset=".291" stop-color="#69a5f3" stop-opacity=".559"/><stop offset=".377" stop-color="#5096f2" stop-opacity=".725"/><stop offset=".456" stop-color="#418df0" stop-opacity=".876"/><stop offset=".52" stop-color="#3c8af0"/><stop offset=".585" stop-color="#408df0" stop-opacity=".864"/><stop offset=".657" stop-color="#4e95f1" stop-opacity=".715"/><stop offset=".732" stop-color="#64a2f3" stop-opacity=".559"/><stop offset=".808" stop-color="#82b4f5" stop-opacity=".399"/><stop offset=".887" stop-color="#aaccf8" stop-opacity=".236"/><stop offset=".965" stop-color="#dae9fc" stop-opacity=".072"/><stop offset="1" stop-color="#f1f7fe" stop-opacity="0"/></linearGradient><path fill="url(#Hu7ysVsFecGuYNQ0wpqwUa)" d="M38.5,10c-0.1,0-0.3,0-0.4-0.1c-0.2-0.2-0.2-0.5,0-0.7l4-4c0.2-0.2,0.5-0.2,0.7,0s0.2,0.5,0,0.7l-4,4	C38.8,10,38.6,10,38.5,10z"/><linearGradient id="Hu7ysVsFecGuYNQ0wpqwUb" x1="36.5" x2="36.5" y1="47.197" y2="41.112" gradientTransform="matrix(1 0 0 -1 0 50)" gradientUnits="userSpaceOnUse"><stop offset="0" stop-color="#f1f7fe" stop-opacity="0"/><stop offset=".006" stop-color="#edf5fe" stop-opacity=".012"/><stop offset=".104" stop-color="#b8d5fa" stop-opacity=".2"/><stop offset=".2" stop-color="#8bbaf6" stop-opacity=".384"/><stop offset=".291" stop-color="#69a5f3" stop-opacity=".559"/><stop offset=".377" stop-color="#5096f2" stop-opacity=".725"/><stop offset=".456" stop-color="#418df0" stop-opacity=".876"/><stop offset=".52" stop-color="#3c8af0"/><stop offset=".585" stop-color="#408df0" stop-opacity=".864"/><stop offset=".657" stop-color="#4e95f1" stop-opacity=".715"/><stop offset=".732" stop-color="#64a2f3" stop-opacity=".559"/><stop offset=".808" stop-color="#82b4f5" stop-opacity=".399"/><stop offset=".887" stop-color="#aaccf8" stop-opacity=".236"/><stop offset=".965" stop-color="#dae9fc" stop-opacity=".072"/><stop offset="1" stop-color="#f1f7fe" stop-opacity="0"/></linearGradient><path fill="url(#Hu7ysVsFecGuYNQ0wpqwUb)" d="M36.5,9C36.2,9,36,8.8,36,8.5v-5C36,3.2,36.2,3,36.5,3S37,3.2,37,3.5v5C37,8.8,36.8,9,36.5,9z"/><linearGradient id="Hu7ysVsFecGuYNQ0wpqwUc" x1="39" x2="45" y1="38.5" y2="38.5" gradientTransform="matrix(1 0 0 -1 0 50)" gradientUnits="userSpaceOnUse"><stop offset="0" stop-color="#f1f7fe" stop-opacity="0"/><stop offset=".006" stop-color="#edf5fe" stop-opacity=".012"/><stop offset=".104" stop-color="#b8d5fa" stop-opacity=".2"/><stop offset=".2" stop-color="#8bbaf6" stop-opacity=".384"/><stop offset=".291" stop-color="#69a5f3" stop-opacity=".559"/><stop offset=".377" stop-color="#5096f2" stop-opacity=".725"/><stop offset=".456" stop-color="#418df0" stop-opacity=".876"/><stop offset=".52" stop-color="#3c8af0"/><stop offset=".585" stop-color="#408df0" stop-opacity=".864"/><stop offset=".657" stop-color="#4e95f1" stop-opacity=".715"/><stop offset=".732" stop-color="#64a2f3" stop-opacity=".559"/><stop offset=".808" stop-color="#82b4f5" stop-opacity=".399"/><stop offset=".887" stop-color="#aaccf8" stop-opacity=".236"/><stop offset=".965" stop-color="#dae9fc" stop-opacity=".072"/><stop offset="1" stop-color="#f1f7fe" stop-opacity="0"/></linearGradient><path fill="url(#Hu7ysVsFecGuYNQ0wpqwUc)" d="M44.5,12h-5c-0.3,0-0.5-0.2-0.5-0.5s0.2-0.5,0.5-0.5h5c0.3,0,0.5,0.2,0.5,0.5S44.8,12,44.5,12z"/><linearGradient id="Hu7ysVsFecGuYNQ0wpqwUd" x1="5.022" x2="9.809" y1="6.834" y2="11.983" gradientTransform="matrix(1 0 0 -1 0 50)" gradientUnits="userSpaceOnUse"><stop offset="0" stop-color="#f1f7fe" stop-opacity="0"/><stop offset=".006" stop-color="#edf5fe" stop-opacity=".012"/><stop offset=".104" stop-color="#b8d5fa" stop-opacity=".2"/><stop offset=".2" stop-color="#8bbaf6" stop-opacity=".384"/><stop offset=".291" stop-color="#69a5f3" stop-opacity=".559"/><stop offset=".377" stop-color="#5096f2" stop-opacity=".725"/><stop offset=".456" stop-color="#418df0" stop-opacity=".876"/><stop offset=".52" stop-color="#3c8af0"/><stop offset=".585" stop-color="#408df0" stop-opacity=".864"/><stop offset=".657" stop-color="#4e95f1" stop-opacity=".715"/><stop offset=".732" stop-color="#64a2f3" stop-opacity=".559"/><stop offset=".808" stop-color="#82b4f5" stop-opacity=".399"/><stop offset=".887" stop-color="#aaccf8" stop-opacity=".236"/><stop offset=".965" stop-color="#dae9fc" stop-opacity=".072"/><stop offset="1" stop-color="#f1f7fe" stop-opacity="0"/></linearGradient><path fill="url(#Hu7ysVsFecGuYNQ0wpqwUd)" d="M5.5,43c-0.1,0-0.3,0-0.4-0.1c-0.2-0.2-0.2-0.5,0-0.7l4-4c0.2-0.2,0.5-0.2,0.7,0s0.2,0.5,0,0.7l-4,4 C5.8,43,5.6,43,5.5,43z"/><linearGradient id="Hu7ysVsFecGuYNQ0wpqwUe" x1="11.5" x2="11.5" y1="11.197" y2="4.878" gradientTransform="matrix(1 0 0 -1 0 50)" gradientUnits="userSpaceOnUse"><stop offset="0" stop-color="#f1f7fe" stop-opacity="0"/><stop offset=".006" stop-color="#edf5fe" stop-opacity=".012"/><stop offset=".104" stop-color="#b8d5fa" stop-opacity=".2"/><stop offset=".2" stop-color="#8bbaf6" stop-opacity=".384"/><stop offset=".291" stop-color="#69a5f3" stop-opacity=".559"/><stop offset=".377" stop-color="#5096f2" stop-opacity=".725"/><stop offset=".456" stop-color="#418df0" stop-opacity=".876"/><stop offset=".52" stop-color="#3c8af0"/><stop offset=".585" stop-color="#408df0" stop-opacity=".864"/><stop offset=".657" stop-color="#4e95f1" stop-opacity=".715"/><stop offset=".732" stop-color="#64a2f3" stop-opacity=".559"/><stop offset=".808" stop-color="#82b4f5" stop-opacity=".399"/><stop offset=".887" stop-color="#aaccf8" stop-opacity=".236"/><stop offset=".965" stop-color="#dae9fc" stop-opacity=".072"/><stop offset="1" stop-color="#f1f7fe" stop-opacity="0"/></linearGradient><path fill="url(#Hu7ysVsFecGuYNQ0wpqwUe)" d="M11.5,45c-0.3,0-0.5-0.2-0.5-0.5v-5c0-0.3,0.2-0.5,0.5-0.5s0.5,0.2,0.5,0.5v5C12,44.8,11.8,45,11.5,45z"/><linearGradient id="Hu7ysVsFecGuYNQ0wpqwUf" x1="3" x2="9" y1="13.5" y2="13.5" gradientTransform="matrix(1 0 0 -1 0 50)" gradientUnits="userSpaceOnUse"><stop offset="0" stop-color="#f1f7fe" stop-opacity="0"/><stop offset=".006" stop-color="#edf5fe" stop-opacity=".012"/><stop offset=".104" stop-color="#b8d5fa" stop-opacity=".2"/><stop offset=".2" stop-color="#8bbaf6" stop-opacity=".384"/><stop offset=".291" stop-color="#69a5f3" stop-opacity=".559"/><stop offset=".377" stop-color="#5096f2" stop-opacity=".725"/><stop offset=".456" stop-color="#418df0" stop-opacity=".876"/><stop offset=".52" stop-color="#3c8af0"/><stop offset=".585" stop-color="#408df0" stop-opacity=".864"/><stop offset=".657" stop-color="#4e95f1" stop-opacity=".715"/><stop offset=".732" stop-color="#64a2f3" stop-opacity=".559"/><stop offset=".808" stop-color="#82b4f5" stop-opacity=".399"/><stop offset=".887" stop-color="#aaccf8" stop-opacity=".236"/><stop offset=".965" stop-color="#dae9fc" stop-opacity=".072"/><stop offset="1" stop-color="#f1f7fe" stop-opacity="0"/></linearGradient><path fill="url(#Hu7ysVsFecGuYNQ0wpqwUf)" d="M8.5,37h-5C3.2,37,3,36.8,3,36.5S3.2,36,3.5,36h5C8.8,36,9,36.2,9,36.5S8.8,37,8.5,37z"/><radialGradient id="Hu7ysVsFecGuYNQ0wpqwUg" cx="70.491" cy="236.143" r="19.698" gradientTransform="rotate(-45.001 -227.907 199.23) scale(1 1.0557)" gradientUnits="userSpaceOnUse"><stop offset="0" stop-color="#ffe16e"/><stop offset=".629" stop-color="#ffd226"/><stop offset=".75" stop-color="#fdcd23"/><stop offset=".9" stop-color="#f6bd1b"/><stop offset="1" stop-color="#f0af13"/></radialGradient><path fill="url(#Hu7ysVsFecGuYNQ0wpqwUg)" d="M29.8,12.8c-1.7,0.6-2.6,2.4-2.2,4l0.9,3.4l-2.5-2.5c-2.7-2.5-7.9-7.4-8-7.5c-0.7-0.7-1.5-1.1-2.3-1.2	c-0.5,0-0.9,0.1-1.2,0.4c-0.8,0.8-0.6,2.4,0.5,3.6l8.2,9.3c-4.3-4.1-11.5-11-11.6-11c-1.2-1.2-2.7-1.4-3.6-0.6c0,0,0,0,0,0	c-0.3,0.3-0.5,0.7-0.5,1.2c0,0.8,0.4,1.7,1.1,2.3l10.6,12c-3.6-3.4-10.4-9.6-10.5-9.7C7.6,15.4,6,15.1,5.2,16c0,0,0,0,0,0	c-0.3,0.3-0.5,0.7-0.4,1.2c0,0.8,0.4,1.6,1.1,2.3L16,29.7c0,0-7.5-6.1-7.5-6.1c-1.3-1.1-2.8-1.2-3.6-0.4c-0.3,0.3-0.4,0.7-0.4,1.2	c0,0.8,0.5,1.6,1.2,2.2L17.9,39c4.3,4.3,11.3,4.3,15.6,0l2.7-2.7c3.6-3.6,4.3-9.3,1.5-13.7l-5.8-9.1C31.4,12.8,30.6,12.5,29.8,12.8z"/><path fill="#c87e0e" d="M29.8,12.8c-1.7,0.6-2.6,2.4-2.2,4l0.9,3.4l-2.5-2.5c-2.7-2.5-7.9-7.4-8-7.5c-0.7-0.7-1.5-1.1-2.3-1.2	c-0.5,0-0.9,0.1-1.2,0.4c-0.8,0.8-0.6,2.4,0.5,3.6l8.2,9.3c-4.3-4.1-11.5-11-11.6-11c-1.2-1.2-2.7-1.4-3.6-0.6c0,0,0,0,0,0	c-0.3,0.3-0.5,0.7-0.5,1.2c0,0.8,0.4,1.7,1.1,2.3l10.6,12c-3.6-3.4-10.4-9.6-10.5-9.7C7.6,15.4,6,15.1,5.2,16c0,0,0,0,0,0	c-0.3,0.3-0.5,0.7-0.4,1.2c0,0.8,0.4,1.6,1.1,2.3L16,29.7c0,0-7.5-6.1-7.5-6.1c-1.3-1.1-2.8-1.2-3.6-0.4c-0.3,0.3-0.4,0.7-0.4,1.2	c0,0.8,0.5,1.6,1.2,2.2L17.9,39c4.3,4.3,11.3,4.3,15.6,0l2.7-2.7c3.6-3.6,4.3-9.3,1.5-13.7l-5.8-9.1C31.4,12.8,30.6,12.5,29.8,12.8z" opacity=".25"/><path fill="#303030" d="M31.1,16.2l0.9,3.4l-2.5-2.5c-0.5-0.5-1.2-1.1-1.8-1.7c-0.1,0.5-0.1,1,0,1.5l0.9,3.4l-2.5-2.5	c-2.7-2.5-7.9-7.4-8-7.5c-0.2-0.2-0.3-0.3-0.5-0.4c-0.1,0.8,0.2,1.8,1,2.6l8.2,9.3c-4.3-4.1-11.5-11-11.6-11c-0.3-0.3-0.6-0.5-1-0.7	c-0.4,0.9-0.1,2.1,0.8,3.1l8.2,9.3c-4.3-4.1-11.5-11-11.6-11c-0.2-0.2-0.3-0.3-0.5-0.4c0,0.1,0,0.2,0,0.4c0,0.8,0.4,1.7,1.1,2.3	l10.6,12c-3.6-3.4-10.4-9.6-10.5-9.7c-0.9-0.9-2.1-1.2-3-0.9l10,11.3c-3.6-3.4-10.4-9.6-10.5-9.7c-0.2-0.2-0.3-0.3-0.5-0.4	c0,0.1,0,0.3,0,0.4c0,0.8,0.4,1.6,1.1,2.3L19.4,29c0,0-7.5-6.1-7.5-6.1c-1.1-0.9-2.4-1.2-3.3-0.7l7.3,7.4c0,0-7.5-6.1-7.5-6.1	c-0.2-0.1-0.3-0.2-0.5-0.4c0,0.2-0.1,0.4-0.1,0.6c0,0.8,0.5,1.6,1.2,2.2l12.2,12.4c2.2,2.2,5.1,3.3,8,3.2c1.5-0.5,2.9-1.4,4.1-2.6	l2.7-2.7c3.6-3.6,4.3-9.3,1.5-13.7l-5.8-9.1c-0.1-0.1-0.1-0.1-0.2-0.2C31.1,14.1,30.8,15.1,31.1,16.2z" opacity=".23"/><radialGradient id="Hu7ysVsFecGuYNQ0wpqwUh" cx="74.415" cy="238.143" r="19.698" gradientTransform="rotate(-45.001 -228.041 199.285) scale(1 1.0557)" gradientUnits="userSpaceOnUse"><stop offset="0" stop-color="#ffe16e"/><stop offset=".629" stop-color="#ffd226"/><stop offset=".75" stop-color="#fdcd23"/><stop offset=".9" stop-color="#f6bd1b"/><stop offset="1" stop-color="#f0af13"/></radialGradient><path fill="url(#Hu7ysVsFecGuYNQ0wpqwUh)" d="M34,11.4c-1.7,0.6-2.6,2.4-2.2,4l0.9,3.4l-2.5-2.5c-2.7-2.5-7.9-7.4-8-7.5c-0.7-0.7-1.5-1.1-2.3-1.2	c-0.5,0-0.9,0.1-1.2,0.4c-0.8,0.8-0.6,2.4,0.5,3.6l8.2,9.3C23,16.9,15.8,10,15.8,10c-1.2-1.2-2.7-1.4-3.6-0.6c0,0,0,0,0,0	c-0.3,0.3-0.5,0.7-0.5,1.2c0,0.8,0.4,1.7,1.1,2.3l10.6,12c-3.6-3.4-10.4-9.6-10.5-9.7c-1.2-1.1-2.7-1.4-3.6-0.6c0,0,0,0,0,0	c-0.3,0.3-0.5,0.7-0.4,1.2c0,0.8,0.4,1.6,1.1,2.3l10.1,10.2c0,0-7.5-6.1-7.5-6.1C11.4,21.1,9.8,21,9,21.8c-0.3,0.3-0.4,0.7-0.4,1.2	c0,0.8,0.5,1.6,1.2,2.2l12.2,12.4c4.3,4.3,11.3,4.3,15.6,0l2.7-2.7c3.6-3.6,4.3-9.3,1.5-13.7l-5.8-9.1C35.6,11.4,34.8,11.2,34,11.4z"/><radialGradient id="Hu7ysVsFecGuYNQ0wpqwUi" cx="-1621.088" cy="331.455" r="4.385" gradientTransform="matrix(.2328 -.2435 1.1594 1.1086 8.448 -741.793)" gradientUnits="userSpaceOnUse"><stop offset=".425" stop-color="#ffe16e"/><stop offset="1" stop-color="#ffe16e" stop-opacity="0"/></radialGradient><path fill="url(#Hu7ysVsFecGuYNQ0wpqwUi)" d="M16.4,19.2c3.2,3.1,5.3,6.1,4.6,6.7c-0.6,0.7-3.7-1.3-6.9-4.3s-5.3-6.1-4.6-6.7S13.3,16.1,16.4,19.2z" opacity=".52"/><radialGradient id="Hu7ysVsFecGuYNQ0wpqwUj" cx="-1695.876" cy="335.986" r="4.385" gradientTransform="matrix(.268 -.2577 1.1858 1.2336 74.362 -835.706)" gradientUnits="userSpaceOnUse"><stop offset=".425" stop-color="#ffe16e"/><stop offset="1" stop-color="#ffe16e" stop-opacity="0"/></radialGradient><path fill="url(#Hu7ysVsFecGuYNQ0wpqwUj)" d="M19.6,14.4c3.3,3.4,5.3,6.7,4.6,7.4c-0.7,0.7-4-1.5-7.2-4.9s-5.3-6.7-4.6-7.4C13.1,8.9,16.3,11,19.6,14.4z" opacity=".52"/><radialGradient id="Hu7ysVsFecGuYNQ0wpqwUk" cx="-1742.167" cy="429.292" r="4.385" gradientTransform="matrix(.2629 -.2528 1.1033 1.1477 8.736 -919.08)" gradientUnits="userSpaceOnUse"><stop offset=".425" stop-color="#ffe16e"/><stop offset="1" stop-color="#ffe16e" stop-opacity="0"/></radialGradient><path fill="url(#Hu7ysVsFecGuYNQ0wpqwUk)" d="M25.6,12.8c3,3.2,4.9,6.3,4.2,7c-0.7,0.7-3.7-1.3-6.8-4.5s-4.9-6.3-4.2-7C19.5,7.6,22.5,9.6,25.6,12.8z" opacity=".52"/><radialGradient id="Hu7ysVsFecGuYNQ0wpqwUl" cx="-2050.893" cy="373.016" r="4.385" gradientTransform="matrix(.2592 -.288 1.0103 .9092 168.918 -903.374)" gradientUnits="userSpaceOnUse"><stop offset=".425" stop-color="#ffe16e"/><stop offset="1" stop-color="#ffe16e" stop-opacity="0"/></radialGradient><path fill="url(#Hu7ysVsFecGuYNQ0wpqwUl)" d="M15.5,25.1c2.8,2.5,4.5,5.2,3.8,5.9s-3.5-0.6-6.3-3.1s-4.5-5.2-3.8-5.9C9.8,21.2,12.7,22.6,15.5,25.1z" opacity=".52"/></svg>