<svg xmlns="http://www.w3.org/2000/svg" xmlns:xlink="http://www.w3.org/1999/xlink" viewBox="0 0 48 48" width="48px" height="48px"><defs><linearGradient id="ecyDsS0kOAldu~rCsLCyGa" x1="6" x2="42" y1="32.5" y2="32.5" gradientUnits="userSpaceOnUse"><stop offset="0" stop-color="#cc6700"/><stop offset=".116" stop-color="#ce7507"/><stop offset=".351" stop-color="#d38c13"/><stop offset=".5" stop-color="#d49417"/><stop offset="1" stop-color="#cc6700"/></linearGradient><linearGradient id="ecyDsS0kOAldu~rCsLCyGb" x1="12.308" x2="35.692" y1="34.692" y2="11.308" gradientUnits="userSpaceOnUse"><stop offset="0" stop-color="#e07000"/><stop offset=".144" stop-color="#e38309"/><stop offset=".362" stop-color="#e79a15"/><stop offset=".5" stop-color="#e8a219"/><stop offset="1" stop-color="#e07000"/></linearGradient><linearGradient id="ecyDsS0kOAldu~rCsLCyGc" y1="15.472" y2="15.472" xlink:href="#ecyDsS0kOAldu~rCsLCyGa"/><linearGradient id="ecyDsS0kOAldu~rCsLCyGd" x1="11.621" x2="36.379" y1="35.379" y2="10.621" gradientUnits="userSpaceOnUse"><stop offset="0" stop-color="#f2ad00"/><stop offset=".124" stop-color="#f6c43b"/><stop offset=".249" stop-color="#fad86e"/><stop offset=".358" stop-color="#fde794"/><stop offset=".445" stop-color="#fef0ab"/><stop offset=".5" stop-color="#fff3b3"/><stop offset="1" stop-color="#f2ad00"/></linearGradient><linearGradient id="ecyDsS0kOAldu~rCsLCyGe" x1="17.177" x2="30.823" y1="30.945" y2="17.299" gradientUnits="userSpaceOnUse"><stop offset="0" stop-color="#f2ad00"/><stop offset=".145" stop-color="#f6c43b"/><stop offset=".29" stop-color="#fad86e"/><stop offset=".416" stop-color="#fde794"/><stop offset=".517" stop-color="#fef0ab"/><stop offset=".581" stop-color="#fff3b3"/><stop offset="1" stop-color="#f2ad00"/></linearGradient></defs><g data-name="star coin"><path fill="url(#ecyDsS0kOAldu~rCsLCyGa)" d="M6,23v2c0,9.389,8.059,17,18,17s18-7.611,18-17V23Z"/><ellipse cx="24" cy="23" fill="url(#ecyDsS0kOAldu~rCsLCyGb)" rx="17" ry="16.056"/><path fill="none" stroke="url(#ecyDsS0kOAldu~rCsLCyGc)" stroke-miterlimit="10" stroke-width="2" d="M7,24C7,15.133,14.611,7.944,24,7.944S41,15.133,41,24"/><path fill="url(#ecyDsS0kOAldu~rCsLCyGd)" d="M24,8c8.822,0,16,6.729,16,15S32.822,38,24,38,8,31.271,8,23,15.178,8,24,8m0-2C14.059,6,6,13.611,6,23s8.059,17,18,17,18-7.611,18-17S33.941,6,24,6Z"/><path fill="url(#ecyDsS0kOAldu~rCsLCyGe)" d="M24.663,13.958,26.7,19.966h6.5a.7.7,0,0,1,.4,1.274l-5.233,3.649,2.014,5.949a.7.7,0,0,1-1.063.8L24,27.931l-5.315,3.706a.7.7,0,0,1-1.063-.8l2.014-5.949L14.4,21.24a.7.7,0,0,1,.4-1.274h6.5l2.034-6.008A.7.7,0,0,1,24.663,13.958Z"/></g></svg>