<svg xmlns="http://www.w3.org/2000/svg"  viewBox="0 0 48 48" width="48px" height="48px"><radialGradient id="kQvv7LcP_VCBiM~cpKaU_a" cx="16.806" cy="16.701" r="23.479" gradientUnits="userSpaceOnUse"><stop offset="0" stop-color="#c2b8ff"/><stop offset=".427" stop-color="#a475e3"/><stop offset=".813" stop-color="#8b3ecd"/><stop offset="1" stop-color="#8129c4"/></radialGradient><path fill="url(#kQvv7LcP_VCBiM~cpKaU_a)" d="M32.589,8.533c-5.113,0-8.589,3.436-8.589,3.436s-3.457-3.436-8.589-3.436	c-5.692,0-10.307,4.615-10.307,10.307C5.104,29.147,24,39.454,24,39.454S42.896,29.147,42.896,18.84	C42.896,13.147,38.282,8.533,32.589,8.533z"/><linearGradient id="kQvv7LcP_VCBiM~cpKaU_b" x1="24.224" x2="23.474" y1="10.495" y2="38.413" gradientUnits="userSpaceOnUse"><stop offset=".147" stop-color="#812ac4" stop-opacity="0"/><stop offset=".845" stop-color="#6c21ad"/></linearGradient><path fill="url(#kQvv7LcP_VCBiM~cpKaU_b)" d="M32.589,8.533c-5.113,0-8.589,3.436-8.589,3.436s-3.457-3.436-8.589-3.436	c-5.692,0-10.307,4.615-10.307,10.307C5.104,29.147,24,39.454,24,39.454S42.896,29.147,42.896,18.84	C42.896,13.147,38.282,8.533,32.589,8.533z"/><radialGradient id="kQvv7LcP_VCBiM~cpKaU_c" cx="-4.143" cy="110.098" r="7.589" gradientTransform="matrix(.8237 -.567 .3817 .5545 -23.452 -47.978)" gradientUnits="userSpaceOnUse"><stop offset=".129" stop-color="#d2d2fc"/><stop offset=".834" stop-color="#d2c7ff" stop-opacity="0"/></radialGradient><path fill="url(#kQvv7LcP_VCBiM~cpKaU_c)" d="M21.164,11.949c1.267,2.195-0.395,5.528-3.714,7.444s-7.036,1.69-8.303-0.506	s0.395-5.528,3.714-7.444S19.897,9.753,21.164,11.949z" opacity=".69"/></svg>