<svg xmlns="http://www.w3.org/2000/svg"  viewBox="0 0 48 48" width="48px" height="48px"><path fill="#fff1b8" d="M22.994,18.728l4.487-0.015c1.126,0.01,2.408,0.985,2.575,1.934l0.967,7.033	c0.031,0.292-0.206,0.673-0.102,0.84c0.281-0.219,0.448-0.573,0.396-0.949l-0.813-6.516c-0.198-1.564-1.533-2.742-3.107-2.742	h-4.246h-0.147L22.994,18.728z"/><path fill="#fee89a" d="M23.785,19.183c0.102,0,3.832,0.064,3.846,0.164c0.901,0.008,2.082,2.036,2.216,2.795	c0.014,0.11,0.886,5.815,0.996,5.801c0.063,0.229-0.093,0.521,0.017,0.632c0.279-0.217,0.445-0.569,0.393-0.941l-0.806-6.463	c-0.196-1.551-1.52-2.719-3.081-2.719h-4.365v0.549L23.785,19.183z"/><path fill="#fde07c" d="M24.646,19.637c0.204,0,3.106,0.143,3.134,0.343c0.676,0.006,1.757,3.087,1.857,3.656	c0.028,0.22,0.804,4.596,1.024,4.568c0.095,0.167,0.02,0.368,0.135,0.424c0.277-0.215,0.441-0.564,0.39-0.933l-0.8-6.409	c-0.195-1.538-1.508-2.697-3.056-2.697h-4.331v0.8L24.646,19.637z"/><path fill="#fdd75e" d="M25.44,20.091c0.306,0,2.381,0.222,2.423,0.522c0.45,0.004,1.431,4.138,1.498,4.517	c0.042,0.33,0.723,3.377,1.053,3.335c0.126,0.105,0.134,0.215,0.253,0.216c0.275-0.214,0.437-0.559,0.386-0.925L30.261,21.4	c-0.193-1.526-1.495-2.675-3.031-2.675h-4.236l0.007,1.2L25.44,20.091z"/><path fill="#fccf40" d="M26.368,20.546c0.408,0,1.655,0.301,1.711,0.701c0.225,0.002,1.106,5.189,1.139,5.379	c0.056,0.44,0.641,2.159,1.081,2.103c0.158,0.042,0.247,0.063,0.372,0.008c0.272-0.212,0.434-0.555,0.383-0.918l-0.787-6.303	c-0.192-1.513-1.483-2.652-3.005-2.652h-4.269l-0.007,1.6L26.368,20.546z"/><path fill="#fff1b8" d="M25.005,18.728l-4.487-0.015c-1.126,0.01-2.408,0.985-2.575,1.934l-0.967,7.033	c-0.031,0.292,0.206,0.673,0.102,0.84c-0.281-0.219-0.448-0.573-0.396-0.949l0.813-6.516c0.198-1.564,1.533-2.742,3.107-2.742h4.246	h0.147L25.005,18.728z"/><path fill="#fee89a" d="M24.213,19.183c-0.102,0-3.832,0.064-3.846,0.164c-0.901,0.008-2.082,2.036-2.216,2.795	c-0.014,0.11-0.886,5.815-0.996,5.801c-0.063,0.229,0.093,0.521-0.017,0.632c-0.279-0.217-0.445-0.569-0.393-0.941l0.806-6.463	c0.196-1.551,1.52-2.719,3.081-2.719h4.365v0.549L24.213,19.183z"/><path fill="#fde07c" d="M23.352,19.637c-0.204,0-3.106,0.143-3.134,0.343c-0.676,0.006-1.757,3.087-1.857,3.656	c-0.028,0.22-0.804,4.596-1.024,4.568c-0.095,0.167-0.02,0.368-0.135,0.424c-0.277-0.215-0.441-0.564-0.39-0.933l0.8-6.409	c0.195-1.538,1.508-2.697,3.056-2.697h4.331v0.8L23.352,19.637z"/><path fill="#fdd75e" d="M22.558,20.091c-0.306,0-2.381,0.222-2.423,0.522c-0.45,0.004-1.431,4.138-1.498,4.517	c-0.042,0.33-0.723,3.377-1.053,3.335c-0.126,0.105-0.134,0.215-0.253,0.216c-0.275-0.214-0.437-0.559-0.386-0.925l0.793-6.356	c0.193-1.526,1.495-2.675,3.031-2.675h4.236l-0.007,1.2L22.558,20.091z"/><path fill="#fccf40" d="M21.63,20.546c-0.408,0-1.655,0.301-1.711,0.701c-0.225,0.002-1.106,5.189-1.139,5.379	c-0.056,0.44-0.641,2.159-1.081,2.103c-0.158,0.042-0.247,0.063-0.372,0.008c-0.272-0.212-0.434-0.555-0.383-0.918l0.787-6.303	c0.192-1.513,1.483-2.652,3.005-2.652h4.269l0.007,1.6L21.63,20.546z"/><path fill="#fbc622" d="M22.999,21h2.115h2.115c0.51,0,0.93,0.38,1,0.88l0.39,3.12l0.39,3.12c0.07,0.55,0.56,0.94,1.11,0.87	c0.19-0.02,0.36-0.09,0.49-0.2c0.27-0.21,0.43-0.55,0.38-0.91l-0.39-3.125l-0.39-3.125c-0.19-1.5-1.47-2.63-2.98-2.63h-2.115h-2.115	V21z"/><radialGradient id="YX6Xbdxclnk~5unJ3IwLDa" cx="26.828" cy="24.786" r="4.219" gradientTransform="matrix(1 0 0 -1.0407 0 51.008)" gradientUnits="userSpaceOnUse"><stop offset="0" stop-color="#f9bf20"/><stop offset=".856" stop-color="#f9bf20"/><stop offset=".997" stop-color="#f9bf20"/></radialGradient><path fill="url(#YX6Xbdxclnk~5unJ3IwLDa)" d="M30.001,21.642c-0.188-1.486-1.462-2.454-2.956-2.453c-0.014,0-0.322,0-0.336,0h-1.72h-1.457	L23,19.26v0.173L23.205,21h0.838h1.213h1.302c0.032,0,0.732,0.01,0.755,0.028c0.333,0.023,0.62,0.213,0.78,0.491	c0.069,0.106,0.122,0.279,0.141,0.411l0.38,3.04l0.029,0.228l0.35,2.803c0.039,0.306,0.245,0.673,0.503,0.793	c0.145,0.109,0.305,0.142,0.485,0.119c0.174-0.022,0.339-0.09,0.484-0.188c0.237-0.181,0.372-0.514,0.322-0.889	c-0.01-0.091-0.362-2.907-0.382-3.044C30.373,24.556,30.001,21.642,30.001,21.642z"/><radialGradient id="YX6Xbdxclnk~5unJ3IwLDb" cx="26.731" cy="24.762" r="4.108" gradientTransform="matrix(1 0 0 -1.0407 0 51.007)" gradientUnits="userSpaceOnUse"><stop offset="0" stop-color="#f8b71e"/><stop offset=".856" stop-color="#f8b71e"/><stop offset=".997" stop-color="#f8b71e"/></radialGradient><path fill="url(#YX6Xbdxclnk~5unJ3IwLDb)" d="M29.793,21.653c-0.186-1.472-1.454-2.277-2.931-2.275c-0.028,0-0.301,0-0.329,0h-1.669h-1.421	l-0.444,0.142v0.174L23.411,21h0.81h1.177h1.272c0.064,0,0.681,0.021,0.729,0.056c0.313,0.045,0.578,0.245,0.718,0.524	c0.058,0.088,0.109,0.292,0.125,0.402l0.37,2.959l0.028,0.225l0.34,2.718c0.032,0.255,0.221,0.699,0.436,0.799	c0.127,0.143,0.263,0.178,0.43,0.155c0.158-0.022,0.317-0.09,0.478-0.177c0.204-0.151,0.314-0.478,0.265-0.868	c-0.019-0.183-0.335-2.689-0.374-2.962C30.146,24.357,29.793,21.653,29.793,21.653z"/><radialGradient id="YX6Xbdxclnk~5unJ3IwLDc" cx="26.633" cy="24.737" r="3.997" gradientTransform="matrix(1 0 0 -1.0407 0 51.006)" gradientUnits="userSpaceOnUse"><stop offset="0" stop-color="#f6b01c"/><stop offset=".856" stop-color="#f6b01c"/><stop offset=".997" stop-color="#f6b01c"/></radialGradient><path fill="url(#YX6Xbdxclnk~5unJ3IwLDc)" d="M29.585,21.665c-0.185-1.458-1.446-2.101-2.907-2.098c-0.042,0-0.28,0-0.322,0h-1.617h-1.384	L23,19.78v0.175L23.618,21H24.4h1.141h1.241c0.095,0,0.631,0.031,0.702,0.084c0.294,0.068,0.535,0.276,0.655,0.556	c0.046,0.071,0.096,0.304,0.109,0.392l0.36,2.879l0.028,0.222l0.329,2.632c0.026,0.204,0.198,0.725,0.37,0.805	c0.11,0.177,0.22,0.215,0.375,0.19c0.142-0.022,0.296-0.089,0.472-0.165c0.171-0.122,0.256-0.443,0.207-0.847	c-0.029-0.274-0.307-2.47-0.367-2.881C29.92,24.158,29.585,21.665,29.585,21.665z"/><radialGradient id="YX6Xbdxclnk~5unJ3IwLDd" cx="26.537" cy="24.712" r="3.886" gradientTransform="matrix(1 0 0 -1.0407 0 51.005)" gradientUnits="userSpaceOnUse"><stop offset="0" stop-color="#f5a919"/><stop offset=".856" stop-color="#f5a919"/><stop offset=".997" stop-color="#f5a919"/></radialGradient><path fill="url(#YX6Xbdxclnk~5unJ3IwLDd)" d="M29.377,21.677c-0.183-1.444-1.439-1.924-2.882-1.921c-0.056,0-0.259,0.001-0.315,0.001	h-1.566h-1.347l-0.266,0.284v0.176L23.824,21h0.755h1.104h1.211c0.127,0,0.58,0.041,0.675,0.112	c0.274,0.091,0.493,0.308,0.593,0.588c0.035,0.053,0.083,0.317,0.093,0.383l0.35,2.799l0.027,0.218l0.318,2.547	c0.019,0.153,0.174,0.751,0.303,0.811c0.092,0.211,0.178,0.251,0.32,0.226c0.126-0.022,0.274-0.089,0.466-0.153	c0.139-0.092,0.199-0.407,0.15-0.826c-0.038-0.365-0.28-2.252-0.359-2.8C29.694,23.959,29.377,21.677,29.377,21.677z"/><radialGradient id="YX6Xbdxclnk~5unJ3IwLDe" cx="26.441" cy="24.688" r="3.776" gradientTransform="matrix(1 0 0 -1.0407 0 51.004)" gradientUnits="userSpaceOnUse"><stop offset="0" stop-color="#f3a217"/><stop offset=".856" stop-color="#f3a217"/><stop offset=".997" stop-color="#f3a217"/></radialGradient><path fill="url(#YX6Xbdxclnk~5unJ3IwLDe)" d="M29.168,21.689c-0.181-1.43-1.431-1.748-2.858-1.743c-0.07,0-0.238,0.001-0.308,0.001h-1.515	h-1.311l-0.178,0.355v0.177L24.03,21h0.727h1.068h1.18c0.159,0,0.529,0.052,0.649,0.14c0.254,0.114,0.45,0.339,0.53,0.62	c0.023,0.035,0.07,0.329,0.076,0.373l0.34,2.718l0.027,0.215l0.308,2.462c0.013,0.102,0.151,0.777,0.237,0.817	c0.075,0.245,0.136,0.288,0.265,0.262c0.11-0.022,0.253-0.089,0.46-0.142c0.106-0.063,0.141-0.371,0.092-0.805	c-0.048-0.456-0.252-2.034-0.351-2.718C29.467,23.761,29.168,21.689,29.168,21.689z"/><radialGradient id="YX6Xbdxclnk~5unJ3IwLDf" cx="26.347" cy="24.663" r="3.667" gradientTransform="matrix(1 0 0 -1.0407 0 51.003)" gradientUnits="userSpaceOnUse"><stop offset="0" stop-color="#f29a15"/><stop offset=".856" stop-color="#f29a15"/><stop offset=".997" stop-color="#f29a15"/></radialGradient><path fill="url(#YX6Xbdxclnk~5unJ3IwLDf)" d="M28.96,21.7c-0.179-1.416-1.423-1.572-2.833-1.566c-0.084,0-0.217,0.001-0.301,0.001h-1.463	h-1.274L23,20.561v0.178L24.236,21h0.7h1.032h1.15c0.191,0,0.479,0.062,0.622,0.168c0.235,0.136,0.408,0.371,0.467,0.652	c0.012,0.018,0.057,0.342,0.06,0.364l0.33,2.638l0.026,0.211l0.297,2.376c0.006,0.051,0.127,0.803,0.17,0.823	c0.057,0.278,0.093,0.325,0.21,0.298c0.094-0.022,0.232-0.088,0.454-0.13c0.073-0.034,0.083-0.335,0.034-0.785	c-0.057-0.548-0.225-1.816-0.343-2.637C29.241,23.562,28.96,21.7,28.96,21.7z"/><radialGradient id="YX6Xbdxclnk~5unJ3IwLDg" cx="26.256" cy="24.639" r="3.561" gradientTransform="matrix(1 0 0 -1.0407 0 51.002)" gradientUnits="userSpaceOnUse"><stop offset="0" stop-color="#f09313"/><stop offset=".856" stop-color="#f09313"/><stop offset=".997" stop-color="#f09313"/></radialGradient><path fill="url(#YX6Xbdxclnk~5unJ3IwLDg)" d="M22.999,21h2.115h2.115c0.51,0,0.93,0.38,1,0.88l0.39,3.12l0.39,3.12	c0.07,0.55,0.053,0.285,0.603,0.215c0.095-0.01-0.12-1.666-0.359-3.319c-0.239-1.653-0.501-3.304-0.501-3.304	c-0.19-1.5-1.593-1.388-3.103-1.388h-2.65V21z"/><path fill="#fbc622" d="M24.991,21h-2.115h-2.115c-0.51,0-0.93,0.38-1,0.88L19.371,25l-0.39,3.12	c-0.07,0.55-0.56,0.94-1.11,0.87c-0.19-0.02-0.36-0.09-0.49-0.2c-0.27-0.21-0.43-0.55-0.38-0.91l0.39-3.125l0.39-3.125	c0.19-1.5,1.47-2.63,2.98-2.63h2.115h2.115V21z"/><radialGradient id="YX6Xbdxclnk~5unJ3IwLDh" cx="-109.172" cy="24.786" r="4.219" gradientTransform="matrix(-1 0 0 -1.0407 -88.01 51.008)" gradientUnits="userSpaceOnUse"><stop offset="0" stop-color="#f9bf20"/><stop offset=".856" stop-color="#f9bf20"/><stop offset=".997" stop-color="#f9bf20"/></radialGradient><path fill="url(#YX6Xbdxclnk~5unJ3IwLDh)" d="M17.989,21.642c0.188-1.486,1.462-2.454,2.956-2.453c0.014,0,0.322,0,0.336,0h1.72h1.987	l0.002,0.071v0.173L24.785,21h-0.838h-1.213h-1.302c-0.032,0-0.732,0.01-0.755,0.028c-0.333,0.023-0.62,0.213-0.78,0.491	c-0.069,0.106-0.122,0.279-0.141,0.411l-0.38,3.04l-0.029,0.228l-0.35,2.803c-0.039,0.306-0.245,0.673-0.503,0.793	c-0.145,0.109-0.305,0.142-0.485,0.119c-0.174-0.022-0.339-0.09-0.484-0.188c-0.237-0.181-0.372-0.514-0.322-0.889	c0.01-0.091,0.362-2.907,0.382-3.044C17.618,24.556,17.989,21.642,17.989,21.642z"/><radialGradient id="YX6Xbdxclnk~5unJ3IwLDi" cx="-109.273" cy="24.762" r="4.11" gradientTransform="matrix(-1 0 0 -1.0407 -88.01 51.007)" gradientUnits="userSpaceOnUse"><stop offset="0" stop-color="#f8b71e"/><stop offset=".856" stop-color="#f8b71e"/><stop offset=".997" stop-color="#f8b71e"/></radialGradient><path fill="url(#YX6Xbdxclnk~5unJ3IwLDi)" d="M18.198,21.653c0.186-1.472,1.454-2.277,2.931-2.275c0.028,0,0.301,0,0.329,0h1.669h1.872	l-0.008,0.142v0.174L24.579,21h-0.81h-1.177H21.32c-0.064,0-0.681,0.021-0.729,0.056c-0.313,0.045-0.578,0.245-0.718,0.524	c-0.058,0.088-0.109,0.292-0.125,0.402l-0.37,2.959l-0.028,0.225l-0.34,2.718c-0.032,0.255-0.221,0.699-0.436,0.799	c-0.127,0.143-0.263,0.178-0.43,0.155c-0.158-0.022-0.317-0.09-0.478-0.177c-0.204-0.151-0.314-0.478-0.265-0.868	c0.019-0.183,0.335-2.689,0.374-2.962C17.844,24.357,18.198,21.653,18.198,21.653z"/><radialGradient id="YX6Xbdxclnk~5unJ3IwLDj" cx="-109.367" cy="24.737" r="3.997" gradientTransform="matrix(-1 0 0 -1.0407 -88.01 51.006)" gradientUnits="userSpaceOnUse"><stop offset="0" stop-color="#f6b01c"/><stop offset=".856" stop-color="#f6b01c"/><stop offset=".997" stop-color="#f6b01c"/></radialGradient><path fill="url(#YX6Xbdxclnk~5unJ3IwLDj)" d="M18.406,21.665c0.185-1.458,1.446-2.101,2.907-2.098c0.042,0,0.28,0,0.322,0h1.617h1.739	v0.213v0.175L24.373,21H23.59h-1.14h-1.241c-0.095,0-0.631,0.031-0.702,0.084c-0.294,0.068-0.535,0.276-0.655,0.556	c-0.046,0.071-0.096,0.304-0.109,0.392l-0.36,2.879l-0.028,0.222l-0.329,2.632c-0.026,0.204-0.198,0.725-0.37,0.805	c-0.11,0.177-0.22,0.215-0.375,0.19c-0.142-0.022-0.296-0.089-0.472-0.165c-0.171-0.122-0.256-0.443-0.207-0.847	c0.029-0.274,0.307-2.47,0.367-2.881C18.07,24.158,18.406,21.665,18.406,21.665z"/><radialGradient id="YX6Xbdxclnk~5unJ3IwLDk" cx="-109.463" cy="24.712" r="3.886" gradientTransform="matrix(-1 0 0 -1.0407 -88.01 51.005)" gradientUnits="userSpaceOnUse"><stop offset="0" stop-color="#f5a919"/><stop offset=".856" stop-color="#f5a919"/><stop offset=".997" stop-color="#f5a919"/></radialGradient><path fill="url(#YX6Xbdxclnk~5unJ3IwLDk)" d="M18.614,21.677c0.183-1.444,1.439-1.924,2.882-1.921c0.056,0,0.259,0.001,0.315,0.001h1.566	h1.614v0.284v0.176L24.167,21h-0.755h-1.104h-1.211c-0.127,0-0.58,0.041-0.675,0.112c-0.274,0.091-0.493,0.308-0.593,0.588	c-0.035,0.053-0.083,0.317-0.093,0.383l-0.35,2.799L19.359,25.1l-0.318,2.547c-0.019,0.153-0.174,0.751-0.303,0.811	c-0.092,0.211-0.178,0.251-0.32,0.226c-0.126-0.022-0.274-0.089-0.466-0.153c-0.139-0.092-0.199-0.407-0.15-0.826	c0.038-0.365,0.28-2.252,0.359-2.8C18.297,23.959,18.614,21.677,18.614,21.677z"/><radialGradient id="YX6Xbdxclnk~5unJ3IwLDl" cx="-109.559" cy="24.688" r="3.776" gradientTransform="matrix(-1 0 0 -1.0407 -88.01 51.004)" gradientUnits="userSpaceOnUse"><stop offset="0" stop-color="#f3a217"/><stop offset=".856" stop-color="#f3a217"/><stop offset=".997" stop-color="#f3a217"/></radialGradient><path fill="url(#YX6Xbdxclnk~5unJ3IwLDl)" d="M18.822,21.689c0.181-1.43,1.431-1.748,2.858-1.743c0.07,0,0.238,0.001,0.308,0.001h1.515	h1.488v0.355v0.177L23.961,21h-0.727h-1.068h-1.18c-0.159,0-0.529,0.052-0.649,0.14c-0.254,0.114-0.45,0.339-0.53,0.62	c-0.023,0.035-0.07,0.329-0.076,0.373l-0.34,2.718l-0.027,0.215l-0.308,2.462c-0.013,0.102-0.151,0.777-0.237,0.817	c-0.075,0.245-0.136,0.288-0.265,0.262c-0.11-0.022-0.253-0.089-0.46-0.142c-0.106-0.063-0.141-0.371-0.092-0.805	c0.048-0.456,0.252-2.034,0.351-2.718C18.523,23.761,18.822,21.689,18.822,21.689z"/><radialGradient id="YX6Xbdxclnk~5unJ3IwLDm" cx="-109.653" cy="24.663" r="3.667" gradientTransform="matrix(-1 0 0 -1.0407 -88.01 51.003)" gradientUnits="userSpaceOnUse"><stop offset="0" stop-color="#f29a15"/><stop offset=".856" stop-color="#f29a15"/><stop offset=".997" stop-color="#f29a15"/></radialGradient><path fill="url(#YX6Xbdxclnk~5unJ3IwLDm)" d="M19.03,21.7c0.179-1.416,1.423-1.572,2.833-1.566c0.084,0,0.217,0.001,0.301,0.001h1.463	h1.363v0.426v0.178L23.755,21h-0.7h-1.032h-1.15c-0.191,0-0.479,0.062-0.622,0.168c-0.235,0.136-0.408,0.371-0.467,0.652	c-0.012,0.018-0.057,0.342-0.06,0.364l-0.33,2.638l-0.026,0.211L19.07,27.41c-0.006,0.051-0.127,0.803-0.17,0.823	c-0.057,0.278-0.093,0.325-0.21,0.298c-0.094-0.022-0.232-0.088-0.454-0.13c-0.073-0.034-0.083-0.335-0.034-0.785	c0.057-0.548,0.225-1.816,0.343-2.637C18.75,23.562,19.03,21.7,19.03,21.7z"/><radialGradient id="YX6Xbdxclnk~5unJ3IwLDn" cx="-109.744" cy="24.639" r="3.561" gradientTransform="matrix(-1 0 0 -1.0407 -88.01 51.002)" gradientUnits="userSpaceOnUse"><stop offset="0" stop-color="#f09313"/><stop offset=".856" stop-color="#f09313"/><stop offset=".997" stop-color="#f09313"/></radialGradient><path fill="url(#YX6Xbdxclnk~5unJ3IwLDn)" d="M24.991,21h-2.115h-2.115c-0.51,0-0.93,0.38-1,0.88L19.371,25l-0.39,3.12	c-0.07,0.55-0.053,0.285-0.603,0.215c-0.095-0.01,0.12-1.666,0.359-3.319c0.239-1.653,0.501-3.304,0.501-3.304	c0.19-1.5,1.593-1.388,3.103-1.388h2.65V21z"/><linearGradient id="YX6Xbdxclnk~5unJ3IwLDo" x1="13.582" x2="31.795" y1="28.083" y2="6.959" gradientTransform="matrix(1 0 0 -1 0 50)" gradientUnits="userSpaceOnUse"><stop offset="0" stop-color="#ffe16e"/><stop offset=".352" stop-color="#ffd226"/><stop offset=".453" stop-color="#fdcd23"/><stop offset=".579" stop-color="#f6bd1b"/><stop offset=".663" stop-color="#f0af13"/><stop offset="1" stop-color="#f08d13"/></linearGradient><circle cx="24" cy="34" r="11" fill="url(#YX6Xbdxclnk~5unJ3IwLDo)"/><linearGradient id="YX6Xbdxclnk~5unJ3IwLDp" x1="32.035" x2="14.354" y1="7.965" y2="25.646" gradientTransform="matrix(1 0 0 -1 0 50)" gradientUnits="userSpaceOnUse"><stop offset="0" stop-color="#ffe16e"/><stop offset=".352" stop-color="#ffd226"/><stop offset=".453" stop-color="#fdcd23"/><stop offset=".579" stop-color="#f6bd1b"/><stop offset=".663" stop-color="#f0af13"/><stop offset="1" stop-color="#f08d13"/></linearGradient><circle cx="24" cy="34" r="9.087" fill="url(#YX6Xbdxclnk~5unJ3IwLDp)"/><linearGradient id="YX6Xbdxclnk~5unJ3IwLDq" x1="17.055" x2="30.842" y1="24.231" y2="7.891" gradientTransform="matrix(1 0 0 -1 0 50)" gradientUnits="userSpaceOnUse"><stop offset="0" stop-color="#ffe787"/><stop offset=".525" stop-color="#ffe16e"/><stop offset="1" stop-color="#f0bc13"/></linearGradient><circle cx="24" cy="34" r="8.13" fill="url(#YX6Xbdxclnk~5unJ3IwLDq)"/><linearGradient id="YX6Xbdxclnk~5unJ3IwLDr" x1="14.026" x2="22.228" y1="45.923" y2="34.211" gradientTransform="matrix(1 0 0 -1 0 50)" gradientUnits="userSpaceOnUse"><stop offset="0" stop-color="#f9eae7"/><stop offset=".616" stop-color="#f0d7d5"/><stop offset=".69" stop-color="#e0c5c3"/><stop offset=".896" stop-color="#b89896"/><stop offset="1" stop-color="#a88685"/></linearGradient><path fill="url(#YX6Xbdxclnk~5unJ3IwLDr)" d="M12.61,3l9.44,13.21c0.36,0.51,0.56,1.12,0.56,1.74V20h3.039v-2.05	c0-0.62-0.2-1.23-0.56-1.74L15.649,3H12.61z"/><linearGradient id="YX6Xbdxclnk~5unJ3IwLDs" x1="10.827" x2="20.232" y1="46.122" y2="33.143" gradientTransform="matrix(1 0 0 -1 0 50)" gradientUnits="userSpaceOnUse"><stop offset=".614" stop-color="#fe4532"/><stop offset=".751" stop-color="#e23a2a"/><stop offset=".907" stop-color="#c83122"/><stop offset="1" stop-color="#bf2d1f"/></linearGradient><path fill="url(#YX6Xbdxclnk~5unJ3IwLDs)" d="M10,3l9.44,13.21C19.8,16.72,20,17.33,20,17.95V20h2.7v-2.05c0-0.62-0.2-1.23-0.56-1.74	L12.7,3H10z"/><linearGradient id="YX6Xbdxclnk~5unJ3IwLDt" x1="16.033" x2="23.368" y1="46.313" y2="36.279" gradientTransform="matrix(1 0 0 -1 0 50)" gradientUnits="userSpaceOnUse"><stop offset="0" stop-color="#1d67bb"/><stop offset=".638" stop-color="#0353ae"/><stop offset=".746" stop-color="#024898"/><stop offset=".906" stop-color="#013b7d"/><stop offset="1" stop-color="#013673"/></linearGradient><path fill="url(#YX6Xbdxclnk~5unJ3IwLDt)" d="M15.49,3l9.44,13.21c0.36,0.51,0.56,1.12,0.56,1.74V20H28v-2.08c0-0.63-0.2-1.24-0.56-1.75	L18,3H15.49z"/><linearGradient id="YX6Xbdxclnk~5unJ3IwLDu" x1="28.87" x2="28.87" y1="45.644" y2="28.745" gradientTransform="matrix(1 0 0 -1 0 50)" gradientUnits="userSpaceOnUse"><stop offset="0" stop-color="#fff8f5"/><stop offset=".278" stop-color="#fff2ef"/><stop offset=".427" stop-color="#fff8f5"/><stop offset=".508" stop-color="#fbeeec"/><stop offset=".63" stop-color="#f0d7d5"/><stop offset="1" stop-color="#b59997"/></linearGradient><path fill="url(#YX6Xbdxclnk~5unJ3IwLDu)" d="M35.39,3l-9.44,13.21c-0.36,0.51-0.56,1.12-0.56,1.74V20h-3.039v-2.05	c0-0.62,0.2-1.23,0.56-1.74L32.351,3H35.39z"/><linearGradient id="YX6Xbdxclnk~5unJ3IwLDv" x1="31.65" x2="31.65" y1="47.447" y2="30.678" gradientTransform="matrix(1 0 0 -1 0 50)" gradientUnits="userSpaceOnUse"><stop offset="0" stop-color="#ff6c47"/><stop offset=".2" stop-color="#ff6744"/><stop offset=".445" stop-color="#fe583c"/><stop offset=".657" stop-color="#fe4532"/><stop offset="1" stop-color="#d43829"/></linearGradient><path fill="url(#YX6Xbdxclnk~5unJ3IwLDv)" d="M38,3l-2.86,4l-3.57,5l-1.43,2l-1.58,2.21C28.2,16.72,28,17.33,28,17.95V20h-2.7v-2.05	c0-0.62,0.2-1.23,0.56-1.74L27.44,14l1.43-2l3.57-5l2.86-4H38z"/><linearGradient id="YX6Xbdxclnk~5unJ3IwLDw" x1="26.255" x2="26.255" y1="47" y2="30" gradientTransform="matrix(1 0 0 -1 0 50)" gradientUnits="userSpaceOnUse"><stop offset="0" stop-color="#4686cf"/><stop offset=".77" stop-color="#0353ae"/><stop offset="1" stop-color="#013673"/></linearGradient><path fill="url(#YX6Xbdxclnk~5unJ3IwLDw)" d="M32.51,3l-2.86,4l-3.57,5l-1.43,2l-1.58,2.21c-0.36,0.51-0.56,1.12-0.56,1.74V20H20v-2.08	c0-0.63,0.2-1.24,0.56-1.75L22.12,14l1.43-2l3.58-5l1.44-2L30,3H32.51z"/><linearGradient id="YX6Xbdxclnk~5unJ3IwLDx" x1="21.35" x2="21.35" y1="32" y2="28" gradientTransform="matrix(1 0 0 -1 0 50)" gradientUnits="userSpaceOnUse"><stop offset="0" stop-color="#4686cf"/><stop offset=".77" stop-color="#0353ae"/><stop offset="1" stop-color="#013673"/></linearGradient><path fill="url(#YX6Xbdxclnk~5unJ3IwLDx)" d="M22.7,18v4H21c-0.55,0-1-0.45-1-1v-2c0-0.55,0.45-1,1-1H22.7z"/><linearGradient id="YX6Xbdxclnk~5unJ3IwLDy" x1="23.95" x2="23.95" y1="31.681" y2="27.705" gradientTransform="matrix(1 0 0 -1 0 50)" gradientUnits="userSpaceOnUse"><stop offset="0" stop-color="#fff8f5"/><stop offset=".274" stop-color="#fbeeec"/><stop offset=".689" stop-color="#f0d7d5"/><stop offset="1" stop-color="#b59997"/></linearGradient><rect width="2.88" height="4" x="22.51" y="18" fill="url(#YX6Xbdxclnk~5unJ3IwLDy)"/><linearGradient id="YX6Xbdxclnk~5unJ3IwLDz" x1="26.65" x2="26.65" y1="32.105" y2="28.16" gradientTransform="matrix(1 0 0 -1 0 50)" gradientUnits="userSpaceOnUse"><stop offset="0" stop-color="#ff6c47"/><stop offset=".2" stop-color="#ff6744"/><stop offset=".445" stop-color="#fe583c"/><stop offset=".657" stop-color="#fe4532"/><stop offset="1" stop-color="#d43829"/></linearGradient><path fill="url(#YX6Xbdxclnk~5unJ3IwLDz)" d="M28,19v2c0,0.55-0.45,1-1,1h-1.7v-4H27C27.55,18,28,18.45,28,19z"/><linearGradient id="YX6Xbdxclnk~5unJ3IwLDA" x1="29.345" x2="29.345" y1="44.196" y2="36.581" gradientTransform="matrix(1 0 0 -1 0 50)" gradientUnits="userSpaceOnUse"><stop offset="0" stop-color="#fff8f5" stop-opacity="0"/><stop offset=".54" stop-color="#fff8f5" stop-opacity=".6"/><stop offset="1" stop-color="#fff8f5" stop-opacity="0"/></linearGradient><polygon fill="url(#YX6Xbdxclnk~5unJ3IwLDA)" points="36.57,5 35.14,7 31.57,12 30.14,14 22.12,14 23.55,12 27.13,7 28.57,5" opacity=".6"/><linearGradient id="YX6Xbdxclnk~5unJ3IwLDB" x1="7.752" x2="36.353" y1="38.032" y2="1.011" gradientTransform="matrix(1 0 0 -1 0 50)" gradientUnits="userSpaceOnUse"><stop offset="0" stop-color="#ffe16e"/><stop offset=".352" stop-color="#ffd226"/><stop offset=".49" stop-color="#f5ba19"/><stop offset=".581" stop-color="#f0af13"/><stop offset="1" stop-color="#f08d13"/></linearGradient><polygon fill="url(#YX6Xbdxclnk~5unJ3IwLDB)" points="26.688,27.447 22.809,27.447 19.737,29.66 19.737,33.825 22.809,31.872 22.809,40.489 26.688,40.489"/><radialGradient id="YX6Xbdxclnk~5unJ3IwLDC" cx="25.211" cy="15.147" r="15.26" gradientTransform="matrix(1 0 0 -1 0 50.5)" gradientUnits="userSpaceOnUse"><stop offset="0" stop-color="#fff3c2" stop-opacity="0"/><stop offset=".725" stop-color="#fff3c2" stop-opacity="0"/><stop offset=".83" stop-color="#fff3c2"/><stop offset=".962" stop-color="#fff3c2" stop-opacity="0"/></radialGradient><circle cx="24" cy="34" r="11" fill="url(#YX6Xbdxclnk~5unJ3IwLDC)"/><radialGradient id="YX6Xbdxclnk~5unJ3IwLDD" cx="24.404" cy="17.84" r="13.683" gradientTransform="matrix(1 0 0 -1 0 50)" gradientUnits="userSpaceOnUse"><stop offset="0" stop-color="#ffe477" stop-opacity="0"/><stop offset=".725" stop-color="#ffe477" stop-opacity="0"/><stop offset=".83" stop-color="#ffeeab"/><stop offset=".962" stop-color="#ffe477" stop-opacity="0"/></radialGradient><circle cx="24" cy="34" r="9.087" fill="url(#YX6Xbdxclnk~5unJ3IwLDD)"/><radialGradient id="YX6Xbdxclnk~5unJ3IwLDE" cx="24.404" cy="17.84" r="13.683" gradientTransform="matrix(1 0 0 -1 0 50)" gradientUnits="userSpaceOnUse"><stop offset="0" stop-color="#fff3c2" stop-opacity="0"/><stop offset=".725" stop-color="#fff3c2" stop-opacity="0"/><stop offset=".83" stop-color="#fff3c2"/><stop offset=".962" stop-color="#fff3c2" stop-opacity="0"/></radialGradient><circle cx="24" cy="34" r="9.087" fill="url(#YX6Xbdxclnk~5unJ3IwLDE)"/></svg>