<svg xmlns="http://www.w3.org/2000/svg"  viewBox="0 0 48 48" width="48px" height="48px"><path fill="#00bf49" d="M39.455,36.774l-2.23-2.23c-0.301-0.301-0.301-0.788,0-1.089l2.23-2.23	c0.301-0.301,0.788-0.301,1.089,0l2.23,2.23c0.301,0.301,0.301,0.788,0,1.089l-2.23,2.23C40.244,37.075,39.756,37.075,39.455,36.774	z"/><linearGradient id="AlT1tp1aqq3pTxfMvyB_Ha" x1=".495" x2="5.162" y1="28.778" y2="25.525" gradientUnits="userSpaceOnUse"><stop offset="0" stop-color="#7c1487"/><stop offset=".579" stop-color="#ab26ba"/><stop offset=".717" stop-color="#ae29bd"/><stop offset=".836" stop-color="#b634c5"/><stop offset=".946" stop-color="#c445d2"/><stop offset="1" stop-color="#cd51db"/></linearGradient><path fill="url(#AlT1tp1aqq3pTxfMvyB_Ha)" d="M0,28c0,1,0.5,3,2,3c0,0,0-0.491,0-1.11C2,27.715,2.698,27,4,27v-3C2.682,24,0,24.806,0,28z"/><radialGradient id="AlT1tp1aqq3pTxfMvyB_Hb" cx="24" cy="24" r="18" fx="23.905" fy="16.289" gradientUnits="userSpaceOnUse"><stop offset="0" stop-color="#ffe16e"/><stop offset=".629" stop-color="#ffd426"/><stop offset=".72" stop-color="#fdcd23"/><stop offset=".854" stop-color="#f8b919"/><stop offset="1" stop-color="#f09c0c"/></radialGradient><circle cx="24" cy="24" r="18" fill="url(#AlT1tp1aqq3pTxfMvyB_Hb)"/><radialGradient id="AlT1tp1aqq3pTxfMvyB_Hc" cx="36" cy="27" r="5" gradientUnits="userSpaceOnUse"><stop offset="0" stop-color="#ff8400" stop-opacity=".6"/><stop offset=".999" stop-color="#ff8400" stop-opacity="0"/></radialGradient><circle cx="36" cy="27" r="5" fill="url(#AlT1tp1aqq3pTxfMvyB_Hc)"/><radialGradient id="AlT1tp1aqq3pTxfMvyB_Hd" cx="12" cy="27" r="5" gradientUnits="userSpaceOnUse"><stop offset="0" stop-color="#ff8400" stop-opacity=".5"/><stop offset=".999" stop-color="#ff8400" stop-opacity="0"/></radialGradient><circle cx="12" cy="27" r="5" fill="url(#AlT1tp1aqq3pTxfMvyB_Hd)"/><path fill="#212121" d="M28,22c3.342,0,6.398,0.995,6.398,0.995l0.383-0.908C34.356,21.75,31.075,20,28,20V22z"/><circle cx="34.5" cy="22.5" r=".5" fill="#212121"/><circle cx="28" cy="21" r="1" fill="#212121"/><path fill="#212121" d="M20,22c-3.342,0-6.398,0.995-6.398,0.995l-0.383-0.908C13.644,21.75,16.925,20,20,20V22z"/><circle cx="13.5" cy="22.5" r=".5" fill="#212121"/><circle cx="20" cy="21" r="1" fill="#212121"/><linearGradient id="AlT1tp1aqq3pTxfMvyB_He" x1="28.663" x2="43.214" y1="5.244" y2="10.616" gradientUnits="userSpaceOnUse"><stop offset="0" stop-color="#bf0fbf"/><stop offset=".218" stop-color="#ac11ac"/><stop offset=".709" stop-color="#871586"/><stop offset=".968" stop-color="#791678"/></linearGradient><path fill="url(#AlT1tp1aqq3pTxfMvyB_He)" d="M33,15c-3-3-4-8-4-8l15.933-4.958c0.629-0.196,1.22,0.395,1.024,1.024L41,19 C41,19,36,18,33,15z"/><linearGradient id="AlT1tp1aqq3pTxfMvyB_Hf" x1="28.845" x2="42.848" y1="5.231" y2="10.4" gradientUnits="userSpaceOnUse"><stop offset="0" stop-color="#c214c1"/><stop offset=".181" stop-color="#b316b2"/><stop offset=".696" stop-color="#8d198c"/><stop offset=".968" stop-color="#7f1b7e"/></linearGradient><path fill="url(#AlT1tp1aqq3pTxfMvyB_Hf)" d="M32.938,14.82c-2.877-2.897-3.836-7.717-3.836-7.717s15.804-5.021,15.824-5.031 c0.586-0.279,1.19,0.373,0.988,0.99c-0.025,0.029-5.29,15.659-5.29,15.659S35.825,17.738,32.938,14.82z"/><linearGradient id="AlT1tp1aqq3pTxfMvyB_Hg" x1="29.022" x2="42.476" y1="5.232" y2="10.199" gradientUnits="userSpaceOnUse"><stop offset="0" stop-color="#c519c4"/><stop offset=".151" stop-color="#b91ab8"/><stop offset=".686" stop-color="#941e92"/><stop offset=".968" stop-color="#861f84"/></linearGradient><path fill="url(#AlT1tp1aqq3pTxfMvyB_Hg)" d="M32.875,14.641c-2.754-2.795-3.671-7.434-3.671-7.434s15.675-5.085,15.714-5.104 c0.575-0.278,1.16,0.351,0.952,0.955c-0.051,0.057-5.622,15.386-5.622,15.386S35.649,17.477,32.875,14.641z"/><linearGradient id="AlT1tp1aqq3pTxfMvyB_Hh" x1="29.179" x2="42.419" y1="5.225" y2="10.113" gradientUnits="userSpaceOnUse"><stop offset="0" stop-color="#c81ec6"/><stop offset=".118" stop-color="#bf1fbd"/><stop offset=".675" stop-color="#9a2397"/><stop offset=".968" stop-color="#8c2489"/></linearGradient><path fill="url(#AlT1tp1aqq3pTxfMvyB_Hh)" d="M32.813,14.461c-2.623-2.7-3.507-7.152-3.507-7.152s15.545-5.148,15.604-5.177 c0.565-0.276,1.13,0.33,0.916,0.92c-0.076,0.086-5.954,15.112-5.954,15.112S35.481,17.208,32.813,14.461z"/><linearGradient id="AlT1tp1aqq3pTxfMvyB_Hi" x1="29.333" x2="42.408" y1="5.218" y2="10.045" gradientUnits="userSpaceOnUse"><stop offset="0" stop-color="#cb22c9"/><stop offset=".082" stop-color="#c523c3"/><stop offset=".662" stop-color="#a1279d"/><stop offset=".968" stop-color="#93288f"/></linearGradient><path fill="url(#AlT1tp1aqq3pTxfMvyB_Hi)" d="M32.75,14.282c-2.498-2.599-3.342-6.869-3.342-6.869s15.416-5.211,15.495-5.25 c0.554-0.274,1.099,0.308,0.88,0.886c-0.101,0.114-6.287,14.838-6.287,14.838S35.309,16.944,32.75,14.282z"/><linearGradient id="AlT1tp1aqq3pTxfMvyB_Hj" x1="29.485" x2="42.408" y1="5.213" y2="9.983" gradientUnits="userSpaceOnUse"><stop offset="0" stop-color="#ce27cb"/><stop offset=".028" stop-color="#cc27c9"/><stop offset=".643" stop-color="#a72ba3"/><stop offset=".968" stop-color="#992d95"/></linearGradient><path fill="url(#AlT1tp1aqq3pTxfMvyB_Hj)" d="M32.688,14.102c-2.373-2.499-3.178-6.586-3.178-6.586s15.287-5.274,15.385-5.323 c0.544-0.273,1.163,0.333,0.844,0.851c-0.1,0.163-6.619,14.564-6.619,14.564S35.136,16.68,32.688,14.102z"/><linearGradient id="AlT1tp1aqq3pTxfMvyB_Hk" x1="29.639" x2="42.398" y1="5.207" y2="9.917" gradientUnits="userSpaceOnUse"><stop offset="0" stop-color="#d12ccd"/><stop offset=".622" stop-color="#ad30a9"/><stop offset=".968" stop-color="#9f319b"/></linearGradient><path fill="url(#AlT1tp1aqq3pTxfMvyB_Hk)" d="M32.625,13.922c-2.247-2.398-3.013-6.303-3.013-6.303s15.158-5.337,15.276-5.397 c0.533-0.271,1.126,0.309,0.808,0.816c-0.122,0.194-6.951,14.29-6.951,14.29S34.963,16.416,32.625,13.922z"/><linearGradient id="AlT1tp1aqq3pTxfMvyB_Hl" x1="29.792" x2="42.388" y1="5.202" y2="9.852" gradientUnits="userSpaceOnUse"><stop offset="0" stop-color="#d431d0"/><stop offset=".61" stop-color="#b434ae"/><stop offset=".968" stop-color="#a636a0"/></linearGradient><path fill="url(#AlT1tp1aqq3pTxfMvyB_Hl)" d="M32.563,13.743c-2.122-2.297-2.849-6.02-2.849-6.02s15.03-5.399,15.166-5.47 c0.523-0.27,1.089,0.285,0.772,0.782c-0.144,0.225-7.284,14.017-7.284,14.017S34.789,16.152,32.563,13.743z"/><linearGradient id="AlT1tp1aqq3pTxfMvyB_Hm" x1="29.945" x2="42.378" y1="5.198" y2="9.788" gradientUnits="userSpaceOnUse"><stop offset="0" stop-color="#d736d2"/><stop offset=".584" stop-color="#ba39b4"/><stop offset=".968" stop-color="#ac3aa6"/></linearGradient><path fill="url(#AlT1tp1aqq3pTxfMvyB_Hm)" d="M32.5,13.563c-1.998-2.196-2.684-5.738-2.684-5.738s14.901-5.462,15.057-5.543 c0.513-0.268,1.053,0.261,0.736,0.747c-0.167,0.256-7.616,13.743-7.616,13.743S34.616,15.889,32.5,13.563z"/><linearGradient id="AlT1tp1aqq3pTxfMvyB_Hn" x1="30.097" x2="42.367" y1="5.194" y2="9.724" gradientUnits="userSpaceOnUse"><stop offset="0" stop-color="#da3bd4"/><stop offset=".552" stop-color="#c03eba"/><stop offset=".968" stop-color="#b23fac"/></linearGradient><path fill="url(#AlT1tp1aqq3pTxfMvyB_Hn)" d="M32.438,13.383c-1.873-2.095-2.52-5.455-2.52-5.455s14.773-5.524,14.947-5.616 c0.503-0.267,1.016,0.237,0.7,0.713c-0.19,0.286-7.948,13.469-7.948,13.469S34.443,15.626,32.438,13.383z"/><linearGradient id="AlT1tp1aqq3pTxfMvyB_Ho" x1="30.249" x2="42.357" y1="5.192" y2="9.662" gradientUnits="userSpaceOnUse"><stop offset="0" stop-color="#dd40d7"/><stop offset=".524" stop-color="#c742c0"/><stop offset=".968" stop-color="#b943b2"/></linearGradient><path fill="url(#AlT1tp1aqq3pTxfMvyB_Ho)" d="M32.376,13.204c-1.748-1.993-2.355-5.172-2.355-5.172s14.644-5.585,14.837-5.689 c0.492-0.265,0.979,0.213,0.664,0.678c-0.215,0.316-8.28,13.195-8.28,13.195S34.269,15.363,32.376,13.204z"/><linearGradient id="AlT1tp1aqq3pTxfMvyB_Hp" x1="30.401" x2="42.346" y1="5.19" y2="9.6" gradientUnits="userSpaceOnUse"><stop offset="0" stop-color="#e144d9"/><stop offset=".492" stop-color="#cd46c5"/><stop offset=".968" stop-color="#bf48b7"/></linearGradient><path fill="url(#AlT1tp1aqq3pTxfMvyB_Hp)" d="M32.313,13.024c-1.624-1.891-2.191-4.889-2.191-4.889S44.639,2.488,44.85,2.373 c0.482-0.264,0.943,0.189,0.628,0.643c-0.239,0.345-8.613,12.921-8.613,12.921S34.096,15.1,32.313,13.024z"/><linearGradient id="AlT1tp1aqq3pTxfMvyB_Hq" x1="30.552" x2="42.335" y1="5.19" y2="9.539" gradientUnits="userSpaceOnUse"><stop offset="0" stop-color="#e449dc"/><stop offset=".455" stop-color="#d44bcb"/><stop offset=".968" stop-color="#c64cbd"/></linearGradient><path fill="url(#AlT1tp1aqq3pTxfMvyB_Hq)" d="M32.251,12.845c-1.5-1.789-2.026-4.607-2.026-4.607S44.613,2.53,44.843,2.403 c0.472-0.262,0.907,0.164,0.592,0.609c-0.265,0.374-8.945,12.648-8.945,12.648S33.922,14.838,32.251,12.845z"/><linearGradient id="AlT1tp1aqq3pTxfMvyB_Hr" x1="30.703" x2="42.324" y1="5.19" y2="9.48" gradientUnits="userSpaceOnUse"><stop offset="0" stop-color="#e74ede"/><stop offset=".393" stop-color="#da4fd1"/><stop offset=".968" stop-color="#cc51c3"/></linearGradient><path fill="url(#AlT1tp1aqq3pTxfMvyB_Hr)" d="M32.188,12.665c-1.376-1.686-1.862-4.324-1.862-4.324s14.261-5.769,14.509-5.909 c0.462-0.261,0.87,0.14,0.556,0.574C45.1,3.409,36.114,15.38,36.114,15.38S33.748,14.576,32.188,12.665z"/><linearGradient id="AlT1tp1aqq3pTxfMvyB_Hs" x1="30.854" x2="42.313" y1="5.191" y2="9.421" gradientUnits="userSpaceOnUse"><stop offset="0" stop-color="#ea53e0"/><stop offset=".334" stop-color="#e054d7"/><stop offset=".968" stop-color="#d255c9"/></linearGradient><path fill="url(#AlT1tp1aqq3pTxfMvyB_Hs)" d="M32.126,12.485c-1.253-1.583-1.697-4.041-1.697-4.041s14.133-5.829,14.399-5.982 c0.452-0.26,0.834,0.115,0.52,0.539c-0.319,0.43-9.609,12.1-9.609,12.1S33.573,14.314,32.126,12.485z"/><linearGradient id="AlT1tp1aqq3pTxfMvyB_Ht" x1="31.005" x2="42.301" y1="5.192" y2="9.363" gradientUnits="userSpaceOnUse"><stop offset="0" stop-color="#ed58e3"/><stop offset=".26" stop-color="#e759dc"/><stop offset=".968" stop-color="#d95ace"/></linearGradient><path fill="url(#AlT1tp1aqq3pTxfMvyB_Ht)" d="M32.063,12.306c-1.13-1.48-1.533-3.758-1.533-3.758S44.536,2.659,44.82,2.493 c0.443-0.259,0.798,0.09,0.484,0.505c-0.346,0.456-9.942,11.826-9.942,11.826S33.398,14.053,32.063,12.306z"/><linearGradient id="AlT1tp1aqq3pTxfMvyB_Hu" x1="31.155" x2="42.291" y1="5.194" y2="9.305" gradientUnits="userSpaceOnUse"><stop offset="0" stop-color="#f05de5"/><stop offset=".125" stop-color="#ed5de2"/><stop offset=".968" stop-color="#df5ed4"/></linearGradient><path fill="url(#AlT1tp1aqq3pTxfMvyB_Hu)" d="M32.001,12.126c-1.008-1.376-1.368-3.475-1.368-3.475s13.878-5.949,14.18-6.128 c0.433-0.257,0.762,0.065,0.447,0.47c-0.375,0.482-10.274,11.552-10.274,11.552S33.222,13.793,32.001,12.126z"/><linearGradient id="AlT1tp1aqq3pTxfMvyB_Hv" x1="31.306" x2="42.281" y1="5.195" y2="9.246" gradientUnits="userSpaceOnUse"><stop offset="0" stop-color="#f362e7"/><stop offset=".968" stop-color="#e563da"/></linearGradient><path fill="url(#AlT1tp1aqq3pTxfMvyB_Hv)" d="M31.938,11.947c-0.887-1.271-1.204-3.193-1.204-3.193s13.751-6.008,14.07-6.201 c0.423-0.256,0.727,0.04,0.411,0.435C44.812,3.496,34.61,14.267,34.61,14.267S33.045,13.533,31.938,11.947z"/><linearGradient id="AlT1tp1aqq3pTxfMvyB_Hw" x1="31.456" x2="42.271" y1="5.196" y2="9.188" gradientUnits="userSpaceOnUse"><stop offset="0" stop-color="#f666ea"/><stop offset=".968" stop-color="#ec67e0"/></linearGradient><path fill="url(#AlT1tp1aqq3pTxfMvyB_Hw)" d="M31.876,11.767c-0.767-1.166-1.039-2.91-1.039-2.91S44.462,2.79,44.798,2.583 c0.414-0.255,0.691,0.014,0.375,0.401c-0.435,0.532-10.939,11.005-10.939,11.005S32.867,13.274,31.876,11.767z"/><linearGradient id="AlT1tp1aqq3pTxfMvyB_Hx" x1="31.607" x2="42.262" y1="5.196" y2="9.13" gradientUnits="userSpaceOnUse"><stop offset="0" stop-color="#f96bec"/><stop offset=".968" stop-color="#f26ce5"/></linearGradient><path fill="url(#AlT1tp1aqq3pTxfMvyB_Hx)" d="M31.814,11.587c-0.648-1.06-0.875-2.627-0.875-2.627S44.438,2.834,44.79,2.613 c0.404-0.254,0.656-0.011,0.339,0.366C44.663,3.535,33.859,13.71,33.859,13.71S32.687,13.016,31.814,11.587z"/><linearGradient id="AlT1tp1aqq3pTxfMvyB_Hy" x1="31.758" x2="42.253" y1="5.197" y2="9.072" gradientUnits="userSpaceOnUse"><stop offset="0" stop-color="#fc70ef"/><stop offset=".968" stop-color="#f970eb"/></linearGradient><path fill="url(#AlT1tp1aqq3pTxfMvyB_Hy)" d="M31.751,11.408c-0.531-0.953-0.71-2.344-0.71-2.344s13.372-6.184,13.742-6.421 c0.395-0.253,0.62-0.037,0.303,0.331c-0.498,0.579-11.603,10.457-11.603,10.457S32.504,12.76,31.751,11.408z"/><path fill="#ff75f1" d="M31.689,11.228c-0.416-0.846-0.546-2.061-0.546-2.061S44.39,2.925,44.775,2.673 s0.585-0.063,0.267,0.297c-0.531,0.601-11.935,10.183-11.935,10.183S32.317,12.505,31.689,11.228z"/><ellipse cx="33.131" cy="8.131" fill="#ffe05c" rx="1.5" ry="1.319" transform="rotate(-27.514 33.128 8.13)"/><ellipse cx="40.144" cy="14.742" fill="#b89e33" rx="1.5" ry="1.125" transform="rotate(-59.856 40.143 14.742)"/><ellipse cx="43.475" cy="7.058" fill="#b89e33" rx="1.14" ry=".724" transform="rotate(-65.077 43.474 7.057)"/><ellipse cx="39.406" cy="5.106" fill="#ffe05c" rx="1.14" ry=".724" transform="rotate(-23.393 39.409 5.107)"/><circle cx="38.5" cy="9.5" r="1.5" fill="#ffe05c"/><linearGradient id="AlT1tp1aqq3pTxfMvyB_Hz" x1="34.434" x2="40.764" y1="31.5" y2="31.5" gradientTransform="rotate(180 29.5 31.5)" gradientUnits="userSpaceOnUse"><stop offset="0" stop-color="#965100" stop-opacity="0"/><stop offset="1" stop-color="#965100"/></linearGradient><path fill="url(#AlT1tp1aqq3pTxfMvyB_Hz)" d="M19.014,31.5C18.402,31.956,18,32.678,18,33.5c0,1.381,1.119,2.5,2.5,2.5c0.086,0,4,0,4,0	c0.276,0,0.5-0.224,0.5-0.5c0-0.276-0.224-0.5-0.5-0.5h-3c-0.828,0-1.5-0.672-1.5-1.5s0.672-1.5,1.5-1.5h1	c0.276,0,0.5-0.224,0.5-0.5c0-0.276-0.224-0.5-0.5-0.5h-1c-0.828,0-1.5-0.672-1.5-1.5s0.672-1.5,1.5-1.5h3	c0.276,0,0.5-0.224,0.5-0.5c0-0.276-0.224-0.5-0.5-0.5c0,0-3.914,0-4,0c-1.381,0-2.5,1.119-2.5,2.5	C18,30.322,18.402,31.044,19.014,31.5z"/><linearGradient id="AlT1tp1aqq3pTxfMvyB_HA" x1="36" x2="39" y1="29.5" y2="29.5" gradientTransform="rotate(180 29.5 31.5)" gradientUnits="userSpaceOnUse"><stop offset=".333" stop-color="#ffe16e" stop-opacity="0"/><stop offset="1" stop-color="#ffe16e"/></linearGradient><circle cx="21.5" cy="33.5" r="1.5" fill="url(#AlT1tp1aqq3pTxfMvyB_HA)"/><linearGradient id="AlT1tp1aqq3pTxfMvyB_HB" x1="36" x2="39" y1="33.5" y2="33.5" gradientTransform="rotate(180 29.5 31.5)" gradientUnits="userSpaceOnUse"><stop offset=".333" stop-color="#ffe16e" stop-opacity="0"/><stop offset="1" stop-color="#ffe16e"/></linearGradient><circle cx="21.5" cy="29.5" r="1.5" fill="url(#AlT1tp1aqq3pTxfMvyB_HB)"/><linearGradient id="AlT1tp1aqq3pTxfMvyB_HC" x1="16.007" x2="16.007" y1="29.98" y2="33.002" gradientUnits="userSpaceOnUse"><stop offset="0" stop-color="#2660ba"/><stop offset=".336" stop-color="#70a7ff"/><stop offset=".675" stop-color="#2660ba"/><stop offset="1" stop-color="#0f3c80"/></linearGradient><path fill="url(#AlT1tp1aqq3pTxfMvyB_HC)" d="M19.014,31.5c-0.483-0.36-0.826-0.89-0.953-1.5H13v3h5.061	C18.187,32.39,18.53,31.86,19.014,31.5z"/><linearGradient id="AlT1tp1aqq3pTxfMvyB_HD" x1="14" x2="14" y1="29.98" y2="33.002" gradientUnits="userSpaceOnUse"><stop offset="0" stop-color="#1850a6"/><stop offset=".336" stop-color="#70a7ff"/><stop offset=".675" stop-color="#1a4180"/><stop offset="1" stop-color="#0b2b5c"/></linearGradient><rect width="2" height="3" x="13" y="30" fill="url(#AlT1tp1aqq3pTxfMvyB_HD)"/><linearGradient id="AlT1tp1aqq3pTxfMvyB_HE" x1="6.5" x2="6.5" y1="30.017" y2="32.725" gradientUnits="userSpaceOnUse"><stop offset="0" stop-color="#ab26ba"/><stop offset=".336" stop-color="#dd9fe6"/><stop offset=".675" stop-color="#cd51db"/><stop offset="1" stop-color="#ab26ba"/></linearGradient><path fill="url(#AlT1tp1aqq3pTxfMvyB_HE)" d="M13,33c0,0-7,0-9,0c-4,0-4-5-4-5s1,2,4,2c2,0,9,0,9,0V33z"/><linearGradient id="AlT1tp1aqq3pTxfMvyB_HF" x1="2.057" x2="3.828" y1="32.953" y2="31.477" gradientUnits="userSpaceOnUse"><stop offset="0" stop-color="#ab26ba"/><stop offset="1" stop-color="#ab26ba" stop-opacity="0"/></linearGradient><path fill="url(#AlT1tp1aqq3pTxfMvyB_HF)" d="M10,33c0,0-4,0-6,0c-4,0-4-5-4-5s1,2,4,2c2,0,6,0,6,0V33z"/><path fill="#ed1c24" d="M4.046,5.812L2.188,3.954c-0.251-0.251-0.251-0.657,0-0.908l1.858-1.858	c0.251-0.251,0.657-0.251,0.908,0l1.858,1.858c0.251,0.251,0.251,0.657,0,0.908L4.954,5.812C4.703,6.063,4.297,6.063,4.046,5.812z"/><path fill="#0072f2" d="M16.455,9.774l-2.23-2.23c-0.301-0.301-0.301-0.788,0-1.089l2.23-2.23	c0.301-0.301,0.788-0.301,1.089,0l2.23,2.23c0.301,0.301,0.301,0.788,0,1.089l-2.23,2.23C17.244,10.075,16.756,10.075,16.455,9.774z"/><path fill="#f01cff" d="M28.865,46.737l-2.602-2.602c-0.351-0.351-0.351-0.92,0-1.271l2.602-2.602	c0.351-0.351,0.92-0.351,1.271,0l2.602,2.602c0.351,0.351,0.351,0.92,0,1.271l-2.602,2.602	C29.784,47.088,29.216,47.088,28.865,46.737z"/><path fill="#f2c200" d="M6.455,42.774l-2.23-2.23c-0.301-0.301-0.301-0.788,0-1.089l2.23-2.23	c0.301-0.301,0.788-0.301,1.089,0l2.23,2.23c0.301,0.301,0.301,0.788,0,1.089l-2.23,2.23C7.244,43.075,6.756,43.075,6.455,42.774z"/></svg>