<svg xmlns="http://www.w3.org/2000/svg"  viewBox="0 0 48 48" width="48px" height="48px"><linearGradient id="0fNVDNBGs8zFiB7cDozbWa" x1="13.954" x2="21.965" y1="30.687" y2="35.153" gradientTransform="rotate(45.001 24 27.003)" gradientUnits="userSpaceOnUse"><stop offset="0" stop-color="#0b71d9"/><stop offset=".628" stop-color="#264774"/></linearGradient><path fill="url(#0fNVDNBGs8zFiB7cDozbWa)" d="M20.467,19.052c-1.592,0.377-3.243,0.136-4.949-0.707c-3.009,1.792-5.54,3.964-7.748,6.394	l7.747,3.505L20.467,19.052z"/><linearGradient id="0fNVDNBGs8zFiB7cDozbWb" x1="29.537" x2="38.043" y1="32.945" y2="29.515" gradientTransform="scale(-1 1) rotate(-45 9 106.674)" gradientUnits="userSpaceOnUse"><stop offset="0" stop-color="#0b71d9"/><stop offset="1" stop-color="#264774"/></linearGradient><path fill="url(#0fNVDNBGs8zFiB7cDozbWb)" d="M28.952,27.536c-0.377,1.592-0.136,3.243,0.707,4.949c-1.792,3.009-3.964,5.54-6.394,7.748	l-3.505-7.747L28.952,27.536z"/><radialGradient id="0fNVDNBGs8zFiB7cDozbWc" cx="26.765" cy="20.517" r="15.992" gradientTransform="matrix(.6804 .7329 -2.6254 2.4374 66.197 -45.252)" gradientUnits="userSpaceOnUse"><stop offset=".17" stop-color="#999"/><stop offset=".481" stop-color="#eee"/><stop offset=".707" stop-color="#ececec"/><stop offset=".788" stop-color="#e5e5e5"/><stop offset=".846" stop-color="#dadada"/><stop offset=".893" stop-color="#c9c9c9"/><stop offset=".933" stop-color="#b3b3b3"/><stop offset=".968" stop-color="#989898"/><stop offset=".999" stop-color="#797979"/><stop offset="1" stop-color="#787878"/></radialGradient><path fill="url(#0fNVDNBGs8zFiB7cDozbWc)" d="M41.066,7.782c-0.05-0.444-0.401-0.795-0.845-0.845C35.373,6.388,28.841,6.707,24.8,12.07	L13.452,27.593l3.479,3.479l3.479,3.479l15.523-11.347C41.296,19.163,41.615,12.631,41.066,7.782z"/><linearGradient id="0fNVDNBGs8zFiB7cDozbWd" x1="18.438" x2="25.466" y1="35.855" y2="35.912" gradientTransform="rotate(45.001 24 27.003)" gradientUnits="userSpaceOnUse"><stop offset="0" stop-color="#0b71d9"/><stop offset="1" stop-color="#264774"/></linearGradient><polygon fill="url(#0fNVDNBGs8zFiB7cDozbWd)" points="19.053,36.022 11.982,28.951 14.103,28.244 19.76,33.9"/><linearGradient id="0fNVDNBGs8zFiB7cDozbWe" x1="21.902" x2="21.834" y1="38.285" y2="47.954" gradientTransform="rotate(45.001 24 27.003)" gradientUnits="userSpaceOnUse"><stop offset="0" stop-color="#ff7900"/><stop offset="1" stop-color="#e51e25"/></linearGradient><path fill="url(#0fNVDNBGs8zFiB7cDozbWe)" d="M17.259,34.223l-1.739-1.739l-1.739-1.739c0,0-3.892-0.011-5.731,3.293	c0.957,0.049,0.766,0.763-0.214,1.603c-0.573,0.492-0.928,1.403-0.93,2.216c0.952-0.277,0.713,1.581,0.095,3.145	c1.564-0.618,3.423-0.857,3.145,0.095c0.814-0.003,1.721-0.36,2.213-0.933c0.84-0.979,1.557-1.168,1.606-0.21	C17.27,38.115,17.259,34.223,17.259,34.223z"/><radialGradient id="0fNVDNBGs8zFiB7cDozbWf" cx="21.945" cy="37.248" r="9.096" gradientTransform="rotate(45.001 33.751 31.042) scale(1 1.2072)" gradientUnits="userSpaceOnUse"><stop offset="0" stop-color="#fff"/><stop offset=".254" stop-color="#ffda4e"/><stop offset=".699" stop-color="#ff7900"/><stop offset=".975" stop-color="#e51f25"/></radialGradient><path fill="url(#0fNVDNBGs8zFiB7cDozbWf)" d="M16.992,33.956l-1.472-1.472l-1.472-1.472c-0.936,0.088-3.546,0.969-5.205,2.971	c0.517,0.316,0.365,1.119-0.028,1.596c-0.317,0.384-1.229,0.965-1.584,2.084c0.768-0.151,1.058,0.857,0.366,2.745	c1.888-0.692,2.896-0.402,2.745,0.366c1.119-0.355,1.7-1.267,2.084-1.584c0.477-0.394,1.281-0.545,1.596-0.028	C16.024,37.502,16.904,34.892,16.992,33.956z"/><linearGradient id="0fNVDNBGs8zFiB7cDozbWg" x1="22.524" x2="21.365" y1="32.412" y2="48.326" gradientTransform="rotate(46.717 23.591 27.646)" gradientUnits="userSpaceOnUse"><stop offset="0" stop-color="#fff"/><stop offset=".404" stop-color="#ffda4e"/><stop offset=".699" stop-color="#ff7900"/><stop offset=".975" stop-color="#e51f25"/></linearGradient><path fill="url(#0fNVDNBGs8zFiB7cDozbWg)" d="M14.4,33.571c-1.712,2.272-3.97,2.14-5.959,5.973C10.848,36.744,13.428,36.879,14.4,33.571z"/><linearGradient id="0fNVDNBGs8zFiB7cDozbWh" x1="24.574" x2="23.754" y1="35.699" y2="46.96" gradientTransform="matrix(.7174 .6967 -.8119 .836 29.893 -13.915)" gradientUnits="userSpaceOnUse"><stop offset="0" stop-color="#fff"/><stop offset=".254" stop-color="#ffda4e"/><stop offset=".594" stop-color="#ff7900"/><stop offset=".975" stop-color="#e51f25"/></linearGradient><path fill="url(#0fNVDNBGs8zFiB7cDozbWh)" d="M10.87,39.948c1.462-3.3,3.253-2.354,5.009-4.775C14.765,38.553,12.765,38.255,10.87,39.948z"/><linearGradient id="0fNVDNBGs8zFiB7cDozbWi" x1="21.928" x2="21.337" y1="35.886" y2="44.002" gradientTransform="matrix(.969 .9374 -.9598 .9921 29.654 -25.434)" gradientUnits="userSpaceOnUse"><stop offset="0" stop-color="#fff"/><stop offset=".28" stop-color="#ffda4e"/><stop offset=".834" stop-color="#ff7900"/><stop offset=".943" stop-color="#e51f25"/></linearGradient><path fill="url(#0fNVDNBGs8zFiB7cDozbWi)" d="M10.997,35.686c0.83-2.135,2.042-1.657,3.108-3.194	C13.511,34.693,12.189,34.638,10.997,35.686z"/><linearGradient id="0fNVDNBGs8zFiB7cDozbWj" x1="22.953" x2="22.45" y1="38.736" y2="45.636" gradientTransform="matrix(.7656 1.1098 -1.1363 .7838 42.552 -20.313)" gradientUnits="userSpaceOnUse"><stop offset="0" stop-color="#fff"/><stop offset=".28" stop-color="#ffda4e"/><stop offset=".536" stop-color="#ff7900"/><stop offset=".943" stop-color="#e51f25"/></linearGradient><path fill="url(#0fNVDNBGs8zFiB7cDozbWj)" d="M8.28,40.255c1.037-1.72,1.935-1.095,3.061-2.253C10.482,39.821,9.423,39.545,8.28,40.255z"/><linearGradient id="0fNVDNBGs8zFiB7cDozbWk" x1="25.498" x2="25.047" y1="39.306" y2="45.51" gradientTransform="matrix(-.9692 -1.2218 -1.0815 .8578 80.487 30.673)" gradientUnits="userSpaceOnUse"><stop offset="0" stop-color="#fff"/><stop offset=".28" stop-color="#ffda4e"/><stop offset=".491" stop-color="#ff7900"/><stop offset=".943" stop-color="#e51f25"/></linearGradient><path fill="url(#0fNVDNBGs8zFiB7cDozbWk)" d="M7.683,38.442c1.724-0.395,1.372-1.487,2.625-2.167C8.536,36.461,8.548,37.586,7.683,38.442z"/><linearGradient id="0fNVDNBGs8zFiB7cDozbWl" x1="27.104" x2="26.555" y1="35.365" y2="42.897" gradientTransform="matrix(-1.0373 -.8612 -.8818 1.0621 76.835 16.854)" gradientUnits="userSpaceOnUse"><stop offset="0" stop-color="#fff"/><stop offset=".37" stop-color="#ffda4e"/><stop offset=".834" stop-color="#ff7900"/><stop offset=".943" stop-color="#e51f25"/></linearGradient><path fill="url(#0fNVDNBGs8zFiB7cDozbWl)" d="M13.483,36.588c1.93-0.972,1.354-2.021,2.696-3.145	C14.16,34.209,14.349,35.401,13.483,36.588z"/><linearGradient id="0fNVDNBGs8zFiB7cDozbWm" x1="24.645" x2="23.832" y1="35.245" y2="46.405" gradientTransform="matrix(-.6743 -.7385 -.933 .8519 65.127 17.391)" gradientUnits="userSpaceOnUse"><stop offset="0" stop-color="#fff"/><stop offset=".254" stop-color="#ffda4e"/><stop offset=".602" stop-color="#ff7900"/><stop offset=".975" stop-color="#e51f25"/></linearGradient><path fill="url(#0fNVDNBGs8zFiB7cDozbWm)" d="M8.134,36.827c3.275-1.446,2.812-3.157,5.262-4.88C10.068,33.058,9.893,34.976,8.134,36.827z"/><linearGradient id="0fNVDNBGs8zFiB7cDozbWn" x1="21.311" x2="22.311" y1="32.285" y2="32.285" gradientTransform="rotate(45.001 24 27.003)" gradientUnits="userSpaceOnUse"><stop offset="0" stop-color="#264774"/><stop offset="1" stop-color="#264774"/></linearGradient><polygon fill="url(#0fNVDNBGs8zFiB7cDozbWn)" points="15.536,33.079 14.828,32.372 21.9,25.301 22.607,26.008"/><rect width="1" height="2.346" x="22.582" y="23.652" fill="#288bd7" transform="rotate(45.001 23.083 24.825)"/><linearGradient id="0fNVDNBGs8zFiB7cDozbWo" x1="18.089" x2="25.664" y1="4.507" y2="4.507" gradientTransform="rotate(45.001 24 27.003)" gradientUnits="userSpaceOnUse"><stop offset="0" stop-color="#f68381"/><stop offset=".547" stop-color="#e62228"/><stop offset=".903" stop-color="#8e2809"/></linearGradient><path fill="url(#0fNVDNBGs8zFiB7cDozbWo)" d="M40.522,16.479c0.876-2.951,0.841-6.07,0.544-8.697c-0.05-0.444-0.401-0.795-0.845-0.845	c-2.626-0.297-5.746-0.332-8.697,0.544L40.522,16.479z"/><linearGradient id="0fNVDNBGs8zFiB7cDozbWp" x1="14.567" x2="29.191" y1="9.838" y2="9.838" gradientTransform="rotate(45.001 24 27.003)" gradientUnits="userSpaceOnUse"><stop offset="0" stop-color="#fff" stop-opacity=".8"/><stop offset="1" stop-color="#fff" stop-opacity="0"/></linearGradient><path fill="url(#0fNVDNBGs8zFiB7cDozbWp)" d="M39.837,18.32L29.683,8.166c-0.113,0.051-0.227,0.097-0.338,0.152l10.341,10.341	C39.74,18.547,39.786,18.433,39.837,18.32z"/><linearGradient id="0fNVDNBGs8zFiB7cDozbWq" x1="14.69" x2="29.067" y1="9.515" y2="9.515" gradientTransform="rotate(45.001 24 27.003)" gradientUnits="userSpaceOnUse"><stop offset=".293" stop-color="#cbcbcb"/><stop offset="1" stop-color="#666"/></linearGradient><path fill="url(#0fNVDNBGs8zFiB7cDozbWq)" d="M39.979,18.004l-9.98-9.98c-0.114,0.048-0.226,0.1-0.338,0.152l10.166,10.166	C39.878,18.23,39.931,18.118,39.979,18.004z"/><linearGradient id="0fNVDNBGs8zFiB7cDozbWr" x1="15.175" x2="28.582" y1="23.578" y2="23.578" gradientTransform="rotate(45.001 24 27.003)" gradientUnits="userSpaceOnUse"><stop offset="0" stop-color="#fff" stop-opacity=".8"/><stop offset="1" stop-color="#fff" stop-opacity="0"/></linearGradient><polygon fill="url(#0fNVDNBGs8zFiB7cDozbWr)" points="29.785,27.698 20.305,18.219 20.098,18.502 29.502,27.905"/><linearGradient id="0fNVDNBGs8zFiB7cDozbWs" x1="15.125" x2="28.632" y1="23.254" y2="23.254" gradientTransform="rotate(45.001 24 27.003)" gradientUnits="userSpaceOnUse"><stop offset=".293" stop-color="#cbcbcb"/><stop offset="1" stop-color="#666"/></linearGradient><polygon fill="url(#0fNVDNBGs8zFiB7cDozbWs)" points="30.049,27.505 20.498,17.954 20.291,18.237 29.766,27.712"/><radialGradient id="0fNVDNBGs8zFiB7cDozbWt" cx="22.767" cy="17.138" r="5.887" gradientTransform="rotate(45.001 24 27.003)" gradientUnits="userSpaceOnUse"><stop offset="0" stop-opacity=".8"/><stop offset=".384" stop-color="#020202" stop-opacity=".491"/><stop offset=".53" stop-color="#090909" stop-opacity=".373"/><stop offset=".636" stop-color="#151515" stop-opacity=".288"/><stop offset=".722" stop-color="#262626" stop-opacity=".218"/><stop offset=".797" stop-color="#3c3c3c" stop-opacity=".158"/><stop offset=".863" stop-color="#585858" stop-opacity=".105"/><stop offset=".923" stop-color="#797979" stop-opacity=".057"/><stop offset=".976" stop-color="#9e9e9e" stop-opacity=".014"/><stop offset=".993" stop-color="#ababab" stop-opacity="0"/></radialGradient><circle cx="30.069" cy="19.191" r="6.169" fill="url(#0fNVDNBGs8zFiB7cDozbWt)"/><linearGradient id="0fNVDNBGs8zFiB7cDozbWu" x1="17.155" x2="27.634" y1="16.879" y2="16.879" gradientTransform="rotate(45.001 24 27.003)" gradientUnits="userSpaceOnUse"><stop offset="0" stop-color="#e7e7e7"/><stop offset="1" stop-color="#999"/></linearGradient><circle cx="29.659" cy="18.344" r="5.455" fill="url(#0fNVDNBGs8zFiB7cDozbWu)"/><linearGradient id="0fNVDNBGs8zFiB7cDozbWv" x1="26.518" x2="17.956" y1="16.833" y2="16.917" gradientTransform="rotate(45.001 24 27.003)" gradientUnits="userSpaceOnUse"><stop offset="0" stop-color="#c8c8c8"/><stop offset="1" stop-color="#aaa"/></linearGradient><circle cx="29.659" cy="18.344" r="4.457" fill="url(#0fNVDNBGs8zFiB7cDozbWv)"/><linearGradient id="0fNVDNBGs8zFiB7cDozbWw" x1="17.879" x2="25.879" y1="16.879" y2="16.879" gradientTransform="rotate(45.001 24 27.003)" gradientUnits="userSpaceOnUse"><stop offset="0" stop-color="#78d9f4"/><stop offset=".846" stop-color="#0b71d9"/></linearGradient><circle cx="29.659" cy="18.344" r="4" fill="url(#0fNVDNBGs8zFiB7cDozbWw)"/><radialGradient id="0fNVDNBGs8zFiB7cDozbWx" cx="36.084" cy="-5.535" r="4.264" gradientTransform="rotate(-44.998 61.71 39.148) scale(1.4829 .283)" gradientUnits="userSpaceOnUse"><stop offset="0" stop-color="#fff" stop-opacity=".5"/><stop offset=".141" stop-color="#fff" stop-opacity=".429"/><stop offset=".999" stop-color="#fff" stop-opacity="0"/></radialGradient><path fill="url(#0fNVDNBGs8zFiB7cDozbWx)" d="M30.428,14.886c0.237,0.237-1.402,0.537-2.556,1.691c-1.154,1.154-1.386,2.725-1.623,2.488	c-0.237-0.237-0.643-1.902,0.796-3.341C28.327,14.442,30.192,14.649,30.428,14.886z"/><linearGradient id="0fNVDNBGs8zFiB7cDozbWy" x1="25.679" x2="45.194" y1=".664" y2="15.059" gradientTransform="translate(-.15 -.062)" gradientUnits="userSpaceOnUse"><stop offset="0" stop-color="#fff" stop-opacity=".8"/><stop offset=".794" stop-color="#fff" stop-opacity="0"/></linearGradient><path fill="url(#0fNVDNBGs8zFiB7cDozbWy)" d="M33.62,9.577c1.656-0.745,3.595-1.354,5.875-1.68c0,0-3.324-0.866-7.277,0.279L33.62,9.577z"/></svg>