<svg xmlns="http://www.w3.org/2000/svg"  viewBox="0 0 48 48" width="48px" height="48px"><radialGradient id="aKe2pNo7Gsz6n6rvTODDca" cx="24" cy="24" r="18" fx="23.905" fy="16.289" gradientTransform="matrix(-1 0 0 1 48 0)" gradientUnits="userSpaceOnUse"><stop offset="0" stop-color="#ffe16e"/><stop offset=".629" stop-color="#ffd226"/><stop offset=".75" stop-color="#fdcd23"/><stop offset=".899" stop-color="#f6bd1b"/><stop offset=".999" stop-color="#f0af13"/></radialGradient><circle cx="24" cy="24" r="18" fill="url(#aKe2pNo7Gsz6n6rvTODDca)"/><radialGradient id="aKe2pNo7Gsz6n6rvTODDcb" cx="36" cy="27" r="5" gradientUnits="userSpaceOnUse"><stop offset="0" stop-color="#ff8400" stop-opacity=".6"/><stop offset=".999" stop-color="#ff8400" stop-opacity="0"/></radialGradient><circle cx="36" cy="27" r="5" fill="url(#aKe2pNo7Gsz6n6rvTODDcb)"/><radialGradient id="aKe2pNo7Gsz6n6rvTODDcc" cx="12" cy="27" r="5" gradientUnits="userSpaceOnUse"><stop offset="0" stop-color="#ff8400" stop-opacity=".6"/><stop offset=".999" stop-color="#ff8400" stop-opacity="0"/></radialGradient><circle cx="12" cy="27" r="5" fill="url(#aKe2pNo7Gsz6n6rvTODDcc)"/><radialGradient id="aKe2pNo7Gsz6n6rvTODDcd" cx="29.166" cy="18.794" r="7.026" gradientUnits="userSpaceOnUse"><stop offset=".001" stop-color="#ff634f"/><stop offset=".628" stop-color="#ee4023"/><stop offset="1" stop-color="#e62f0e"/></radialGradient><path fill="url(#aKe2pNo7Gsz6n6rvTODDcd)" d="M35.092,18.087c-1.416-0.587-2.773-0.034-2.773-0.034s-0.563-1.348-1.985-1.937	c-1.577-0.653-3.384,0.096-4.038,1.672C24.877,21.215,29.027,26,29.027,26s6.318-0.449,7.737-3.875	C37.417,20.548,36.668,18.741,35.092,18.087z"/><radialGradient id="aKe2pNo7Gsz6n6rvTODDce" cx="14.916" cy="19.43" r="7.056" gradientUnits="userSpaceOnUse"><stop offset=".001" stop-color="#ff634f"/><stop offset=".628" stop-color="#ee4023"/><stop offset="1" stop-color="#e62f0e"/></radialGradient><path fill="url(#aKe2pNo7Gsz6n6rvTODDce)" d="M12.908,18.087c1.416-0.587,2.773-0.034,2.773-0.034s0.563-1.348,1.985-1.937	c1.577-0.653,3.384,0.096,4.038,1.672C23.123,21.215,18.973,26,18.973,26s-6.318-0.449-7.737-3.875	C10.583,20.548,11.332,18.741,12.908,18.087z"/><radialGradient id="aKe2pNo7Gsz6n6rvTODDcf" cx="134.219" cy="30.497" r="5.456" fx="134.215" fy="30.701" gradientTransform="matrix(1.9165 0 0 1.0383 -233.232 -1.339)" gradientUnits="userSpaceOnUse"><stop offset=".947" stop-color="#ffe16e"/><stop offset="1" stop-color="#ffe16e" stop-opacity="0"/></radialGradient><path fill="url(#aKe2pNo7Gsz6n6rvTODDcf)" d="M32.642,30c0,0-1.996,5-8.642,5c-6.156,0-8.637-5-8.637-5s1.627,2.305,8.72,2.305	S32.642,30,32.642,30z"/><radialGradient id="aKe2pNo7Gsz6n6rvTODDcg" cx="6.843" cy="28.488" r="8.479" gradientTransform="matrix(1.0924 0 0 1.1169 16.629 -4.326)" gradientUnits="userSpaceOnUse"><stop offset=".819" stop-color="#cc9000"/><stop offset=".988" stop-color="#fbbc23" stop-opacity=".069"/><stop offset="1" stop-color="#ffbf26" stop-opacity="0"/></radialGradient><path fill="url(#aKe2pNo7Gsz6n6rvTODDcg)" d="M24,35c-6.815,0-9.227-5.819-9.227-5.819S15.923,37,24,37s9.227-7.819,9.227-7.819	S30.815,35,24,35z"/><radialGradient id="aKe2pNo7Gsz6n6rvTODDch" cx="24" cy="29.843" r="9.652" gradientTransform="matrix(1 0 0 .3754 0 18.64)" gradientUnits="userSpaceOnUse"><stop offset="0" stop-color="#1c1911"/><stop offset=".999" stop-color="#171714"/></radialGradient><path fill="url(#aKe2pNo7Gsz6n6rvTODDch)" d="M32.378,28.788c0.455-0.38,1.076,0.215,0.717,0.687C31.453,31.634,28.603,34,24,34	s-7.453-2.366-9.095-4.525c-0.359-0.472,0.262-1.067,0.717-0.687C17.501,30.355,20.344,32,24,32S30.499,30.355,32.378,28.788z"/></svg>