<svg xmlns="http://www.w3.org/2000/svg"  viewBox="0 0 48 48" width="96px" height="96px"><radialGradient id="4ewY6DNs~jtBz_ZnueXS3a" cx="17.311" cy="21.608" r="22.062" gradientTransform="matrix(1 0 0 .9024 0 2.109)" gradientUnits="userSpaceOnUse"><stop offset="0" stop-color="#ffe16e"/><stop offset=".629" stop-color="#ffd226"/><stop offset=".75" stop-color="#fdcd23"/><stop offset=".899" stop-color="#f6bd1b"/><stop offset=".999" stop-color="#f0af13"/></radialGradient><path fill="url(#4ewY6DNs~jtBz_ZnueXS3a)" d="M6.265,20.892h3.128c1.834,0,3.569-0.778,4.826-2.113c0.578-0.614,1.237-1.181,1.968-1.681	c0.146-0.1,0.3-0.177,0.449-0.27l2.729-1.913l3.417-2.405l0.264-0.281c0.947-1.01,1.63-2.243,1.992-3.59l0.786-2.938	c0.151-0.576,0.669-0.967,1.251-0.955c3.73,0.277,4.355,6.85,1.462,13.512c-0.036,0.083-0.089,0.216-0.044,0.358	c0.058,0.18,0.341,0.273,0.86,0.319c0.461,0.041,7.44,0.663,8.948,0.663c0.859,0-2.399,18.486-2.399,19.966	c0,1.657-1.438,3.287-3.095,3.287c-0.003,0-14.022,0.322-16.705-0.747c-0.939-0.374-1.77-1.028-2.458-1.837	c-1.267-1.489-3.102-2.376-5.057-2.376H6.265c-0.697,0-1.261-3.806-1.261-8.5C5.004,24.697,5.568,20.892,6.265,20.892z"/><g opacity=".87"><linearGradient id="4ewY6DNs~jtBz_ZnueXS3b" x1="29.818" x2="24.147" y1="31.05" y2="31.05" gradientUnits="userSpaceOnUse"><stop offset="0" stop-color="#f6be23" stop-opacity=".35"/><stop offset="1" stop-color="#fed435"/></linearGradient><linearGradient id="4ewY6DNs~jtBz_ZnueXS3c" x1="31.952" x2="23.261" y1="30.059" y2="32.611" gradientUnits="userSpaceOnUse"><stop offset="0" stop-color="#f4ba22" stop-opacity=".409"/><stop offset="1" stop-color="#fbce32"/></linearGradient><path fill="url(#4ewY6DNs~jtBz_ZnueXS3c)" d="M24.243,23.218c-0.127,0.737-0.016,1.437,0.269,2.039 c0.379,0.802,0.333,1.755-0.278,2.398c-0.574,0.603-0.928,1.416-0.93,2.316c0,0.032,0,0.064,0.001,0.096 c0.012,0.479,0.124,0.933,0.315,1.344c0.354,0.761,0.25,1.669-0.3,2.304c-0.094,0.108-0.18,0.223-0.26,0.344 c-0.349,0.534-0.551,1.179-0.548,1.865c0,0,0,0,0,0c0.001,0.288,0.039,0.567,0.11,0.832c0.052,0.193,0.121,0.381,0.206,0.56 c0.142,0.3,0.21,0.611,0.202,0.901c-0.006,0.216-0.051,0.451-0.177,0.671c-0.069,0.12-0.143,0.241-0.228,0.355 c-0.326,0.437-0.491,0.988-0.422,1.6c0.129,1.138,1.308,2.026,2.453,2.054c0.003,0,0.056,0,0.059,0l3.321,0 c1.628,0,2.752-0.911,2.843-2.151c0.053-0.715-0.219-1.368-0.682-1.827c1.095-0.565,1.851-1.693,1.851-3.01v0 c0-1.116-0.542-2.1-1.373-2.72c-0.022-0.02-0.015-0.056,0.016-0.068c1.243-0.505,2.123-1.716,2.123-3.14 c0-1.197-0.624-2.24-1.56-2.845c-0.026-0.019-0.017-0.059,0.018-0.069c1.554-0.465,2.647-1.996,2.391-3.754 c-0.246-1.689,0.734-3.795-0.973-3.795l-4.048-0.185c-0.144-0.009-0.289-0.009-0.431,0.013 C26.031,19.672,24.518,21.629,24.243,23.218z" opacity=".091"/><linearGradient id="4ewY6DNs~jtBz_ZnueXS3d" x1="33.502" x2="23.157" y1="28.159" y2="34.807" gradientUnits="userSpaceOnUse"><stop offset="0" stop-color="#f2b721" stop-opacity=".468"/><stop offset="1" stop-color="#f9c930"/></linearGradient><path fill="url(#4ewY6DNs~jtBz_ZnueXS3d)" d="M24.817,23.218c-0.127,0.737-0.016,1.437,0.269,2.039 c0.379,0.802,0.333,1.755-0.278,2.398c-0.572,0.601-0.926,1.411-0.93,2.308c0,0.032,0,0.063,0.001,0.095 c0.011,0.477,0.12,0.931,0.308,1.342c0.35,0.767,0.241,1.676-0.316,2.309c-0.095,0.108-0.183,0.223-0.264,0.347 c-0.352,0.538-0.553,1.194-0.546,1.883c0,0,0,0,0,0c0.003,0.29,0.043,0.571,0.117,0.836c0.054,0.193,0.128,0.384,0.217,0.565 c0.149,0.303,0.239,0.611,0.251,0.884c0.009,0.2-0.016,0.441-0.17,0.662c-0.08,0.114-0.158,0.232-0.247,0.343 c-0.343,0.427-0.518,0.97-0.453,1.593c0.12,1.145,1.294,2.043,2.445,2.073c0.006,0,0.057,0,0.063,0l3.326,0 c1.628,0,2.752-0.911,2.843-2.151c0.053-0.715-0.219-1.368-0.682-1.827c1.095-0.565,1.851-1.693,1.851-3.01v0 c0-1.118-0.545-2.105-1.378-2.724c-0.017-0.019-0.008-0.052,0.023-0.065c1.242-0.506,2.121-1.716,2.121-3.14 c0-1.2-0.628-2.246-1.567-2.85c-0.02-0.018-0.009-0.055,0.026-0.065c1.554-0.465,2.647-1.996,2.39-3.753 c-0.246-1.689,0.731-3.788-0.976-3.788l-4.208-0.072c-0.14-0.007-0.281-0.006-0.418,0.015 C26.47,19.788,25.091,21.631,24.817,23.218z" opacity=".182"/><linearGradient id="4ewY6DNs~jtBz_ZnueXS3e" x1="33.903" x2="24.075" y1="25.811" y2="37.154" gradientUnits="userSpaceOnUse"><stop offset="0" stop-color="#f0b320" stop-opacity=".527"/><stop offset="1" stop-color="#f6c32d"/></linearGradient><path fill="url(#4ewY6DNs~jtBz_ZnueXS3e)" d="M25.39,23.218c-0.127,0.737-0.016,1.437,0.269,2.039 c0.379,0.802,0.333,1.755-0.278,2.398c-0.571,0.599-0.923,1.407-0.93,2.3c0,0.032,0,0.063,0.001,0.094 c0.01,0.475,0.116,0.929,0.301,1.34c0.347,0.773,0.233,1.682-0.332,2.314c-0.096,0.108-0.186,0.224-0.268,0.349 c-0.354,0.542-0.554,1.209-0.545,1.901c0,0,0,0,0,0c0.004,0.291,0.046,0.574,0.124,0.841c0.057,0.194,0.135,0.387,0.228,0.57 c0.156,0.306,0.268,0.611,0.301,0.867c0.024,0.184,0.021,0.432-0.163,0.654c-0.089,0.108-0.173,0.222-0.266,0.331 c-0.36,0.417-0.545,0.952-0.485,1.586c0.111,1.152,1.28,2.06,2.436,2.093c0.009,0,0.058,0.001,0.068,0.001l3.332,0 c1.628,0,2.752-0.911,2.843-2.151c0.053-0.715-0.219-1.368-0.682-1.827c1.095-0.565,1.851-1.693,1.851-3.01v0 c0-1.121-0.547-2.109-1.384-2.728c-0.012-0.018-0.001-0.049,0.03-0.061c1.241-0.506,2.12-1.716,2.12-3.139 c0-1.203-0.631-2.251-1.574-2.854c-0.015-0.017-0.001-0.05,0.033-0.061c1.553-0.465,2.646-1.996,2.39-3.753 c-0.246-1.689,0.727-3.782-0.98-3.782l-4.367,0.041c-0.136-0.005-0.272-0.003-0.405,0.017 C26.909,19.904,25.664,21.633,25.39,23.218z" opacity=".273"/><linearGradient id="4ewY6DNs~jtBz_ZnueXS3f" x1="33.009" x2="26.007" y1="23.794" y2="39.127" gradientUnits="userSpaceOnUse"><stop offset="0" stop-color="#eeb01f" stop-opacity=".586"/><stop offset="1" stop-color="#f3be2a"/></linearGradient><path fill="url(#4ewY6DNs~jtBz_ZnueXS3f)" d="M25.964,23.218c-0.127,0.737-0.016,1.437,0.269,2.039 c0.379,0.802,0.333,1.755-0.278,2.398c-0.569,0.598-0.921,1.402-0.93,2.292c0,0.031,0,0.063,0,0.094 c0.009,0.473,0.113,0.926,0.294,1.338c0.343,0.779,0.224,1.689-0.348,2.319c-0.098,0.108-0.189,0.225-0.272,0.352 c-0.356,0.546-0.556,1.224-0.543,1.919c0,0,0,0,0,0c0.006,0.293,0.05,0.578,0.131,0.845c0.059,0.195,0.142,0.391,0.239,0.576 c0.163,0.309,0.296,0.611,0.35,0.85c0.038,0.168,0.058,0.422-0.156,0.646c-0.098,0.102-0.188,0.213-0.286,0.319 c-0.377,0.408-0.572,0.933-0.516,1.58c0.102,1.159,1.265,2.076,2.428,2.112c0.012,0,0.06,0.001,0.072,0.001l3.337,0 c1.628,0,2.752-0.911,2.843-2.151c0.053-0.715-0.219-1.368-0.682-1.827c1.095-0.565,1.851-1.693,1.851-3.01v0 c0-1.123-0.549-2.113-1.389-2.732c-0.007-0.017,0.006-0.045,0.036-0.058c1.241-0.506,2.119-1.716,2.119-3.139 c0-1.206-0.634-2.256-1.581-2.859c-0.009-0.016,0.006-0.046,0.041-0.057c1.553-0.465,2.646-1.996,2.39-3.753 c-0.246-1.689,0.723-3.775-0.984-3.775l-4.527,0.155c-0.132-0.004-0.264,0-0.392,0.019C27.348,20.019,26.238,21.635,25.964,23.218z" opacity=".364"/><linearGradient id="4ewY6DNs~jtBz_ZnueXS3g" x1="31.397" x2="28.899" y1="22.88" y2="40.258" gradientUnits="userSpaceOnUse"><stop offset="0" stop-color="#ecac1e" stop-opacity=".645"/><stop offset="1" stop-color="#f0b827"/></linearGradient><path fill="url(#4ewY6DNs~jtBz_ZnueXS3g)" d="M26.537,23.218c-0.127,0.737-0.016,1.437,0.269,2.039 c0.379,0.802,0.333,1.755-0.278,2.398c-0.567,0.596-0.919,1.397-0.929,2.283c0,0.031,0,0.062,0,0.093 c0.007,0.471,0.109,0.924,0.287,1.336c0.339,0.786,0.216,1.695-0.364,2.324c-0.099,0.107-0.191,0.225-0.276,0.355 c-0.358,0.55-0.558,1.24-0.541,1.937c0,0,0,0,0,0c0.007,0.295,0.053,0.582,0.138,0.85c0.062,0.196,0.148,0.394,0.25,0.581 c0.17,0.312,0.324,0.61,0.399,0.833c0.051,0.151,0.097,0.414-0.149,0.637c-0.106,0.097-0.203,0.204-0.305,0.306 c-0.394,0.399-0.599,0.915-0.548,1.573c0.093,1.166,1.251,2.093,2.42,2.131c0.016,0.001,0.061,0.001,0.076,0.001l3.343,0 c1.628,0,2.752-0.911,2.843-2.151c0.053-0.715-0.219-1.368-0.682-1.827c1.095-0.565,1.851-1.693,1.851-3.01v0 c0-1.126-0.552-2.118-1.395-2.736c-0.002-0.016,0.013-0.042,0.043-0.054c1.24-0.507,2.118-1.716,2.118-3.138 c0-1.209-0.637-2.261-1.588-2.863c-0.003-0.015,0.014-0.042,0.048-0.052c1.553-0.465,2.645-1.996,2.389-3.753 c-0.246-1.689,0.72-3.769-0.987-3.769l-4.687,0.268c-0.128-0.002-0.256,0.003-0.379,0.021 C27.788,20.135,26.811,21.636,26.537,23.218z" opacity=".455"/><linearGradient id="4ewY6DNs~jtBz_ZnueXS3h" x1="29.731" x2="32.23" y1="23.071" y2="40.448" gradientUnits="userSpaceOnUse"><stop offset="0" stop-color="#eaa91c" stop-opacity=".705"/><stop offset="1" stop-color="#eeb325"/></linearGradient><path fill="url(#4ewY6DNs~jtBz_ZnueXS3h)" d="M27.111,23.218c-0.127,0.737-0.016,1.437,0.269,2.039 c0.379,0.802,0.333,1.755-0.278,2.398c-0.566,0.594-0.917,1.392-0.929,2.275c0,0.031,0,0.062,0,0.093 c0.006,0.469,0.105,0.922,0.28,1.334c0.335,0.792,0.208,1.702-0.38,2.329c-0.101,0.107-0.194,0.226-0.28,0.357 c-0.36,0.554-0.559,1.255-0.539,1.955c0,0,0,0,0,0c0.009,0.297,0.057,0.585,0.145,0.854c0.065,0.196,0.155,0.397,0.261,0.586 c0.177,0.315,0.35,0.609,0.449,0.816c0.064,0.135,0.136,0.407-0.142,0.629c-0.114,0.092-0.218,0.195-0.324,0.294 c-0.412,0.389-0.626,0.897-0.579,1.566c0.084,1.173,1.237,2.11,2.411,2.151c0.019,0.001,0.062,0.001,0.081,0.001l3.348,0 c1.628,0,2.752-0.911,2.843-2.151c0.053-0.715-0.219-1.368-0.682-1.827c1.095-0.565,1.851-1.693,1.851-3.01v0 c0-1.128-0.554-2.122-1.4-2.74c0.003-0.015,0.02-0.039,0.05-0.051c1.239-0.507,2.117-1.716,2.117-3.138 c0-1.212-0.64-2.266-1.595-2.868c0.003-0.014,0.022-0.038,0.055-0.048c1.553-0.465,2.645-1.996,2.389-3.753 c-0.246-1.689,0.716-3.762-0.991-3.762l-4.846,0.382c-0.124,0-0.247,0.006-0.366,0.023C28.227,20.251,27.384,21.638,27.111,23.218z" opacity=".545"/><linearGradient id="4ewY6DNs~jtBz_ZnueXS3i" x1="28.141" x2="35.454" y1="23.549" y2="39.563" gradientUnits="userSpaceOnUse"><stop offset="0" stop-color="#e8a51b" stop-opacity=".764"/><stop offset="1" stop-color="#ebad22"/></linearGradient><path fill="url(#4ewY6DNs~jtBz_ZnueXS3i)" d="M27.685,23.218c-0.127,0.737-0.016,1.437,0.269,2.039 c0.379,0.802,0.333,1.755-0.278,2.398c-0.564,0.592-0.915,1.387-0.929,2.267c0,0.031-0.001,0.061,0,0.092 c0.005,0.466,0.101,0.919,0.273,1.332c0.331,0.798,0.199,1.709-0.396,2.335c-0.102,0.107-0.197,0.227-0.284,0.36 c-0.362,0.558-0.561,1.27-0.538,1.972c0,0,0,0,0,0c0.01,0.299,0.06,0.589,0.152,0.858c0.067,0.197,0.162,0.401,0.272,0.591 c0.184,0.318,0.376,0.609,0.498,0.799c0.076,0.119,0.176,0.4-0.134,0.621c-0.122,0.087-0.234,0.185-0.343,0.282 c-0.429,0.379-0.653,0.878-0.611,1.559c0.075,1.18,1.222,2.127,2.403,2.17c0.022,0.001,0.063,0.001,0.085,0.001l3.354,0 c1.628,0,2.752-0.911,2.843-2.151c0.053-0.715-0.219-1.368-0.682-1.827c1.095-0.565,1.851-1.693,1.851-3.01v0 c0-1.13-0.557-2.126-1.406-2.744c0.008-0.014,0.027-0.035,0.057-0.047c1.239-0.507,2.115-1.716,2.115-3.137 c0-1.215-0.643-2.271-1.602-2.872c0.008-0.013,0.03-0.034,0.063-0.044c1.553-0.466,2.645-1.996,2.388-3.753 c-0.246-1.689,0.712-3.756-0.995-3.756l-5.006,0.495c-0.12,0.002-0.239,0.009-0.353,0.026 C28.666,20.366,27.957,21.64,27.685,23.218z" opacity=".636"/><linearGradient id="4ewY6DNs~jtBz_ZnueXS3j" x1="26.97" x2="37.818" y1="24.984" y2="37.503" gradientUnits="userSpaceOnUse"><stop offset="0" stop-color="#e6a21a" stop-opacity=".823"/><stop offset="1" stop-color="#e8a81f"/></linearGradient><path fill="url(#4ewY6DNs~jtBz_ZnueXS3j)" d="M28.258,23.218c-0.127,0.737-0.016,1.437,0.269,2.039 c0.379,0.802,0.333,1.755-0.278,2.398c-0.562,0.59-0.913,1.382-0.929,2.259c-0.001,0.03-0.001,0.061,0,0.092 c0.004,0.464,0.097,0.917,0.266,1.33c0.327,0.804,0.191,1.715-0.412,2.34c-0.103,0.107-0.2,0.227-0.288,0.363 c-0.364,0.562-0.563,1.285-0.536,1.99c0,0,0,0,0,0c0.011,0.3,0.064,0.593,0.159,0.863c0.07,0.198,0.169,0.404,0.283,0.597 c0.191,0.321,0.4,0.609,0.547,0.782c0.088,0.103,0.216,0.395-0.127,0.613c-0.13,0.083-0.249,0.176-0.362,0.27 c-0.447,0.368-0.68,0.86-0.642,1.553c0.066,1.187,1.208,2.144,2.394,2.19c0.025,0.001,0.065,0.002,0.09,0.002l3.359,0 c1.628,0,2.752-0.911,2.843-2.151c0.053-0.715-0.219-1.368-0.682-1.827c1.095-0.565,1.851-1.693,1.851-3.01v0 c0-1.133-0.559-2.131-1.411-2.748c0.013-0.013,0.034-0.032,0.063-0.044c1.238-0.507,2.114-1.716,2.114-3.137 c0-1.218-0.646-2.277-1.609-2.876c0.014-0.012,0.038-0.03,0.07-0.039c1.552-0.466,2.644-1.996,2.388-3.753 c-0.246-1.689,0.709-3.749-0.998-3.749l-5.165,0.608c-0.116,0.004-0.23,0.012-0.34,0.028 C29.105,20.482,28.531,21.642,28.258,23.218z" opacity=".727"/><linearGradient id="4ewY6DNs~jtBz_ZnueXS3k" x1="26.745" x2="38.788" y1="27.151" y2="34.891" gradientUnits="userSpaceOnUse"><stop offset="0" stop-color="#e49e19" stop-opacity=".882"/><stop offset="1" stop-color="#e5a21c"/></linearGradient><path fill="url(#4ewY6DNs~jtBz_ZnueXS3k)" d="M28.832,23.218c-0.127,0.737-0.016,1.437,0.269,2.039 c0.379,0.802,0.333,1.755-0.278,2.398c-0.56,0.588-0.91,1.377-0.929,2.251c-0.001,0.03-0.001,0.061-0.001,0.091 c0.002,0.462,0.094,0.915,0.259,1.328c0.324,0.81,0.182,1.722-0.428,2.345c-0.105,0.107-0.203,0.228-0.292,0.365 c-0.366,0.566-0.564,1.3-0.534,2.008c0,0,0,0,0,0c0.013,0.302,0.067,0.596,0.166,0.867c0.073,0.199,0.175,0.407,0.295,0.602 c0.198,0.324,0.423,0.611,0.597,0.765c0.099,0.088,0.256,0.39-0.12,0.604c-0.138,0.079-0.264,0.167-0.381,0.257 c-0.465,0.359-0.706,0.841-0.674,1.546c0.058,1.194,1.193,2.161,2.386,2.209c0.028,0.001,0.066,0.002,0.094,0.002l3.365,0 c1.628,0,2.752-0.911,2.843-2.151c0.053-0.715-0.219-1.368-0.682-1.827c1.095-0.565,1.851-1.693,1.851-3.01v0 c0-1.135-0.561-2.135-1.417-2.752c0.018-0.012,0.042-0.028,0.07-0.04c1.237-0.508,2.113-1.716,2.113-3.136 c0-1.221-0.649-2.282-1.616-2.881c0.02-0.011,0.046-0.025,0.078-0.035c1.552-0.466,2.644-1.996,2.388-3.753 c-0.246-1.689,0.705-3.743-1.002-3.743l-5.325,0.722c-0.112,0.006-0.222,0.015-0.327,0.03 C29.544,20.598,29.104,21.644,28.832,23.218z" opacity=".818"/><linearGradient id="4ewY6DNs~jtBz_ZnueXS3l" x1="27.804" x2="38.261" y1="29.483" y2="32.554" gradientUnits="userSpaceOnUse"><stop offset="0" stop-color="#e29b18" stop-opacity=".941"/><stop offset="1" stop-color="#e39d1a"/></linearGradient><path fill="url(#4ewY6DNs~jtBz_ZnueXS3l)" d="M29.406,23.218c-0.127,0.737-0.016,1.437,0.269,2.039 c0.379,0.802,0.333,1.755-0.278,2.398c-0.559,0.587-0.908,1.372-0.929,2.243c-0.001,0.03-0.001,0.06-0.001,0.09 c0.001,0.46,0.09,0.912,0.252,1.326c0.32,0.816,0.174,1.729-0.444,2.35c-0.106,0.107-0.205,0.228-0.295,0.368 c-0.368,0.569-0.566,1.315-0.533,2.026c0,0,0,0,0,0c0.014,0.304,0.071,0.6,0.173,0.871c0.075,0.199,0.182,0.411,0.306,0.607 c0.205,0.327,0.447,0.614,0.646,0.748c0.11,0.074,0.297,0.386-0.113,0.596c-0.146,0.075-0.279,0.157-0.4,0.245 c-0.482,0.349-0.733,0.823-0.705,1.539c0.049,1.201,1.179,2.18,2.378,2.228c0.031,0.001,0.067,0.002,0.098,0.002h3.37 c1.628,0,2.752-0.911,2.843-2.151c0.053-0.715-0.219-1.368-0.682-1.827c1.095-0.565,1.851-1.693,1.851-3.01v0 c0-1.138-0.564-2.139-1.422-2.756c0.023-0.012,0.049-0.025,0.077-0.037c1.237-0.508,2.112-1.716,2.112-3.136 c0-1.224-0.653-2.287-1.623-2.885c0.025-0.009,0.054-0.021,0.085-0.031c1.552-0.466,2.643-1.996,2.387-3.752 c-0.246-1.689,0.702-3.736-1.005-3.736l-5.485,0.835c-0.109,0.008-0.213,0.018-0.314,0.032 C29.984,20.714,29.677,21.646,29.406,23.218z" opacity=".909"/><linearGradient id="4ewY6DNs~jtBz_ZnueXS3m" x1="27.924" x2="39.444" y1="31.239" y2="31.239" gradientUnits="userSpaceOnUse"><stop offset="0" stop-color="#e09717"/><stop offset="1" stop-color="#e09717"/></linearGradient><path fill="url(#4ewY6DNs~jtBz_ZnueXS3m)" d="M38.552,29.98c0-1.227-0.656-2.292-1.63-2.89c1.601-0.432,2.74-1.988,2.479-3.779 c-0.246-1.689,0.698-3.73-1.009-3.73l-5.644,0.948c-2.309,0.223-2.484,1.044-2.768,2.689c-0.127,0.737-0.016,1.437,0.269,2.039 c0.379,0.802,0.333,1.755-0.278,2.398c-0.576,0.605-0.93,1.421-0.93,2.324c0,0.458,0.086,0.91,0.245,1.325 c0.316,0.822,0.166,1.735-0.46,2.355c-0.108,0.107-0.208,0.229-0.299,0.371c-0.529,0.819-0.704,2.012-0.351,2.92 c0.207,0.533,0.652,1.164,1.012,1.343c0.122,0.06,0.337,0.383-0.106,0.588c-0.77,0.355-1.186,0.855-1.156,1.765 c0.041,1.242,1.229,2.25,2.472,2.25h3.376c1.628,0,2.752-0.911,2.843-2.151c0.053-0.715-0.219-1.368-0.682-1.827 c1.095-0.565,1.851-1.693,1.851-3.01v0c0-1.14-0.566-2.144-1.428-2.76C37.638,32.661,38.552,31.431,38.552,29.98z"/></g><g opacity=".24"><linearGradient id="4ewY6DNs~jtBz_ZnueXS3n" x1="7.004" x2="36.095" y1="30.872" y2="30.872" gradientUnits="userSpaceOnUse"><stop offset="0" stop-color="#f0af13"/><stop offset=".519" stop-color="#fed026" stop-opacity=".49"/><stop offset=".999" stop-color="#fecf24"/></linearGradient><linearGradient id="4ewY6DNs~jtBz_ZnueXS3o" x1="6.822" x2="35.725" y1="30.984" y2="30.984" gradientUnits="userSpaceOnUse"><stop offset="0" stop-color="#efae13"/><stop offset=".519" stop-color="#fccc24" stop-opacity=".536"/><stop offset=".999" stop-color="#fccb23"/></linearGradient><path fill="url(#4ewY6DNs~jtBz_ZnueXS3o)" d="M8.083,36.073h2.321c1.956,0,3.79,0.886,5.057,2.376 c0.688,0.809,1.519,1.463,2.458,1.837c1.233,0.491,4.862,0.688,8.42,0.758c0.349,0.007,0.698,0.012,1.044,0.017 c2.24,0.029,4.339,0.013,5.597-0.002c1.073-0.012,1.765-0.052,1.814-0.093c0.299-0.02,0.584-0.106,0.855-0.222 c0.084-0.299,0.087-0.623,0.062-0.972c-0.014-0.2,0.005-0.749,0.015-1.529c-1.3,0.016-3.205,0.028-5.235,0.004 c-0.975-0.011-1.979-0.031-2.96-0.062c-2.36-0.076-4.578-0.221-5.906-0.485c-0.397-0.08-0.726-0.172-0.972-0.276 c-0.575-0.243-1.109-0.589-1.593-1.011c-0.304-0.266-0.593-0.556-0.865-0.864c-0.938-1.063-2.17-1.803-3.525-2.112 c-0.468-0.119-1.107-0.181-1.601-0.181h-0.61c-0.025,0-1.605-0.053-1.623-0.144c-0.556-0.14-1.019-2.763-1.153-6.284 c-0.027-0.738-0.04-1.508-0.037-2.297c0.006-1.29,0.059-2.49,0.141-3.566c-0.215-0.002-0.432-0.012-0.65-0.035 c0.003-0.014-0.368-0.027-0.364-0.039H8.376c-0.019,0-1.068,0.031-1.083,0.087c-0.284,1.538-0.467,3.893-0.47,6.539 c0,0.196,0.001,0.39,0.002,0.583C6.865,32.549,7.413,36.073,8.083,36.073z" opacity=".091"/><linearGradient id="4ewY6DNs~jtBz_ZnueXS3p" x1="6.64" x2="35.625" y1="31.075" y2="31.075" gradientUnits="userSpaceOnUse"><stop offset="0" stop-color="#eeac13"/><stop offset=".519" stop-color="#f9c723" stop-opacity=".583"/><stop offset=".999" stop-color="#f9c621"/></linearGradient><path fill="url(#4ewY6DNs~jtBz_ZnueXS3p)" d="M7.901,36.255h2.321c1.956,0,3.79,0.886,5.057,2.376 c0.688,0.809,1.519,1.463,2.458,1.837c1.244,0.495,4.927,0.691,8.514,0.76c0.354,0.007,0.707,0.012,1.056,0.017 c2.352,0.029,4.523,0.007,5.655-0.006c1.035-0.011,1.722-0.075,1.818-0.156c0.295-0.04,0.574-0.144,0.837-0.277 c0.029-0.239-0.047-0.501-0.098-0.825c-0.028-0.178-0.064-0.673-0.165-1.373c-1.309,0.016-3.227,0.028-5.268,0.004 c-0.983-0.012-1.994-0.032-2.979-0.064c-2.399-0.079-4.643-0.229-5.936-0.506c-0.39-0.085-0.717-0.185-0.969-0.297 c-0.573-0.256-1.105-0.612-1.585-1.045c-0.302-0.273-0.594-0.565-0.873-0.869c-0.96-1.05-2.214-1.769-3.585-2.047 c-0.421-0.107-1.166-0.163-1.61-0.163h-0.612c-0.05,0-1.497-0.106-1.534-0.287c-0.532-0.28-0.97-2.894-1.091-6.348 c-0.024-0.75-0.034-1.526-0.028-2.314c0.012-1.308,0.072-2.518,0.163-3.588c-0.189-0.032-0.378-0.068-0.57-0.113 c0.006-0.028-0.324-0.053-0.317-0.077H8.164c-0.038,0-1.001,0.063-1.033,0.173c-0.294,1.517-0.485,3.894-0.491,6.578 c0,0.196,0,0.392,0.002,0.587C6.678,32.703,7.228,36.255,7.901,36.255z" opacity=".182"/><linearGradient id="4ewY6DNs~jtBz_ZnueXS3q" x1="6.459" x2="35.588" y1="31.166" y2="31.166" gradientUnits="userSpaceOnUse"><stop offset="0" stop-color="#edab14"/><stop offset=".519" stop-color="#f7c321" stop-opacity=".629"/><stop offset=".999" stop-color="#f7c220"/></linearGradient><path fill="url(#4ewY6DNs~jtBz_ZnueXS3q)" d="M7.719,36.437h2.321c1.956,0,3.79,0.886,5.057,2.376 c0.688,0.809,1.519,1.463,2.458,1.837c1.255,0.5,4.993,0.695,8.608,0.761c0.358,0.007,0.715,0.012,1.069,0.016 c2.463,0.028,4.707,0.002,5.713-0.01c0.996-0.009,1.68-0.098,1.823-0.22c0.291-0.06,0.564-0.181,0.819-0.332 c-0.025-0.178-0.107-0.401-0.258-0.678c0-0.16-0.133-0.596-0.345-1.218c-1.317,0.016-3.248,0.028-5.301,0.003 c-0.99-0.012-2.008-0.033-2.999-0.065c-2.438-0.081-4.708-0.235-5.965-0.527c-0.383-0.089-0.709-0.197-0.966-0.318 c-0.571-0.268-1.101-0.635-1.578-1.079c-0.3-0.28-0.595-0.573-0.88-0.874c-0.983-1.036-2.257-1.735-3.644-1.982 c-0.374-0.095-1.224-0.145-1.619-0.145h-0.614c-0.075,0-1.389-0.16-1.445-0.431c-0.509-0.42-0.921-3.024-1.028-6.411 c-0.022-0.762-0.028-1.544-0.019-2.331c0.018-1.326,0.085-2.547,0.184-3.61c-0.162-0.061-0.325-0.124-0.489-0.191 c0.009-0.042-0.28-0.08-0.271-0.116H7.953c-0.057,0-0.935,0.094-0.983,0.26c-0.303,1.496-0.503,3.896-0.512,6.617 c-0.001,0.197,0,0.394,0.001,0.59C6.492,32.856,7.044,36.437,7.719,36.437z" opacity=".273"/><linearGradient id="4ewY6DNs~jtBz_ZnueXS3r" x1="6.277" x2="35.557" y1="31.256" y2="31.256" gradientUnits="userSpaceOnUse"><stop offset="0" stop-color="#ecaa14"/><stop offset=".519" stop-color="#f5bf20" stop-opacity=".675"/><stop offset=".999" stop-color="#f5be1f"/></linearGradient><path fill="url(#4ewY6DNs~jtBz_ZnueXS3r)" d="M7.538,36.619h2.321c1.956,0,3.79,0.886,5.057,2.376 c0.688,0.809,1.519,1.463,2.458,1.837c1.266,0.504,5.058,0.698,8.701,0.763c0.363,0.006,0.724,0.012,1.081,0.016 c2.575,0.028,4.89-0.003,5.771-0.013c0.957-0.008,1.637-0.121,1.828-0.283c0.287-0.08,0.555-0.219,0.801-0.387 c-0.079-0.118-0.216-0.288-0.418-0.531c0-0.14-0.202-0.52-0.524-1.062c-1.325,0.016-3.27,0.028-5.334,0.003 c-0.997-0.012-2.023-0.033-3.019-0.067c-2.478-0.084-4.773-0.244-5.994-0.548c-0.376-0.094-0.7-0.21-0.963-0.34 c-0.569-0.281-1.097-0.659-1.57-1.113c-0.299-0.287-0.596-0.582-0.888-0.879c-1.005-1.023-2.3-1.701-3.703-1.917 c-0.328-0.083-1.283-0.127-1.629-0.127H10.9c-0.099,0-1.281-0.213-1.356-0.575c-0.485-0.561-0.872-3.154-0.966-6.475 c-0.019-0.774-0.022-1.562-0.009-2.349c0.024-1.344,0.098-2.575,0.205-3.633c-0.136-0.091-0.272-0.18-0.409-0.269 c0.012-0.055-0.237-0.107-0.224-0.154h-0.4c-0.076,0-0.869,0.125-0.933,0.346c-0.312,1.475-0.521,3.898-0.532,6.656 c-0.001,0.198-0.001,0.396,0.001,0.593C6.306,33.01,6.859,36.619,7.538,36.619z" opacity=".364"/><linearGradient id="4ewY6DNs~jtBz_ZnueXS3s" x1="6.095" x2="35.526" y1="31.347" y2="31.347" gradientUnits="userSpaceOnUse"><stop offset="0" stop-color="#eba814"/><stop offset=".519" stop-color="#f3ba1e" stop-opacity=".722"/><stop offset=".999" stop-color="#f3ba1d"/></linearGradient><path fill="url(#4ewY6DNs~jtBz_ZnueXS3s)" d="M7.356,36.801h2.321c1.956,0,3.79,0.886,5.057,2.376 c0.688,0.809,1.519,1.463,2.458,1.837c1.277,0.508,5.124,0.701,8.795,0.764c0.367,0.006,0.733,0.011,1.094,0.015 c2.686,0.027,5.074-0.008,5.829-0.017c0.919-0.007,1.594-0.144,1.832-0.347c0.283-0.1,0.545-0.256,0.783-0.441 c-0.134-0.058-0.326-0.176-0.577-0.384c0-0.12-0.271-0.443-0.704-0.906c-1.334,0.016-3.292,0.028-5.368,0.002 c-1.005-0.013-2.037-0.034-3.039-0.068c-2.517-0.087-4.838-0.252-6.024-0.569c-0.369-0.099-0.692-0.222-0.96-0.361 c-0.567-0.293-1.093-0.682-1.562-1.146c-0.297-0.294-0.596-0.59-0.895-0.884c-1.028-1.01-2.344-1.667-3.763-1.852 c-0.281-0.071-1.342-0.109-1.638-0.109h-0.617c-0.124,0-1.173-0.266-1.267-0.718c-0.462-0.701-0.829-3.285-0.903-6.538 c-0.018-0.786-0.016-1.58,0-2.366c0.03-1.363,0.111-2.604,0.227-3.655c-0.11-0.121-0.219-0.236-0.328-0.348 c0.015-0.069-0.193-0.134-0.177-0.193H7.531c-0.095,0-0.803,0.156-0.882,0.433c-0.322,1.453-0.538,3.899-0.553,6.695 c-0.001,0.199-0.001,0.398,0,0.597C6.12,33.164,6.675,36.801,7.356,36.801z" opacity=".455"/><linearGradient id="4ewY6DNs~jtBz_ZnueXS3t" x1="5.913" x2="35.496" y1="31.438" y2="31.438" gradientUnits="userSpaceOnUse"><stop offset="0" stop-color="#eaa714"/><stop offset=".519" stop-color="#f0b61d" stop-opacity=".768"/><stop offset=".999" stop-color="#f0b51c"/></linearGradient><path fill="url(#4ewY6DNs~jtBz_ZnueXS3t)" d="M7.174,36.982h2.321c1.956,0,3.79,0.886,5.057,2.376 c0.688,0.809,1.519,1.463,2.458,1.837c1.287,0.513,5.19,0.705,8.889,0.766c0.372,0.006,0.742,0.011,1.106,0.015 c2.797,0.027,5.258-0.015,5.888-0.021c0.88-0.008,1.518-0.212,1.837-0.41c0.258-0.16,0.536-0.294,0.765-0.496 c-0.188,0.003-0.435-0.064-0.737-0.237c0-0.1-0.34-0.367-0.883-0.75c-1.342,0.016-3.314,0.028-5.401,0.002 c-1.012-0.013-2.051-0.035-3.059-0.07c-2.556-0.09-4.902-0.261-6.053-0.591c-0.362-0.104-0.683-0.235-0.956-0.382 c-0.566-0.305-1.089-0.705-1.555-1.18c-0.295-0.301-0.597-0.599-0.902-0.889c-1.05-0.997-2.387-1.633-3.822-1.788 c-0.234-0.059-1.401-0.09-1.647-0.09H9.862c-0.149,0-1.065-0.319-1.178-0.862c-0.438-0.841-0.78-3.415-0.841-6.602 c-0.015-0.798-0.011-1.598,0.009-2.384c0.036-1.381,0.125-2.632,0.248-3.677c-0.083-0.15-0.166-0.292-0.248-0.426 c0.019-0.083-0.149-0.16-0.13-0.231H7.32c-0.114,0-0.737,0.188-0.832,0.52c-0.331,1.432-0.556,3.901-0.574,6.735 c-0.001,0.2-0.001,0.4,0,0.6C5.934,33.317,6.491,36.982,7.174,36.982z" opacity=".545"/><linearGradient id="4ewY6DNs~jtBz_ZnueXS3u" x1="5.732" x2="35.465" y1="31.529" y2="31.529" gradientUnits="userSpaceOnUse"><stop offset="0" stop-color="#e9a514"/><stop offset=".519" stop-color="#eeb11b" stop-opacity=".815"/><stop offset=".999" stop-color="#eeb11a"/></linearGradient><path fill="url(#4ewY6DNs~jtBz_ZnueXS3u)" d="M6.992,37.164h2.321c1.956,0,3.79,0.886,5.057,2.376 c0.688,0.809,1.519,1.463,2.458,1.837c1.298,0.517,5.255,0.708,8.983,0.768c0.376,0.006,0.75,0.011,1.119,0.014 c2.909,0.027,5.442-0.02,5.946-0.025c0.842-0.007,1.477-0.23,1.842-0.474c0.257-0.172,0.526-0.332,0.747-0.551 c-0.242,0.063-0.545,0.049-0.897-0.09c0-0.08-0.409-0.29-1.063-0.594c-1.35,0.016-3.336,0.028-5.434,0.001 c-1.02-0.013-2.066-0.036-3.078-0.072c-2.595-0.092-4.967-0.27-6.083-0.612c-0.355-0.109-0.675-0.247-0.953-0.403 c-0.564-0.316-1.085-0.729-1.547-1.214c-0.293-0.308-0.598-0.607-0.91-0.893c-1.072-0.984-2.43-1.599-3.881-1.723 c-0.187-0.047-1.459-0.072-1.657-0.072h-0.62c-0.174,0-0.958-0.373-1.089-1.006c-0.414-0.981-0.725-3.545-0.778-6.666 c-0.011-0.811-0.005-1.616,0.018-2.401c0.042-1.399,0.138-2.66,0.269-3.699c-0.057-0.18-0.113-0.348-0.167-0.504 c0.022-0.097-0.106-0.187-0.083-0.27H7.109c-0.133,0-0.671,0.219-0.782,0.606c-0.341,1.411-0.574,3.903-0.594,6.774 c-0.001,0.201-0.002,0.402-0.001,0.604C5.748,33.471,6.306,37.164,6.992,37.164z" opacity=".636"/><linearGradient id="4ewY6DNs~jtBz_ZnueXS3v" x1="5.55" x2="35.434" y1="31.62" y2="31.62" gradientUnits="userSpaceOnUse"><stop offset="0" stop-color="#e8a414"/><stop offset=".519" stop-color="#ecad1a" stop-opacity=".861"/><stop offset=".999" stop-color="#ecad19"/></linearGradient><path fill="url(#4ewY6DNs~jtBz_ZnueXS3v)" d="M6.81,37.346h2.321c1.956,0,3.79,0.886,5.057,2.376 c0.688,0.809,1.519,1.463,2.458,1.837c1.309,0.521,5.321,0.711,9.076,0.769c0.381,0.006,0.759,0.01,1.131,0.014 c3.02,0.026,5.626-0.025,6.004-0.028c0.803-0.006,1.439-0.246,1.846-0.537c0.256-0.183,0.516-0.369,0.729-0.606 c-0.296,0.123-0.654,0.161-1.057,0.057c0-0.06-0.478-0.214-1.242-0.439c-1.359,0.016-3.358,0.028-5.467,0 c-1.027-0.014-2.08-0.037-3.098-0.073c-2.635-0.095-5.032-0.279-6.112-0.633c-0.348-0.114-0.666-0.259-0.95-0.424 c-0.563-0.328-1.081-0.752-1.54-1.248c-0.291-0.315-0.598-0.616-0.917-0.898c-1.095-0.971-2.474-1.565-3.94-1.658 c-0.14-0.036-1.518-0.054-1.666-0.054H8.823c-0.199,0-0.85-0.426-1-1.149c-0.391-1.121-0.676-3.676-0.716-6.729 c-0.008-0.823,0.001-1.635,0.027-2.418c0.048-1.417,0.151-2.689,0.29-3.722c-0.031-0.209-0.06-0.404-0.087-0.582 c0.025-0.111-0.062-0.214-0.036-0.308H6.898c-0.152,0-0.605,0.25-0.732,0.693c-0.35,1.39-0.592,3.905-0.615,6.813 c-0.002,0.201-0.002,0.404-0.002,0.607C5.562,33.625,6.122,37.346,6.81,37.346z" opacity=".727"/><linearGradient id="4ewY6DNs~jtBz_ZnueXS3w" x1="5.368" x2="35.404" y1="31.712" y2="31.712" gradientUnits="userSpaceOnUse"><stop offset="0" stop-color="#e7a315"/><stop offset=".519" stop-color="#eaa918" stop-opacity=".907"/><stop offset=".999" stop-color="#eaa918"/></linearGradient><path fill="url(#4ewY6DNs~jtBz_ZnueXS3w)" d="M6.629,37.528H8.95c1.956,0,3.79,0.886,5.057,2.376 c0.688,0.809,1.519,1.463,2.458,1.837c1.32,0.526,5.386,0.714,9.17,0.771c0.385,0.006,0.768,0.01,1.144,0.013 c3.132,0.026,5.81-0.03,6.062-0.032c0.764-0.006,1.402-0.26,1.851-0.601c0.257-0.195,0.507-0.407,0.712-0.66 c-0.351,0.184-0.763,0.273-1.217,0.204c-0.001-0.04-0.547-0.137-1.422-0.283c-1.367,0.016-3.379,0.028-5.5,0 c-1.034-0.014-2.094-0.037-3.118-0.075c-2.674-0.098-5.096-0.288-6.141-0.654c-0.341-0.119-0.658-0.271-0.947-0.445 c-0.562-0.339-1.077-0.776-1.532-1.282c-0.29-0.322-0.599-0.624-0.924-0.903c-1.117-0.958-2.517-1.531-4-1.593 c-0.094-0.024-1.577-0.036-1.675-0.036H8.304c-0.224,0-0.742-0.479-0.911-1.293c-0.367-1.261-0.627-3.806-0.654-6.793 c-0.005-0.835,0.007-1.653,0.036-2.436c0.054-1.435,0.164-2.717,0.312-3.744c-0.004-0.239-0.006-0.46-0.006-0.661 c0.028-0.125-0.018-0.24,0.011-0.347H6.687c-0.171,0-0.539,0.281-0.681,0.779c-0.36,1.369-0.61,3.906-0.636,6.852 c-0.002,0.202-0.003,0.406-0.002,0.611C5.376,33.779,5.937,37.528,6.629,37.528z" opacity=".818"/><linearGradient id="4ewY6DNs~jtBz_ZnueXS3x" x1="5.186" x2="35.373" y1="31.803" y2="31.803" gradientUnits="userSpaceOnUse"><stop offset="0" stop-color="#e6a115"/><stop offset=".519" stop-color="#e7a417" stop-opacity=".954"/><stop offset=".999" stop-color="#e7a416"/></linearGradient><path fill="url(#4ewY6DNs~jtBz_ZnueXS3x)" d="M6.447,37.71h2.321c1.956,0,3.79,0.886,5.057,2.376 c0.688,0.809,1.519,1.463,2.458,1.837c1.331,0.53,5.452,0.718,9.264,0.772c0.39,0.006,0.776,0.01,1.156,0.013 c3.243,0.025,5.993-0.035,6.12-0.036c0.726-0.005,1.368-0.271,1.856-0.665c0.257-0.208,0.497-0.444,0.694-0.715 c-0.405,0.244-0.873,0.386-1.376,0.351c-0.001-0.02-0.616-0.061-1.601-0.127c-1.375,0.016-3.401,0.028-5.533-0.001 c-1.042-0.014-2.109-0.038-3.138-0.076c-2.713-0.1-5.16-0.299-6.171-0.675c-0.334-0.125-0.65-0.282-0.944-0.467 c-0.561-0.349-1.073-0.799-1.525-1.315c-0.288-0.329-0.6-0.633-0.932-0.908c-1.14-0.945-2.561-1.497-4.059-1.528 c-0.047-0.012-1.635-0.018-1.685-0.018H7.784c-0.248,0-0.634-0.532-0.822-1.437c-0.344-1.402-0.578-3.936-0.591-6.856 c-0.003-0.847,0.013-1.671,0.045-2.453c0.06-1.454,0.177-2.746,0.333-3.766c0.022-0.269,0.047-0.516,0.074-0.739 c0.031-0.138,0.025-0.267,0.058-0.385H6.476c-0.19,0-0.473,0.313-0.631,0.866c-0.369,1.348-0.627,3.908-0.657,6.891 c-0.002,0.203-0.003,0.408-0.003,0.614C5.19,33.932,5.753,37.71,6.447,37.71z" opacity=".909"/><path fill="#e5a015" d="M33.806,41.851c-0.001,0-3.507,0.08-7.347,0.027s-8.016-0.24-9.358-0.774 c-0.939-0.374-1.77-1.028-2.458-1.837c-1.267-1.489-3.102-2.376-5.057-2.376H7.265c-0.697,0-1.261-3.806-1.261-8.5 c0-3.249,0.271-6.069,0.668-7.5H6.265c-0.697,0-1.261,3.806-1.261,8.5c0,4.694,0.565,8.5,1.261,8.5h2.321 c1.956,0,3.79,0.886,5.057,2.376c0.688,0.809,1.519,1.463,2.458,1.837c1.342,0.534,5.517,0.721,9.358,0.774 s7.346-0.027,7.347-0.027c1.027,0,1.968-0.628,2.536-1.498C34.883,41.657,34.36,41.851,33.806,41.851z"/></g><radialGradient id="4ewY6DNs~jtBz_ZnueXS3y" cx="32.743" cy="41.424" r="6.616" gradientTransform="matrix(1 0 0 .5087 0 20.353)" gradientUnits="userSpaceOnUse"><stop offset="0" stop-color="#ffe16e"/><stop offset=".629" stop-color="#ffd226"/><stop offset=".75" stop-color="#fdcd23"/><stop offset=".899" stop-color="#f6bd1b"/><stop offset=".999" stop-color="#f0af13"/></radialGradient><path fill="url(#4ewY6DNs~jtBz_ZnueXS3y)" d="M39.084,39.259c-0.264-1.932-2.044-3.284-3.976-3.021c-0.76,0.104-1.425,0.448-1.943,0.938	l-2.966,1.33c-0.12-0.007-0.241-0.007-0.364,0.011c-1.123,0.165-1.898,1.358-1.731,2.664c0.155,1.215,1.071,2.088,2.102,2.072	l5.6-0.01c0.086-0.005,0.171,0.003,0.258-0.009C37.996,42.971,39.348,41.191,39.084,39.259z"/><radialGradient id="4ewY6DNs~jtBz_ZnueXS3z" cx="34.347" cy="36.433" r="7.645" gradientTransform="matrix(1 0 0 .5286 0 17.176)" gradientUnits="userSpaceOnUse"><stop offset="0" stop-color="#ffe16e"/><stop offset=".629" stop-color="#ffd226"/><stop offset=".75" stop-color="#fdcd23"/><stop offset=".899" stop-color="#f6bd1b"/><stop offset=".999" stop-color="#f0af13"/></radialGradient><path fill="url(#4ewY6DNs~jtBz_ZnueXS3z)" d="M41.606,34.13c-0.274-2.258-2.328-3.866-4.586-3.592c-0.917,0.111-1.717,0.526-2.337,1.119	l-4.564,1.194c-1.315,0.275-2.226,1.669-2.053,3.218c0.169,1.511,1.309,2.607,2.606,2.589l6.976,0.065	c0.122-0.004,0.241,0.008,0.364-0.007C40.272,38.442,41.881,36.389,41.606,34.13z"/><radialGradient id="4ewY6DNs~jtBz_ZnueXS3A" cx="35.301" cy="31.07" r="8.281" gradientTransform="matrix(1 0 0 .5643 0 13.538)" gradientUnits="userSpaceOnUse"><stop offset="0" stop-color="#ffe16e"/><stop offset=".629" stop-color="#ffd226"/><stop offset=".75" stop-color="#fdcd23"/><stop offset=".899" stop-color="#f6bd1b"/><stop offset=".999" stop-color="#f0af13"/></radialGradient><path fill="url(#4ewY6DNs~jtBz_ZnueXS3A)" d="M42.775,28.183c-0.297-2.255-2.367-3.842-4.622-3.545c-0.128,0.017-6.974,2.357-6.974,2.357	c-1.344,0.258-2.268,1.682-2.075,3.251c0.177,1.436,1.228,2.496,2.447,2.57c0,0,7.507,0.012,7.679-0.011	C41.485,32.508,43.072,30.439,42.775,28.183z"/><radialGradient id="4ewY6DNs~jtBz_ZnueXS3B" cx="36.162" cy="23.325" r="7.303" gradientTransform="matrix(.9966 -.0821 .0536 .6507 -1.129 11.117)" gradientUnits="userSpaceOnUse"><stop offset="0" stop-color="#ffe16e"/><stop offset=".629" stop-color="#ffd226"/><stop offset=".75" stop-color="#fdcd23"/><stop offset=".899" stop-color="#f6bd1b"/><stop offset=".999" stop-color="#f0af13"/></radialGradient><path fill="url(#4ewY6DNs~jtBz_ZnueXS3B)" d="M42.969,22.713c-0.239-1.979-1.997-3.393-3.966-3.242c0,0-0.263,0.029-0.316,0.038	l-6.77,1.119c-1.298,0.3-2.191,1.755-2.014,3.377c0.172,1.579,1.294,2.733,2.576,2.744l6.854,0.1	c0.133-0.002,0.263,0.008,0.398-0.008C41.765,26.596,43.215,24.748,42.969,22.713z"/><radialGradient id="4ewY6DNs~jtBz_ZnueXS3C" cx="-474.791" cy="-149.465" r="3.355" gradientTransform="matrix(.2512 -1.2422 -1.8822 -.3806 -143.646 -611.431)" gradientUnits="userSpaceOnUse"><stop offset=".425" stop-color="#ffe16e"/><stop offset="1" stop-color="#ffe16e" stop-opacity="0"/></radialGradient><path fill="url(#4ewY6DNs~jtBz_ZnueXS3C)" d="M19.367,30.592c-3.965-0.802-7.6,0.626-8.118,3.188	c-0.518,2.562,2.276,5.29,6.242,6.091s7.6-0.626,8.118-3.188C26.127,34.121,23.333,31.394,19.367,30.592z" opacity=".59"/><linearGradient id="4ewY6DNs~jtBz_ZnueXS3D" x1="38.602" x2="29.578" y1="27.344" y2="39.093" gradientTransform="scale(-1 1) rotate(-80.166 0 62.748)" gradientUnits="userSpaceOnUse"><stop offset="0" stop-color="#ffdb53" stop-opacity="0"/><stop offset=".605" stop-color="#f6c02d"/><stop offset=".999" stop-color="#f2b416" stop-opacity=".636"/></linearGradient><path fill="url(#4ewY6DNs~jtBz_ZnueXS3D)" d="M27.384,18.289c-0.24,1.847-0.821,3.72-1.719,5.474	c-0.552,1.077-1.227,2.118-1.999,3.061c-1.296,1.583-2.926,2.968-4.778,3.873c-0.626,0.306-1.282,0.547-1.953,0.73	c-0.613,0.166-1.403,0.427-2.044,0.335c-0.181-0.001-0.361-0.043-0.511-0.148c-0.13-0.092-0.228-0.229-0.249-0.389	c-0.002-0.013-0.003-0.027-0.004-0.04c-0.017-0.342,0.31-0.636,0.758-0.654c3.705-0.198,7.499-3.067,9.682-7.329	c0.895-1.748,1.445-3.617,1.632-5.441L27.384,18.289z" opacity=".59"/><radialGradient id="4ewY6DNs~jtBz_ZnueXS3E" cx="-480.41" cy="-158.999" r="3.355" gradientTransform="matrix(.7379 .8683 -1.4406 1.2243 143.052 635.913)" gradientUnits="userSpaceOnUse"><stop offset=".425" stop-color="#ffe16e"/><stop offset="1" stop-color="#ffe16e" stop-opacity="0"/></radialGradient><path fill="url(#4ewY6DNs~jtBz_ZnueXS3E)" d="M20.37,27.361c-3.035,2.579-6.729,3.218-8.252,1.427	c-1.522-1.791-0.296-5.334,2.739-7.913s6.729-3.218,8.252-1.427S23.405,24.782,20.37,27.361z" opacity=".72"/><radialGradient id="4ewY6DNs~jtBz_ZnueXS3F" cx="-465.313" cy="-159.6" r="3.355" gradientTransform="matrix(0 -.6907 -1.5532 0 -211.365 -298.144)" gradientUnits="userSpaceOnUse"><stop offset=".425" stop-color="#ffe16e"/><stop offset="1" stop-color="#ffe16e" stop-opacity="0"/></radialGradient><ellipse cx="36.522" cy="23.251" fill="url(#4ewY6DNs~jtBz_ZnueXS3F)" opacity=".5" rx="5.925" ry="2.58"/><radialGradient id="4ewY6DNs~jtBz_ZnueXS3G" cx="-474.832" cy="-158.806" r="3.355" gradientTransform="matrix(0 -.6053 -1.5532 0 -211.088 -257.293)" gradientUnits="userSpaceOnUse"><stop offset=".425" stop-color="#ffe16e"/><stop offset="1" stop-color="#ffe16e" stop-opacity="0"/></radialGradient><ellipse cx="35.566" cy="30.144" fill="url(#4ewY6DNs~jtBz_ZnueXS3G)" opacity=".5" rx="5.925" ry="2.261"/><radialGradient id="4ewY6DNs~jtBz_ZnueXS3H" cx="-484.48" cy="-157.932" r="3.355" gradientTransform="matrix(0 -.6053 -1.5532 0 -210.783 -257.293)" gradientUnits="userSpaceOnUse"><stop offset=".425" stop-color="#ffe16e"/><stop offset="1" stop-color="#ffe16e" stop-opacity="0"/></radialGradient><ellipse cx="34.513" cy="35.984" fill="url(#4ewY6DNs~jtBz_ZnueXS3H)" opacity=".5" rx="5.925" ry="2.261"/><radialGradient id="4ewY6DNs~jtBz_ZnueXS3I" cx="-492.595" cy="-156.829" r="2.404" gradientTransform="matrix(0 -.6053 -1.5532 0 -210.398 -257.293)" gradientUnits="userSpaceOnUse"><stop offset=".425" stop-color="#ffe16e"/><stop offset="1" stop-color="#ffe16e" stop-opacity="0"/></radialGradient><ellipse cx="33.184" cy="40.896" fill="url(#4ewY6DNs~jtBz_ZnueXS3I)" opacity=".5" rx="4.245" ry="1.62"/></svg>