<svg xmlns="http://www.w3.org/2000/svg"  viewBox="0 0 48 48" width="48px" height="48px"><radialGradient id="gFVH1FVR3nJ1xCyT35zpca" cx="-82.663" cy="-297.836" r="2.752" gradientTransform="matrix(.457 -1.4194 .9349 .5481 326.689 56.052)" gradientUnits="userSpaceOnUse"><stop offset=".072" stop-color="#ffe082"/><stop offset=".139" stop-color="#ffc759"/><stop offset=".252" stop-color="#ff9f19"/><stop offset=".306" stop-color="#ff8f00"/><stop offset=".611" stop-color="#ffca28"/><stop offset=".786" stop-color="#ffa000"/><stop offset=".941" stop-color="#ff6f00"/></radialGradient><path fill="url(#gFVH1FVR3nJ1xCyT35zpca)" d="M13.1,10c0.1,0.9-0.9,3.5-1.5,3.5c-0.3,0-0.7-0.3-1-0.6c-0.3-0.4-0.4-1-0.3-1.4c0.1-0.4,0.6-2.5,0.6-2.8 c0.4-0.1,0.8-0.1,1.3,0.2S13.1,9.6,13.1,10z"/><radialGradient id="gFVH1FVR3nJ1xCyT35zpcb" cx="-82.663" cy="-298.845" r="2.752" gradientTransform="matrix(.457 -1.4194 .9349 .5481 326.218 55.191)" gradientUnits="userSpaceOnUse"><stop offset=".277" stop-color="#ffffe7"/><stop offset=".483" stop-color="#efdccb"/><stop offset=".585" stop-color="#d5bfaf"/><stop offset=".694" stop-color="#bda595"/><stop offset=".753" stop-color="#bda595"/><stop offset=".805" stop-color="#c8b39f"/><stop offset=".946" stop-color="#e3d4b9"/></radialGradient><path fill="url(#gFVH1FVR3nJ1xCyT35zpcb)" d="M11.7,8.6c0.1,0.9-0.9,3.5-1.5,3.5c-0.3,0-0.7-0.3-1-0.6c-0.3-0.4-0.4-1-0.3-1.4C9,9.6,9.5,7.5,9.5,7.2 c0.4-0.1,0.8-0.1,1.3,0.2S11.6,8.1,11.7,8.6z"/><radialGradient id="gFVH1FVR3nJ1xCyT35zpcc" cx="-82.663" cy="-298.845" r="2.752" gradientTransform="matrix(.457 -1.4194 .9349 .5481 326.218 55.191)" gradientUnits="userSpaceOnUse"><stop offset=".072" stop-color="#ffe082"/><stop offset=".139" stop-color="#ffc759"/><stop offset=".252" stop-color="#ff9f19"/><stop offset=".306" stop-color="#ff8f00"/><stop offset=".611" stop-color="#ffca28"/><stop offset=".786" stop-color="#ffa000"/><stop offset=".941" stop-color="#ff6f00"/></radialGradient><path fill="url(#gFVH1FVR3nJ1xCyT35zpcc)" d="M11.7,8.6c0.1,0.9-0.9,3.5-1.5,3.5c-0.3,0-0.7-0.3-1-0.6c-0.3-0.4-0.4-1-0.3-1.4C9,9.6,9.5,7.5,9.5,7.2 c0.4-0.1,0.8-0.1,1.3,0.2S11.6,8.1,11.7,8.6z"/><radialGradient id="gFVH1FVR3nJ1xCyT35zpcd" cx="-82.663" cy="-299.855" r="2.752" gradientTransform="matrix(.457 -1.4194 .9349 .5481 325.748 54.33)" gradientUnits="userSpaceOnUse"><stop offset=".072" stop-color="#ffe082"/><stop offset=".139" stop-color="#ffc759"/><stop offset=".252" stop-color="#ff9f19"/><stop offset=".306" stop-color="#ff8f00"/><stop offset=".611" stop-color="#ffca28"/><stop offset=".786" stop-color="#ffa000"/><stop offset=".941" stop-color="#ff6f00"/></radialGradient><path fill="url(#gFVH1FVR3nJ1xCyT35zpcd)" d="M10.3,7.1c0.1,0.9-0.9,3.5-1.5,3.5c-0.3,0-0.7-0.3-1-0.6C7.5,9.6,7.4,9,7.5,8.6c0.1-0.4,0.6-2.5,0.6-2.8 C8.4,5.7,8.9,5.7,9.4,6S10.2,6.7,10.3,7.1z"/><radialGradient id="gFVH1FVR3nJ1xCyT35zpce" cx="-82.62" cy="-301.459" r="3.606" fx="-82.216" fy="-301.908" gradientTransform="matrix(.457 -1.4194 .9349 .5481 325.024 52.98)" gradientUnits="userSpaceOnUse"><stop offset=".072" stop-color="#ffe082"/><stop offset=".139" stop-color="#ffc759"/><stop offset=".252" stop-color="#ff9f19"/><stop offset=".306" stop-color="#ff8f00"/><stop offset=".611" stop-color="#ffca28"/><stop offset=".786" stop-color="#ffa000"/><stop offset=".941" stop-color="#ff6f00"/></radialGradient><path fill="url(#gFVH1FVR3nJ1xCyT35zpce)" d="M8.8,5.6C9.5,6.3,8.1,9,7.5,9C7.4,9,7.2,9,7.1,8.9C6.1,8.3,5,4,5,4S7.9,4.7,8.8,5.6z"/><g><path fill="#ffecb3" d="M22,29c2,2,3,4,3,7c0,2.2,0,2.7,0,5c0,4,1,6,1,6c4.2,0,12.9-4.9,17.7-11c2-2.6-2.9-19.5-10.7-23.2 c-3.5-1.7-7.3-2.8-11-2.8V29z"/><path fill="#ffecb2" d="M22,10C22,10,22,10,22,10c0.3,0,0.5,0,0.7,0c0.2,0,0.4,0,0.7,0c0.2,0,0.4,0,0.7,0.1c0.2,0,0.5,0.1,0.7,0.1 c2.8,0.4,5.6,1.3,8.3,2.6C39.6,16,44.1,28.7,44.1,34c0,0,0,0,0,0c0,0.9-0.2,1.6-0.5,2C38.9,42,30.3,47,26,47c0,0-0.5-1-0.8-2.9 c-0.1-0.9-0.2-1.9-0.2-3.1c0-2.3,0-2.8,0-5.1c0-0.7-0.1-1.3-0.2-2c-0.3-1.4-0.9-2.6-1.8-3.7c0,0,0,0,0,0c-0.3-0.4-0.7-0.8-1.1-1.2 C22,29,22,10,22,10z"/><path fill="#ffecb1" d="M22,10C22,10,22,10,22,10c0.3,0,0.5,0,0.7,0c0.2,0,0.4,0,0.7,0c0.2,0,0.4,0,0.7,0.1c0.2,0,0.5,0,0.7,0.1 c2.8,0.4,5.6,1.3,8.3,2.6C39.5,16,44.1,28.7,44.1,34c0,0,0,0,0,0c0,0.9-0.2,1.6-0.5,2c-4.8,6-13.4,11-17.6,11c0-0.1-0.5-1.1-0.8-3 c-0.1-0.9-0.2-1.9-0.2-3.2c0-2.2,0-2.8,0-5.1c0-0.7,0-1.4-0.2-2c-0.3-1.3-0.9-2.4-1.9-3.5c0,0,0,0,0,0c-0.3-0.4-0.7-0.8-1.1-1.2 C22,29,22,10,22,10z"/><path fill="#ffebb0" d="M22,10C22,10,22,10,22,10c0.3,0,0.5,0,0.7,0c0.2,0,0.4,0,0.7,0c0.2,0,0.4,0,0.7,0.1c0.2,0,0.5,0,0.7,0.1 c2.8,0.4,5.6,1.3,8.3,2.6c6.6,3.2,11.2,15.9,11.2,21.2c0,0,0,0,0,0c0,0.9-0.2,1.6-0.5,2c-4.7,6-13.3,10.9-17.6,11 c0-0.1-0.5-1.1-0.8-3c-0.1-0.9-0.2-2-0.2-3.2c0-2.2,0-2.9,0-5.2c0-0.7,0-1.4-0.1-2c-0.3-1.2-1-2.3-1.9-3.3c0,0,0,0,0,0 c-0.3-0.4-0.7-0.8-1.1-1.2C22,29,22,10,22,10z"/><path fill="#ffebaf" d="M22,10C22,10,22,10,22,10c0.3,0,0.5,0,0.7,0c0.2,0,0.4,0,0.7,0c0.2,0,0.4,0,0.7,0.1c0.2,0,0.5,0,0.7,0.1 c2.8,0.4,5.6,1.3,8.3,2.6c6.6,3.2,11.2,15.9,11.2,21.2c0,0,0,0,0,0c0,0.9-0.2,1.6-0.5,2c-4.7,6-13.3,10.9-17.5,11 c0-0.1-0.5-1.2-0.8-3.1c-0.1-0.9-0.2-2-0.2-3.2c0-2.2,0-2.9,0-5.2c0-0.7,0-1.4-0.1-2c-0.3-1.1-1-2.1-2-3.2c0,0,0,0,0,0 c-0.3-0.4-0.7-0.9-1.1-1.2C22,29,22,10,22,10z"/><path fill="#ffebae" d="M22,10C22,10,22,10,22,10c0.3,0,0.5,0,0.7,0c0.2,0,0.4,0,0.7,0c0.2,0,0.4,0,0.7,0.1c0.2,0,0.5,0,0.7,0.1 c2.8,0.4,5.6,1.3,8.2,2.6c6.6,3.2,11.2,15.9,11.2,21.2c0,0,0,0,0,0c0,0.9-0.2,1.6-0.5,2c-4.7,6-13.2,10.9-17.5,11 c0-0.2-0.5-1.2-0.8-3.1c-0.1-0.9-0.2-2-0.2-3.3c0-2.2,0-2.9,0.1-5.3c0-0.7,0-1.4-0.1-2.1c-0.3-1-1.1-2-2-3c0,0,0,0,0,0 c-0.3-0.4-0.7-0.9-1.1-1.2C22,29,22,10,22,10z"/><path fill="#ffebad" d="M22,10C22,10,22,10,22,10c0.3,0,0.5,0,0.7,0c0.2,0,0.4,0,0.7,0c0.2,0,0.4,0,0.7,0.1c0.2,0,0.5,0,0.7,0.1 c2.8,0.4,5.6,1.3,8.2,2.6c6.6,3.2,11.2,15.9,11.2,21.3c0,0,0,0,0,0c0,0.9-0.2,1.6-0.5,2c-4.7,6-13.2,10.9-17.5,11 c0-0.2-0.5-1.3-0.8-3.1c-0.1-0.9-0.2-2-0.2-3.3c0-2.2,0.1-3,0.1-5.4c0-0.7,0-1.4-0.1-2.1c-0.3-0.9-1.1-1.9-2.1-2.8c0,0,0,0,0,0 c-0.3-0.4-0.8-0.9-1.1-1.3C22,29,22,10,22,10z"/><path fill="#ffeaac" d="M22,10C22,10,22,10,22,10c0.3,0,0.5,0,0.7,0c0.2,0,0.4,0,0.7,0c0.2,0,0.4,0,0.7,0.1c0.2,0,0.4,0,0.7,0.1 c2.8,0.4,5.6,1.3,8.2,2.6C39.4,15.9,44,28.6,44.1,34c0,0,0,0,0,0c0,0.9-0.2,1.6-0.5,2C39,42,30.5,46.8,26.2,47 c0-0.2-0.5-1.3-0.8-3.2c-0.1-1-0.2-2.1-0.1-3.3c0-2.2,0.1-3,0.1-5.4c0-0.7,0-1.4-0.1-2.1c-0.4-0.8-1.2-1.7-2.1-2.6c0,0,0,0,0,0 c-0.3-0.4-0.8-0.9-1.1-1.3C22,29,22,10,22,10z"/><path fill="#ffeaab" d="M22,10C22,10,22,10,22,10c0.3,0,0.5,0,0.7,0c0.2,0,0.4,0,0.7,0c0.2,0,0.4,0,0.7,0.1c0.2,0,0.4,0,0.7,0.1 c2.8,0.4,5.6,1.3,8.2,2.5C39.4,15.9,44,28.6,44.1,34c0,0,0,0,0,0c0,0.9-0.2,1.6-0.5,2C39,41.9,30.5,46.8,26.3,47 c0-0.2-0.5-1.4-0.8-3.2c-0.1-1-0.2-2.1-0.1-3.4c0-2.2,0.1-3,0.1-5.5c0-0.7,0-1.4-0.1-2.1c-0.4-0.6-1.2-1.6-2.2-2.5c0,0,0,0,0,0 c-0.3-0.4-0.8-0.9-1.1-1.3C22,29,22,10,22,10z"/><path fill="#ffeaaa" d="M22,10C22,10,22,10,22,10c0.3,0,0.5,0,0.7,0c0.2,0,0.4,0,0.7,0c0.2,0,0.4,0,0.7,0.1c0.2,0,0.4,0,0.7,0.1 c2.8,0.4,5.5,1.3,8.2,2.5C39.4,15.9,44,28.5,44.1,34c0,0,0,0,0,0c0,0.9-0.2,1.6-0.5,2C39,41.9,30.6,46.8,26.3,47 c-0.1-0.3-0.5-1.4-0.8-3.3c-0.1-1-0.1-2.1-0.1-3.4c0.1-2.2,0.1-3.1,0.1-5.5c0-0.7,0-1.5-0.1-2.1c-0.4-0.5-1.3-1.4-2.2-2.3 c0,0,0,0,0,0c-0.3-0.4-0.8-1-1.1-1.3C22,29,22,10,22,10z"/><path fill="#ffeaa9" d="M22,10C22,10,22,10,22,10c0.3,0,0.5,0,0.7,0c0.2,0,0.4,0,0.7,0c0.2,0,0.4,0,0.7,0.1c0.2,0,0.4,0,0.7,0.1 c2.8,0.4,5.5,1.3,8.2,2.5C39.3,15.8,44,28.5,44.1,34c0,0,0,0,0,0c0,0.9-0.2,1.6-0.5,2C39,41.9,30.6,46.8,26.3,47 c-0.1-0.3-0.6-1.5-0.8-3.3c-0.1-1-0.1-2.1-0.1-3.5c0.1-2.2,0.1-3.1,0.1-5.6c0-0.7,0-1.5-0.1-2.2c-0.4-0.4-1.3-1.3-2.3-2.1 c0,0,0,0,0,0c-0.3-0.4-0.8-1-1.2-1.3C22,29,22,10,22,10z"/><path fill="#ffe9a8" d="M22,10C22,10,22,10,22,10c0.3,0,0.5,0,0.7,0c0.2,0,0.4,0,0.7,0c0.2,0,0.4,0,0.7,0.1c0.2,0,0.4,0,0.7,0.1 c2.7,0.4,5.5,1.3,8.1,2.5C39.3,15.8,44,28.5,44.1,34c0,0,0,0,0,0c0,0.9-0.2,1.6-0.5,2c-4.7,5.9-13,10.7-17.3,11 c-0.1-0.3-0.6-1.6-0.8-3.3c-0.1-1-0.1-2.1-0.1-3.5c0.1-2.2,0.1-3.1,0.1-5.7c0-0.8,0-1.5-0.1-2.2c-0.4-0.3-1.4-1.1-2.3-1.9 c0,0,0,0,0,0c-0.3-0.4-0.8-1-1.2-1.3C22,29,22,10,22,10z"/><path fill="#ffe9a7" d="M22,10C22,10,22,10,22,10c0.3,0,0.5,0,0.7,0c0.2,0,0.4,0,0.7,0c0.2,0,0.4,0,0.7,0.1c0.2,0,0.4,0,0.7,0.1 c2.7,0.4,5.5,1.3,8.1,2.5C39.3,15.8,44,28.5,44.1,34c0,0,0,0,0,0c0,0.9-0.2,1.6-0.5,2c-4.6,5.9-13,10.7-17.3,11 c-0.1-0.4-0.6-1.6-0.8-3.4c-0.1-1-0.1-2.2-0.1-3.5c0.1-2.2,0.1-3.2,0.1-5.7c0-0.8,0-1.5-0.1-2.2c-0.4-0.2-1.4-1-2.4-1.7 c0,0,0,0,0,0c-0.3-0.4-0.9-1-1.2-1.3C22,29,22,10,22,10z"/><path fill="#ffe9a6" d="M22,10C22,10,22,10,22,10c0.3,0,0.5,0,0.6,0c0.2,0,0.4,0,0.7,0c0.2,0,0.4,0,0.7,0.1c0.2,0,0.4,0,0.7,0.1 c2.7,0.4,5.5,1.3,8.1,2.5C39.3,15.8,44,28.5,44.1,34c0,0,0,0,0,0c0,0.9-0.2,1.6-0.5,2C39,41.9,30.7,46.7,26.4,47 c-0.1-0.4-0.6-1.7-0.8-3.4c-0.1-1.1-0.1-2.2-0.1-3.6c0.1-2.2,0.1-3.2,0.2-5.8c0-0.8,0-1.5-0.1-2.2c-0.4-0.1-1.5-0.9-2.4-1.6 c0,0,0,0-0.1,0c-0.3-0.4-0.9-1-1.2-1.4C22,29,22,10,22,10z"/><path fill="#ffe9a5" d="M22,10C22,10,22,10,22,10c0.3,0,0.5,0,0.6,0c0.2,0,0.4,0,0.7,0c0.2,0,0.4,0,0.7,0.1c0.2,0,0.4,0,0.7,0.1 c2.7,0.4,5.5,1.3,8.1,2.5c6.6,3.1,11.2,15.8,11.4,21.3c0,0,0,0,0,0c0,0.9-0.2,1.6-0.5,2C39,41.9,30.8,46.7,26.5,46.9 c-0.1-0.4-0.6-1.7-0.8-3.4c-0.1-1.1-0.1-2.2-0.1-3.6c0.1-2.2,0.1-3.2,0.2-5.8c0-0.8,0-1.5-0.1-2.3c-0.4,0-1.5-0.7-2.5-1.4 c0,0,0,0-0.1,0C22.9,30,22.3,29.3,22,29C22,29,22,10,22,10z"/><path fill="#ffe8a4" d="M22,10C22,10,22,10,22,10c0.3,0,0.5,0,0.6,0c0.2,0,0.4,0,0.7,0c0.2,0,0.4,0,0.7,0.1c0.2,0,0.4,0,0.7,0.1 c2.7,0.4,5.5,1.3,8.1,2.5c6.6,3.1,11.2,15.8,11.4,21.3c0,0,0,0,0,0c0,0.9-0.2,1.6-0.5,2C39,41.9,30.8,46.7,26.5,46.9 c-0.1-0.5-0.6-1.8-0.7-3.5c-0.1-1.1-0.1-2.2,0-3.6c0.1-2.2,0.1-3.3,0.2-5.9c0-0.8,0-1.5-0.1-2.3c-0.5,0.1-1.7-0.4-2.5-1.2 c0,0,0,0-0.1,0C22.9,30,22.3,29.3,22,29C22,29,22,10,22,10z"/><path fill="#ffe8a3" d="M22,10C22,10,22,10,22,10c0.3,0,0.5,0,0.6,0c0.2,0,0.4,0,0.7,0c0.2,0,0.4,0,0.7,0.1c0.2,0,0.4,0,0.7,0.1 c2.7,0.4,5.5,1.2,8.1,2.5c6.6,3.1,11.3,15.7,11.5,21.3c0,0,0,0,0,0c0,0.9-0.2,1.6-0.5,2c-4.6,5.8-12.8,10.6-17.1,10.9 c-0.1-0.5-0.6-1.8-0.7-3.5c-0.1-1.1-0.1-2.3,0-3.7c0.1-2.2,0.2-3.3,0.2-6c0-0.8,0-1.5-0.1-2.3c-0.5,0.2-1.8-0.3-2.6-1 c0,0,0,0-0.1,0C22.9,30,22.3,29.3,22,29C22,29,22,10,22,10z"/><path fill="#ffe8a2" d="M22,10C22,10,22,10,22,10c0.3,0,0.5,0,0.6,0c0.2,0,0.4,0,0.7,0c0.2,0,0.4,0,0.7,0.1c0.2,0,0.4,0,0.7,0.1 c2.7,0.4,5.5,1.2,8,2.5c6.6,3.1,11.3,15.7,11.5,21.3c0,0,0,0,0,0c0,0.9-0.2,1.6-0.5,2c-4.6,5.8-12.8,10.6-17.1,10.9 c-0.1-0.5-0.6-1.9-0.7-3.6c-0.1-1.1-0.1-2.3,0-3.7c0.1-2.2,0.2-3.3,0.2-6c0-0.8,0-1.6-0.1-2.3c-0.5,0.3-1.8-0.1-2.6-0.9 c0,0,0,0-0.1,0C22.9,30,22.3,29.3,22,29C22,29,22,10,22,10z"/><path fill="#ffe8a1" d="M22,10C22,10,22,10,22,10c0.3,0,0.5,0,0.6,0c0.2,0,0.4,0,0.7,0c0.2,0,0.4,0,0.7,0.1c0.2,0,0.4,0,0.7,0.1 c2.7,0.4,5.4,1.2,8,2.5c6.6,3.1,11.3,15.7,11.5,21.3c0,0,0,0,0,0c0,0.9-0.2,1.6-0.5,2c-4.6,5.8-12.7,10.6-17.1,10.9 c-0.1-0.5-0.6-1.9-0.7-3.6c-0.1-1.1-0.1-2.3,0-3.7c0.1-2.2,0.2-3.4,0.2-6.1c0-0.8,0-1.6-0.1-2.4c-0.5,0.4-1.9,0.1-2.7-0.7 c0,0,0,0-0.1,0C22.9,30,22.3,29.3,22,29C22,29,22,10,22,10z"/><path fill="#ffe7a0" d="M22,10C22,10,22,10,22,10c0.3,0,0.5,0,0.6,0c0.2,0,0.4,0,0.7,0c0.2,0,0.4,0,0.6,0.1c0.2,0,0.4,0,0.7,0.1 c2.7,0.4,5.4,1.2,8,2.4c6.6,3.1,11.3,15.7,11.5,21.3c0,0,0,0,0,0c0,0.9-0.2,1.6-0.5,2c-4.6,5.8-12.7,10.6-17,10.9 c-0.1-0.6-0.6-2-0.7-3.6c-0.1-1.1-0.1-2.3,0-3.8c0.1-2.2,0.2-3.4,0.2-6.1c0-0.8,0-1.6-0.1-2.4c-0.5,0.5-2,0.2-2.7-0.5 c0,0,0,0-0.1,0c-0.3-0.4-1-1.2-1.3-1.4C22,29,22,10,22,10z"/><path fill="#ffe79f" d="M22,10C22,10,22,10,22,10c0.3,0,0.5,0,0.6,0c0.2,0,0.4,0,0.7,0c0.2,0,0.4,0,0.6,0.1c0.2,0,0.4,0,0.7,0.1 c2.7,0.4,5.4,1.2,8,2.4c6.6,3.1,11.3,15.7,11.5,21.4c0,0,0,0,0,0c0,0.9-0.1,1.6-0.5,2c-4.6,5.8-12.7,10.5-17,10.9 c-0.1-0.6-0.6-2-0.7-3.7c-0.1-1.2-0.1-2.4,0-3.8c0.1-2.2,0.2-3.4,0.2-6.2c0-0.8,0-1.6-0.1-2.4c-0.5,0.6-2,0.4-2.8-0.3 c0,0,0,0-0.1,0c-0.3-0.4-1-1.2-1.3-1.5C22,29,22,10,22,10z"/><path fill="#ffe79e" d="M22,10C22,10,22,10,22,10c0.3,0,0.5,0,0.6,0c0.2,0,0.4,0,0.7,0c0.2,0,0.4,0,0.6,0.1c0.2,0,0.4,0,0.7,0.1 c2.7,0.4,5.4,1.2,8,2.4c6.6,3.1,11.3,15.7,11.6,21.4c0,0,0,0,0,0c0,0.9-0.1,1.6-0.5,2c-4.5,5.8-12.6,10.5-17,10.9 c-0.1-0.6-0.6-2.1-0.7-3.7c-0.1-1.2,0-2.4,0-3.9c0.1-2.2,0.2-3.5,0.2-6.3c0-0.8,0-1.6-0.1-2.4c-0.5,0.7-2.1,0.5-2.8-0.2 c0,0,0,0-0.1,0c-0.3-0.4-1-1.2-1.3-1.5C22,29,22,10,22,10z"/><path fill="#ffe79d" d="M22,10C22,10,22,10,22,10c0.3,0,0.5,0,0.6,0c0.2,0,0.4,0,0.7,0c0.2,0,0.4,0,0.6,0.1c0.2,0,0.4,0,0.7,0.1 c2.7,0.4,5.4,1.2,8,2.4c6.5,3.1,11.3,15.7,11.6,21.4c0,0,0,0,0,0c0,0.9-0.1,1.6-0.5,2c-4.5,5.8-12.6,10.5-16.9,10.9 c-0.1-0.7-0.6-2.1-0.7-3.7c-0.1-1.2,0-2.4,0-3.9c0.1-2.2,0.2-3.5,0.3-6.3c0-0.8,0-1.6-0.1-2.4c-0.6,0.8-2.1,0.7-2.9,0 c0,0,0,0-0.1,0c-0.3-0.4-1-1.2-1.3-1.5C22,29,22,10,22,10z"/><path fill="#ffe69c" d="M22,10C22,10,22,10,22,10c0.3,0,0.5,0,0.6,0c0.2,0,0.4,0,0.7,0c0.2,0,0.4,0,0.6,0.1c0.2,0,0.4,0,0.7,0.1 c2.7,0.4,5.4,1.2,7.9,2.4c6.5,3.1,11.3,15.7,11.6,21.4c0,0,0,0,0,0c0,0.9-0.1,1.6-0.5,2c-4.5,5.7-12.6,10.5-16.9,10.9 c-0.1-0.7-0.6-2.2-0.7-3.8c-0.1-1.2,0-2.4,0.1-3.9c0.1-2.1,0.2-3.5,0.3-6.4c0-0.8,0-1.6-0.1-2.5c-0.6,0.9-2.2,0.8-2.9,0.2 c0,0-0.1,0-0.1,0c-0.3-0.4-1-1.2-1.3-1.5C21.9,29,22,10,22,10z"/><path fill="#ffe69b" d="M22,10C22,10,22,10,22,10c0.3,0,0.5,0,0.6,0c0.2,0,0.4,0,0.7,0c0.2,0,0.4,0,0.6,0.1c0.2,0,0.4,0,0.7,0.1 c2.7,0.4,5.4,1.2,7.9,2.4C39,15.6,43.8,28.2,44.1,34c0,0,0,0,0,0c0,0.9-0.1,1.6-0.5,2c-4.5,5.7-12.5,10.5-16.9,10.9 c-0.1-0.7-0.6-2.3-0.7-3.8c-0.1-1.2,0-2.5,0.1-4c0.1-2.1,0.2-3.6,0.3-6.4c0-0.8,0-1.6-0.1-2.5c-0.6,1-2.3,1-3,0.4c0,0-0.1,0-0.1,0 c-0.3-0.4-1-1.3-1.3-1.5C21.9,29,22,10,22,10z"/><path fill="#ffe69b" d="M22,10C22,10,22,10,22,10c0.3,0,0.5,0,0.6,0c0.2,0,0.4,0,0.7,0c0.2,0,0.4,0,0.6,0.1c0.2,0,0.4,0,0.7,0.1 c2.7,0.4,5.4,1.2,7.9,2.4C39,15.6,43.8,28.2,44.1,34c0,0,0,0,0,0c0,0.9-0.1,1.6-0.5,2c-4.5,5.7-12.5,10.4-16.9,10.9 c-0.2-0.8-0.6-2.3-0.7-3.9c-0.1-1.2,0-2.5,0.1-4c0.1-2.1,0.2-3.6,0.3-6.5c0-0.8,0-1.7-0.1-2.5c-0.6,1.1-2.3,1.1-3,0.5 c0,0-0.1,0-0.1,0C23,30.1,22.2,29.3,22,29C21.9,29,22,10,22,10z"/><path fill="#ffe69a" d="M22,10C22,10,22,10,22,10c0.3,0,0.5,0,0.6,0c0.2,0,0.4,0,0.7,0c0.2,0,0.4,0,0.6,0.1c0.2,0,0.4,0,0.7,0.1 c2.7,0.4,5.3,1.2,7.9,2.4c6.5,3,11.3,15.6,11.7,21.4c0,0,0,0,0,0c0,0.9-0.1,1.6-0.5,2c-4.5,5.7-12.4,10.4-16.8,10.9 c-0.2-0.8-0.6-2.4-0.7-3.9c-0.1-1.3,0-2.5,0.1-4c0.1-2.1,0.3-3.6,0.3-6.6c0-0.8,0-1.7-0.1-2.5c-0.6,1.2-2.4,1.3-3.1,0.7 c0,0-0.1,0-0.1,0C23,30.2,22.2,29.3,22,29C21.9,29,22,10,22,10z"/><path fill="#ffe699" d="M22,10C22,10,22,10,22,10c0.3,0,0.5,0,0.6,0c0.2,0,0.4,0,0.7,0c0.2,0,0.4,0,0.6,0.1c0.2,0,0.4,0,0.7,0.1 c2.7,0.4,5.3,1.2,7.9,2.4c6.5,3,11.3,15.6,11.7,21.4c0,0,0,0,0,0c0,0.9-0.1,1.6-0.5,2c-4.5,5.7-12.4,10.4-16.8,10.9 c-0.2-0.8-0.6-2.4-0.7-3.9c-0.1-1.3,0-2.5,0.1-4.1c0.1-2.1,0.3-3.7,0.3-6.6c0-0.8,0-1.7-0.1-2.6c-0.6,1.3-2.4,1.4-3.1,0.9 c0,0-0.1,0-0.1,0C23,30.2,22.2,29.2,22,29C21.9,29,22,10,22,10z"/><path fill="#ffe598" d="M22,10C22,10,22,10,22,10c0.3,0,0.5,0,0.6,0c0.2,0,0.4,0,0.6,0c0.2,0,0.4,0,0.6,0.1c0.2,0,0.4,0,0.7,0.1 c2.6,0.4,5.3,1.2,7.9,2.4c6.5,3,11.3,15.6,11.7,21.4c0,0,0,0,0,0c0,0.9-0.1,1.6-0.5,2c-4.5,5.7-12.4,10.4-16.8,10.9 c-0.2-0.8-0.6-2.5-0.7-4c-0.1-1.3,0-2.6,0.1-4.1c0.1-2.1,0.3-3.7,0.3-6.7c0-0.8,0-1.7,0-2.6c-0.6,1.4-2.5,1.6-3.2,1.1 c0,0-0.1,0-0.1,0C23,30.2,22.2,29.2,22,29C21.9,29,22,10,22,10z"/><path fill="#ffe597" d="M22,10C22,10,22,10,22,10c0.3,0,0.5,0,0.6,0c0.2,0,0.4,0,0.6,0c0.2,0,0.4,0,0.6,0.1c0.2,0,0.4,0,0.7,0.1 c2.6,0.4,5.3,1.2,7.8,2.4c6.5,3,11.3,15.6,11.7,21.4c0,0,0,0,0,0c0,0.9-0.1,1.6-0.5,2c-4.5,5.7-12.3,10.3-16.7,10.9 c-0.2-0.9-0.6-2.5-0.7-4c-0.1-1.3,0-2.6,0.1-4.1c0.1-2.1,0.3-3.7,0.3-6.7c0-0.8,0-1.7,0-2.6c-0.6,1.5-2.5,1.7-3.2,1.2 c0,0-0.1,0-0.1,0C23,30.2,22.2,29.2,22,29C21.9,29,22,10,22,10z"/><path fill="#ffe596" d="M22,10C22,10,22,10,22,10c0.3,0,0.4,0,0.6,0c0.2,0,0.4,0,0.6,0c0.2,0,0.4,0,0.6,0.1c0.2,0,0.4,0,0.7,0.1 c2.6,0.4,5.3,1.2,7.8,2.3c6.5,3,11.3,15.6,11.8,21.4c0,0,0,0,0,0c0,0.9-0.1,1.6-0.5,2C39.2,41.6,31.4,46.3,27,46.9 c-0.2-0.9-0.6-2.6-0.7-4c-0.1-1.3,0-2.6,0.1-4.2c0.1-2.1,0.3-3.8,0.4-6.8c0-0.8,0-1.7,0-2.6c-0.7,1.6-2.6,1.9-3.3,1.4 c0,0-0.1,0-0.1,0C23,30.2,22.2,29.2,22,29C21.9,29,22,10,22,10z"/><path fill="#ffe595" d="M22,10C22,10,22,10,22,10c0.3,0,0.4,0,0.6,0c0.2,0,0.4,0,0.6,0c0.2,0,0.4,0,0.6,0.1c0.2,0,0.4,0,0.6,0.1 c2.6,0.4,5.3,1.2,7.8,2.3c6.5,3,11.4,15.6,11.8,21.4c0,0,0,0,0,0c0,0.9-0.1,1.6-0.5,2C39.2,41.6,31.4,46.3,27,46.9 c-0.2-0.9-0.6-2.6-0.7-4.1c-0.1-1.3,0-2.6,0.1-4.2c0.2-2.1,0.3-3.8,0.4-6.9c0-0.9,0-1.7,0-2.7c-0.7,1.7-2.7,2-3.3,1.6 c0,0-0.1,0-0.1,0c-0.3-0.4-1.2-1.4-1.4-1.6C21.9,29,22,10,22,10z"/><path fill="#ffe494" d="M22,10C22,10,22,10,22,10c0.3,0,0.4,0,0.6,0c0.2,0,0.4,0,0.6,0c0.2,0,0.4,0,0.6,0.1c0.2,0,0.4,0,0.6,0.1 c2.6,0.4,5.3,1.2,7.8,2.3c6.5,3,11.4,15.6,11.8,21.4c0,0,0,0,0,0c0,0.9-0.1,1.6-0.5,2C39.2,41.6,31.5,46.3,27,46.9 c-0.2-1-0.6-2.7-0.7-4.1c-0.1-1.4,0-2.7,0.2-4.3c0.2-2.1,0.3-3.9,0.4-6.9c0-0.9,0-1.7,0-2.7c-0.7,1.8-2.7,2.2-3.4,1.8 c0,0-0.1,0-0.1,0c-0.3-0.4-1.2-1.4-1.4-1.6C21.9,28.9,22,10,22,10z"/><path fill="#ffe493" d="M22,10C22,10,22,10,22,10c0.3,0,0.4,0,0.6,0c0.2,0,0.4,0,0.6,0c0.2,0,0.4,0,0.6,0.1c0.2,0,0.4,0,0.6,0.1 c2.6,0.4,5.3,1.2,7.8,2.3c6.5,3,11.4,15.6,11.8,21.5c0,0,0,0,0,0c0,0.9-0.1,1.6-0.5,2c-4.4,5.6-12.2,10.2-16.6,10.9 c-0.2-1-0.6-2.7-0.7-4.2c-0.1-1.4,0-2.7,0.2-4.3c0.2-2.1,0.3-3.9,0.4-7c0-0.9,0-1.8,0-2.7c-0.7,1.9-2.8,2.3-3.4,2c0,0-0.1,0-0.1,0 c-0.3-0.4-1.2-1.4-1.4-1.7C21.9,28.9,22,10,22,10z"/><path fill="#ffe492" d="M22,10C22,10,22,10,22,10c0.3,0,0.4,0,0.6,0c0.2,0,0.4,0,0.6,0c0.2,0,0.4,0,0.6,0.1c0.2,0,0.4,0,0.6,0.1 c2.6,0.4,5.3,1.2,7.8,2.3c6.5,3,11.4,15.6,11.8,21.5c0,0,0,0,0,0c0,0.9-0.1,1.6-0.5,2c-4.4,5.6-12.1,10.2-16.6,10.9 c-0.2-1-0.6-2.8-0.7-4.2c-0.1-1.4,0.1-2.7,0.2-4.3c0.2-2.1,0.3-3.9,0.4-7c0-0.9,0-1.8,0-2.7c-0.7,2-2.8,2.5-3.5,2.1 c0,0-0.1,0-0.1,0c-0.3-0.4-1.2-1.5-1.4-1.7C21.9,28.9,22,10,22,10z"/><path fill="#ffe491" d="M22,10C22,10,22,10,22,10c0.3,0,0.4,0,0.6,0c0.2,0,0.4,0,0.6,0c0.2,0,0.4,0,0.6,0.1c0.2,0,0.4,0,0.6,0.1 c2.6,0.4,5.2,1.2,7.7,2.3c6.5,3,11.4,15.5,11.9,21.5c0,0,0,0,0,0c0,0.9-0.1,1.6-0.5,2c-4.4,5.6-12.1,10.2-16.5,10.9 c-0.2-1.1-0.6-2.8-0.7-4.2c-0.1-1.4,0.1-2.7,0.2-4.4c0.2-2.1,0.3-4,0.4-7.1c0-0.9,0-1.8,0-2.8c-0.7,2.1-2.9,2.7-3.6,2.3 c0,0-0.1,0-0.1,0c-0.3-0.4-1.2-1.5-1.4-1.7C21.9,28.9,22,10,22,10z"/><path fill="#ffe390" d="M21.9,10C22,10,22,10,21.9,10c0.3,0,0.4,0,0.6,0c0.2,0,0.4,0,0.6,0c0.2,0,0.4,0,0.6,0.1c0.2,0,0.4,0,0.6,0.1 c2.6,0.4,5.2,1.2,7.7,2.3c6.5,3,11.4,15.5,11.9,21.5c0,0,0,0,0,0c0,0.9-0.1,1.6-0.5,2c-4.4,5.6-12.1,10.2-16.5,10.9 c-0.2-1.1-0.6-2.9-0.7-4.3c-0.1-1.4,0.1-2.8,0.2-4.4c0.2-2.1,0.4-4,0.4-7.1c0-0.9,0-1.8,0-2.8c-0.7,2.2-3,2.8-3.6,2.5 c0,0-0.1,0-0.1,0c-0.3-0.4-1.2-1.5-1.4-1.7C21.9,28.9,21.9,10,21.9,10z"/><path fill="#ffe38f" d="M21.9,10C22,10,22,10,21.9,10c0.3,0,0.4,0,0.6,0c0.2,0,0.4,0,0.6,0c0.2,0,0.4,0,0.6,0.1c0.2,0,0.4,0,0.6,0.1 c2.6,0.3,5.2,1.2,7.7,2.3c6.5,3,11.4,15.5,11.9,21.5c0,0,0,0,0,0c0,0.9-0.1,1.6-0.5,2c-4.4,5.5-12,10.2-16.5,10.9 c-0.2-1.1-0.7-3-0.7-4.3c-0.1-1.4,0.1-2.8,0.2-4.4c0.2-2.1,0.4-4,0.4-7.2c0-0.9,0-1.8,0-2.8c-0.7,2.3-3,2.8-3.7,2.7 c0,0-0.1,0-0.1,0c-0.3-0.4-1.3-1.5-1.4-1.7C21.9,28.9,21.9,10,21.9,10z"/><path fill="#ffe38e" d="M21.9,10C22,10,22,10,21.9,10c0.3,0,0.4,0,0.6,0c0.2,0,0.4,0,0.6,0c0.2,0,0.4,0,0.6,0.1c0.2,0,0.4,0,0.6,0.1 c2.6,0.3,5.2,1.2,7.7,2.3c6.5,3,11.4,15.5,11.9,21.5c0,0,0,0,0,0c0,0.9-0.1,1.6-0.5,2c-4.4,5.5-12,10.1-16.4,10.9 c-0.2-1.1-0.7-3-0.7-4.4c-0.1-1.5,0.1-2.8,0.2-4.5c0.2-2.1,0.4-4.1,0.4-7.3c0-0.9,0-1.8,0-2.8c-0.8,2.5-3,3-3.7,2.8 c0,0-0.1,0-0.1,0c-0.3-0.4-1.3-1.5-1.5-1.7C21.9,28.9,21.9,10,21.9,10z"/><path fill="#ffe38d" d="M21.9,10C22,10,22,10,21.9,10c0.3,0,0.4,0,0.6,0c0.2,0,0.4,0,0.6,0c0.2,0,0.4,0,0.6,0.1c0.2,0,0.4,0,0.6,0.1 c2.6,0.3,5.2,1.1,7.7,2.3c6.5,3,11.4,15.5,11.9,21.5c0,0,0,0,0,0c0,0.9-0.1,1.7-0.5,2c-4.4,5.5-11.9,10.1-16.4,10.9 c-0.2-1.2-0.7-3.1-0.7-4.4c0-1.5,0.1-2.8,0.2-4.5c0.2-2.1,0.4-4.1,0.5-7.3c0-0.9,0-1.8,0-2.8c-0.8,2.6-3.1,3.2-3.8,3 c0,0-0.1,0-0.1,0c-0.3-0.4-1.3-1.6-1.5-1.8C21.9,28.9,21.9,10,21.9,10z"/><path fill="#ffe28c" d="M21.9,10C21.9,10,22,10,21.9,10c0.3,0,0.4,0,0.6,0c0.2,0,0.4,0,0.6,0c0.2,0,0.4,0,0.6,0.1 c0.2,0,0.4,0,0.6,0.1c2.6,0.3,5.2,1.1,7.7,2.3c6.5,3,11.4,15.5,12,21.5c0,0,0,0,0,0c0,0.9-0.1,1.7-0.5,2 c-4.3,5.5-11.9,10.1-16.4,10.8c-0.2-1.2-0.7-3.1-0.7-4.4c0-1.5,0.1-2.9,0.3-4.5c0.2-2.1,0.4-4.1,0.5-7.4c0-0.9,0-1.9,0-2.9 c-0.8,2.7-3.2,3.3-3.8,3.2c0,0-0.1,0-0.1,0c-0.3-0.4-1.3-1.6-1.5-1.8C21.9,28.9,21.9,10,21.9,10z"/><path fill="#ffe28b" d="M21.9,10C21.9,10,22,10,21.9,10c0.3,0,0.4,0,0.6,0c0.2,0,0.4,0,0.6,0c0.2,0,0.4,0,0.6,0.1 c0.2,0,0.4,0,0.6,0.1c2.6,0.3,5.2,1.1,7.6,2.3c6.5,3,11.4,15.5,12,21.5c0,0,0,0,0,0c0,0.9-0.1,1.7-0.5,2 c-4.3,5.5-11.9,10.1-16.3,10.8c-0.3-1.2-0.7-3.2-0.7-4.5c0-1.5,0.1-2.9,0.3-4.6c0.2-2.1,0.4-4.2,0.5-7.4c0-0.9,0-1.9,0-2.9 c-0.8,2.8-3.2,3.5-3.9,3.4c0,0-0.1,0-0.1,0c-0.3-0.4-1.3-1.6-1.5-1.8C21.9,28.9,21.9,10,21.9,10z"/><path fill="#ffe28a" d="M21.9,10C21.9,10,22,10,21.9,10c0.3,0,0.4,0,0.6,0c0.2,0,0.4,0,0.6,0c0.2,0,0.4,0,0.6,0.1 c0.2,0,0.4,0,0.6,0.1c2.6,0.3,5.2,1.1,7.6,2.2c6.5,3,11.4,15.5,12,21.5c0,0,0,0,0,0c0,0.9-0.1,1.7-0.5,2 c-4.3,5.5-11.8,10-16.3,10.8c-0.3-1.3-0.7-3.2-0.7-4.5c0-1.5,0.1-2.9,0.3-4.6c0.2-2.1,0.4-4.2,0.5-7.5c0-0.9,0-1.9,0-2.9 c-0.8,2.9-3.3,3.7-3.9,3.5c0,0-0.1,0-0.1,0c-0.3-0.4-1.3-1.6-1.5-1.8C21.9,28.9,21.9,10,21.9,10z"/><path fill="#ffe289" d="M21.9,10C21.9,10,22,10,21.9,10c0.3,0,0.4,0,0.6,0c0.2,0,0.4,0,0.6,0c0.2,0,0.4,0,0.6,0.1 c0.2,0,0.4,0,0.6,0.1c2.6,0.3,5.2,1.1,7.6,2.2c6.5,2.9,11.4,15.5,12,21.5c0,0,0,0,0,0c0,0.9-0.1,1.7-0.5,2 c-4.3,5.5-11.8,10-16.3,10.8c-0.3-1.3-0.7-3.3-0.7-4.5c0-1.5,0.1-2.9,0.3-4.7c0.2-2.1,0.4-4.2,0.5-7.6c0-0.9,0-1.9,0-2.9 c-0.8,3-3.3,3.8-4,3.7c0,0-0.1,0-0.1,0c-0.3-0.4-1.3-1.6-1.5-1.8C21.9,28.9,21.9,10,21.9,10z"/><path fill="#ffe188" d="M21.9,10C21.9,10,22,10,21.9,10c0.3,0,0.4,0,0.6,0c0.2,0,0.4,0,0.6,0c0.2,0,0.4,0,0.6,0.1 c0.2,0,0.4,0,0.6,0.1c2.6,0.3,5.1,1.1,7.6,2.2c6.5,2.9,11.4,15.4,12.1,21.5c0,0,0,0,0,0c0,0.9-0.1,1.7-0.5,2 c-4.3,5.5-11.7,10-16.2,10.8c-0.3-1.3-0.7-3.3-0.7-4.6c0-1.5,0.1-3,0.3-4.7c0.2-2.1,0.4-4.3,0.5-7.6c0-0.9,0-1.9,0-3 c-0.8,3.1-3.4,4-4,3.9c0,0-0.1,0-0.1,0c-0.3-0.4-1.4-1.7-1.5-1.8C21.9,28.9,21.9,10,21.9,10z"/><path fill="#ffe187" d="M21.9,10C21.9,10,22,10,21.9,10c0.3,0,0.4,0,0.6,0c0.2,0,0.4,0,0.6,0c0.2,0,0.4,0,0.6,0.1 c0.2,0,0.4,0,0.6,0.1c2.5,0.3,5.1,1.1,7.6,2.2c6.5,2.9,11.4,15.4,12.1,21.5c0,0,0,0,0,0c0,0.9-0.1,1.7-0.5,2 C39.4,41.4,32,46,27.4,46.8c-0.3-1.4-0.7-3.4-0.7-4.6c0-1.6,0.1-3,0.3-4.7c0.2-2,0.4-4.3,0.5-7.7c0-0.9,0-1.9,0-3 c-0.9,3.2-3.5,4.1-4.1,4.1c0,0-0.1,0-0.1,0c-0.3-0.4-1.4-1.7-1.5-1.8C21.9,28.9,21.9,10,21.9,10z"/><path fill="#ffe186" d="M21.9,10C21.9,10,22,10,21.9,10c0.3,0,0.4,0,0.6,0c0.2,0,0.4,0,0.6,0c0.2,0,0.4,0,0.6,0.1 c0.2,0,0.4,0,0.6,0.1c2.5,0.3,5.1,1.1,7.6,2.2c6.5,2.9,11.5,15.4,12.1,21.6c0,0,0,0,0,0c0,0.9-0.1,1.7-0.5,2.1 C39.4,41.4,32,46,27.5,46.8c-0.3-1.4-0.7-3.4-0.7-4.7c0-1.6,0.1-3,0.3-4.8c0.2-2,0.4-4.3,0.5-7.7c0-0.9,0-1.9,0-3 c-0.9,3.3-3.5,4.3-4.1,4.2c0,0-0.1,0-0.1,0c-0.3-0.4-1.4-1.7-1.5-1.9C21.9,28.9,21.9,10,21.9,10z"/><path fill="#ffe185" d="M21.9,10C21.9,10,22,10,21.9,10c0.3,0,0.4,0,0.6,0c0.2,0,0.4,0,0.6,0c0.2,0,0.4,0,0.6,0.1 c0.2,0,0.4,0,0.6,0.1c2.5,0.3,5.1,1.1,7.5,2.2c6.5,2.9,11.5,15.4,12.1,21.6c0,0,0,0,0,0c0,0.9-0.1,1.7-0.5,2.1 c-4.3,5.4-11.6,9.9-16.1,10.8c-0.3-1.4-0.7-3.5-0.7-4.7c0-1.6,0.1-3,0.3-4.8c0.2-2,0.5-4.4,0.6-7.8c0-0.9,0-1.9,0-3 c-0.9,3.4-3.6,4.5-4.2,4.4c0,0-0.1,0-0.1,0c-0.3-0.4-1.4-1.7-1.6-1.9C21.9,28.9,21.9,10,21.9,10z"/><path fill="#ffe084" d="M21.9,10C21.9,10,22,10,21.9,10c0.3,0,0.4,0,0.6,0c0.2,0,0.4,0,0.6,0c0.2,0,0.4,0,0.6,0.1 c0.2,0,0.4,0,0.6,0.1c2.5,0.3,5.1,1.1,7.5,2.2c6.5,2.9,11.5,15.4,12.1,21.6c0,0,0,0,0,0c0,0.9-0.1,1.7-0.5,2.1 c-4.3,5.4-11.6,9.9-16.1,10.8c-0.3-1.4-0.7-3.5-0.7-4.7c0-1.6,0.2-3.1,0.3-4.8c0.2-2,0.5-4.4,0.6-7.9c0-0.9,0-2,0-3.1 c-0.9,3.5-3.7,4.6-4.2,4.6c0,0-0.1,0-0.1,0c-0.3-0.4-1.4-1.7-1.6-1.9C21.9,28.9,21.9,10,21.9,10z"/><path fill="#ffe083" d="M21.9,10C21.9,10,22,10,21.9,10c0.3,0,0.4,0,0.6,0c0.2,0,0.4,0,0.6,0c0.2,0,0.4,0,0.6,0.1 c0.2,0,0.4,0,0.6,0.1c2.5,0.3,5.1,1.1,7.5,2.2c6.5,2.9,11.5,15.4,12.2,21.6c0,0,0,0,0,0c0,0.9-0.1,1.7-0.5,2.1 c-4.3,5.4-11.5,9.9-16.1,10.8c-0.3-1.5-0.7-3.6-0.7-4.8c0-1.6,0.2-3.1,0.4-4.9c0.2-2,0.5-4.4,0.6-7.9c0-0.9,0-2,0-3.1 c-0.9,3.6-3.7,4.8-4.3,4.8c0,0-0.1,0-0.1,0c-0.3-0.4-1.4-1.8-1.6-1.9C21.9,28.9,21.9,10,21.9,10z"/><path fill="#ffe082" d="M44.1,33.9L44.1,33.9c0,1-0.1,1.7-0.5,2.1c-4.2,5.4-11.5,9.9-16,10.8c-0.3-1.5-0.7-3.7-0.7-4.8c0-4,1-7,1-16 c-0.9,3.7-3.8,5-4.3,5c0,0-0.1,0-0.1,0c-0.3-0.4-1.5-1.8-1.6-1.9c0-0.1,0-19,0-19H22c0.2,0,0.4,0,0.5,0c0.2,0,0.4,0,0.6,0 c0.2,0,0.4,0,0.6,0c0.2,0,0.4,0,0.6,0.1c2.5,0.3,5.1,1.1,7.5,2.2C38.5,15.2,43.4,27.7,44.1,33.9z"/><path fill="#fff8e1" d="M22,10c-4,1-5,1-5,1l-6.5,6.9c0,0-1.4,4.3-6.6,9.3c-1.6,1-1.9,2.3-1.9,3.2c0,0.6,0.1,1,0.1,1l1.2,4.2 c0,0,0.3,0.4,2.7,0.4c4,0,6-2,7-3c0,0,0.6,0,5,0s9-3.6,9-8C27,20,22,15,22,10z"/><radialGradient id="gFVH1FVR3nJ1xCyT35zpcf" cx="12.567" cy="21.782" r="14.113" gradientUnits="userSpaceOnUse"><stop offset="0" stop-color="#ffe082" stop-opacity="0"/><stop offset=".999" stop-color="#ffe082"/></radialGradient><path fill="url(#gFVH1FVR3nJ1xCyT35zpcf)" d="M22,10c-3,1-5,1-5,1l-6.5,6.9c0,0-1.4,4.3-6.6,9.3c-1.6,1-1.9,2.3-1.9,3.2c0,0.6,0.1,1,0.1,1l1.2,4.2 c0,0,0.3,0.4,2.7,0.4c4,0,6-2,7-3c0,0,0.6,0,5,0s9-3.6,9-8C27,20,22,15,22,10z"/><radialGradient id="gFVH1FVR3nJ1xCyT35zpcg" cx="11.285" cy="29.802" r="9.649" fx="3.632" fy="29.99" gradientTransform="matrix(.4509 .8926 -.6725 .3397 26.238 9.607)" gradientUnits="userSpaceOnUse"><stop offset=".11" stop-color="#fff8e1" stop-opacity="0"/><stop offset=".112" stop-color="#fff8e1" stop-opacity=".002"/><stop offset=".285" stop-color="#ffecad" stop-opacity=".248"/><stop offset=".447" stop-color="#ffe284" stop-opacity=".479"/><stop offset=".595" stop-color="#ffdb67" stop-opacity=".689"/><stop offset=".722" stop-color="#ffd755" stop-opacity=".869"/><stop offset=".814" stop-color="#ffd54f"/></radialGradient><path fill="url(#gFVH1FVR3nJ1xCyT35zpcg)" d="M7.6,23c-0.9,1.3-2.1,2.7-3.7,4.2c-1.6,1-1.9,2.3-1.9,3.2c0,0.6,0.1,1,0.1,1l1.2,4.2c0,0,0.3,0.4,2.7,0.4 c4,0,6-2,7-3c0,0,0,0-0.3-1c-0.4-1.4-1.5-1.3-1.7-2c-0.4-1.2,1-2,0-4C10.5,25.1,7.9,22.7,7.6,23z"/><path fill="#4a148c" d="M18,12c0,0,0.1,1.9-2,3c-2.3,1.1-4,3.2-4,5c-0.3-0.3-0.7-0.6-1-1c-0.7-1.1-1-2.5-1-4c0-3,1.8-5,5-5 C17,10,18,12,18,12z" opacity=".1"/><radialGradient id="gFVH1FVR3nJ1xCyT35zpch" cx="14.785" cy="14.717" r="6.255" gradientTransform="matrix(.631 .7758 -.8352 .6794 17.747 -6.751)" gradientUnits="userSpaceOnUse"><stop offset=".081" stop-color="#8e24aa"/><stop offset=".119" stop-color="#942eae"/><stop offset=".268" stop-color="#a94dbc"/><stop offset=".393" stop-color="#b561c5"/><stop offset=".479" stop-color="#ba68c8"/><stop offset=".688" stop-color="#ce93d8"/><stop offset=".764" stop-color="#c681d1"/><stop offset=".914" stop-color="#b053c0"/><stop offset=".949" stop-color="#ab47bc"/></radialGradient><path fill="url(#gFVH1FVR3nJ1xCyT35zpch)" d="M18,12c0,0-0.9,0.9-3,2c-2.3,1.1-4,3.2-4,5c-1.1-1.1-2-2.9-2-5c0-3,2.8-5,6-5C17,9,18,11,18,12z"/><radialGradient id="gFVH1FVR3nJ1xCyT35zpci" cx="15.184" cy="14.757" r="9.304" fx="16.55" fy="18.515" gradientTransform="matrix(.631 .7758 -.8352 .6794 17.927 -7.048)" gradientUnits="userSpaceOnUse"><stop offset=".109" stop-color="#1e88e5" stop-opacity="0"/><stop offset=".518" stop-color="#4fc3f7" stop-opacity="0"/><stop offset=".656" stop-color="#64b5f6"/><stop offset=".741" stop-color="#42a5f5"/><stop offset=".841" stop-color="#0d47a1"/></radialGradient><path fill="url(#gFVH1FVR3nJ1xCyT35zpci)" d="M18,12c0,0-0.9,0.9-3,2c-2.3,1.1-4,3.2-4,5c-1.1-1.1-2-2.9-2-5c0-3,2.8-5,6-5C17,9,18,11,18,12z"/><g><path fill="#ffe082" d="M42.9,36.9c-2.2,2.5-4.9,4.7-7.7,6.5s-5.5,3-7.6,3.4C27.3,45.3,27,43.2,27,42c0-2,0.2-7.2,0.6-12 s0.9-9,1.4-9c1.3,1.3,3.2,4,5.6,7.1c1.2,1.5,2.5,3.1,3.9,4.7C39.8,34.2,41.3,35.7,42.9,36.9z"/><path fill="#ffe083" d="M29,21.4c1.2,1.2,3.1,3.9,5.5,7c1.1,1.4,2.4,2.9,3.7,4.4c0.1,0.1,0.1,0.1,0.2,0.2c1.4,1.5,2.8,2.9,4.4,4.1 c-2.1,2.4-4.9,4.7-7.6,6.4s-5.4,2.9-7.5,3.4c-0.3-1.4-0.6-3.5-0.6-4.7c0-2,0.2-7.1,0.6-11.8c0.1-1.5,0.2-2.9,0.4-4.2 C28.3,23.3,28.7,21.4,29,21.4z"/><path fill="#ffe084" d="M29.1,21.7c1.2,1.2,3.1,3.9,5.4,6.8c1.1,1.4,2.3,2.9,3.6,4.3c0.1,0.1,0.1,0.1,0.2,0.2 c1.4,1.5,2.8,2.9,4.3,4.1c-2.1,2.4-4.8,4.6-7.5,6.3s-5.4,2.9-7.5,3.3c-0.3-1.4-0.6-3.5-0.6-4.7c0-1.9,0.2-7,0.6-11.6 c0.1-1.5,0.2-2.9,0.4-4.1C28.4,23.7,28.7,21.7,29.1,21.7z"/><path fill="#ffe185" d="M29.1,22.1c1.2,1.2,3.1,3.8,5.4,6.7c1.1,1.4,2.3,2.9,3.6,4.3c0.1,0.1,0.1,0.1,0.2,0.2c1.3,1.5,2.8,2.8,4.3,4 c-2.1,2.4-4.8,4.5-7.4,6.2s-5.3,2.9-7.4,3.3c-0.3-1.4-0.5-3.4-0.5-4.6c0-1.9,0.2-6.9,0.6-11.4c0.1-1.5,0.2-2.9,0.4-4.1 C28.4,24,28.7,22.1,29.1,22.1z"/><path fill="#ffe186" d="M29.1,22.4c1.2,1.2,3,3.7,5.3,6.6c1.1,1.4,2.3,2.8,3.6,4.2c0.1,0.1,0.1,0.1,0.2,0.2c1.3,1.4,2.8,2.8,4.2,4 c-2.1,2.3-4.7,4.5-7.3,6.1c-2.6,1.7-5.2,2.8-7.3,3.3c-0.3-1.4-0.5-3.4-0.5-4.5c0-1.9,0.2-6.8,0.6-11.2c0.1-1.4,0.2-2.8,0.4-4.1 C28.4,24.4,28.8,22.4,29.1,22.4z"/><path fill="#ffe187" d="M29.2,22.8c1.2,1.1,3,3.7,5.2,6.5c1.1,1.3,2.3,2.8,3.5,4.1c0.1,0.1,0.1,0.1,0.2,0.2c1.3,1.4,2.7,2.8,4.2,3.9 c-2.1,2.3-4.7,4.4-7.3,6s-5.2,2.8-7.2,3.2c-0.3-1.3-0.5-3.3-0.5-4.4c0-1.9,0.2-6.6,0.6-11c0.1-1.4,0.2-2.8,0.4-4 C28.4,24.7,28.8,22.8,29.2,22.8z"/><path fill="#ffe188" d="M29.2,23.2c1.1,1.1,2.9,3.6,5.1,6.4c1.1,1.3,2.2,2.7,3.5,4.1c0.1,0.1,0.1,0.1,0.2,0.2 c1.3,1.4,2.7,2.7,4.1,3.8c-2,2.3-4.6,4.3-7.2,6s-5.1,2.8-7.1,3.2c-0.2-1.3-0.5-3.2-0.5-4.3c0-1.8,0.2-6.5,0.5-10.8 c0.1-1.4,0.2-2.8,0.3-4C28.5,25,28.8,23.2,29.2,23.2z"/><path fill="#ffe289" d="M29.2,23.5c1.1,1.1,2.9,3.5,5.1,6.2c1.1,1.3,2.2,2.7,3.5,4c0.1,0.1,0.1,0.1,0.2,0.2c1.3,1.4,2.7,2.7,4.1,3.8 c-2,2.2-4.6,4.3-7.1,5.9c-2.5,1.6-5.1,2.7-7,3.2c-0.2-1.3-0.5-3.2-0.5-4.2c0-1.8,0.2-6.4,0.5-10.6c0.1-1.4,0.2-2.8,0.3-3.9 C28.5,25.4,28.8,23.5,29.2,23.5z"/><path fill="#ffe28a" d="M29.2,23.9c1.1,1.1,2.8,3.4,5,6.1c1,1.3,2.2,2.6,3.4,3.9c0.1,0.1,0.1,0.1,0.2,0.2c1.3,1.3,2.6,2.6,4,3.7 c-2,2.2-4.5,4.2-7,5.8s-5,2.7-6.9,3.1c-0.2-1.3-0.5-3.1-0.5-4.2c0-1.8,0.2-6.3,0.5-10.4c0.1-1.4,0.2-2.7,0.3-3.9 C28.5,25.7,28.9,23.9,29.2,23.9z"/><path fill="#ffe28b" d="M29.3,24.2c1.1,1,2.8,3.4,4.9,6c1,1.3,2.2,2.6,3.4,3.9c0.1,0.1,0.1,0.1,0.2,0.2c1.3,1.3,2.6,2.6,4,3.7 c-2,2.2-4.5,4.2-6.9,5.7c-2.5,1.5-4.9,2.6-6.9,3.1c-0.2-1.2-0.5-3-0.5-4.1c0-1.7,0.2-6.2,0.5-10.2c0.1-1.4,0.2-2.7,0.3-3.9 C28.6,26.1,28.9,24.2,29.3,24.2z"/><path fill="#ffe28c" d="M29.3,24.6c1,1,2.7,3.3,4.9,5.9c1,1.2,2.1,2.5,3.3,3.8c0.1,0.1,0.1,0.1,0.2,0.2c1.2,1.3,2.6,2.5,3.9,3.6 c-2,2.1-4.4,4.1-6.8,5.6c-2.4,1.5-4.9,2.6-6.8,3c-0.2-1.2-0.5-3-0.5-4c0-1.7,0.2-6,0.5-10c0.1-1.4,0.2-2.7,0.3-3.8 C28.6,26.4,28.9,24.6,29.3,24.6z"/><path fill="#ffe38d" d="M29.3,25c1,1,2.7,3.2,4.8,5.8c1,1.2,2.1,2.5,3.3,3.7c0.1,0.1,0.1,0.1,0.2,0.2c1.2,1.3,2.5,2.5,3.9,3.5 c-1.9,2.1-4.4,4-6.8,5.5s-4.8,2.6-6.7,3c-0.2-1.2-0.5-2.9-0.5-3.9c0-1.7,0.2-5.9,0.5-9.8c0.1-1.3,0.2-2.6,0.3-3.8 C28.6,26.7,28.9,25,29.3,25z"/><path fill="#ffe38e" d="M29.4,25.3c1,1,2.7,3.2,4.7,5.6c1,1.2,2.1,2.4,3.3,3.7c0.1,0.1,0.1,0.1,0.2,0.2c1.2,1.3,2.5,2.5,3.8,3.5 c-1.9,2.1-4.3,4-6.7,5.4c-2.4,1.5-4.7,2.5-6.6,3c-0.2-1.2-0.4-2.9-0.5-3.8c0-1.7,0.2-5.8,0.5-9.5c0.1-1.3,0.2-2.6,0.3-3.8 C28.6,27.1,29,25.3,29.4,25.3z"/><path fill="#ffe38f" d="M29.4,25.7c1,0.9,2.6,3.1,4.7,5.5c1,1.2,2.1,2.4,3.2,3.6c0,0.1,0.1,0.1,0.1,0.2c1.2,1.2,2.5,2.4,3.8,3.4 c-1.9,2-4.3,3.9-6.6,5.4c-2.3,1.5-4.7,2.5-6.5,2.9c-0.2-1.1-0.4-2.8-0.4-3.8c0-1.6,0.2-5.7,0.4-9.3c0.1-1.3,0.2-2.6,0.3-3.7 C28.7,27.4,29,25.7,29.4,25.7z"/><path fill="#ffe390" d="M29.4,26c1,0.9,2.6,3,4.6,5.4c1,1.1,2.1,2.4,3.2,3.5c0,0.1,0.1,0.1,0.1,0.2c1.2,1.2,2.4,2.4,3.7,3.4 c-1.9,2-4.2,3.8-6.5,5.3s-4.6,2.5-6.4,2.9c-0.2-1.1-0.4-2.7-0.4-3.7c0-1.6,0.2-5.6,0.4-9.1c0.1-1.3,0.2-2.6,0.3-3.7 C28.7,27.8,29,26,29.4,26z"/><path fill="#ffe491" d="M29.5,26.4c0.9,0.9,2.5,3,4.5,5.3c1,1.1,2,2.3,3.2,3.5c0,0,0.1,0.1,0.1,0.1c1.2,1.2,2.4,2.3,3.7,3.3 c-1.9,2-4.2,3.8-6.4,5.2c-2.3,1.4-4.5,2.4-6.3,2.8C28,45.5,27.8,44,27.8,43c0-1.6,0.2-5.4,0.4-8.9c0.1-1.3,0.2-2.5,0.3-3.6 C28.7,28.1,29,26.4,29.5,26.4z"/><path fill="#ffe492" d="M29.5,26.8c0.9,0.9,2.5,2.9,4.5,5.2c1,1.1,2,2.3,3.1,3.4c0,0,0.1,0.1,0.1,0.1c1.2,1.2,2.4,2.3,3.6,3.2 c-1.8,1.9-4.1,3.7-6.3,5.1c-2.2,1.4-4.5,2.4-6.3,2.8c-0.2-1.1-0.4-2.6-0.4-3.5c0-1.5,0.2-5.3,0.4-8.7c0.1-1.3,0.2-2.5,0.3-3.6 C28.7,28.4,29.1,26.8,29.5,26.8z"/><path fill="#ffe493" d="M29.5,27.1c0.9,0.8,2.4,2.8,4.4,5.1c0.9,1.1,2,2.2,3.1,3.3c0,0,0.1,0.1,0.1,0.1c1.1,1.1,2.3,2.2,3.6,3.2 c-1.8,1.9-4,3.6-6.3,5s-4.4,2.3-6.2,2.8c-0.2-1-0.4-2.5-0.4-3.4c0-1.5,0.2-5.2,0.4-8.5c0.1-1.3,0.2-2.5,0.3-3.6 C28.8,28.8,29.1,27.1,29.5,27.1z"/><path fill="#ffe494" d="M29.5,27.5c0.9,0.8,2.4,2.7,4.3,4.9c0.9,1.1,2,2.2,3,3.3c0,0,0.1,0.1,0.1,0.1c1.1,1.1,2.3,2.2,3.5,3.1 c-1.8,1.9-4,3.6-6.2,4.9c-2.2,1.3-4.3,2.3-6.1,2.7c-0.2-1-0.4-2.5-0.4-3.3c0-1.5,0.2-5.1,0.4-8.3c0.1-1.3,0.2-2.5,0.3-3.5 C28.8,29.1,29.1,27.5,29.5,27.5z"/><path fill="#ffe595" d="M29.6,27.8c0.9,0.8,2.4,2.7,4.3,4.8c0.9,1,1.9,2.1,3,3.2c0,0,0.1,0.1,0.1,0.1c1.1,1.1,2.3,2.2,3.5,3.1 c-1.8,1.8-3.9,3.5-6.1,4.8s-4.3,2.3-6,2.7c-0.2-1-0.4-2.4-0.4-3.3c0-1.5,0.2-4.9,0.4-8.1c0.1-1.2,0.1-2.4,0.3-3.5 C28.8,29.5,29.1,27.8,29.6,27.8z"/><path fill="#ffe596" d="M29.6,28.2c0.8,0.8,2.3,2.6,4.2,4.7c0.9,1,1.9,2.1,3,3.1c0,0,0.1,0.1,0.1,0.1c1.1,1.1,2.2,2.1,3.4,3 c-1.8,1.8-3.9,3.5-6,4.7s-4.2,2.2-5.9,2.7c-0.2-1-0.4-2.4-0.4-3.2c0-1.4,0.2-4.8,0.3-7.9c0.1-1.2,0.1-2.4,0.2-3.5 C28.9,29.8,29.2,28.2,29.6,28.2z"/><path fill="#ffe597" d="M29.6,28.6c0.8,0.7,2.3,2.5,4.1,4.6c0.9,1,1.9,2,2.9,3.1c0,0,0.1,0.1,0.1,0.1c1.1,1.1,2.2,2.1,3.4,2.9 c-1.7,1.8-3.8,3.4-5.9,4.7c-2.1,1.3-4.2,2.2-5.8,2.6c-0.2-1-0.4-2.3-0.4-3.1c0-1.4,0.1-4.7,0.3-7.7c0.1-1.2,0.1-2.4,0.2-3.4 C28.9,30.1,29.2,28.6,29.6,28.6z"/><path fill="#ffe598" d="M29.7,28.9c0.8,0.7,2.2,2.5,4.1,4.5c0.9,1,1.9,2,2.9,3c0,0,0.1,0.1,0.1,0.1c1.1,1,2.2,2,3.3,2.9 c-1.7,1.7-3.8,3.3-5.8,4.6s-4.1,2.2-5.8,2.6c-0.2-0.9-0.3-2.2-0.3-3c0-1.4,0.1-4.6,0.3-7.5c0.1-1.2,0.1-2.4,0.2-3.4 C28.9,30.5,29.2,28.9,29.7,28.9z"/><path fill="#ffe699" d="M29.7,29.3c0.8,0.7,2.2,2.4,4,4.3c0.9,0.9,1.8,1.9,2.9,2.9c0,0,0.1,0.1,0.1,0.1c1,1,2.2,2,3.3,2.8 c-1.7,1.7-3.7,3.3-5.8,4.5s-4,2.1-5.7,2.5c-0.2-0.9-0.3-2.2-0.3-2.9c0-1.4,0.1-4.5,0.3-7.3c0.1-1.2,0.1-2.3,0.2-3.3 C28.9,30.8,29.3,29.3,29.7,29.3z"/><path fill="#ffe69a" d="M29.7,29.6c0.7,0.7,2.1,2.3,3.9,4.2c0.9,0.9,1.8,1.9,2.8,2.9c0,0,0.1,0.1,0.1,0.1c1,1,2.1,1.9,3.2,2.8 c-1.7,1.7-3.7,3.2-5.7,4.4s-4,2.1-5.6,2.5c-0.2-0.9-0.3-2.1-0.3-2.8c0-1.3,0.1-4.3,0.3-7.1c0.1-1.2,0.1-2.3,0.2-3.3 C29,31.2,29.3,29.6,29.7,29.6z"/><path fill="#ffe69b" d="M29.8,30c0.7,0.6,2.1,2.2,3.8,4.1c0.9,0.9,1.8,1.9,2.8,2.8c0,0,0.1,0.1,0.1,0.1c1,1,2.1,1.9,3.2,2.7 c-1.7,1.6-3.6,3.1-5.6,4.3s-3.9,2.1-5.5,2.5c-0.1-0.9-0.3-2-0.3-2.8c0-1.3,0.1-4.2,0.3-6.9c0.1-1.2,0.1-2.3,0.2-3.3 C29,31.5,29.3,30,29.8,30z"/><path fill="#ffe69b" d="M29.8,30.4c0.7,0.6,2.1,2.2,3.8,4c0.8,0.9,1.8,1.8,2.8,2.7c0,0,0.1,0.1,0.1,0.1c1,0.9,2.1,1.8,3.1,2.6 c-1.6,1.6-3.6,3.1-5.5,4.2s-3.8,2-5.4,2.4c-0.1-0.8-0.3-2-0.3-2.7c0-1.3,0.1-4.1,0.3-6.7c0.1-1.1,0.1-2.3,0.2-3.2 C29,31.8,29.3,30.4,29.8,30.4z"/><path fill="#ffe69c" d="M29.8,30.7c0.7,0.6,2,2.1,3.7,3.9c0.8,0.9,1.7,1.8,2.7,2.7c0,0,0.1,0.1,0.1,0.1c1,0.9,2,1.8,3.1,2.6 c-1.6,1.6-3.5,3-5.4,4.1s-3.8,2-5.3,2.4c-0.1-0.8-0.3-1.9-0.3-2.6c0-1.2,0.1-4,0.2-6.5c0.1-1.1,0.1-2.2,0.2-3.2 C29,32.2,29.4,30.7,29.8,30.7z"/><path fill="#ffe79d" d="M29.9,31.1c0.7,0.6,2,2,3.6,3.7c0.8,0.8,1.7,1.7,2.7,2.6c0,0,0.1,0.1,0.1,0.1c1,0.9,2,1.8,3,2.5 c-1.6,1.5-3.5,2.9-5.4,4.1s-3.7,1.9-5.2,2.4c-0.1-0.8-0.3-1.9-0.3-2.5c0-1.2,0.1-3.9,0.2-6.3c0.1-1.1,0.1-2.2,0.2-3.2 C29.1,32.5,29.4,31.1,29.9,31.1z"/><path fill="#ffe79e" d="M29.9,31.4c0.6,0.5,1.9,2,3.6,3.6c0.8,0.8,1.7,1.7,2.6,2.5c0,0,0.1,0.1,0.1,0.1c1,0.9,2,1.7,3,2.5 c-1.6,1.5-3.4,2.9-5.3,4c-1.8,1.1-3.6,1.9-5.2,2.3c-0.1-0.8-0.3-1.8-0.3-2.4c0-1.2,0.1-3.7,0.2-6.1c0.1-1.1,0.1-2.2,0.2-3.1 C29.1,32.9,29.4,31.4,29.9,31.4z"/><path fill="#ffe79f" d="M29.9,31.8c0.6,0.5,1.9,1.9,3.5,3.5c0.8,0.8,1.7,1.6,2.6,2.5c0,0,0.1,0.1,0.1,0.1c0.9,0.8,1.9,1.7,2.9,2.4 c-1.6,1.5-3.4,2.8-5.2,3.9s-3.6,1.9-5.1,2.3c-0.1-0.7-0.3-1.7-0.3-2.4c0-1.2,0.1-3.6,0.2-5.9c0.1-1.1,0.1-2.2,0.2-3.1 C29.1,33.2,29.4,31.8,29.9,31.8z"/><path fill="#ffe7a0" d="M29.9,32.2c0.6,0.5,1.8,1.8,3.4,3.4c0.8,0.8,1.7,1.6,2.6,2.4c0,0,0.1,0.1,0.1,0.1c0.9,0.8,1.9,1.6,2.9,2.3 c-1.6,1.4-3.3,2.8-5.1,3.8s-3.5,1.8-5,2.2c-0.1-0.7-0.2-1.7-0.3-2.3c0-1.1,0.1-3.5,0.2-5.7c0-1.1,0.1-2.1,0.2-3 C29.2,33.5,29.5,32.2,29.9,32.2z"/><path fill="#ffe8a1" d="M30,32.5c0.6,0.5,1.8,1.7,3.4,3.3c0.8,0.7,1.6,1.5,2.5,2.3c0,0,0.1,0.1,0.1,0.1c0.9,0.8,1.9,1.6,2.8,2.3 c-1.5,1.4-3.3,2.7-5,3.7c-1.7,1-3.4,1.8-4.9,2.2c-0.1-0.7-0.2-1.6-0.2-2.2c0-1.1,0.1-3.4,0.2-5.5c0-1.1,0.1-2.1,0.2-3 C29.2,33.9,29.5,32.5,30,32.5z"/><path fill="#ffe8a2" d="M30,32.9c0.5,0.4,1.7,1.7,3.3,3.2c0.8,0.7,1.6,1.5,2.5,2.3c0,0,0.1,0.1,0.1,0.1c0.9,0.8,1.8,1.5,2.8,2.2 c-1.5,1.4-3.2,2.6-4.9,3.6S30.4,46,29,46.4c-0.1-0.7-0.2-1.5-0.2-2.1c0-1.1,0.1-3.3,0.2-5.3c0-1.1,0.1-2.1,0.2-3 C29.2,34.2,29.5,32.9,30,32.9z"/><path fill="#ffe8a3" d="M30,33.2c0.5,0.4,1.7,1.6,3.2,3c0.7,0.7,1.6,1.4,2.5,2.2c0,0,0.1,0.1,0.1,0.1c0.9,0.8,1.8,1.5,2.7,2.2 c-1.5,1.3-3.2,2.6-4.9,3.5c-1.7,1-3.3,1.7-4.7,2.1c-0.1-0.6-0.2-1.5-0.2-2c0-1,0.1-3.1,0.1-5.1c0-1,0.1-2,0.2-2.9 C29.2,34.6,29.5,33.2,30,33.2z"/><path fill="#ffe8a4" d="M30.1,33.6c0.5,0.4,1.7,1.5,3.2,2.9c0.7,0.7,1.6,1.4,2.4,2.1c0,0,0.1,0.1,0.1,0.1c0.9,0.7,1.8,1.5,2.7,2.1 c-1.5,1.3-3.1,2.5-4.8,3.5c-1.6,1-3.3,1.7-4.6,2.1c-0.1-0.6-0.2-1.4-0.2-1.9c0-1,0.1-3,0.1-4.8c0-1,0.1-2,0.1-2.9 C29.3,34.9,29.6,33.6,30.1,33.6z"/><path fill="#ffe9a5" d="M30.1,34c0.5,0.4,1.6,1.5,3.1,2.8c0.7,0.7,1.5,1.4,2.4,2.1c0,0,0.1,0.1,0.1,0.1c0.9,0.7,1.7,1.4,2.6,2 c-1.5,1.3-3.1,2.4-4.7,3.4s-3.2,1.6-4.6,2c-0.1-0.6-0.2-1.4-0.2-1.9c0-1,0.1-2.9,0.1-4.6c0-1,0.1-2,0.1-2.9 C29.3,35.2,29.6,34,30.1,34z"/><path fill="#ffe9a6" d="M30.1,34.3c0.5,0.3,1.6,1.4,3,2.7c0.7,0.6,1.5,1.3,2.3,2c0,0,0.1,0.1,0.1,0.1c0.8,0.7,1.7,1.4,2.6,2 c-1.4,1.2-3,2.4-4.6,3.3c-1.6,0.9-3.1,1.6-4.5,2c-0.1-0.6-0.2-1.3-0.2-1.8c0-1,0-2.8,0.1-4.4c0-1,0.1-2,0.1-2.8 C29.3,35.6,29.6,34.3,30.1,34.3z"/><path fill="#ffe9a7" d="M30.2,34.7c0.4,0.3,1.5,1.3,3,2.6c0.7,0.6,1.5,1.3,2.3,1.9c0,0,0.1,0.1,0.1,0.1c0.8,0.7,1.7,1.3,2.5,1.9 c-1.4,1.2-3,2.3-4.5,3.2c-1.5,0.9-3.1,1.6-4.4,2c-0.1-0.5-0.2-1.2-0.2-1.7c0-0.9,0-2.6,0.1-4.2c0-1,0.1-1.9,0.1-2.8 C29.3,35.9,29.6,34.7,30.2,34.7z"/><path fill="#ffe9a8" d="M30.2,35c0.4,0.3,1.5,1.2,2.9,2.4c0.7,0.6,1.5,1.2,2.3,1.9c0,0,0.1,0.1,0.1,0.1c0.8,0.6,1.7,1.3,2.5,1.9 c-1.4,1.2-2.9,2.2-4.4,3.1c-1.5,0.9-3,1.5-4.3,1.9c-0.1-0.5-0.2-1.2-0.2-1.6c0-0.9,0-2.5,0.1-4c0-1,0-1.9,0.1-2.7 C29.4,36.2,29.7,35,30.2,35z"/><path fill="#ffeaa9" d="M30.2,35.4c0.4,0.3,1.4,1.2,2.8,2.3c0.7,0.6,1.4,1.2,2.2,1.8c0,0,0.1,0.1,0.1,0.1c0.8,0.6,1.6,1.2,2.4,1.8 c-1.4,1.1-2.9,2.2-4.4,3c-1.5,0.8-2.9,1.5-4.2,1.9c-0.1-0.5-0.1-1.1-0.2-1.5c0-0.9,0-2.4,0.1-3.8c0-1,0-1.9,0.1-2.7 C29.4,36.6,29.7,35.4,30.2,35.4z"/><path fill="#ffeaaa" d="M30.2,35.8c0.4,0.2,1.4,1.1,2.8,2.2c0.7,0.5,1.4,1.1,2.2,1.7c0,0,0.1,0,0.1,0.1c0.8,0.6,1.6,1.2,2.4,1.7 c-1.4,1.1-2.8,2.1-4.3,2.9c-1.4,0.8-2.9,1.5-4.1,1.9c-0.1-0.5-0.1-1-0.1-1.5c0-0.8,0-2.3,0-3.6c0-0.9,0-1.9,0.1-2.7 C29.4,36.9,29.7,35.8,30.2,35.8z"/><path fill="#ffeaab" d="M30.3,36.1c0.4,0.2,1.4,1,2.7,2.1c0.7,0.5,1.4,1.1,2.2,1.7c0,0,0.1,0,0.1,0.1c0.8,0.6,1.6,1.2,2.4,1.7 c-1.3,1.1-2.8,2.1-4.2,2.9c-1.4,0.8-2.8,1.4-4,1.8c-0.1-0.4-0.1-1-0.1-1.4c0-0.8,0-2.2,0-3.4c0-0.9,0-1.8,0.1-2.6 C29.5,37.3,29.7,36.1,30.3,36.1z"/><path fill="#ffeaac" d="M30.3,36.5c0.3,0.2,1.3,1,2.6,2c0.6,0.5,1.4,1,2.1,1.6c0,0,0.1,0,0.1,0.1c0.7,0.6,1.5,1.1,2.3,1.6 c-1.3,1-2.7,2-4.1,2.8c-1.4,0.8-2.7,1.4-4,1.8c-0.1-0.4-0.1-0.9-0.1-1.3c0-0.8,0-2,0-3.2c0-0.9,0-1.8,0.1-2.6 C29.5,37.6,29.8,36.5,30.3,36.5z"/><path fill="#ffebad" d="M30.3,36.8c0.3,0.2,1.3,0.9,2.5,1.8c0.6,0.5,1.3,1,2.1,1.5c0,0,0.1,0,0.1,0.1c0.7,0.5,1.5,1.1,2.3,1.6 c-1.3,1-2.7,1.9-4,2.7s-2.7,1.4-3.9,1.7c-0.1-0.4-0.1-0.8-0.1-1.2c0-0.8,0-1.9,0-3c0-0.9,0-1.8,0.1-2.5 C29.5,37.9,29.8,36.8,30.3,36.8z"/><path fill="#ffebae" d="M30.4,37.2c0.3,0.1,1.2,0.8,2.5,1.7c0.6,0.4,1.3,1,2,1.5c0,0,0.1,0,0.1,0.1c0.7,0.5,1.5,1,2.2,1.5 c-1.3,1-2.6,1.9-4,2.6c-1.3,0.7-2.6,1.3-3.8,1.7c0-0.4-0.1-0.8-0.1-1.1c0-0.7,0-1.8,0-2.8c0-0.9,0-1.8,0.1-2.5 C29.5,38.3,29.8,37.2,30.4,37.2z"/><path fill="#ffebaf" d="M30.4,37.6c0.3,0.1,1.2,0.7,2.4,1.6c0.6,0.4,1.3,0.9,2,1.4c0,0,0.1,0,0.1,0.1c0.7,0.5,1.4,1,2.2,1.4 c-1.3,0.9-2.6,1.8-3.9,2.5c-1.3,0.7-2.6,1.3-3.7,1.7c0-0.3-0.1-0.7-0.1-1c0-0.7,0-1.7,0-2.6c0-0.9,0-1.7,0.1-2.5 C29.6,38.6,29.8,37.6,30.4,37.6z"/><path fill="#ffebb0" d="M30.4,37.9c0.2,0.1,1.1,0.7,2.3,1.5c0.6,0.4,1.3,0.9,2,1.3c0,0,0.1,0,0.1,0.1c0.7,0.5,1.4,0.9,2.1,1.4 c-1.2,0.9-2.5,1.7-3.8,2.4s-2.5,1.2-3.6,1.6c0-0.3-0.1-0.7-0.1-1c0-0.7,0-1.6,0-2.4c0-0.9,0-1.7,0.1-2.4 C29.6,39,29.9,37.9,30.4,37.9z"/><path fill="#ffecb1" d="M30.5,38.3c0.2,0.1,1.1,0.6,2.3,1.4c0.6,0.4,1.2,0.8,1.9,1.3c0,0,0.1,0,0.1,0.1c0.7,0.4,1.4,0.9,2.1,1.3 c-1.2,0.9-2.5,1.7-3.7,2.3c-1.2,0.7-2.4,1.2-3.5,1.6c0-0.3-0.1-0.6-0.1-0.9c0-0.6-0.1-1.4-0.1-2.2c0-0.9,0-1.7,0.1-2.4 C29.6,39.3,29.9,38.3,30.5,38.3z"/><path fill="#ffecb2" d="M30.5,38.6c0.2,0,1.1,0.5,2.2,1.3c0.6,0.4,1.2,0.8,1.9,1.2c0,0,0.1,0,0.1,0.1c0.7,0.4,1.3,0.8,2,1.3 c-1.2,0.8-2.4,1.6-3.6,2.3c-1.2,0.6-2.4,1.2-3.4,1.6c0-0.3,0-0.5-0.1-0.8c0-0.6-0.1-1.3-0.1-2c0-0.8,0-1.7,0-2.4 C29.6,39.6,29.9,38.6,30.5,38.6z"/><path fill="#ffecb3" d="M36.5,42.5c-1.2,0.8-2.4,1.5-3.5,2.2s-2.3,1.1-3.4,1.5c-0.1-0.8-0.1-1.7-0.1-2.5c0-0.8,0-1.6,0-2.3 c0.1-1.4,0.4-2.4,1-2.4c0.2,0,1,0.5,2.1,1.1c0.6,0.3,1.2,0.7,1.9,1.1C35.2,41.7,35.9,42.1,36.5,42.5z"/></g><g><radialGradient id="gFVH1FVR3nJ1xCyT35zpcj" cx="-30.336" cy="-8.177" r="1.619" gradientTransform="matrix(1.1764 -.2688 .3448 1.5351 54.688 24.541)" gradientUnits="userSpaceOnUse"><stop offset=".129" stop-color="#311b92"/><stop offset=".448" stop-color="#7e61c0"/><stop offset=".538" stop-color="#9575cd"/><stop offset=".538" stop-color="#9575cd"/><stop offset=".663" stop-color="#6b46a6"/><stop offset=".773" stop-color="#4c238a"/><stop offset=".864" stop-color="#3a0f78"/><stop offset=".924" stop-color="#330772"/></radialGradient><path fill="url(#gFVH1FVR3nJ1xCyT35zpcj)" d="M14,21.1c0,0,0.3-2.1,2.3-2.1c0.8,0,1.6,0,1.6,0s0.5,1.7-0.5,2.6C16.4,22.5,14.5,21.7,14,21.1z"/><circle cx="15.6" cy="19.8" r=".4" fill="#fff"/></g><path fill="#4a148c" d="M26.8,14c0,4.8,0.2,6,1.2,11c0,0,0,0,0,1c0,0,3-2,3-6c2,6,3,13,7,16c2-2,2-3,2-5c0.9,5.2,1,6,2.2,6.7 c0.3-0.3,0.6-0.6,0.8-0.9C45,34.5,38.4,14,26.8,14z" opacity=".1"/><radialGradient id="gFVH1FVR3nJ1xCyT35zpck" cx="36.686" cy="28.509" r="20.87" gradientTransform="matrix(.4407 .8977 -.5164 .2535 35.24 -11.65)" gradientUnits="userSpaceOnUse"><stop offset=".081" stop-color="#8e24aa"/><stop offset=".119" stop-color="#942eae"/><stop offset=".268" stop-color="#a94dbc"/><stop offset=".393" stop-color="#b561c5"/><stop offset=".479" stop-color="#ba68c8"/><stop offset=".688" stop-color="#ce93d8"/><stop offset=".764" stop-color="#c681d1"/><stop offset=".914" stop-color="#b053c0"/><stop offset=".949" stop-color="#ab47bc"/></radialGradient><path fill="url(#gFVH1FVR3nJ1xCyT35zpck)" d="M47,27.5C47,27.5,47,27.5,47,27.5c0-0.2-0.1-0.5-0.1-0.7c-1-5.1-7.6-12.5-15.9-15.9c0,0.1,0.1,0.3,0.1,0.4 c2,5.1,5.9,10.9,6.9,12.9c3.6,4.8,2.3,7.8,4.9,12.8c2.3-2.7,3.9-5.5,4.1-8.3c0-0.1,0-0.3,0-0.5C47,27.9,47,27.7,47,27.5z"/><radialGradient id="gFVH1FVR3nJ1xCyT35zpcl" cx="31.262" cy="23.638" r="19.041" fx="28.78" fy="23.328" gradientTransform="matrix(.3378 .9412 -.3598 .1291 29.207 -8.838)" gradientUnits="userSpaceOnUse"><stop offset=".081" stop-color="#8e24aa"/><stop offset=".119" stop-color="#942eae"/><stop offset=".268" stop-color="#a94dbc"/><stop offset=".393" stop-color="#b561c5"/><stop offset=".479" stop-color="#ba68c8"/><stop offset=".688" stop-color="#ce93d8"/><stop offset=".764" stop-color="#c681d1"/><stop offset=".914" stop-color="#b053c0"/><stop offset=".949" stop-color="#ab47bc"/></radialGradient><path fill="url(#gFVH1FVR3nJ1xCyT35zpcl)" d="M38,24c0.6,1.4,1,3.2,1,5c0,3-1,5-1,5c-3.6-3.4-4.4-12.8-9-19c-1,0-4.7-5.9-3.6-5.7c1.9,0.3,3.8,0.9,5.6,1.6 C31.3,11,36,19,38,24z"/><radialGradient id="gFVH1FVR3nJ1xCyT35zpcm" cx="22.762" cy="17.934" r="22.849" gradientTransform="matrix(.4289 .9033 -.2666 .1266 17.78 -4.898)" gradientUnits="userSpaceOnUse"><stop offset=".081" stop-color="#8e24aa"/><stop offset=".119" stop-color="#942eae"/><stop offset=".268" stop-color="#a94dbc"/><stop offset=".393" stop-color="#b561c5"/><stop offset=".479" stop-color="#ba68c8"/><stop offset=".688" stop-color="#ce93d8"/><stop offset=".764" stop-color="#c681d1"/><stop offset=".914" stop-color="#b053c0"/><stop offset=".949" stop-color="#ab47bc"/></radialGradient><path fill="url(#gFVH1FVR3nJ1xCyT35zpcm)" d="M29,15c0.6,1.4,1,3.2,1,5c0,2.7-2,5-2,5c-2.9-6.7-5.7-8.8-6-15c0,0-1.5-0.7-1.5-1c1,0,3.8,0.1,4.9,0.3 C25.6,9.3,27,11,29,15z"/><radialGradient id="gFVH1FVR3nJ1xCyT35zpcn" cx="29.531" cy="26.929" r="27.075" gradientTransform="matrix(.7544 .6564 -.4305 .4948 18.848 -5.78)" gradientUnits="userSpaceOnUse"><stop offset="0" stop-color="#1e88e5" stop-opacity="0"/><stop offset=".48" stop-color="#4fc3f7" stop-opacity="0"/><stop offset=".712" stop-color="#64b5f6"/><stop offset=".786" stop-color="#42a5f5"/><stop offset=".941" stop-color="#0d47a1"/></radialGradient><path fill="url(#gFVH1FVR3nJ1xCyT35zpcn)" d="M47,27.5C47,27.5,47,27.5,47,27.5c0-0.2-0.1-0.5-0.1-0.7c-1-5.1-7.6-12.5-15.9-15.9c-1.8-0.7-3.6-1.3-5.6-1.6 C24.3,9.1,21.5,9,20.5,9c0,0.3,1.5,1,1.5,1c0.3,6.2,3.2,8.3,6,15c0,0,2-2.3,2-5c0-1.8-0.4-3.6-1-5c4.6,6.2,5.4,15.6,9,19 c0,0,1-2,1-5c0-0.7,0-1.4-0.2-2c0-0.3-0.1-0.7-0.2-1c0-0.2-0.1-0.5-0.2-0.7c-0.1-0.4-0.2-0.7-0.3-1c0-0.1-0.1-0.2-0.1-0.3 c2,2.6,2.5,4.9,3,7.2c0,0.3,0.1,0.5,0.2,0.8c0.3,1.5,0.8,3.1,1.7,4.9c2.3-2.7,3.9-5.5,4.1-8.3c0-0.1,0-0.3,0-0.5 C47,27.9,47,27.7,47,27.5z"/><radialGradient id="gFVH1FVR3nJ1xCyT35zpco" cx="-46.676" cy="133.964" r="2.62" gradientTransform="matrix(.6667 0 0 .7169 35.667 -65.319)" gradientUnits="userSpaceOnUse"><stop offset="0" stop-color="#ce93d8"/><stop offset=".208" stop-color="#c37cd0"/><stop offset=".525" stop-color="#b65fc5"/><stop offset=".8" stop-color="#ae4dbe"/><stop offset="1" stop-color="#ab47bc"/></radialGradient><path fill="url(#gFVH1FVR3nJ1xCyT35zpco)" d="M6,30.1C6,29.5,5.6,29,5,29s-1,0.4-1,1s1,1,1,2C5.6,32,6,30.7,6,30.1z"/><radialGradient id="gFVH1FVR3nJ1xCyT35zpcp" cx="18.43" cy="8.169" r="4.718" fx="14.269" fy="5.944" gradientUnits="userSpaceOnUse"><stop offset=".069" stop-color="#ffecb3"/><stop offset=".331" stop-color="#ffe9a8"/><stop offset=".788" stop-color="#ffe28b"/><stop offset=".919" stop-color="#ffe082"/></radialGradient><path fill="url(#gFVH1FVR3nJ1xCyT35zpcp)" d="M15,6c0,3,3,6,3,6s2.2-0.1,4-2C18.7,7.6,18,8,15,6z"/></g></svg>