<svg xmlns="http://www.w3.org/2000/svg" width="157.127" height="95.605" viewBox="0 0 157.127 95.605">
  <g id="computer-and-man" transform="translate(-67.319 -180.525)">
    <g id="Shape_9_1_" transform="translate(67.638 180.525)">
      <g id="Shape_9">
        <g id="Group_42" data-name="Group 42">
          <path id="Path_99" data-name="Path 99" d="M219.625,222.651c3.729-46.58-39.922-45.249-49.057-38.937-9.135,6.339-11.372,11.772-23.17,11.319s-17.018-5.247-32.305.186C99.8,200.626,101.748,214.874,100.63,223c-1.145,8.123,1.838,12.331-17.657,22.158s-13.476,28.63-13.9,30.6S224.6,271.229,224.6,271.229,215.869,269.2,219.625,222.651Z" transform="translate(-68.515 -180.525)" fill="#cce9ff" fill-rule="evenodd"/>
        </g>
      </g>
    </g>
    <g id="monitor_1_" transform="translate(67.341 205.26)">
      <g id="Ellipse_2" transform="translate(122.111 61.468)">
        <g id="Group_43" data-name="Group 43">
          <ellipse id="Ellipse_11" data-name="Ellipse 11" cx="5.646" cy="4.261" rx="5.646" ry="4.261" fill="#f2f2f2"/>
        </g>
      </g>
      <g id="Ellipse_2_copy" transform="translate(124.339 61.468)">
        <g id="Group_44" data-name="Group 44">
          <path id="Path_100" data-name="Path 100" d="M537.684,504.2a7.028,7.028,0,0,0-3.409.852c-.186.107,2.5.932,6.871.053A6.9,6.9,0,0,0,537.684,504.2Z" transform="translate(-534.266 -504.2)" fill="#d3d3d3" fill-rule="evenodd"/>
        </g>
      </g>
      <g id="Rectangle_6" transform="translate(127.65 61.468)">
        <g id="Group_45" data-name="Group 45">
          <rect id="Rectangle_49" data-name="Rectangle 49" width="0.32" height="0.639" fill="#f2f2f2"/>
        </g>
      </g>
      <g id="Rounded_Rectangle_1" transform="translate(60.456)">
        <g id="Group_46" data-name="Group 46">
          <path id="Path_101" data-name="Path 101" d="M373.925,273.4H295.039a.648.648,0,0,0-.639.639v52.919a.648.648,0,0,0,.639.639h42.8v11.852h6.418V327.6h29.669a.648.648,0,0,0,.639-.639V274.039A.631.631,0,0,0,373.925,273.4Z" transform="translate(-294.4 -273.4)" fill="#d3d3d3" fill-rule="evenodd"/>
        </g>
      </g>
      <g id="Rounded_Rectangle_1_copy_2" transform="translate(57.74)">
        <g id="Group_47" data-name="Group 47">
          <path id="Path_102" data-name="Path 102" d="M363.725,273.4H284.839a.648.648,0,0,0-.639.639v52.919a.648.648,0,0,0,.639.639h32.838v11.852h16.459V327.6h29.589a.648.648,0,0,0,.639-.639V274.039A.631.631,0,0,0,363.725,273.4Z" transform="translate(-284.2 -273.4)" fill="#f2f2f2" fill-rule="evenodd"/>
        </g>
      </g>
      <g id="Rounded_Rectangle_1_copy" transform="translate(61.548 3.436)">
        <g id="Group_48" data-name="Group 48">
          <path id="Path_103" data-name="Path 103" d="M370.435,286.3h-71.3a.648.648,0,0,0-.639.639V328.3a.648.648,0,0,0,.639.639h71.3a.648.648,0,0,0,.639-.639V286.939A.648.648,0,0,0,370.435,286.3Z" transform="translate(-298.5 -286.3)" fill="#d3d3d3" fill-rule="evenodd"/>
        </g>
      </g>
      <g id="Rectangle_2" transform="translate(68.153 6.339)">
        <g id="Group_49" data-name="Group 49">
          <rect id="Rectangle_50" data-name="Rectangle 50" width="59.63" height="36.833" fill="#0b4870"/>
        </g>
      </g>
      <g id="Rectangle_3" transform="translate(78.726 62.454)">
        <g id="Group_50" data-name="Group 50">
          <rect id="Rectangle_51" data-name="Rectangle 51" width="40.988" height="2.344" fill="#0b4870"/>
        </g>
      </g>
      <g id="Rectangle_2_copy" transform="translate(68.153 6.339)">
        <g id="Group_51" data-name="Group 51">
          <path id="Path_104" data-name="Path 104" d="M323.3,297.2v3.995h59.631V297.2Zm6.685,10.147h2v-2h-2Zm0,3.6h2v-2h-2Zm0,3.622h2v-1.971h-2Zm0,3.622h2v-2h-2Zm0,3.622h2v-2h-2Zm0,3.622h2v-2h-2Zm0,3.622h2v-2h-2Z" transform="translate(-323.3 -297.2)" fill="#f2f2f2" fill-rule="evenodd"/>
        </g>
      </g>
      <g id="Rectangle_2_copy_2" transform="translate(79.365 14.488)">
        <g id="Group_52" data-name="Group 52">
          <path id="Path_105" data-name="Path 105" d="M365.4,333.393h6.685v-2H365.4Zm33.024-5.593H390.2v2h8.229Zm8.336,0h-6.525v2h6.525Zm0,3.622H398.8v2h7.963ZM393.1,338.666v2H406.84v-2Zm-1.625,0H377.731v2h13.742Zm10.041,3.6H380.341v2h21.173Zm-5.167,5.62H406.76v-2H396.347Z" transform="translate(-365.4 -327.8)" fill="#30c34f" fill-rule="evenodd"/>
        </g>
      </g>
      <g id="Ellipse_1" transform="translate(69.937 7.431)">
        <g id="Group_53" data-name="Group 53">
          <path id="Path_106" data-name="Path 106" d="M330.959,301.3a.959.959,0,1,0,.959.959A.955.955,0,0,0,330.959,301.3Zm8.469,9.055h13.29v-2h-13.29Zm41.361,5.247H353.357v2h27.432Zm-41.361,5.593h10.6v-2h-10.6Zm0,7.244h10.6v-2h-10.6Zm0,3.622h9.135v-2h-9.135Zm31.586-20.081h-8.229v2h8.229Zm6.072,10.84v2h3.782v-2Z" transform="translate(-330 -301.3)" fill="#d54949" fill-rule="evenodd"/>
        </g>
      </g>
      <g id="Ellipse_1_copy" transform="translate(72.76 7.431)">
        <g id="Group_54" data-name="Group 54">
          <path id="Path_107" data-name="Path 107" d="M341.559,301.3a.959.959,0,1,0,.959.959A.99.99,0,0,0,341.559,301.3Zm17.87,14.3H347.2v2h12.224Zm1.092,7.217h-13.29v2h13.29Zm9.854-14.462h-8.23v2h8.23Zm-1.545,3.622h-13.29v2h13.29Zm-10.76,18.084v2h30.574v-2Zm1.358-1.625h17.285v-2H359.429Z" transform="translate(-340.6 -301.3)" fill="#ffbe55" fill-rule="evenodd"/>
        </g>
      </g>
      <g id="Ellipse_1_copy_2" transform="translate(75.477 7.404)">
        <g id="Group_55" data-name="Group 55">
          <circle id="Ellipse_12" data-name="Ellipse 12" cx="0.959" cy="0.959" r="0.959" fill="#30c34f"/>
        </g>
      </g>
      <g id="Rectangle_1" transform="translate(0 64.797)">
        <g id="Group_56" data-name="Group 56">
          <rect id="Rectangle_52" data-name="Rectangle 52" width="157.106" height="6.072" fill="#ffbe55"/>
        </g>
      </g>
    </g>
    <g id="person_1_" transform="translate(67.319 190.653)">
      <g id="Shape_12" transform="translate(22.446 7.798)">
        <g id="Group_57" data-name="Group 57">
          <path id="Path_108" data-name="Path 108" d="M175.543,249.822s-9.535-5.247-15.5,1.3-9.188,5.113-7.7,17.9l-.746,6.5,11.159,1.2.213-4.235s9.375,2.876,11.159-7.484S175.543,249.822,175.543,249.822Z" transform="translate(-151.6 -247.834)" fill="#f8b8a9" fill-rule="evenodd"/>
        </g>
      </g>
      <g id="Shape_15" transform="translate(81.384 72.72)">
        <g id="Group_58" data-name="Group 58">
          <path id="Path_109" data-name="Path 109" d="M372.9,491.6v4.421h12.944C383.074,491.813,372.9,491.6,372.9,491.6Z" transform="translate(-372.9 -491.6)" fill="#f8b8a9" fill-rule="evenodd"/>
        </g>
      </g>
      <g id="Shape_10" transform="translate(10.701 35.153)">
        <g id="Group_59" data-name="Group 59">
          <path id="Path_110" data-name="Path 110" d="M122.6,350.56c-6.871-.293-14.035,3.755-15.1,23.943.985,25.94,4.9,26.073,4.9,26.073l32.119.186S150.245,349.681,122.6,350.56Z" transform="translate(-107.5 -350.546)" fill="#798488" fill-rule="evenodd"/>
        </g>
      </g>
      <g id="Shape_11" transform="translate(31.881 39.092)">
        <g id="Group_60" data-name="Group 60">
          <path id="Path_111" data-name="Path 111" d="M236,397.258c-5.859-.613-7.883-.453-19.309-1.838-13.183-10.254-20.294-34.942-27.831-29.243-1.225.453-5.992,3.968,7.377,22.185,13.4,18.217,14.355,17.764,25.3,17.684s13.742-.32,13.742-.32S238.208,400.986,236,397.258Z" transform="translate(-187.028 -365.334)" fill="#798488" fill-rule="evenodd"/>
        </g>
      </g>
      <g id="Shape_13" transform="translate(0 58.6)">
        <g id="Group_61" data-name="Group 61">
          <path id="Path_112" data-name="Path 112" d="M98.767,439.2a225.79,225.79,0,0,0-25.807-.426s-6.525.746-5.54,8.016v18.563h42.16C109.607,465.382,109.767,440.294,98.767,439.2Z" transform="translate(-67.319 -438.586)" fill="#ffe3ca" fill-rule="evenodd"/>
        </g>
      </g>
      <g id="Shape_13_copy" transform="translate(0.031 60.498)">
        <g id="Group_62" data-name="Group 62">
          <path id="Path_113" data-name="Path 113" d="M96.695,446.294a205.4,205.4,0,0,0-24.023-.4s-6.072.693-5.14,7.457v17.258h39.257C106.788,470.582,106.948,447.279,96.695,446.294Z" transform="translate(-67.435 -445.71)" fill="#fcd2b1" fill-rule="evenodd"/>
        </g>
      </g>
      <g id="Shape_14" transform="translate(16.537)">
        <g id="Group_63" data-name="Group 63">
          <path id="Path_114" data-name="Path 114" d="M155.188,221.975c-3.089-4.128-8.15-4.5-17.231-1.225s-10.333,18.7-6.525,24.8,12.464,2.983,12.118-.373c-.32-3.356-2.317-9.028.906-8.336s4.235-3.249,4.075-5.7,10.44-1.2,11.958-3.7C162.006,224.958,158.278,226.1,155.188,221.975Z" transform="translate(-129.411 -218.554)" fill="#0b4870" fill-rule="evenodd"/>
        </g>
      </g>
    </g>
    <g id="pot_1_" transform="translate(198.88 253.111)">
      <g id="Shape_16" transform="translate(0.787 0)">
        <g id="Group_64" data-name="Group 64">
          <path id="Path_115" data-name="Path 115" d="M578.3,461.228a2.446,2.446,0,0,0,.746-.24,2.714,2.714,0,0,0,.826-.826,1.893,1.893,0,0,0,.533-1.332c-.08-.4-.639-.692-.932-.479a2.764,2.764,0,0,0,.8-1.332,1.1,1.1,0,0,0-.8-1.332,1.137,1.137,0,0,0-.959.479,2.249,2.249,0,0,0,.186-1.438.679.679,0,0,0-.24-.4.817.817,0,0,0-.772.107,5.226,5.226,0,0,0-1.891,1.918,3.269,3.269,0,0,0,.266-1.225,1.334,1.334,0,0,0-1.2-1.332,1.722,1.722,0,0,0-.772.293,3.452,3.452,0,0,0-1.438,2.1,4.889,4.889,0,0,0-.24-2.477c-.107-.293-.32-.639-.639-.639a.755.755,0,0,0-.533.32,4.2,4.2,0,0,0-1.012,2.1,3.543,3.543,0,0,0-.4-1.811,1.206,1.206,0,0,0-1.625-.453,1.7,1.7,0,0,0-.479.826,6.626,6.626,0,0,0-.187,3.063,6.165,6.165,0,0,0-.852-1.731c-.24-.32-.666-.639-.985-.426a.769.769,0,0,0-.213.719,5.95,5.95,0,0,0,.879,2.743,16.453,16.453,0,0,0-.959-1.412.888.888,0,0,0-.453-.373.608.608,0,0,0-.666.453,1.433,1.433,0,0,0,.08.879c.879,2.61,3.169,3.01,5.486,3.409.506.08,1.012.16,1.518.213h-6.392l2.024,7.058a1.568,1.568,0,0,0,1.518,1.358h8.123a1.617,1.617,0,0,0,1.545-1.358l2.024-7.058h-4.181A16.7,16.7,0,0,0,578.3,461.228Z" transform="translate(-564.256 -453.071)" fill="#004970" fill-rule="evenodd"/>
        </g>
      </g>
      <g id="Shape_16_copy" transform="translate(0.787 0)">
        <g id="Group_65" data-name="Group 65">
          <path id="Path_116" data-name="Path 116" d="M580.407,458.831c-.08-.4-.639-.692-.932-.479a2.762,2.762,0,0,0,.8-1.332,1.1,1.1,0,0,0-.8-1.332,1.137,1.137,0,0,0-.959.479,2.249,2.249,0,0,0,.186-1.438.68.68,0,0,0-.24-.4.817.817,0,0,0-.772.107,5.225,5.225,0,0,0-1.891,1.918,3.268,3.268,0,0,0,.266-1.225,1.334,1.334,0,0,0-1.2-1.332,1.722,1.722,0,0,0-.772.293,3.452,3.452,0,0,0-1.438,2.1,4.889,4.889,0,0,0-.24-2.477c-.107-.293-.32-.639-.639-.639a.756.756,0,0,0-.533.32,4.205,4.205,0,0,0-1.012,2.1,3.542,3.542,0,0,0-.4-1.811,1.206,1.206,0,0,0-1.625-.453,1.7,1.7,0,0,0-.479.826,6.627,6.627,0,0,0-.186,3.063,6.165,6.165,0,0,0-.852-1.731c-.24-.32-.666-.639-.985-.426a.769.769,0,0,0-.213.719,5.952,5.952,0,0,0,.879,2.743,16.453,16.453,0,0,0-.959-1.412.887.887,0,0,0-.453-.373.608.608,0,0,0-.666.453,1.432,1.432,0,0,0,.08.879c.879,2.61,3.169,3.01,5.486,3.409a21.462,21.462,0,0,0,8.443-.16,2.446,2.446,0,0,0,.746-.24,2.711,2.711,0,0,0,.826-.826A1.893,1.893,0,0,0,580.407,458.831Z" transform="translate(-564.256 -453.071)" fill="#fed17a" fill-rule="evenodd"/>
        </g>
      </g>
      <g id="Rectangle_5" transform="translate(1.139 2.196)">
        <g id="Group_66" data-name="Group 66">
          <path id="Path_117" data-name="Path 117" d="M580.629,464.587a1.4,1.4,0,0,0-.985-1.2.954.954,0,0,0-1.172.852c.107-.746.08-1.731-.612-2a1.183,1.183,0,0,0-.613-.053,4.482,4.482,0,0,0-2.69,1.278,1.4,1.4,0,0,0-.08-1.7,1.419,1.419,0,0,0-1.678-.293,2.811,2.811,0,0,0-1.092,1.918,2.091,2.091,0,0,0-2.876-1.6,1.166,1.166,0,0,0-.533.479c-.4.746.373,1.625.266,2.477a3.642,3.642,0,0,0-1.358-1.039,1.269,1.269,0,0,0-1.518.453,1.417,1.417,0,0,0-.08.879c.453,2.424,3.436,2.077,5.247,2.1,2.583.08,5.14,0,7.7-.053a1.98,1.98,0,0,0,.693-.08,1.867,1.867,0,0,0,.959-.852A2.509,2.509,0,0,0,580.629,464.587Z" transform="translate(-565.575 -461.315)" fill="#ffbe55" fill-rule="evenodd"/>
        </g>
      </g>
      <g id="Rectangle_4" transform="translate(0 7.119)">
        <g id="Group_67" data-name="Group 67">
          <path id="Path_118" data-name="Path 118" d="M578.531,479.8h-16.3a.944.944,0,0,0-.932.932v.879a.944.944,0,0,0,.932.932h16.3a.944.944,0,0,0,.932-.932v-.879A.944.944,0,0,0,578.531,479.8Z" transform="translate(-561.3 -479.8)" fill="#01384f" fill-rule="evenodd"/>
        </g>
      </g>
    </g>
  </g>
</svg>
