<svg xmlns="http://www.w3.org/2000/svg" width="103.648" height="109.971" viewBox="0 0 103.648 109.971">
  <g id="multimedia-icon-share" transform="translate(12.819 -38.029)">
    <g id="Layer_1" data-name="Layer 1" transform="translate(-12.819 38.029)">
      <path id="Path_122" data-name="Path 122" d="M150.515,150.748a19.69,19.69,0,0,0-15.58,7.666l-30.212-16.871a19.68,19.68,0,0,0,1.1-6.487,19.289,19.289,0,0,0-1.12-6.509L134.893,111.7a19.643,19.643,0,1,0-4.066-11.944,19.178,19.178,0,0,0,1.12,6.509l-30.17,16.853a19.645,19.645,0,1,0,.047,23.866l30.19,16.878a19.653,19.653,0,1,0,18.5-13.107Zm0-64.472a13.5,13.5,0,1,1-13.5,13.5A13.5,13.5,0,0,1,150.515,86.276ZM86.2,148.565a13.5,13.5,0,1,1,13.5-13.5A13.5,13.5,0,0,1,86.2,148.565Zm64.317,35.321a13.5,13.5,0,1,1,13.5-13.5,13.5,13.5,0,0,1-13.5,13.5Zm0,0" transform="translate(-66.551 -80.085)" fill="#0068ff"/>
    </g>
  </g>
</svg>
