<svg xmlns="http://www.w3.org/2000/svg" xmlns:xlink="http://www.w3.org/1999/xlink" width="158.896" height="113.305" viewBox="0 0 158.896 113.305">
  <defs>
    <clipPath id="clip-path">
      <circle id="Ellipse_14" data-name="Ellipse 14" cx="6.174" cy="6.174" r="6.174"/>
    </clipPath>
  </defs>
  <g id="my-password" transform="translate(-270 -394.188)">
    <g id="Group_69" data-name="Group 69" transform="translate(283.169 397.858)" opacity="0.07">
      <g id="Group_68" data-name="Group 68">
        <path id="Path_123" data-name="Path 123" d="M441.745,445.595c2,3.662,4.933,7.112,5.175,11.229.393,6.628-6.053,11.592-8.686,17.736-3.238,7.536-.515,16.4-3.39,24.061a19.02,19.02,0,0,1-13.166,11.44c-4.479,1.09-9.2.605-13.831.636-13.135.121-26.24,4.661-39.225,2.6-6.416-1.029-12.47-3.632-18.886-4.449-7.718-1-16.707.212-22.215-5.024-7.718-7.324-2-20.793-7.778-29.57-1.876-2.845-4.873-5.054-5.872-8.232-1.18-3.753.726-7.718,3.087-10.926,2.361-3.178,5.3-6.114,6.568-9.836,1.15-3.359.454-7.022-.968-10.29-2.179-5.024,3.9-16.525,16.011-15.647,5.539.393,8.051-6.023,14.134-7.809,6.961-2.028,15.708-.393,20.823,1.3,5.206,1.725,11.652,2.633,14.649-1.786,4.207-6.265,16.8-7.234,22.457,2.936,2.058,3.692,3.9,6.6,8.293,6.3C442.713,418.719,438.748,440.177,441.745,445.595ZM376.885,411.3c0,.847,0,2.3,3.753,2.058,1.15-.061,2.088-.7,2.088-1.544s-.938-1.544-2.088-1.544C379.488,410.3,376.885,409.942,376.885,411.3ZM339.93,415.45a.6.6,0,0,0-.242.3,2.421,2.421,0,0,1-1.09.787,1.914,1.914,0,0,0-.7.363.742.742,0,0,0,.061,1.09,1.406,1.406,0,0,0,1,.212,6.481,6.481,0,0,0,3.6-1.332C343.865,415.813,340.657,415.057,339.93,415.45Zm-3.571,1.937a1.471,1.471,0,0,0-1.453.091.477.477,0,0,0-.212.212c-.061.212.212.363.424.424a1.725,1.725,0,0,0,1.029.091C336.48,418.113,336.813,417.69,336.359,417.387Zm-16.586,27.148a1.452,1.452,0,0,0-2.27-.908,4.294,4.294,0,0,0-1.6,1.6,5.2,5.2,0,0,0-1.09,3.36,3.168,3.168,0,0,0,1.332,2.209,1.846,1.846,0,0,0,1.029.363,1.97,1.97,0,0,0,1.12-.484,11.334,11.334,0,0,0,1.907-2.088,2.872,2.872,0,0,0,.666-1.271C321.014,446.261,320.076,445.443,319.773,444.535ZM441.442,475.1a1.22,1.22,0,0,0-.938,1.241,12.688,12.688,0,0,0-.091,1.513,2.025,2.025,0,0,0,.484,1.544,2.36,2.36,0,0,0,2.209.121,2.19,2.19,0,0,0,1.15-.575,1.725,1.725,0,0,0,.333-.847c.182-1,.726-2.512.121-3.057C444.045,474.5,442.5,474.68,441.442,475.1ZM399.4,513.965a1.975,1.975,0,0,0-.393.484,1.042,1.042,0,0,0,.545,1.392,1.717,1.717,0,0,0,.878.091c2.512-.03,5.206-.121,7.2-1.574.242-.182.484-.424.454-.7-.061-.363-.484-.514-.847-.575C404.729,512.634,401.4,512.089,399.4,513.965Zm-47.517-3.874c-2.179-.3-5.629-.7-5.629,1.059,0,.666,3.087,1.3,3.571,1.422a40.385,40.385,0,0,1,4.57,1.513c2.845,1.059,5.145-.363,2.875-1.967A11.652,11.652,0,0,0,351.885,510.091Z" transform="translate(-313.512 -406.314)" fill="#2a94f4"/>
      </g>
    </g>
    <g id="Group_70" data-name="Group 70" transform="translate(369.785 465.725)" opacity="0.51">
      <path id="Path_124" data-name="Path 124" d="M606.538,644.607c-.7-1.332.908-2.754,2.391-3.027s3.148-.061,4.3-1c1.574-1.241,1.483-3.935,3.208-4.933,1.392-.787,3.238-.03,4.691-.666,1.816-.787,2.331-3.329,4.146-4.177a3.2,3.2,0,0,1,4.025,1.483,4.209,4.209,0,0,1-.605,4.449c-.787.938-1.967,1.634-2.452,2.754-.757,1.786.454,3.935-.272,5.751-1.3,3.329-7.476,2.331-8.565,5.751a10.346,10.346,0,0,0-.212,2.391,7.428,7.428,0,0,1-3.9,5.6,16.137,16.137,0,0,1-6.84,1.755,5.313,5.313,0,0,1-2.845-.363,4.654,4.654,0,0,1-1.816-2c-2.845-5.115-4.025-11.834,4.752-13.771" transform="translate(-599.696 -630.548)" fill="#ff696a"/>
    </g>
    <g id="Group_71" data-name="Group 71" transform="translate(303.153 456.142)" opacity="0.51">
      <path id="Path_125" data-name="Path 125" d="M406.919,617.9c.969-1.574-.847-3.45-2.633-3.9s-3.813-.363-5.175-1.6c-1.786-1.665-1.453-4.964-3.481-6.326-1.634-1.09-3.935-.333-5.69-1.241-2.179-1.12-2.542-4.3-4.661-5.508a3.942,3.942,0,0,0-5.085,1.453,5.127,5.127,0,0,0,.333,5.508c.878,1.241,2.24,2.179,2.754,3.6.787,2.24-.908,4.782-.212,7.052,1.3,4.207,8.959,3.541,9.927,7.839a13.582,13.582,0,0,1,.03,2.936,9.119,9.119,0,0,0,4.267,7.234,19.593,19.593,0,0,0,8.2,2.784,6.276,6.276,0,0,0,3.511-.182,5.817,5.817,0,0,0,2.421-2.27c3.965-6.083,6.023-14.195-4.51-17.373" transform="translate(-379.54 -598.886)" fill="#ff696a"/>
    </g>
    <path id="Path_126" data-name="Path 126" d="M623.7,402.394l-2.119.726-.908-2.633a9.371,9.371,0,1,0-17.705,6.144l.908,2.633-2.119.726a3.186,3.186,0,0,0-1.967,4.056l5.962,17.221a3.215,3.215,0,0,0,4.056,2l21.912-7.6a3.235,3.235,0,0,0,2-4.086l-5.962-17.221A3.139,3.139,0,0,0,623.7,402.394ZM607,405.209a5.126,5.126,0,1,1,9.685-3.359l.908,2.633-9.685,3.359Zm12.712,15.708,1.513,4.389a.392.392,0,0,1-.242.454l-2.119.726a.339.339,0,0,1-.424-.212l-1.513-4.389a4.089,4.089,0,1,1,2.784-.969Z" transform="translate(-229.856)" fill="#ff696a"/>
    <g id="Group_73" data-name="Group 73" transform="translate(370.576 444.463)">
      <g id="Group_72" data-name="Group 72" transform="translate(0 5.822)">
        <path id="Path_127" data-name="Path 127" d="M602.85,616.9a18.615,18.615,0,0,0,5.66-4.267,34.676,34.676,0,0,0,8.384-16.222,60.619,60.619,0,0,0,1.3-16.525c-.03-.454-.757-.484-.726,0,.605,12.439-1.876,27.663-12.984,35.229a12.849,12.849,0,0,1-1.967,1.15c-.454.182-.091.817.333.636Z" transform="translate(-602.307 -579.537)" fill="#ff696a"/>
      </g>
      <path id="Path_128" data-name="Path 128" d="M650.8,617.661s.7-4.025,6.023-4.661C656.853,613,654.886,617.752,650.8,617.661Z" transform="translate(-636.123 -597.05)" fill="#ff696a"/>
      <path id="Path_129" data-name="Path 129" d="M645.1,640.65s1.634-3.753,6.961-3.117C652.031,637.533,649.035,641.71,645.1,640.65Z" transform="translate(-632.148 -614.107)" fill="#ff696a"/>
      <path id="Path_130" data-name="Path 130" d="M637.6,660.726s2.421-3.3,7.476-1.483C645.076,659.243,641.2,662.633,637.6,660.726Z" transform="translate(-626.918 -628.917)" fill="#ff696a"/>
      <path id="Path_131" data-name="Path 131" d="M653.5,597.17s.7-3.965,5.932-4.57C659.432,592.6,657.525,597.291,653.5,597.17Z" transform="translate(-638.006 -582.824)" fill="#ff696a"/>
      <path id="Path_132" data-name="Path 132" d="M650.169,567.776s-3-2.694-.726-7.476C649.442,560.33,652.378,564.416,650.169,567.776Z" transform="translate(-634.584 -560.3)" fill="#ff696a"/>
      <path id="Path_133" data-name="Path 133" d="M643.34,584.762s-3.965-.726-4.54-5.962C638.83,578.769,643.491,580.736,643.34,584.762Z" transform="translate(-627.755 -573.2)" fill="#ff696a"/>
      <path id="Path_134" data-name="Path 134" d="M642.04,604.662s-3.965-.726-4.54-5.962C637.53,598.7,642.191,600.637,642.04,604.662Z" transform="translate(-626.849 -587.078)" fill="#ff696a"/>
      <path id="Path_135" data-name="Path 135" d="M639.686,622.664s-3.9-1-4.086-6.265C635.6,616.369,640.11,618.639,639.686,622.664Z" transform="translate(-625.524 -599.42)" fill="#ff696a"/>
      <path id="Path_136" data-name="Path 136" d="M633.786,641.265s-3.9-1-4.086-6.265C629.7,635,634.21,637.27,633.786,641.265Z" transform="translate(-621.409 -612.391)" fill="#ff696a"/>
    </g>
    <g id="Group_75" data-name="Group 75" transform="translate(309.739 442.95)">
      <g id="Group_74" data-name="Group 74" transform="translate(5.459 5.822)">
        <path id="Path_137" data-name="Path 137" d="M434.76,611.9a18.615,18.615,0,0,1-5.66-4.267,34.677,34.677,0,0,1-8.384-16.222,60.617,60.617,0,0,1-1.3-16.525c.03-.454.757-.484.726,0-.605,12.439,1.876,27.663,12.984,35.229a12.844,12.844,0,0,0,1.967,1.15c.454.182.091.817-.333.636Z" transform="translate(-419.336 -574.537)" fill="#ff696a"/>
      </g>
      <path id="Path_138" data-name="Path 138" d="M409.722,612.661s-.7-4.025-6.023-4.661C403.669,608,405.636,612.752,409.722,612.661Z" transform="translate(-402.973 -592.05)" fill="#ffbe55"/>
      <path id="Path_139" data-name="Path 139" d="M413.361,635.65s-1.634-3.753-6.961-3.117C406.4,632.533,409.4,636.71,413.361,635.65Z" transform="translate(-404.856 -609.107)" fill="#ffbe55"/>
      <path id="Path_140" data-name="Path 140" d="M419.675,655.726s-2.421-3.3-7.476-1.483C412.169,654.243,416.043,657.633,419.675,655.726Z" transform="translate(-408.901 -623.917)" fill="#ff696a"/>
      <path id="Path_141" data-name="Path 141" d="M407.232,592.17s-.7-3.965-5.932-4.57C401.3,587.6,403.207,592.291,407.232,592.17Z" transform="translate(-401.3 -577.824)" fill="#ffbe55"/>
      <path id="Path_142" data-name="Path 142" d="M418.772,562.776s3-2.694.726-7.476C419.5,555.33,416.533,559.416,418.772,562.776Z" transform="translate(-412.901 -555.3)" fill="#ff696a"/>
      <path id="Path_143" data-name="Path 143" d="M420.592,579.762s3.965-.726,4.54-5.962C425.132,573.769,420.44,575.736,420.592,579.762Z" transform="translate(-414.75 -568.2)" fill="#ff696a"/>
      <path id="Path_144" data-name="Path 144" d="M421.892,599.662s3.965-.726,4.54-5.962C426.432,593.7,421.74,595.637,421.892,599.662Z" transform="translate(-415.657 -582.078)" fill="#ff696a"/>
      <path id="Path_145" data-name="Path 145" d="M425.235,617.664s3.9-1,4.086-6.265C429.321,611.369,424.812,613.639,425.235,617.664Z" transform="translate(-417.971 -594.42)" fill="#ff696a"/>
      <path id="Path_146" data-name="Path 146" d="M431.135,636.265s3.9-1,4.086-6.265C435.221,630,430.712,632.27,431.135,636.265Z" transform="translate(-422.086 -607.391)" fill="#ff696a"/>
    </g>
    <g id="Group_79" data-name="Group 79" transform="translate(328.262 404.391)">
      <path id="Path_147" data-name="Path 147" d="M503.177,520.18H468.886a6.387,6.387,0,0,1-6.386-6.386V434.286a6.387,6.387,0,0,1,6.386-6.386h34.261a6.387,6.387,0,0,1,6.386,6.386v79.508A6.362,6.362,0,0,1,503.177,520.18Z" transform="translate(-462.5 -427.9)" fill="#2a94f4"/>
      <path id="Path_148" data-name="Path 148" d="M507.926,523.118H474.179a4.469,4.469,0,0,1-4.479-4.479V441.279a4.469,4.469,0,0,1,4.479-4.479h33.746a4.469,4.469,0,0,1,4.479,4.479v77.359A4.469,4.469,0,0,1,507.926,523.118Z" transform="translate(-467.521 -434.106)" fill="#f7f7f7"/>
      <path id="Path_149" data-name="Path 149" d="M515.137,434.987h-2.784a1.55,1.55,0,0,0-1.544,1.544v1.09a1.55,1.55,0,0,1-1.544,1.544H496.887a1.55,1.55,0,0,1-1.543-1.544v-1.09a1.55,1.55,0,0,0-1.544-1.544h-7.9V434.2h29.237Z" transform="translate(-478.818 -432.293)" fill="#2a94f4"/>
      <g id="Group_78" data-name="Group 78" transform="translate(16.767 26.725)">
        <circle id="Ellipse_13" data-name="Ellipse 13" cx="6.174" cy="6.174" r="6.174" fill="#2a94f4" opacity="0.17"/>
        <g id="Group_77" data-name="Group 77">
          <g id="Group_76" data-name="Group 76" clip-path="url(#clip-path)">
            <path id="Path_150" data-name="Path 150" d="M532.323,526.391A2.391,2.391,0,1,1,529.932,524,2.377,2.377,0,0,1,532.323,526.391Zm1.211,9.836v-3.42a3.481,3.481,0,0,0-3.481-3.481h-.272a3.481,3.481,0,0,0-3.481,3.481v3.42a.956.956,0,0,0,.969.969h5.3A.956.956,0,0,0,533.534,536.227Z" transform="translate(-523.758 -521.639)" fill="#2a94f4"/>
          </g>
        </g>
      </g>
      <path id="Path_151" data-name="Path 151" d="M513.352,569h-29.6a2.441,2.441,0,0,1-2.451-2.452h0a2.441,2.441,0,0,1,2.451-2.452h29.6a2.441,2.441,0,0,1,2.452,2.452h0A2.461,2.461,0,0,1,513.352,569Z" transform="translate(-475.61 -522.878)" fill="#2a94f4" opacity="0.17"/>
      <path id="Path_152" data-name="Path 152" d="M518.877,571.371H491.336a.621.621,0,0,1-.636-.636h0a.621.621,0,0,1,.636-.636h27.542a.621.621,0,0,1,.636.636h0A.639.639,0,0,1,518.877,571.371Z" transform="translate(-482.165 -527.062)" fill="#2a94f4"/>
      <path id="Path_153" data-name="Path 153" d="M513.452,598h-29.6a2.441,2.441,0,0,1-2.452-2.452h0a2.441,2.441,0,0,1,2.452-2.452h29.6a2.441,2.441,0,0,1,2.451,2.452h0A2.461,2.461,0,0,1,513.452,598Z" transform="translate(-475.68 -543.101)" fill="#2a94f4" opacity="0.17"/>
      <path id="Path_154" data-name="Path 154" d="M490.536,600.571h0a.621.621,0,0,1-.636-.636h0a.621.621,0,0,1,.636-.636h0a.621.621,0,0,1,.636.636h0A.639.639,0,0,1,490.536,600.571Zm2.542-.636h0a.621.621,0,0,0-.636-.636h0a.621.621,0,0,0-.636.636h0a.621.621,0,0,0,.636.636h0A.639.639,0,0,0,493.078,599.936Zm1.877,0h0a.621.621,0,0,0-.636-.636h0a.621.621,0,0,0-.636.636h0a.621.621,0,0,0,.636.636h0A.621.621,0,0,0,494.954,599.936Zm1.907,0h0a.621.621,0,0,0-.636-.636h0a.621.621,0,0,0-.636.636h0a.621.621,0,0,0,.636.636h0A.621.621,0,0,0,496.861,599.936Zm1.907,0h0a.621.621,0,0,0-.636-.636h0a.621.621,0,0,0-.636.636h0a.621.621,0,0,0,.636.636h0A.621.621,0,0,0,498.768,599.936Zm1.907,0h0a.621.621,0,0,0-.636-.636h0a.621.621,0,0,0-.636.636h0a.621.621,0,0,0,.636.636h0A.639.639,0,0,0,500.675,599.936Zm1.907,0h0a.621.621,0,0,0-.636-.636h0a.621.621,0,0,0-.636.636h0a.621.621,0,0,0,.636.636h0A.639.639,0,0,0,502.581,599.936Z" transform="translate(-481.607 -547.424)" fill="#2a94f4"/>
    </g>
    <g id="Group_81" data-name="Group 81" transform="translate(287.897 426.131)">
      <path id="Path_155" data-name="Path 155" d="M400.734,703s-.636,3.511-.787,4.116a2.768,2.768,0,0,1-.847,1.211,1.536,1.536,0,0,0-.272.545.556.556,0,0,0,.061.484c1.6,2.573,4.964,3.057,4.994,2.845.061-.393-.575-1.059-1.3-1.332a2.313,2.313,0,0,1-1.453-1.665h0a3.476,3.476,0,0,1,.03-1.846l.787-2.694Z" transform="translate(-377.711 -641.478)" fill="#b97a59"/>
      <path id="Path_156" data-name="Path 156" d="M398.7,702.7l.787,3.541a4.723,4.723,0,0,1-.424,3.208h0a1.031,1.031,0,0,0,.545,1.453c1.907.666,5.569,1.967,5.72,1.816.847-.7-1.362-1.876-3-3.087-1.09-.817-1.513-4.691-1.6-7.627l-1.755.454A.287.287,0,0,0,398.7,702.7Z" transform="translate(-377.645 -640.781)" fill="#b97a59"/>
      <path id="Path_157" data-name="Path 157" d="M402.07,727.362a13.635,13.635,0,0,0,2.421.454.578.578,0,0,1,.242.091c.757.575,1.15,1.18.7,1.543-.182.151-4.51-1.392-6.174-1.967a.612.612,0,0,1-.333-.878l.333-.605A13.426,13.426,0,0,0,402.07,727.362Z" transform="translate(-377.746 -657.517)" fill="#0b4870"/>
      <path id="Path_158" data-name="Path 158" d="M395.334,584.188c-2,.7-3.238,3.42-2.33,5.962a78.812,78.812,0,0,0,5.478,10.563,5.074,5.074,0,0,1,.242,4.994,6.135,6.135,0,0,0-.333.787c-.393,1.332-1.423,8.838-1.937,13.831a2.65,2.65,0,0,0,1.271,1.453c1.755-4.51,4.419-12.621,4.843-14.043a21.773,21.773,0,0,0,.636-2.512c1.211-2.542-1.634-14.74-2.482-17.13C399.813,585.58,397.3,583.492,395.334,584.188Z" transform="translate(-373.461 -558.531)" fill="#0b4870"/>
      <ellipse id="Ellipse_15" data-name="Ellipse 15" cx="3.208" cy="4.146" rx="3.208" ry="4.146" transform="translate(19.905 3.23)" fill="#0b4870"/>
      <path id="Path_159" data-name="Path 159" d="M370.319,515.44a4.468,4.468,0,0,0-8.656-1.453,1.6,1.6,0,0,1-1.513,1.029,4.265,4.265,0,0,0-.847.091,3.967,3.967,0,0,0-1.422,7.173,2.027,2.027,0,0,1,.847,1.483,5.18,5.18,0,0,0,5.72,4.419,5.2,5.2,0,0,0,3.3-8.626A4.434,4.434,0,0,0,370.319,515.44Z" transform="translate(-347.962 -507.64)" fill="#0b4870"/>
      <path id="Path_160" data-name="Path 160" d="M405.5,503.582s1.816,1.15,1.574,2.663c0,0,.969-.7,1.18-3.027C408.436,501.584,405.5,503.582,405.5,503.582Z" transform="translate(-382.386 -501.714)" fill="#0b4870"/>
      <path id="Path_161" data-name="Path 161" d="M410.458,532.182a13.927,13.927,0,0,0,2.936,1.12,8.122,8.122,0,0,0,3.087.091c1.09-.151,2.209-.454,3.42-.666a11.468,11.468,0,0,1,3.662-.091.406.406,0,0,1,.333.454.387.387,0,0,1-.363.333h0a11.222,11.222,0,0,0-3.3.666c-1.059.363-2.149.847-3.36,1.211a9.788,9.788,0,0,1-3.874.363,14.1,14.1,0,0,1-3.723-1,1.38,1.38,0,0,1,1-2.573c.03,0,.061.03.091.03Z" transform="translate(-384.409 -522.233)" fill="#b97a59"/>
      <path id="Path_162" data-name="Path 162" d="M393.644,539.988c.726-2.179,2.179-6.81,2.058-8.293A1.847,1.847,0,0,0,393.855,530H387.53a1.938,1.938,0,0,0-1.937,1.876,46.946,46.946,0,0,0,1.271,8.142h6.78Z" transform="translate(-368.502 -520.838)" fill="#ff696a"/>
      <path id="Path_163" data-name="Path 163" d="M387.07,617.993a.372.372,0,0,0,.151-.3c-.121-4.631-.424-10.532-.515-11.652a2.085,2.085,0,0,0-.06-.393c1-5.478,1.15-17.221,1.241-19.279.121-2.694-1.513-5.751-3.6-5.872-2.119-.091-4.389,2.088-5.054,4.57-.454,1.634,1.271,10.351,3.148,16.676a9.328,9.328,0,0,1,.242,4.086,11.722,11.722,0,0,0-.121,2.663,89.426,89.426,0,0,0,2.512,9.534.257.257,0,0,0,.242.212A2.257,2.257,0,0,0,387.07,617.993Z" transform="translate(-364.017 -556.048)" fill="#0b4870"/>
      <path id="Path_164" data-name="Path 164" d="M383.386,542.742a5.705,5.705,0,0,0,.272-2.845,71.505,71.505,0,0,1-.817-8.2A1.744,1.744,0,0,1,384.6,530h.938a2.378,2.378,0,0,0,2.27,1.453,2.348,2.348,0,0,0,2.27-1.453h.878a5.682,5.682,0,0,0,1.029,6.3c-.3,1.09-.575,2.149-.757,3.027a5.7,5.7,0,0,0,.333,3.541,15.554,15.554,0,0,1,1.241,6.265,13.611,13.611,0,0,1-11.2-1.453Z" transform="translate(-365.72 -520.838)" fill="#ff696a"/>
      <g id="Group_80" data-name="Group 80" transform="translate(20.269 6.166)">
        <path id="Path_165" data-name="Path 165" d="M398.945,523.52l-2.845-.3.908-3.117,1.846.212Z" transform="translate(-396.1 -520.1)" fill="#b97a59"/>
      </g>
      <path id="Path_166" data-name="Path 166" d="M400.319,520.242,398.472,520l-.272.969c.424.454.938,1.483,1.6,1.483a1,1,0,0,0,.575-.182Z" transform="translate(-377.296 -513.865)" fill="#aa6b4f"/>
      <path id="Path_167" data-name="Path 167" d="M398.078,511.923a3.5,3.5,0,0,1-2.24-1.12,2.74,2.74,0,0,1-.938-1.846V505.9h4.691a8.386,8.386,0,0,1,0,3.238C399.349,510.349,398.562,511.923,398.078,511.923Z" transform="translate(-374.995 -504.032)" fill="#b97a59"/>
      <path id="Path_168" data-name="Path 168" d="M394.362,511.656c0,.605-.272,1.09-.636,1.09s-.726-.787-.726-1.362a.7.7,0,0,1,.726-.787C394.09,510.567,394.362,511.051,394.362,511.656Z" transform="translate(-373.67 -507.307)" fill="#b97a59"/>
      <path id="Path_169" data-name="Path 169" d="M392.93,501.96a1.744,1.744,0,0,1,1.725-1.725h1.574a2.566,2.566,0,0,0,1.271-.333,1.258,1.258,0,0,1,1.634.3c.424.545.605,1.3-.454,2-.515.333-1.271-.03-1.786.121h-1.483a.9.9,0,0,0-.878.878.569.569,0,0,1-.575.545H393.9l-.212-.726-.787,1.059V501.96Z" transform="translate(-373.6 -499.729)" fill="#0b4870"/>
      <path id="Path_170" data-name="Path 170" d="M459.226,525.817s-.757,1.483-1.271,1.392-.878-.212-.787-1a5.948,5.948,0,0,1,.969-2.33,4.238,4.238,0,0,1,1.665-1.18c.575.03-.272.938-.666,1.422-.393.454-.787,1.029-.515,1.15s.969-.817,1.332-.787S459.226,525.817,459.226,525.817Z" transform="translate(-418.407 -515.747)" fill="#b97a59"/>
      <path id="Path_171" data-name="Path 171" d="M395.632,502.771c-.151.7.061,1.09-2.209,2.179-2.3,1.09-3,.636-3.723,1.786a3.936,3.936,0,0,1,1.574-2.6c1.271-.666,3.45-1.09,4.146-2.633A3.193,3.193,0,0,1,395.632,502.771Z" transform="translate(-371.368 -500.964)" fill="#0b4870"/>
      <path id="Path_172" data-name="Path 172" d="M352.622,527.005a2.652,2.652,0,0,0-.3.242l-.272.182a5.252,5.252,0,0,1-.545.333c-.363.212-.757.393-1.15.575a11.619,11.619,0,0,1-2.482.7,10.211,10.211,0,0,1-5.054-.605,11.774,11.774,0,0,1-2.209-1.15,15.822,15.822,0,0,1-1.937-1.513,20.849,20.849,0,0,1-3.087-3.662.3.3,0,0,1,.091-.424.287.287,0,0,1,.393.061h0a25.022,25.022,0,0,0,3.359,3.117,12.661,12.661,0,0,0,3.9,2.028,10.07,10.07,0,0,0,2.088.363,9.708,9.708,0,0,0,2.088-.151,9.045,9.045,0,0,0,2-.636c.3-.151.636-.3.938-.484.151-.091.3-.182.424-.272.061-.061.151-.091.212-.151l.182-.121.061-.061a1.045,1.045,0,1,1,1.3,1.634Z" transform="translate(-333.594 -514.998)" fill="#b97a59"/>
      <path id="Path_173" data-name="Path 173" d="M407.784,505.045a4.413,4.413,0,0,0,2.149,3.481,7.745,7.745,0,0,1-.847-2.936C409.146,504.409,407.663,504.227,407.784,505.045Z" transform="translate(-383.974 -503.086)" fill="#0b4870"/>
      <path id="Path_174" data-name="Path 174" d="M396.823,723.745a.463.463,0,0,1-.121-.545c.091-.151.3-.545.454-.847a.2.2,0,0,1,.333-.03,4.738,4.738,0,0,0,4.056,2.149c.575.242,1.059.938,1,1.271a2.093,2.093,0,0,1-1.513-.03C397.458,724.532,396.823,723.745,396.823,723.745Z" transform="translate(-376.221 -654.899)" fill="#0b4870"/>
      <path id="Path_175" data-name="Path 175" d="M331.725,513.915s1,1.332.7,1.786-.605.7-1.241.272a5.731,5.731,0,0,1-1.695-1.937,4.428,4.428,0,0,1-.333-2.028c.3-.514.757.666,1,1.241s.575,1.18.817.969c.242-.182-.333-1.241-.121-1.544C331.059,512.341,331.725,513.915,331.725,513.915Z" transform="translate(-329.131 -508.203)" fill="#b97a59"/>
    </g>
    <path id="Path_176" data-name="Path 176" d="M424.2,740.382H274.691A4.676,4.676,0,0,1,270,735.691h0A4.676,4.676,0,0,1,274.691,731H424.2a4.676,4.676,0,0,1,4.691,4.691h0A4.676,4.676,0,0,1,424.2,740.382Z" transform="translate(0 -234.873)" fill="#d3d3d3"/>
    <path id="Path_177" data-name="Path 177" d="M309.911,460.949l-1.967-2.149-24.092,22.034a6.445,6.445,0,1,0,2.542,3.117,7.741,7.741,0,0,0-.333-.726l18.25-17.04,2.179,2.149,2.179-2.209-1.725-1.725.666-.787,1.786,1.6,1.513-1.725-1.876-1.725Zm-28.026,29.207a4.2,4.2,0,1,1,2.421-5.418A4.194,4.194,0,0,1,281.885,490.155Z" transform="translate(-2.745 -45.056)" fill="#ff696a"/>
  </g>
</svg>
