<?xml version="1.0" encoding="utf-8"?>
<!-- Generator: Adobe Illustrator 19.0.0, SVG Export Plug-In . SVG Version: 6.00 Build 0)  -->
<svg version="1.1" id="Layer_1" xmlns="http://www.w3.org/2000/svg" xmlns:xlink="http://www.w3.org/1999/xlink" x="0px" y="0px"
	 viewBox="0 0 612 792" style="enable-background:new 0 0 612 792;" xml:space="preserve">
<style type="text/css">
	.st0{fill:#ECF0F2;}
	.st1{fill:#E2E2E2;}
	.st2{fill:#F5F7F7;}
	.st3{fill:#C4E0EC;}
	.st4{fill:#685A88;}
	.st5{fill:#EC7E8A;}
	.st6{fill:#F592A2;}
	.st7{fill:#D87181;}
	.st8{fill:#594E78;}
	.st9{fill:#835A85;}
	.st10{fill:#A57696;}
	.st11{fill:#755077;}
	.st12{fill:#B87649;}
	.st13{fill:#DC986B;}
	.st14{fill:#FFD56C;}
	.st15{fill:#91CFA3;}
	.st16{fill:#7FB88D;}
	.st17{fill:#ACD9B4;}
	.st18{fill:#12426D;}
	.st19{fill:#0E9AD0;}
	.st20{fill:#6BCEEC;}
	.st21{fill:#69BC87;}
	.st22{fill:#4B7D5A;}
	.st23{fill:#0483A6;}
	.st24{fill:#9FDCF1;}
	.st25{fill:#57A170;}
	.st26{fill:#FDD9AF;}
	.st27{fill:#588BA8;}
	.st28{fill:#41708A;}
	.st29{fill:#6EA6BF;}
	.st30{fill:#E2B34A;}
	.st31{fill:#FFE8BC;}
	.st32{fill:#068CB2;}
	.st33{fill:#FBBB9A;}
	.st34{fill:#626158;}
	.st35{fill:#7F7E79;}
	.st36{fill:#56504C;}
	.st37{fill:#FBECCC;}
</style>
<g id="Background_3">
	<g id="XMLID_188_">
		<path id="XMLID_3_" class="st0" d="M400.2,108.1l-8.1,13.8l-3,18.5l-3.3,6.2l-14.6,6.8v7.5l9,8.2L401,175l19.4,11.7l20.9,10.3
			l15,6.1l8.1-0.9l5.6-5.7l0.9-12.4l-3.3-15l-3.5-13.5l7.2-7.4l13.5-9.3l3.3-4.4l-9.6-8c0,0-12.1-2.8-14-2.8
			c-1.9,0-18.7,2.6-18.7,2.6S416,92.5,400.2,108.1z"/>
	</g>
	<g id="XMLID_179_">
		<polygon id="XMLID_4_" class="st1" points="441.1,148.2 441.1,161.6 465.8,161.6 465.8,155.6 471.3,148.2 		"/>
	</g>
	<g id="XMLID_178_">
		<polygon id="XMLID_5_" class="st1" points="371.1,153.4 390.8,153.4 396.6,158.6 396.6,175 380.1,169.1 371.1,160.9 		"/>
	</g>
	<g id="XMLID_177_">
		<polygon id="XMLID_6_" class="st1" points="428.5,111.1 412,111.1 412,121.1 439.5,121.1 		"/>
	</g>
	<g id="XMLID_176_">
		<polygon id="XMLID_7_" class="st1" points="410.8,134 410.8,121.1 392,121.1 389.6,134.5 		"/>
	</g>
	<g id="XMLID_175_">
		<path id="XMLID_8_" class="st2" d="M397.3,164.2c0,0,20.4,17.9,37.6,5.5s30.9-5.5,30.9-5.5l4,13.3l1.3,14.3l-6.7,10.4l-8.1,0.9
			v-12.3h-26l-18.3-9.6l-15.4-6.3l0.7-8.3V164.2z"/>
	</g>
	<g id="XMLID_180_">
		<polygon id="XMLID_9_" class="st1" points="430.3,190.9 456.3,190.9 456.3,203.1 		"/>
	</g>
	<g id="XMLID_350_">
		<g id="XMLID_149_">
			<path id="XMLID_242_" class="st3" d="M460.3,204.4c-10.1,0-25.5-7.2-45.7-18.4c-15.3-8.5-24.8-11.9-31-14.2
				c-8.4-3.1-11.6-4.2-14.1-12.7c-0.8-2.9-0.7-5.2,0.3-7.1c1.7-3,5.3-4,8.7-4.9c5-1.3,8.1-2.4,8.3-6.7c0.5-12.5,4.2-21.7,4.6-22.5
				c3.3-8.8,8.3-13.9,15-15.2c15.6-2.9,34.7,16.8,39.2,21.6c4.7-1.2,20.7-4.9,30.8-0.9c0.7,0.3,1.4,0.6,2.1,0.8
				c6.1,2.3,11.3,4.3,11.7,8.7c0.4,4-3.7,8.2-13.5,14.2c-12.4,7.6-12.1,8.4-9.1,16c1.7,4.5,4.1,10.7,5.3,20.7
				c1.1,9.4-0.5,15.5-5,18.5C465.9,203.7,463.3,204.4,460.3,204.4z M409.8,106.8c-0.8,0-1.7,0.1-2.5,0.2c-5.1,0.9-9.1,5.1-11.8,12.4
				l0,0.1c0,0.1-3.8,9-4.3,21c-0.3,7.7-6.8,9.4-11.5,10.7c-2.7,0.7-5.3,1.4-6.1,2.8c-0.5,0.8-0.4,2.1,0.1,3.7
				c1.9,6.4,3.3,6.9,11.4,9.9c6.4,2.3,16,5.9,31.6,14.5c19.9,11,41.3,21.6,48.9,16.5c3-2,4-6.8,3.1-14.4c-1.1-9.5-3.4-15.4-5.1-19.6
				c-3.7-9.7-3.2-12.6,10.9-21.2c10.9-6.7,11.5-9.4,11.4-10.1c-0.2-1.7-5-3.5-8.9-5c-0.7-0.3-1.4-0.5-2.2-0.8
				c-10.3-4-29.2,1.3-29.4,1.4l-1.3,0.4l-0.9-1C443.1,128,424.5,106.8,409.8,106.8z"/>
		</g>
		<g id="XMLID_148_">
			<path id="XMLID_241_" class="st3" d="M457.8,203.5c-0.7,0-1.3-0.6-1.3-1.3v-10h-28.1c-0.7,0-1.3-0.6-1.3-1.3s0.6-1.3,1.3-1.3
				h30.8v12.7C459.1,202.9,458.5,203.5,457.8,203.5z"/>
		</g>
		<g id="XMLID_147_">
			<path id="XMLID_240_" class="st3" d="M412.1,135.8h-22.6c-0.7,0-1.3-0.6-1.3-1.3s0.6-1.3,1.3-1.3h19.9v-9.9H392
				c-0.7,0-1.3-0.6-1.3-1.3s0.6-1.3,1.3-1.3h20.1V135.8z"/>
		</g>
		<g id="XMLID_146_">
			<path id="XMLID_239_" class="st3" d="M437.9,123.3h-28.5V109h17.2c0.7,0,1.3,0.6,1.3,1.3s-0.6,1.3-1.3,1.3h-14.6v9h25.8
				c0.7,0,1.3,0.6,1.3,1.3S438.7,123.3,437.9,123.3z"/>
		</g>
		<g id="XMLID_145_">
			<path id="XMLID_238_" class="st3" d="M396.4,176.3c-0.7,0-1.3-0.6-1.3-1.3v-15.9l-4.7-4.4h-19.3c-0.7,0-1.3-0.6-1.3-1.3
				s0.6-1.3,1.3-1.3h20.3l6.3,5.9v17C397.8,175.7,397.2,176.3,396.4,176.3z"/>
		</g>
		<g id="XMLID_144_">
			<path id="XMLID_237_" class="st3" d="M464.5,162.2h-24.6v-15.4h31.3c0.7,0,1.3,0.6,1.3,1.3s-0.6,1.3-1.3,1.3h-28.7v10h21.9
				c0.7,0,1.3,0.6,1.3,1.3S465.3,162.2,464.5,162.2z"/>
		</g>
	</g>
</g>
<g id="Background_2">
	<g id="XMLID_189_">
		<polygon id="XMLID_10_" class="st0" points="167.9,374.5 167.9,323.1 214.4,323.1 218.9,304 218.9,287.9 216.7,274.7 206.7,265.9 
			193.2,262.3 183,261.4 184.4,250.3 177.2,232.4 166.5,218.4 157.9,212.8 144.9,212.8 130.2,217.2 117.5,223.7 107.2,221.9 
			101.3,219.6 89,226.1 83.2,231.8 80.3,240.5 86.9,249.9 102,259.4 110.2,271 111.6,284.7 108.6,295.9 106.9,304.3 108.3,312.6 
			114.4,319.8 126.5,331 131.2,340.5 129.9,351.1 125.4,359.7 126.1,367.3 131.2,374.7 139.1,381.3 148.6,381.3 		"/>
	</g>
	<g id="XMLID_187_">
		<polygon id="XMLID_11_" class="st1" points="143.9,363.7 167.2,363.7 167.9,374.5 153.8,379.5 143.9,381.3 141.7,377.9 
			141.7,363.7 		"/>
	</g>
	<g id="XMLID_186_">
		<polygon id="XMLID_12_" class="st1" points="136.9,284.3 136.9,266.7 108.7,266.7 111.4,275.5 111.6,284.7 		"/>
	</g>
	<g id="XMLID_185_">
		<polygon id="XMLID_13_" class="st1" points="181.1,322.1 181.1,311 188.5,305.3 218.9,305.3 214.9,321.2 		"/>
	</g>
	<g id="XMLID_184_">
		<path id="XMLID_14_" class="st1" d="M144.9,212.8V223h27.6l-9.9-7.1c0,0-5.8-3.5-7.9-3.3S144.9,212.8,144.9,212.8z"/>
	</g>
	<g id="XMLID_183_">
		<polygon id="XMLID_15_" class="st1" points="130.7,250.3 125.4,262 136.9,266.7 165.6,266.7 165.6,250.3 		"/>
	</g>
	<g id="XMLID_182_">
		<path id="XMLID_16_" class="st2" d="M131.7,285.5c0,0-5.9,12.5,7.4,20.3s27.5-2.3,28.8,17.3v40.6h-26.2v14.2l-10.5-3.2l-5.1-7.4
			l-0.7-7.6l4.5-8.6l1.3-10.7l-4.7-9.5l-9.3-8.9l-8.9-9.5l-1.4-8.3l4.7-19.6L131.7,285.5z"/>
	</g>
	<g id="XMLID_181_">
		<path id="XMLID_17_" class="st2" d="M125.6,220.3c0,0-9.4,16.1,6.1,18.2s22.8,11.4,22.8,11.4h11.2v16.7c0,0,17.7-5.9,24.8,17.9
			c7.1,23.9,28.9,6.3,28.9,6.3l-1.2-12.3l-8.5-10.9l-11.6-3.9l-11.5-1.4l-3.6-1l0.3-13.8l-6.1-15.2l-4.7-9.4h-27.6v-10.2
			L125.6,220.3z"/>
	</g>
	<g id="XMLID_357_">
		<g id="XMLID_159_">
			<path id="XMLID_235_" class="st3" d="M167.9,357.5H137c-0.7,0-1.3-0.6-1.3-1.3s0.6-1.3,1.3-1.3h30.8c0.7,0,1.3,0.6,1.3,1.3
				S168.6,357.5,167.9,357.5z"/>
		</g>
		<g id="XMLID_158_">
			<path id="XMLID_234_" class="st3" d="M141.1,381.4c-0.7,0-1.3-0.6-1.3-1.3v-17.7h28.1c0.7,0,1.3,0.6,1.3,1.3s-0.6,1.3-1.3,1.3
				h-25.4v15C142.5,380.8,141.9,381.4,141.1,381.4z"/>
		</g>
		<g id="XMLID_157_">
			<path id="XMLID_233_" class="st3" d="M181.1,323.6c-0.8,0-1.5-0.7-1.5-1.5v-12.2l6.6-5.6h31.9c0.8,0,1.5,0.7,1.5,1.5
				s-0.7,1.5-1.5,1.5h-30.8l-4.7,4v10.8C182.6,322.9,181.9,323.6,181.1,323.6z"/>
		</g>
		<g id="XMLID_156_">
			<path id="XMLID_232_" class="st3" d="M146.5,382.7c-6.7,0-13.7-2.1-18.9-8.9c-7.7-10-4.3-16.1-1.3-21.4c2.6-4.7,4.9-8.7,1.1-16.1
				c-3-5.8-7.4-9.3-11.5-12.6c-7.8-6.3-15.3-12.2-8.5-30.9c3.2-8.9,3.2-16.9-0.3-23.6c-4.3-8.5-12.7-12.4-14.7-12.9l-0.2-0.1
				l-0.2-0.1c-0.6-0.3-13.7-7.5-14-17.4c-0.2-5.3,3.2-10.1,10-14.4c11.7-7.3,17.1-5.4,21.9-3.7c4.5,1.6,8.4,3,19.2-5l0.2-0.2
				c0.6-0.3,15-8.1,29.6-3.4c8.7,2.8,15.5,9.4,20.4,19.5c7.2,15.1,5.9,22.5,5.2,26.6c-0.1,0.5-0.2,1.2-0.2,1.5
				c1.1,0.5,5.1,1,10.6,1.6c1.5,0.2,3.2,0.4,5,0.6c7.3,0.9,12.9,4.2,16.6,9.9c11,17.1,0.6,49.7,0.2,51.1c-0.4,1.1-1.6,1.8-2.7,1.4
				c-1.1-0.4-1.8-1.6-1.4-2.7c0.1-0.3,10.2-32,0.3-47.4c-3-4.6-7.4-7.2-13.4-7.9c-1.9-0.2-3.5-0.4-5-0.6c-9.6-1.1-12.2-1.4-13.7-3.4
				c-1.1-1.4-0.8-3.1-0.5-4.8c0.6-3.5,1.8-10.1-4.8-23.9c-4.3-9-10.3-14.8-17.8-17.2c-12.2-3.9-24.8,2.3-26.1,3
				c-12.6,9.2-17.9,7.3-23.1,5.5c-4.2-1.5-8.2-2.9-18.1,3.3c-5.4,3.4-8.1,7-8,10.6c0.2,6.1,8.2,11.8,11.5,13.6
				c3.4,1.1,12.3,5.5,17.2,15.1c4,7.8,4.2,16.9,0.5,27.1c-5.7,15.8-0.6,19.9,7.1,26.1c4.3,3.4,9.2,7.4,12.7,14
				c5,9.5,1.6,15.5-1.1,20.3c-2.9,5.2-5,8.9,0.9,16.6c11.8,15.3,35.5,1.6,35.8,1.5c1-0.6,2.4-0.3,3,0.8c0.6,1,0.3,2.4-0.8,3
				C168.8,376.5,158,382.7,146.5,382.7z"/>
		</g>
		<g id="XMLID_155_">
			<path id="XMLID_231_" class="st3" d="M138.3,286h-26.8c-0.7,0-1.3-0.6-1.3-1.3s0.6-1.3,1.3-1.3h24.1v-14.4h-27
				c-0.7,0-1.3-0.6-1.3-1.3s0.6-1.3,1.3-1.3h29.7V286z"/>
		</g>
		<g id="XMLID_154_">
			<path id="XMLID_228_" class="st3" d="M167,268.9h-27l-16.3-6.1l5.7-13.7H167V268.9z M140.5,266.2h23.8v-14.4h-33.2l-4,9.5
				L140.5,266.2z"/>
		</g>
		<g id="XMLID_153_">
			<path id="XMLID_227_" class="st3" d="M172.4,223.9h-28.8v-11c0-0.7,0.6-1.3,1.3-1.3s1.3,0.6,1.3,1.3v8.4h26.2
				c0.7,0,1.3,0.6,1.3,1.3S173.1,223.9,172.4,223.9z"/>
		</g>
		<g id="XMLID_152_">
			<path id="XMLID_226_" class="st3" d="M194.3,277.5h-44.7c-0.7,0-1.3-0.6-1.3-1.3s0.6-1.3,1.3-1.3h44.7c0.7,0,1.3,0.6,1.3,1.3
				S195.1,277.5,194.3,277.5z"/>
		</g>
		<g id="XMLID_151_">
			<path id="XMLID_225_" class="st3" d="M108.7,233.1H83.2c-0.7,0-1.3-0.6-1.3-1.3s0.6-1.3,1.3-1.3h25.5c0.7,0,1.3,0.6,1.3,1.3
				S109.4,233.1,108.7,233.1z"/>
		</g>
		<g id="XMLID_150_">
			<path id="XMLID_224_" class="st3" d="M119.6,233.1h-6.3c-0.7,0-1.3-0.6-1.3-1.3s0.6-1.3,1.3-1.3h6.3c0.7,0,1.3,0.6,1.3,1.3
				S120.3,233.1,119.6,233.1z"/>
		</g>
	</g>
</g>
<g id="Background_1">
	<g id="XMLID_197_">
		<polygon id="XMLID_280_" class="st0" points="134.9,521.9 144.9,513 144.3,503.8 140.8,497.7 132.2,493.4 124.7,494.6 
			116.5,503.3 118.1,514.5 126.5,521.9 126.5,624.7 121,626 111.8,629.4 111.8,633.7 113.9,638.6 147.9,638.6 149,631.9 143.5,626 
			134.9,624.7 		"/>
	</g>
	<g id="XMLID_196_">
		<rect id="XMLID_278_" x="126.5" y="521.9" class="st1" width="8.4" height="14.9"/>
	</g>
	<g id="XMLID_195_">
		<path id="XMLID_276_" class="st1" d="M119.2,499c0,0,4.4,20.9,20.4,18.7l-4.7,4.2h-8.4l-8.5-7.4l-1.5-9.2L119.2,499z"/>
	</g>
	<g id="XMLID_194_">
		<path id="XMLID_274_" class="st1" d="M134.9,624.7c0,0-8.2,8.1,0,13.9h-21C113.9,638.6,105.9,622.9,134.9,624.7z"/>
	</g>
	<g id="XMLID_193_">
		<polygon id="XMLID_272_" class="st0" points="75.4,521.9 85.3,513 84.8,503.8 81.2,497.7 72.6,493.4 65.1,494.6 56.9,503.3 
			58.5,514.5 67,521.9 67,624.7 61.4,626 52.2,629.4 52.3,633.7 54.4,638.6 88.3,638.6 89.4,631.9 84,626 75.4,624.7 		"/>
	</g>
	<g id="XMLID_192_">
		<rect id="XMLID_270_" x="67" y="521.9" class="st1" width="8.4" height="14.9"/>
	</g>
	<g id="XMLID_191_">
		<path id="XMLID_268_" class="st1" d="M59.7,499c0,0,4.4,20.9,20.4,18.7l-4.7,4.2H67l-8.5-7.4l-1.5-9.2L59.7,499z"/>
	</g>
	<g id="XMLID_190_">
		<path id="XMLID_266_" class="st1" d="M75.4,624.7c0,0-8.2,8.1,0,13.9h-21C54.4,638.6,46.4,622.9,75.4,624.7z"/>
	</g>
	<g id="XMLID_368_">
		<g id="XMLID_370_">
			<g id="XMLID_380_">
				<g id="XMLID_174_">
					<path id="XMLID_222_" class="st3" d="M126.5,626.8c-1.2,0-2.2-1-2.2-2.2V521.9c0-1.2,1-2.2,2.2-2.2s2.2,1,2.2,2.2v102.7
						C128.7,625.9,127.7,626.8,126.5,626.8z"/>
				</g>
				<g id="XMLID_381_">
					<g id="XMLID_173_">
						<path id="XMLID_221_" class="st3" d="M134.9,626.8c-1.2,0-2.2-1-2.2-2.2V521.9c0-1.2,1-2.2,2.2-2.2s2.2,1,2.2,2.2v102.7
							C137.1,625.9,136.1,626.8,134.9,626.8z"/>
					</g>
					<g id="XMLID_172_">
						<path id="XMLID_218_" class="st3" d="M130.6,524.1c-9.1,0-16.5-7.4-16.5-16.5s7.4-16.5,16.5-16.5s16.5,7.4,16.5,16.5
							S139.7,524.1,130.6,524.1z M130.6,495.5c-6.7,0-12.1,5.4-12.1,12.1s5.4,12.1,12.1,12.1c6.7,0,12.1-5.4,12.1-12.1
							S137.3,495.5,130.6,495.5z"/>
					</g>
					<g id="XMLID_171_">
						<path id="XMLID_217_" class="st3" d="M112.9,638.7c-0.7,0-1.3-0.3-1.7-0.9c-1-1.4-2.3-4.6-0.8-7.7c2.2-4.2,8.6-6.3,19.8-6.3
							c1.2,0,2.2,1,2.2,2.2s-1,2.2-2.2,2.2c-12.6,0-15.3,2.7-15.9,3.9c-0.8,1.4,0.4,3.2,0.4,3.2c0.7,1,0.4,2.3-0.5,3
							C113.7,638.6,113.3,638.7,112.9,638.7z"/>
					</g>
					<g id="XMLID_170_">
						<path id="XMLID_216_" class="st3" d="M147.9,638.7c-0.4,0-0.9-0.1-1.3-0.4c-1-0.7-1.2-2-0.5-3c0-0.1,1.2-1.8,0.4-3.2
							c-0.6-1.2-3.4-3.9-15.9-3.9c-1.2,0-2.2-1-2.2-2.2s1-2.2,2.2-2.2c11.2,0,17.7,2.1,19.8,6.3c1.6,3,0.2,6.3-0.8,7.7
							C149.2,638.4,148.5,638.7,147.9,638.7z"/>
					</g>
					<g id="XMLID_169_">
						<path id="XMLID_212_" class="st3" d="M134.9,539h-8.4c-1.2,0-2.2-1-2.2-2.2s1-2.2,2.2-2.2h8.4c1.2,0,2.2,1,2.2,2.2
							S136.1,539,134.9,539z"/>
					</g>
					<g id="XMLID_168_">
						<path id="XMLID_211_" class="st3" d="M139.8,510.1c-0.7,0-1.3-0.4-1.4-1.1c-1.8-6.9-8.5-8.6-8.5-8.6c-0.8-0.2-1.3-1-1.1-1.8
							c0.2-0.8,1-1.3,1.8-1.1c0.3,0.1,8.5,2.1,10.7,10.7c0.2,0.8-0.3,1.6-1.1,1.8C140,510.1,139.9,510.1,139.8,510.1z"/>
					</g>
				</g>
			</g>
			<g id="XMLID_371_">
				<g id="XMLID_167_">
					<path id="XMLID_210_" class="st3" d="M67.2,626.8c-1.2,0-2.2-1-2.2-2.2V521.9c0-1.2,1-2.2,2.2-2.2s2.2,1,2.2,2.2v102.7
						C69.4,625.9,68.4,626.8,67.2,626.8z"/>
				</g>
				<g id="XMLID_372_">
					<g id="XMLID_166_">
						<path id="XMLID_209_" class="st3" d="M75.6,626.8c-1.2,0-2.2-1-2.2-2.2V521.9c0-1.2,1-2.2,2.2-2.2s2.2,1,2.2,2.2v102.7
							C77.8,625.9,76.8,626.8,75.6,626.8z"/>
					</g>
					<g id="XMLID_165_">
						<path id="XMLID_204_" class="st3" d="M71.2,524.1c-9.1,0-16.5-7.4-16.5-16.5s7.4-16.5,16.5-16.5s16.5,7.4,16.5,16.5
							S80.3,524.1,71.2,524.1z M71.2,495.5c-6.7,0-12.1,5.4-12.1,12.1s5.4,12.1,12.1,12.1s12.1-5.4,12.1-12.1S77.9,495.5,71.2,495.5
							z"/>
					</g>
					<g id="XMLID_164_">
						<path id="XMLID_203_" class="st3" d="M53.5,638.7c-0.7,0-1.3-0.3-1.8-0.9c-1-1.4-2.3-4.6-0.8-7.7c2.2-4.2,8.6-6.3,19.8-6.3
							c1.2,0,2.2,1,2.2,2.2s-1,2.2-2.2,2.2c-12.6,0-15.4,2.7-16,3.9c-0.7,1.4,0.4,3.1,0.4,3.1c0.7,1,0.5,2.3-0.5,3
							C54.4,638.6,54,638.7,53.5,638.7z"/>
					</g>
					<g id="XMLID_163_">
						<path id="XMLID_202_" class="st3" d="M88.5,638.7c-0.4,0-0.9-0.1-1.3-0.4c-1-0.7-1.2-2-0.5-3c0-0.1,1.2-1.8,0.4-3.2
							c-0.6-1.2-3.4-3.9-15.9-3.9c-1.2,0-2.2-1-2.2-2.2s1-2.2,2.2-2.2c11.2,0,17.7,2.1,19.8,6.3c1.6,3,0.2,6.3-0.8,7.7
							C89.9,638.4,89.2,638.7,88.5,638.7z"/>
					</g>
					<g id="XMLID_162_">
						<path id="XMLID_201_" class="st3" d="M75.6,539h-8.4c-1.2,0-2.2-1-2.2-2.2s1-2.2,2.2-2.2h8.4c1.2,0,2.2,1,2.2,2.2
							S76.8,539,75.6,539z"/>
					</g>
					<g id="XMLID_161_">
						<path id="XMLID_200_" class="st3" d="M80.4,510.1c-0.7,0-1.3-0.4-1.4-1.1c-1.8-6.9-8.5-8.6-8.5-8.6c-0.8-0.2-1.3-1-1.1-1.8
							c0.2-0.8,1-1.3,1.8-1.1c0.3,0.1,8.5,2.1,10.7,10.7c0.2,0.8-0.3,1.6-1.1,1.8C80.7,510.1,80.6,510.1,80.4,510.1z"/>
					</g>
				</g>
			</g>
		</g>
		<g id="XMLID_160_">
			<path id="XMLID_199_" class="st3" d="M101.5,537.5c-0.2,0-0.4,0-0.6,0c-15.6-0.3-26.6-13.7-27-14.2c-0.8-0.9-0.6-2.3,0.3-3.1
				c0.9-0.8,2.3-0.6,3.1,0.3c0.2,0.2,10.2,12.3,23.8,12.6c8.3,0.2,16.3-4.1,23.9-12.7c0.8-0.9,2.2-1,3.1-0.2c0.9,0.8,1,2.2,0.2,3.1
				C119.9,532.8,110.9,537.5,101.5,537.5z"/>
		</g>
	</g>
</g>
<g id="Door">
	<rect id="XMLID_143_" x="189.6" y="340.5" class="st4" width="169.7" height="296.4"/>
	<polygon id="XMLID_142_" class="st5" points="358.6,531.9 345.5,528 324.9,526.5 297.8,531.9 280.2,545.2 267.7,559.1 259.4,574.3 
		254.1,596 254.8,616.2 261.7,636.9 359.9,636.9 	"/>
	<path id="XMLID_141_" class="st6" d="M254.1,596c0,0,0.5,12.4,20,11.3s29.2,10.6,23.7,29.9h-36.1C261.7,637.3,247.6,609,254.1,596z
		"/>
	<path id="XMLID_140_" class="st7" d="M324.9,526.5c0,0,35.2,101.8-27.1,110.8h64.7V535.8C362.5,535.8,347.9,522.3,324.9,526.5z"/>
	<path id="XMLID_139_" class="st6" d="M332.9,614.4c0,0-17.4-10.6-4.8-18.4c12.6-7.8,17.1-21.2,17.1-21.2s5.3-15.2,12.3-6l-3.7,27.3
		l-3.2,8L332.9,614.4z"/>
	<path id="XMLID_138_" class="st6" d="M318.5,537.8c0,0-8.7-5.8-7.4,4.5c1.3,10.3,11.6,11,11.6,11S344,539.9,318.5,537.8z"/>
	<path id="XMLID_137_" class="st8" d="M240.1,340.5c0,0-12.4,46.2,19.9,63.6c32.3,17.4,97.9,66.2,97.9,119V340.5H240.1z"/>
	<polygon id="XMLID_136_" class="st9" points="189.6,500.7 189.6,636.9 263.9,636.9 253.8,618.6 254.1,596 259.4,574.3 274.7,551.7 
		292.9,535.8 297.8,531.9 292.6,525.7 284.5,520.1 271,517.9 261,519 253.8,519 240.1,523.1 229,525.6 221.1,525.6 210.2,522.3 
		202.6,514.4 	"/>
	<path id="XMLID_135_" class="st10" d="M261,519c0,0,36.1-25.8,67.2,6.6l-30.3,6.3C297.8,531.9,292.9,512.4,261,519z"/>
	<path id="XMLID_134_" class="st11" d="M189.6,543.1c0,0-10.2,28.5,13,41.6c23.2,13.1,34.7-11.6,51.2,0c0,0-1.8,34.7,7.9,52.2h-72.1
		V543.1z"/>
	<g id="XMLID_336_">
		<polygon id="XMLID_133_" class="st12" points="170.8,323.1 189.6,340.5 189.6,637.3 170.8,637.3 		"/>
		<polygon id="XMLID_132_" class="st12" points="378,323.1 359.2,340.5 359.2,637.3 378,637.3 		"/>
		<polygon id="XMLID_131_" class="st12" points="170.8,323.1 189.6,340.5 359.2,340.5 378,323.1 		"/>
	</g>
	<polygon id="XMLID_96_" class="st13" points="170.8,323.1 180.2,331.8 180.2,637.3 170.8,637.3 	"/>
	<polygon id="XMLID_95_" class="st13" points="170.8,323.1 378,323.1 371.8,329.4 180.2,329.4 	"/>
	<polygon id="XMLID_94_" class="st14" points="234.7,568.8 241.3,560.4 234.7,552.1 227.3,552.1 222.1,558.2 223.3,565.3 	"/>
	<polygon id="XMLID_92_" class="st14" points="285.8,417.5 289.1,409.8 284.5,401.5 274.7,401.5 271,409.5 274.1,417.4 278.6,419.5 
			"/>
	<path id="XMLID_91_" class="st15" d="M229.5,445.3l6.1-4.8l6.4-9.1l3.1-14.9l-3.5-13.5l-9.9-12.7l-16.6-5.2l-11.1,1.2l-14.3,5v51.8
		C189.7,443.1,212.5,455.7,229.5,445.3z"/>
	<path id="XMLID_90_" class="st16" d="M196.2,389.6c0,0-6.4,21.4,6.4,28c12.8,6.5,32.7,10.2,33.1,22.9l-17.3,9l-18-2.2l-10.8-6.8
		l0.1-49.2L196.2,389.6z"/>
	<path id="XMLID_89_" class="st17" d="M196.2,389.6c0,0,42.4-1.9,46.7,38C242.8,427.6,250.6,371.9,196.2,389.6z"/>
	<g id="XMLID_83_">
		<path id="XMLID_329_" class="st18" d="M359.9,639.7c-1.3,0-2.3-1-2.3-2.3V342.8H191.9v294.5c0,1.3-1,2.3-2.3,2.3s-2.3-1-2.3-2.3
			V338.1h175v299.2C362.2,638.6,361.2,639.7,359.9,639.7z"/>
	</g>
	<g id="XMLID_82_">
		<path id="XMLID_328_" class="st18" d="M378.6,639.7c-1.3,0-2.3-1-2.3-2.3V325.4H173.2v311.9c0,1.3-1,2.3-2.3,2.3s-2.3-1-2.3-2.3
			V320.8h212.5v316.6C380.9,638.6,379.9,639.7,378.6,639.7z"/>
	</g>
	<g id="XMLID_2_">
		<path id="XMLID_326_" class="st18" d="M261.7,639.2c-0.9,0-1.7-0.5-2.1-1.3c-5.4-10.9-8.1-22.6-8.1-34.8
			c0-43.5,35.4-78.9,78.9-78.9c10.5,0,20.8,2,30.4,6.1c1.2,0.5,1.8,1.9,1.3,3.1c-0.5,1.2-1.9,1.8-3.1,1.3
			c-9.1-3.8-18.7-5.7-28.6-5.7c-40.9,0-74.2,33.3-74.2,74.2c0,11.5,2.6,22.5,7.6,32.8c0.6,1.2,0.1,2.6-1.1,3.1
			C262.4,639.2,262,639.2,261.7,639.2z"/>
	</g>
	<g id="XMLID_18_">
		<path id="XMLID_325_" class="st18" d="M212.7,452.4c-9.3,0-18-3.6-24.6-10.2c-0.9-0.9-0.9-2.4,0-3.3c0.9-0.9,2.4-0.9,3.3,0
			c5.7,5.7,13.3,8.8,21.3,8.8c16.6,0,30.1-13.5,30.1-30.1c0-16.6-13.5-30.1-30.1-30.1c-7.6,0-14.8,2.8-20.3,7.9
			c-1,0.9-2.4,0.8-3.3-0.1c-0.9-1-0.8-2.4,0.1-3.3c6.4-5.9,14.8-9.1,23.5-9.1c19.2,0,34.8,15.6,34.8,34.8
			C247.5,436.8,231.8,452.4,212.7,452.4z"/>
	</g>
	<g id="XMLID_19_">
		<path id="XMLID_319_" class="st18" d="M280,421.9c-6.3,0-11.4-5.1-11.4-11.4s5.1-11.4,11.4-11.4s11.4,5.1,11.4,11.4
			S286.3,421.9,280,421.9z M280,403.8c-3.7,0-6.7,3-6.7,6.7s3,6.7,6.7,6.7s6.7-3,6.7-6.7S283.7,403.8,280,403.8z"/>
	</g>
	<g id="XMLID_20_">
		<path id="XMLID_313_" class="st18" d="M231,571.9c-6.3,0-11.5-5.1-11.5-11.5S224.7,549,231,549c6.3,0,11.5,5.1,11.5,11.5
			S237.3,571.9,231,571.9z M231,553.6c-3.7,0-6.8,3-6.8,6.8s3,6.8,6.8,6.8c3.7,0,6.8-3,6.8-6.8S234.7,553.6,231,553.6z"/>
	</g>
	<g id="XMLID_21_">
		<path id="XMLID_304_" class="st18" d="M298.7,534.8c-0.5,0-1-0.3-1.3-0.7c-12.9-21-32.5-15.9-51.4-11c-8.7,2.2-16.9,4.4-24.2,4
			c-24-1.3-33.1-30.3-33.5-31.5c-0.2-0.8,0.2-1.6,1-1.8c0.8-0.2,1.6,0.2,1.8,1c0.1,0.3,8.9,28.3,30.8,29.4
			c6.9,0.4,14.9-1.7,23.4-3.9c19.1-4.9,40.7-10.5,54.7,12.3c0.4,0.7,0.2,1.6-0.5,2C299.2,534.8,299,534.8,298.7,534.8z"/>
	</g>
	<g id="XMLID_22_">
		<path id="XMLID_303_" class="st18" d="M330.4,528c-0.4,0-0.8-0.2-1.1-0.5c-28.4-32-68.1-8.1-68.5-7.8c-0.7,0.4-1.6,0.2-2-0.5
			c-0.4-0.7-0.2-1.6,0.5-2c0.4-0.3,42.3-25.4,72.3,8.4c0.5,0.6,0.5,1.5-0.1,2.1C331.1,527.9,330.7,528,330.4,528z"/>
	</g>
	<g id="XMLID_23_">
		<path id="XMLID_302_" class="st18" d="M180.2,623.6c-0.8,0-1.5-0.7-1.5-1.5v-95.6c0-0.8,0.7-1.5,1.5-1.5s1.5,0.7,1.5,1.5v95.6
			C181.7,623,181,623.6,180.2,623.6z"/>
	</g>
	<g id="XMLID_24_">
		<path id="XMLID_301_" class="st18" d="M180.2,519.4c-0.8,0-1.5-0.7-1.5-1.5v-13.7c0-0.8,0.7-1.5,1.5-1.5s1.5,0.7,1.5,1.5v13.7
			C181.7,518.7,181,519.4,180.2,519.4z"/>
	</g>
	<polygon id="XMLID_93_" class="st14" points="267.3,372.5 267.3,368.8 261.7,367.3 259.7,372.5 263.9,374.9 	"/>
	<g id="XMLID_81_">
		<path id="XMLID_327_" class="st18" d="M191,342.8c-0.6,0-1.1-0.2-1.6-0.6l-18.7-17.4c-0.9-0.9-1-2.4-0.1-3.3
			c0.9-0.9,2.4-1,3.3-0.1l18.7,17.4c0.9,0.9,1,2.4,0.1,3.3C192.3,342.5,191.7,342.8,191,342.8z"/>
	</g>
	<g id="XMLID_25_">
		<path id="XMLID_307_" class="st18" d="M263.9,375.9c-2.9,0-5.3-2.4-5.3-5.3s2.4-5.3,5.3-5.3s5.3,2.4,5.3,5.3
			S266.8,375.9,263.9,375.9z M263.9,368.1c-1.3,0-2.4,1.1-2.4,2.4s1.1,2.4,2.4,2.4c1.3,0,2.4-1.1,2.4-2.4S265.2,368.1,263.9,368.1z"
			/>
	</g>
</g>
<g id="Left_Leg">
	<g id="XMLID_119_">
		<polygon id="XMLID_324_" class="st19" points="322.3,637.3 322.5,626.4 327,616.3 336.8,609.3 349.3,607.4 359.1,608.7 
			369.2,613.8 378.3,623.5 380.6,637.3 		"/>
	</g>
	<g id="XMLID_117_">
		<path id="XMLID_322_" class="st20" d="M321.3,637.3c0,0-0.2-8.1,0-8.1s56.6,0,56.6,0l1.7,8.1H321.3z"/>
	</g>
	<g id="XMLID_124_">
		<polygon id="XMLID_320_" class="st21" points="349.3,500.7 355.1,525.6 356.5,554 350.5,591.1 346.4,607.4 356.5,607 369.2,613.8 
			381.6,629.2 386.6,607.4 386.2,544.5 387.1,525.6 379.4,522.3 362.2,514.8 352.9,505.7 		"/>
	</g>
	<g id="XMLID_121_">
		<path id="XMLID_318_" class="st22" d="M346.4,607.4l4.1-16.3c0,0,21.6-8.1,33.9,19.1l-2.9,19l-9.7-12.9l-7.6-6.7l-12.7-2.2H346.4z
			"/>
	</g>
	<g id="XMLID_114_">
		<path id="XMLID_316_" class="st23" d="M346.6,607.4c0,0,10.5,0.2,11.9,22.4h22.7C381.2,629.8,378.9,606.4,346.6,607.4z"/>
	</g>
	<g id="XMLID_112_">
		<polygon id="XMLID_314_" class="st24" points="355.9,629.8 356.5,637.3 321.1,637.3 320.8,629.8 		"/>
	</g>
	<g id="XMLID_107_">
		<path id="XMLID_312_" class="st25" d="M371.9,519c0,0,8.5,36.9,0,75.3l9.3,7.8l3.2,8.1l2.2-26.5l1-34.9l-0.5-23.2l-7.7-3.3
			L371.9,519z"/>
	</g>
	<g id="XMLID_41_">
		<path id="XMLID_299_" class="st18" d="M322.3,639.7c-1.1,0-2.1-0.8-2.3-1.9c-0.1-0.6-2.5-13.6,5.5-23.3c5.4-6.5,14.1-9.8,25.8-9.8
			c0.3,0,28.3,0.4,31.7,32.5c0.1,1.3-0.8,2.4-2.1,2.6c-1.3,0.1-2.4-0.8-2.6-2.1c-3-27.8-26.1-28.3-27-28.3
			c-10.3,0-17.8,2.7-22.2,8.1c-6.6,8-4.5,19.3-4.5,19.4c0.2,1.3-0.6,2.5-1.8,2.7C322.6,639.6,322.4,639.7,322.3,639.7z"/>
	</g>
	<g id="XMLID_39_">
		<path id="XMLID_297_" class="st18" d="M346.8,608.4c-0.2,0-0.4,0-0.7-0.1c-1.2-0.4-1.9-1.7-1.6-2.9c17.4-59.2,2.7-103.5,2.6-104
			c-0.4-1.2,0.2-2.5,1.5-3c1.2-0.4,2.5,0.2,3,1.5c0.6,1.9,15.3,46.2-2.5,106.8C348.7,607.7,347.8,608.4,346.8,608.4z"/>
	</g>
	<g id="XMLID_37_">
		<path id="XMLID_295_" class="st18" d="M380.6,636.4c-0.2,0-0.3,0-0.5,0c-1.3-0.3-2.1-1.5-1.8-2.8c10.5-51.4,4.9-107.2,4.8-107.7
			c-0.1-1.3,0.8-2.4,2.1-2.6c1.3-0.1,2.4,0.8,2.6,2.1c0.1,0.6,5.8,57.1-4.9,109.1C382.7,635.7,381.7,636.4,380.6,636.4z"/>
	</g>
	<g id="XMLID_29_">
		<path id="XMLID_293_" class="st18" d="M383.8,611.7c-0.6,0-1.1-0.3-1.4-0.9c-10.9-25.6-30.7-18.6-31.5-18.3
			c-0.8,0.3-1.6-0.1-1.9-0.9c-0.3-0.8,0.1-1.6,0.9-1.9c0.2-0.1,23.3-8.2,35.2,19.9c0.3,0.7,0,1.6-0.8,1.9
			C384.2,611.6,384,611.7,383.8,611.7z"/>
	</g>
	<g id="XMLID_27_">
		<path id="XMLID_291_" class="st18" d="M379.4,630.7h-57.9c-0.8,0-1.5-0.7-1.5-1.5s0.7-1.5,1.5-1.5h57.9c0.8,0,1.5,0.7,1.5,1.5
			S380.2,630.7,379.4,630.7z"/>
	</g>
</g>
<g id="Right_Leg">
	<g id="XMLID_123_">
		<path id="XMLID_436_" class="st21" d="M418,526.9l8.2,19.6l9,29.7l7.9,31.2h13.3l11.5,4.5l8.4,8.4l-1.6-28.7l-11.6-40.3L448.2,508
			l-11-21.9c0,0-40,38.6-88,14.5C349.3,500.7,372.3,535.9,418,526.9z"/>
	</g>
	<g id="XMLID_120_">
		<path id="XMLID_434_" class="st22" d="M443.2,607.4l-2.7-14c0,0,23.6-6.5,33.8,6.7l2.1,20.2C476.3,620.3,464.9,599.1,443.2,607.4z
			"/>
	</g>
	<g id="XMLID_118_">
		<polygon id="XMLID_432_" class="st19" points="423.6,637.3 423.2,626.4 428,616.6 434.1,611.2 446.5,607.4 456.4,607.4 
			467.9,611.9 476.3,620.3 481.1,632.3 481.9,637.3 		"/>
	</g>
	<g id="XMLID_116_">
		<polygon id="XMLID_430_" class="st20" points="423.6,637.3 423.3,629.8 481.1,629.8 481.9,637.3 		"/>
	</g>
	<g id="XMLID_115_">
		<path id="XMLID_428_" class="st23" d="M446.5,607.4c0,0,10.5,0.2,11.9,22.4h22.7C481.1,629.8,478.9,606.4,446.5,607.4z"/>
	</g>
	<g id="XMLID_113_">
		<polygon id="XMLID_426_" class="st24" points="458.4,629.8 459,637.3 423.6,637.3 423.3,629.8 		"/>
	</g>
	<g id="XMLID_111_">
		<path id="XMLID_424_" class="st25" d="M423.2,495.2c0,0,23,29.9,35.8,96.4l9.9,4.4l5.3,4.1c0,0-12.9-74.9-37-113.9L423.2,495.2z"
			/>
	</g>
	<g id="XMLID_43_">
		<path id="XMLID_289_" class="st18" d="M443.1,609.7c-1.1,0-2-0.7-2.3-1.8c-13.1-55.1-21.6-73.8-24.1-78.4
			c-23.2,4.7-34.4-2.4-37-4.3c-25.4-4.9-35.2-28.1-35.6-29.1c-0.5-1.2,0.1-2.6,1.3-3c1.2-0.5,2.6,0.1,3,1.3
			c0.1,0.3,9.5,22.2,32.8,26.4l0.7,0.1l0.5,0.4c0.1,0.1,10.3,8.8,35.1,3.3l1.5-0.3l0.9,1.3c0.4,0.5,9.6,14.1,25.6,81.4
			c0.3,1.3-0.5,2.5-1.7,2.8C443.5,609.7,443.3,609.7,443.1,609.7z"/>
	</g>
	<g id="XMLID_42_">
		<path id="XMLID_288_" class="st18" d="M481.9,639.7c-1.2,0-2.2-0.9-2.3-2.1c-3-28-26.1-28.3-27-28.3c-10.3,0-17.7,2.7-22.2,8.1
			c-6.6,8-4.5,19.4-4.5,19.5c0.2,1.3-0.6,2.5-1.9,2.7c-1.3,0.2-2.5-0.6-2.7-1.8c-0.1-0.6-2.5-13.6,5.5-23.3
			c5.4-6.5,14.1-9.8,25.8-9.8c0.3,0,28.3,0.4,31.7,32.5c0.1,1.3-0.8,2.4-2.1,2.6C482.1,639.7,482,639.7,481.9,639.7z"/>
	</g>
	<g id="XMLID_40_">
		<path id="XMLID_287_" class="st18" d="M476.3,622.6c-1.3,0-2.3-1-2.3-2.3c-1.1-56.3-38.4-132.4-38.8-133.2
			c-0.6-1.2-0.1-2.6,1.1-3.1c1.2-0.6,2.6-0.1,3.1,1.1c0.4,0.8,38.2,77.8,39.3,135.1C478.6,621.5,477.6,622.6,476.3,622.6
			C476.3,622.6,476.3,622.6,476.3,622.6z"/>
	</g>
	<g id="XMLID_30_">
		<path id="XMLID_286_" class="st18" d="M474.6,602c-0.4,0-0.7-0.1-1-0.4c-14.1-13.7-33.1-6.6-33.3-6.5c-0.8,0.3-1.6-0.1-1.9-0.8
			c-0.3-0.8,0.1-1.6,0.8-1.9c0.2-0.1,20.9-7.9,36.4,7.1c0.6,0.6,0.6,1.5,0,2.1C475.4,601.8,475,602,474.6,602z"/>
	</g>
	<g id="XMLID_28_">
		<path id="XMLID_285_" class="st18" d="M481.2,630.7h-57.9c-0.8,0-1.5-0.7-1.5-1.5s0.7-1.5,1.5-1.5h57.9c0.8,0,1.5,0.7,1.5,1.5
			S482,630.7,481.2,630.7z"/>
	</g>
	<g id="XMLID_26_">
		<path id="XMLID_284_" class="st18" d="M443.8,512.7c-15,0-24.7-14.6-25.2-15.3c-0.4-0.7-0.3-1.6,0.4-2c0.7-0.4,1.6-0.3,2,0.4
			c0.1,0.2,11.2,16.7,26.8,13.5c0.8-0.2,1.6,0.4,1.7,1.2c0.2,0.8-0.4,1.6-1.2,1.7C446.9,512.5,445.4,512.7,443.8,512.7z"/>
	</g>
</g>
<g id="Left_Arm">
	<polygon id="XMLID_122_" class="st26" points="270.7,488.9 263.9,464.2 257.6,457.5 252.8,455.7 244.8,458.8 238.2,468.9 
		228.7,471 221.1,472.8 219.6,478.4 227.6,488.6 240.8,492.5 252.8,495.2 	"/>
	<g id="XMLID_33_">
		<path id="XMLID_290_" class="st18" d="M243.9,476.9c-0.1,0-0.1,0-0.2,0c-4.5-0.1-7.4-4.1-7.8-4.6c-0.7-1.1-0.5-2.5,0.6-3.3
			c1.1-0.7,2.5-0.5,3.2,0.6c0.5,0.7,2.2,2.6,4,2.6c0,0,0,0,0,0c1.3,0,2.6-0.9,3.9-2.7c0.8-1,2.2-1.2,3.3-0.4c1,0.8,1.2,2.2,0.4,3.3
			C249.2,475.4,246.7,476.9,243.9,476.9z"/>
	</g>
	<g id="XMLID_213_">
		<g id="XMLID_126_">
			<polygon id="XMLID_406_" class="st27" points="343.9,397.7 334.9,402.9 315,428.6 298,449.5 278.4,461.1 263.9,464.2 
				270.7,488.9 281,489.1 301.5,485.3 319.1,476.3 333.5,461.1 337.2,455.7 337.2,440.5 342,412.8 346.3,402.9 348.7,397.3 			"/>
		</g>
		<g id="XMLID_125_">
			<polygon id="XMLID_404_" class="st19" points="278.4,461.1 263.9,464.2 270.7,488.9 286.4,489.1 			"/>
		</g>
		<g id="XMLID_106_">
			<path id="XMLID_402_" class="st28" d="M282.4,480.2c0,0,36.8-3.9,54.8-45.8v14.9v6.4c0,0-5.2,30-50.8,33.4L282.4,480.2z"/>
		</g>
		<g id="XMLID_104_">
			<path id="XMLID_400_" class="st29" d="M281,465.5c0,0,41.1-13.7,62.3-56.6l5.3-11.6c0,0-14.8-2.5-31.8,28.2l-10,17.7l-11.7,8.7
				l-16.9,9.3L281,465.5z"/>
		</g>
		<g id="XMLID_35_">
			<path id="XMLID_273_" class="st18" d="M276.7,491.4c-2,0-4.1-0.1-6.2-0.2l-1.7-0.1l-8-29.2l3,0c0.3,0,30.2-0.8,49.2-34.3
				c20.2-35.8,34.7-32.9,36.3-32.4c1.2,0.4,2,1.6,1.6,2.9c-0.3,1.2-1.6,2-2.9,1.6c-0.1,0-12.6-2.3-31,30.2
				c-16.9,30-41.7,35.5-50.2,36.5l5.6,20.4c46.3,2.1,62-29.9,62.2-30.2c0.6-1.2,1.9-1.7,3.1-1.1c1.2,0.6,1.7,1.9,1.1,3.1
				c-0.2,0.4-4.4,9.2-15,17.7C314.9,483.3,299.7,491.4,276.7,491.4z"/>
		</g>
		<g id="XMLID_34_">
			<path id="XMLID_271_" class="st18" d="M248.6,496.1c-16.7,0-26.9-9.3-31-16.6c-1.7-3-1-5.2-0.2-6.5c3-4.6,13.2-4.8,18.5-4.5
				c0.5-2.1,1.8-5.4,4.8-9c3.9-4.5,8-6.6,12.4-6.1c7.7,0.8,12.6,9.3,12.8,9.6c0.6,1.1,0.2,2.5-0.9,3.2c-1.1,0.6-2.5,0.2-3.2-0.9
				c0-0.1-4-6.8-9.2-7.3c-2.7-0.3-5.5,1.3-8.4,4.5c-3.9,4.6-4.1,8.3-4.1,8.4l-0.1,2.5l-2.5-0.2c-6.8-0.6-15.1,0.2-16.4,2.2
				c-0.2,0.3-0.1,0.9,0.3,1.7c4.9,8.9,20.6,20.9,48.1,9.5c1.2-0.5,2.6,0.1,3.1,1.3c0.5,1.2-0.1,2.6-1.3,3.1
				C262.9,494.7,255.2,496.1,248.6,496.1z"/>
		</g>
		<g id="XMLID_32_">
			<path id="XMLID_269_" class="st18" d="M286.4,490.1c-0.6,0-1.2-0.4-1.4-1.1l-8-27.5c-0.2-0.8,0.2-1.6,1-1.8
				c0.8-0.2,1.6,0.2,1.8,1l8,27.5c0.2,0.8-0.2,1.6-1,1.8C286.6,490,286.5,490.1,286.4,490.1z"/>
		</g>
	</g>
</g>
<g id="Thing">
	<g id="XMLID_101_">
		<polygon id="XMLID_390_" class="st14" points="517.4,493.8 507.2,495 500.2,501.8 499.6,512.8 509,522.3 509,626.4 499.6,628 
			494.5,632.3 495.4,636.9 530.4,636.9 530.4,632.3 527.4,626.4 517.4,626.4 517.4,523.4 525.9,514.4 527.4,504.2 		"/>
	</g>
	<g id="XMLID_100_">
		<path id="XMLID_388_" class="st30" d="M500.2,501.8c0,0,17.1-4.7,22,19.9l3.6-7.3l1.5-10.1l-5.1-9.2l-7.7-1.2l-7.4,1.2
			L500.2,501.8z"/>
	</g>
	<g id="XMLID_99_">
		<path id="XMLID_386_" class="st30" d="M517.4,626.4c0,0,5,3.2,4.8,10.9l8.1-0.4C530.4,636.9,532.2,627.1,517.4,626.4z"/>
	</g>
	<g id="XMLID_98_">
		<path id="XMLID_384_" class="st31" d="M509,626.4c0,0-5.7,1.9-3.1,10.9l-10.5-0.4C495.4,636.9,490.7,626.4,509,626.4z"/>
	</g>
	<g id="XMLID_97_">
		<polygon id="XMLID_382_" class="st30" points="509,522.3 509,537.8 517.4,537.8 517.4,523.4 		"/>
	</g>
	<g id="XMLID_31_">
		<path id="XMLID_257_" class="st18" d="M481.6,531.4c-36.9,0-76.2-14.1-78.3-14.8c-1.2-0.4-1.8-1.8-1.4-3c0.4-1.2,1.8-1.8,3-1.4
			c0.6,0.2,63.3,22.7,103.5,11.3c1.2-0.4,2.5,0.4,2.9,1.6c0.4,1.2-0.4,2.5-1.6,2.9C501,530.4,491.4,531.4,481.6,531.4z"/>
	</g>
	<g id="XMLID_214_">
		<g id="XMLID_38_">
			<path id="XMLID_256_" class="st18" d="M509,627.4c-1.3,0-2.3-1-2.3-2.3V522.3c0-1.3,1-2.3,2.3-2.3s2.3,1,2.3,2.3v102.7
				C511.4,626.3,510.3,627.4,509,627.4z"/>
		</g>
		<g id="XMLID_215_">
			<g id="XMLID_45_">
				<path id="XMLID_255_" class="st18" d="M517.4,627.4c-1.3,0-2.3-1-2.3-2.3V522.3c0-1.3,1-2.3,2.3-2.3s2.3,1,2.3,2.3v102.7
					C519.8,626.3,518.7,627.4,517.4,627.4z"/>
			</g>
			<g id="XMLID_46_">
				<path id="XMLID_252_" class="st18" d="M513.1,524.7c-9.2,0-16.6-7.5-16.6-16.6s7.5-16.6,16.6-16.6c9.2,0,16.6,7.5,16.6,16.6
					S522.3,524.7,513.1,524.7z M513.1,496.1c-6.6,0-12,5.4-12,12s5.4,12,12,12c6.6,0,12-5.4,12-12S519.7,496.1,513.1,496.1z"/>
			</g>
			<g id="XMLID_47_">
				<path id="XMLID_251_" class="st18" d="M495.4,639.2c-0.7,0-1.4-0.3-1.9-1c-1-1.4-2.4-4.7-0.8-7.8c2.2-4.3,8.7-6.4,20-6.4
					c1.3,0,2.3,1,2.3,2.3s-1,2.3-2.3,2.3c-12.8,0-15.3,2.9-15.8,3.8c-0.7,1.4,0.4,3,0.4,3c0.7,1.1,0.5,2.5-0.6,3.2
					C496.3,639.1,495.8,639.2,495.4,639.2z"/>
			</g>
			<g id="XMLID_48_">
				<path id="XMLID_250_" class="st18" d="M530.4,639.2c-0.5,0-1-0.1-1.4-0.4c-1-0.8-1.3-2.2-0.5-3.2c0-0.1,1.1-1.7,0.4-3
					c-0.5-0.9-3-3.8-15.8-3.8c-1.3,0-2.3-1-2.3-2.3s1-2.3,2.3-2.3c11.3,0,17.8,2.1,20,6.4c1.6,3.1,0.3,6.4-0.8,7.8
					C531.8,638.9,531.1,639.2,530.4,639.2z"/>
			</g>
			<g id="XMLID_49_">
				<path id="XMLID_236_" class="st18" d="M517.4,538.7H509c-0.8,0-1.5-0.7-1.5-1.5s0.7-1.5,1.5-1.5h8.4c0.8,0,1.5,0.7,1.5,1.5
					S518.3,538.7,517.4,538.7z"/>
			</g>
			<g id="XMLID_50_">
				<path id="XMLID_223_" class="st18" d="M522.3,510.5c-0.7,0-1.3-0.4-1.4-1.1c-1.8-6.9-8.5-8.6-8.5-8.6c-0.8-0.2-1.3-1-1.1-1.8
					c0.2-0.8,1-1.3,1.8-1.1c0.3,0.1,8.5,2.1,10.7,10.7c0.2,0.8-0.3,1.6-1.1,1.8C522.5,510.5,522.4,510.5,522.3,510.5z"/>
			</g>
		</g>
	</g>
</g>
<g id="Body">
	<g id="XMLID_130_">
		<polygon id="XMLID_352_" class="st19" points="348.7,397.3 341,415.1 337.2,434.4 337.2,455.7 341,479.7 349.3,500.7 362.1,505.6 
			371.8,508.3 395.8,506.1 423.2,495.2 437.3,486.1 438,465.5 423.2,429 410.2,404.1 400.5,392.5 389.4,386.4 376.3,399.5 
			369.2,405 360.8,406.7 352.8,403.5 		"/>
	</g>
	<g id="XMLID_129_">
		<path id="XMLID_349_" class="st32" d="M389.4,386.4c0,0-15.1,64.8,16.8,117.8l17-9l14.1-9l-0.4-16.1L423.2,429l-15.7-28.1l-9.3-11
			L389.4,386.4z"/>
	</g>
	<g id="XMLID_44_">
		<path id="XMLID_279_" class="st18" d="M379,510.7c-4.1,0-8.1-0.4-12-1.3c-15.3-3.4-22.3-12.4-22.6-12.8l-0.2-0.3l-5.4-16.1
			c-14.1-60.7,10.1-85.2,11.1-86.2c0.9-0.9,2.4-0.9,3.3,0c0.9,0.9,0.9,2.4,0,3.3c-0.2,0.2-23.3,23.9-9.9,81.7l5.1,15
			c1.2,1.4,7.6,8.3,20,10.9c12.8,2.7,34.9,1.4,67.1-20.4c0.6-1.5,2.6-10.7-11.5-47.3c-20-51.9-36.7-48.6-36.8-48.6
			c-1.2,0.4-2.5-0.3-2.9-1.6s0.3-2.5,1.6-2.9c0.6-0.2,5.9-1.5,13.9,4.6c10,7.7,19.6,23.4,28.6,46.7c16.2,42.1,12.2,50.6,10.5,52.2
			l-0.3,0.3C416.4,503.1,396.4,510.7,379,510.7z"/>
	</g>
	<g id="XMLID_36_">
		<path id="XMLID_277_" class="st18" d="M375,510.5c-0.9,0-1.8-0.5-2.1-1.4c-20.4-47.1-13.1-102.2-13-102.7c0.2-1.3,1.4-2.2,2.6-2
			c1.3,0.2,2.2,1.4,2,2.6c-0.1,0.5-7.2,54.3,12.7,100.2c0.5,1.2,0,2.6-1.2,3.1C375.6,510.5,375.3,510.5,375,510.5z"/>
	</g>
	<g id="XMLID_51_">
		<circle id="XMLID_343_" class="st18" cx="373.7" cy="423.1" r="4.5"/>
	</g>
	<g id="XMLID_52_">
		<circle id="XMLID_341_" class="st18" cx="373.7" cy="445" r="4.5"/>
	</g>
	<g id="XMLID_53_">
		<circle id="XMLID_339_" class="st18" cx="376.3" cy="470" r="4.5"/>
	</g>
</g>
<g id="Right_Arm">
	<g id="XMLID_110_">
		<polygon id="XMLID_298_" class="st27" points="396.8,400.5 400.7,415.6 406.5,431.1 416.4,443.1 422,448.8 418.2,453.2 
			412.3,466.9 406.5,479.9 396.1,493.8 402.6,497 408.2,504.2 409,508.3 418.4,503.9 440.3,488.2 448.4,472.8 451.6,459.8 
			448.6,439.6 436.5,414.7 422,397.2 409.7,388.5 402.6,386.3 396.8,391.3 		"/>
	</g>
	<g id="XMLID_108_">
		<polygon id="XMLID_296_" class="st26" points="396.1,493.8 389.1,492.5 380.2,497.1 376.5,504.2 373.8,511.2 376.5,517.9 
			381.4,522.3 389.1,525.6 397.8,523.4 406.2,514.4 409,508.3 402.6,497 		"/>
	</g>
	<g id="XMLID_105_">
		<path id="XMLID_294_" class="st28" d="M418.4,492.5c0,0,19.1-9.8,22.7-36.8c0,0-5.9-37.4-38.5-69.4c0,0,39.8,15.4,49,67.6
			c0,0,2,30.2-28.6,46.7L418.4,492.5z"/>
	</g>
	<g id="XMLID_103_">
		<path id="XMLID_292_" class="st29" d="M412.3,486.1c0,0,11.6-19.9,13-36.1l-7.1,3.1l-4.4,10.1l-11.2,21.9L412.3,486.1z"/>
	</g>
	<polygon id="XMLID_109_" class="st19" points="405.7,485.8 395.6,493.8 402.1,497 408.5,508.3 417.9,503.9 422.4,500.7 
		414.8,489.1 	"/>
	<g id="XMLID_54_">
		<path id="XMLID_262_" class="st18" d="M389.9,528c-6.1,0-11.6-3.2-14.7-6.7c-6.4-7.3-3.5-12.9,0.2-20.1c0.6-1.1,1.2-2.3,1.8-3.5
			c4.2-8.7,14.9-8.2,19.9-6.8c1.2,0.4,1.9,1.7,1.6,2.9c-0.4,1.2-1.7,1.9-2.9,1.6c-0.5-0.1-10.8-3-14.4,4.3c-0.6,1.3-1.2,2.5-1.8,3.6
			c-3.6,7-5.1,9.9-0.8,14.9c2.7,3.1,7.9,5.9,13.4,4.9c6.1-1.1,11.2-6.5,14.7-15.6c0.5-1.2,1.8-1.8,3-1.3c1.2,0.5,1.8,1.8,1.3,3
			c-5.2,13.6-12.8,17.6-18.2,18.5C391.9,527.9,390.9,528,389.9,528z"/>
	</g>
	<g id="XMLID_55_">
		<path id="XMLID_261_" class="st18" d="M421.9,503.3c-0.7,0-1.3-0.5-1.4-1.2c-1.1-6-3.5-10.3-7.1-12.6c-4.9-3.2-10.4-1.9-10.4-1.9
			c-0.8,0.2-1.6-0.3-1.8-1.1c-0.2-0.8,0.3-1.6,1.1-1.8c0.3-0.1,6.8-1.6,12.8,2.3c4.3,2.8,7.2,7.7,8.4,14.6c0.1,0.8-0.4,1.6-1.2,1.7
			C422.1,503.3,422,503.3,421.9,503.3z"/>
	</g>
	<path id="XMLID_102_" class="st29" d="M402.4,386.3c0,0,0.6,12.6,22.7,63.7C425,450,384,409,402.4,386.3z"/>
	<g id="XMLID_56_">
		<path id="XMLID_263_" class="st18" d="M406.8,511.7l-0.1-3.3c0-0.4-0.4-9.8-9.8-10.8c-1.4-0.1-2.5-1.1-3-2.4
			c-0.4-1.3-0.1-2.8,0.9-3.7c3-2.8,8.6-9.1,13-19.6c1.9-4.6,3-8,3.9-10.7c1.9-5.7,2.9-8.7,7.3-11.8c-5.7-5.4-19.8-21.2-24.6-48.7
			l0-0.3c0-1.1-0.2-10.8,5.4-14.4c2.9-1.8,6.6-1.7,10.9,0.5c13.8,7,36.9,31.7,42.6,62.5c5.7,31-22.9,53.8-43.5,61.6L406.8,511.7z
			 M399.6,493.3c7.1,1.7,10.2,7.2,11.3,11.7c18.2-7.9,42.7-28.7,37.8-55.3c-5.4-29.2-27.1-52.6-40.1-59.2c-2.7-1.4-4.8-1.7-6.3-0.8
			c-2.8,1.8-3.3,7.9-3.3,10.2c5.6,32.1,25.1,47.7,25.3,47.8l2.7,2.2l-3,1.7c-5.2,2.9-5.7,4.5-7.9,11c-0.9,2.8-2.1,6.3-4.1,11
			C408.2,483.3,403.1,489.8,399.6,493.3z"/>
	</g>
</g>
<g id="Neck">
	<g id="XMLID_128_">
		<path id="XMLID_309_" class="st26" d="M348.7,379.6l4.1,21.2c0,0,12.3,21.4,33.7-14.4l-2.4-13.9L348.7,379.6z"/>
	</g>
	<g id="XMLID_127_">
		<path id="XMLID_305_" class="st33" d="M348.7,386.9c0,0,13.6,13.9,36.5-8l-1.1-6.4l-35.5,7.1V386.9z"/>
	</g>
	<g id="XMLID_57_">
		<path id="XMLID_282_" class="st18" d="M362.6,409.1c-0.1,0-0.3,0-0.4,0c-7.5-0.2-11.3-6.8-11.4-7.1l-0.2-0.3l-4.2-21.6
			c-0.2-1.3,0.6-2.5,1.8-2.7c1.3-0.2,2.5,0.6,2.7,1.8L355,400c0.7,1,3.1,4.3,7.4,4.4c4.3,0.1,11.5-3,21.7-18.5l-2.2-13
			c-0.2-1.3,0.6-2.5,1.9-2.7c1.3-0.2,2.5,0.6,2.7,1.9l2.5,14.8l-0.5,0.8C379.3,401.9,370.6,409.1,362.6,409.1z"/>
	</g>
</g>
<g id="Head">
	<polyline id="XMLID_79_" class="st26" points="384.7,372.5 413.3,366.7 425.1,362.2 434.6,351.2 437.9,329.9 434.6,313.8 443,309 
		447,298.9 445.6,292.2 437.6,281.9 429,286 427.4,277.8 418.5,288.1 408.2,294.3 383.7,286.4 348.9,273.7 314.9,269.1 287.2,271.2 
		262.2,277.9 257.1,291.2 257.1,305.3 263.3,327.9 265.5,337.9 268.1,349.2 269.2,353.9 271.4,361.5 274.9,369.8 286.9,385.9 
		297.6,388.5 321.9,385.1 349.2,379.6 	"/>
	<polygon id="XMLID_78_" class="st34" points="258.2,311 243.2,303.3 238.4,289.2 244.9,272.4 249.2,267.1 245.6,254.2 245.8,240.8 
		251.5,227.7 264.1,216.9 277.3,211.8 285.6,197.9 293.2,190.2 308.2,184 321.6,182.5 338,190 349.6,183.9 363.9,181.7 372.7,183.8 
		382,190.7 391.9,207.5 412.3,211.6 424.5,221.7 430.6,234.6 431.9,254.9 444.4,261.5 451.1,275.5 448.6,294.6 439.7,284.5 
		428.9,283.8 426.7,274.6 418.4,288.1 408.2,294.3 383.7,286.4 352.1,273.7 321.8,270 289.8,271 262.2,277.9 258.7,287 	"/>
	<path id="XMLID_77_" class="st35" d="M246.7,258.2c0,0,1.1-32.6,30.6-39.3l1.5-7.6l-11.4,4l-12.5,8.4l-4.4,6.1l-3.2,5.4l-3.8,10.6
		L246.7,258.2z"/>
	<path id="XMLID_76_" class="st35" d="M279.5,226.1c0,0,6.6-44.8,56.4-37l-12-5.5l-13.2,0.1l-17.5,6.5l-9.4,10.2l-4.9,10.9
		L279.5,226.1z"/>
	<path id="XMLID_75_" class="st35" d="M338,190c0,0,36.6-13.2,51.7,18.5l-3.3-12.2L375,183.9l-16.6-2.5l-8.9,2.5L338,190z"/>
	<path id="XMLID_74_" class="st35" d="M391.9,207.5c0,0,33,8.4,39.9,47.5l1.6-16.4l-10.1-21.2l-15-7.2L391.9,207.5z"/>
	<path id="XMLID_73_" class="st35" d="M439.7,284.5c0,0,10.5-5-7.8-29.6c0,0,23.4,7.1,17.1,37.1L439.7,284.5z"/>
	<path id="XMLID_72_" class="st35" d="M288.9,243.2c0,0,32.5-20.6,54.2-15.6l-16.9-7.3l-16.6,4.5l-14.3,10.3L288.9,243.2z"/>
	<path id="XMLID_71_" class="st35" d="M343.1,227.7c0,0-9.2-14.2,13.9-20.7l-12-0.2l-8.9,6.6l-5.4,7L343.1,227.7z"/>
	<path id="XMLID_70_" class="st36" d="M262.2,277.9c0,0,43.6-35.6,116-3.5c0,0,30,19.9,46.8-3.6l2.4,7.1l-11.2,12.6l-8,3.8
		l-20.1-5.9l-25.8-10.4l-21.8-6.1l-33.4-1.3L262.2,277.9z"/>
	<path id="XMLID_69_" class="st33" d="M286.9,382.6l124.9-26.3c0,0,25.8-7.1,24.5-34.2c0,0,9.2,31.1-11.2,40.1l-40.4,10.3
		l-83.7,17.8l-8.8-3.9L286.9,382.6z"/>
	<path id="XMLID_68_" class="st33" d="M281.5,310.9c0,0,17.2-18.7,34-25.9C315.5,285.1,284.1,279.1,281.5,310.9z"/>
	<path id="XMLID_67_" class="st33" d="M260.6,312.8c0,0,2.2-24.7,12.5-27.7c0,0,48.1-20.4,112.4,4.5c0,0-53.2-37.1-123.2-11.7
		C262.2,277.9,251,295.6,260.6,312.8z"/>
	<path id="XMLID_66_" class="st33" d="M392.9,290.5c0,0,28.4,18.9,38.7,8.3l-4.8-24.3l-5.9,10.3l-12.7,9.4L392.9,290.5z"/>
	<path id="XMLID_65_" class="st37" d="M281.5,310.9c0,0-13.2-38.2,34-25.9C315.5,285.1,288.8,280.3,281.5,310.9z"/>
	
		<ellipse id="XMLID_64_" transform="matrix(0.9791 -0.2036 0.2036 0.9791 -56.9333 85.225)" class="st37" cx="385.7" cy="319.3" rx="10.7" ry="4.8"/>
	
		<ellipse id="XMLID_63_" transform="matrix(0.9791 -0.2036 0.2036 0.9791 -61.7607 70.2787)" class="st37" cx="310.7" cy="335.3" rx="10.7" ry="4.8"/>
	<path id="XMLID_62_" class="st37" d="M342.3,333.2c0,0-2.4-11.8,1.3-27.4l8.4,32L342.3,333.2z"/>
	<g id="XMLID_61_">
		<path id="XMLID_330_" class="st18" d="M302.2,390.9c-2.1,0-4.1-0.2-6.2-0.4l-1.3-0.1c-20.6-1.7-25.4-25.5-25.6-26.6l-8.1-35.4
			l-5.4-27c-2-9.9-0.5-17.8,4.8-25c0.8-1,2.2-1.3,3.3-0.5c1,0.8,1.3,2.2,0.5,3.3c-4.5,6.1-5.7,12.7-4,21.3l5.4,27l8.1,35.4
			c0.1,0.3,4.4,21.5,21.5,22.9l1.3,0.1c3.6,0.3,6.9,0.6,10.4-0.1l106.1-21.3c15.7-3.1,25.8-18.4,22.7-34.1L423,267.8
			c-3.2-15.7-18.5-25.8-34.1-22.7c-1.3,0.3-2.5-0.6-2.7-1.8c-0.3-1.3,0.6-2.5,1.8-2.7c18.2-3.7,35.9,8.2,39.6,26.3l12.6,62.6
			c3.7,18.2-8.2,35.9-26.3,39.6l-106.1,21.3C305.8,390.7,304,390.9,302.2,390.9z"/>
	</g>
	<g id="XMLID_58_">
		<path id="XMLID_332_" class="st18" d="M434.6,316.1c-1.1,0-2.1-0.8-2.3-1.9c-0.3-1.3,0.6-2.5,1.8-2.7c3.4-0.7,6.4-2.7,8.3-5.6
			s2.6-6.4,1.9-9.9c-0.7-3.4-2.7-6.4-5.6-8.3c-2.9-1.9-6.4-2.6-9.9-1.9c-1.3,0.3-2.5-0.6-2.7-1.8c-0.3-1.3,0.6-2.5,1.8-2.7
			c4.7-0.9,9.4,0,13.4,2.6c4,2.6,6.7,6.6,7.6,11.3c0.9,4.7,0,9.4-2.6,13.4c-2.6,4-6.6,6.7-11.3,7.6
			C434.9,316.1,434.7,316.1,434.6,316.1z"/>
	</g>
	<g id="XMLID_59_">
		<path id="XMLID_347_" class="st18" d="M406.7,296.7c-6,0-12.8-3.1-21.4-7c-8.8-4-19.7-8.9-34.4-13c-47.8-13.4-87.4,3.2-87.8,3.4
			c-1.2,0.5-2.6,0-3.1-1.2s0-2.6,1.2-3.1c1.7-0.7,41.5-17.4,90.9-3.6c15,4.2,26.2,9.2,35.1,13.3c9.5,4.3,16.4,7.4,21.7,6.4
			c5.2-1.1,9.9-6.6,15.6-18.4c0.6-1.2,2-1.7,3.1-1.1c1.2,0.6,1.7,2,1.1,3.1C421.1,291.3,414.6,296.7,406.7,296.7z"/>
	</g>
	<g id="XMLID_60_">
		<path id="XMLID_334_" class="st18" d="M446.7,297.9c-0.3,0-0.7-0.1-1-0.2c-1.2-0.6-1.6-2-1.1-3.1c4.1-8.2,4.9-15.6,2.4-22.1
			c-4.1-10.6-15.8-15.3-16-15.3l-1.6-0.6l0.2-1.8c1.4-14.9-1.7-26.4-9.1-34.1c-11-11.5-28.2-10.8-28.4-10.8l-1.7,0.1l-0.6-1.6
			c-5-13.1-12.1-21-21.1-23.5c-14.3-4.1-29.1,7-29.2,7.1L338,193l-1.4-1.1c-15.6-11.9-32.1-4.2-32.3-4.2l-0.2,0.1
			c-28.7,10.9-22.8,36.3-22.5,37.3c0.3,1.2-0.4,2.5-1.7,2.8c-1.2,0.3-2.5-0.4-2.8-1.7c-0.1-0.3-7.3-30.4,25.3-42.8
			c1.6-0.7,18.7-8.1,35.6,3.7c4.4-2.9,17.9-10.8,31.9-6.9c10.1,2.8,18,11.2,23.6,24.8c5,0.1,19.8,1.3,30.3,12.2
			c8.1,8.4,11.6,20.6,10.5,36.1c3.8,1.8,13.1,7.2,17,17.2c3,7.7,2.2,16.4-2.5,25.9C448.4,297.4,447.5,297.9,446.7,297.9z"/>
	</g>
	<g id="XMLID_80_">
		<path id="XMLID_346_" class="st18" d="M288.7,245.1c-0.4,0-0.9-0.1-1.3-0.4c-1.1-0.7-1.4-2.1-0.7-3.2c0.2-0.3,22.1-33.4,56.5-17.7
			c1.2,0.5,1.7,1.9,1.2,3.1c-0.5,1.2-1.9,1.7-3.1,1.2c-12.9-5.9-25.3-5-36.9,2.6c-8.8,5.7-13.7,13.3-13.7,13.4
			C290.2,244.8,289.5,245.1,288.7,245.1z"/>
	</g>
	<g id="XMLID_84_">
		<path id="XMLID_345_" class="st18" d="M331.3,224.9c-0.2,0-0.4,0-0.6-0.1c-1.2-0.4-2-1.6-1.6-2.9c2.3-8.1,11.2-22,28.6-17.2
			c1.2,0.3,2,1.6,1.6,2.9c-0.3,1.2-1.6,2-2.9,1.6c-17.3-4.9-22.7,13.2-22.9,13.9C333.2,224.2,332.3,224.9,331.3,224.9z"/>
	</g>
	<g id="XMLID_85_">
		<path id="XMLID_344_" class="st18" d="M374.9,269.3c-0.3,0-0.5-0.1-0.8-0.2c-42.2-22.1-77.3-9.7-77.6-9.6c-0.9,0.3-1.9-0.1-2.2-1
			c-0.3-0.9,0.1-1.9,1-2.2c1.5-0.5,36.9-13,80.5,9.8c0.9,0.4,1.2,1.5,0.7,2.3C376.1,269,375.5,269.3,374.9,269.3z"/>
	</g>
	<g id="XMLID_86_">
		<path id="XMLID_342_" class="st18" d="M289.9,214.1c-0.3,0-0.5-0.1-0.8-0.2c-0.9-0.4-1.2-1.5-0.8-2.3c0.1-0.3,12.5-25,39.6-18.2
			c0.9,0.2,1.5,1.2,1.3,2.1c-0.2,0.9-1.2,1.5-2.1,1.3c-24.3-6-35.2,15.5-35.6,16.4C291.2,213.7,290.6,214.1,289.9,214.1z"/>
	</g>
	<g id="XMLID_87_">
		<path id="XMLID_340_" class="st18" d="M424,244.8c-0.8,0-1.5-0.5-1.7-1.3c-6.2-23.3-24.3-23-25-23c-1,0-1.8-0.7-1.8-1.7
			c0-1,0.7-1.8,1.7-1.8c0.2,0,21.6-0.5,28.5,25.6c0.2,0.9-0.3,1.9-1.2,2.1C424.3,244.8,424.2,244.8,424,244.8z"/>
	</g>
	<g id="XMLID_88_">
		<path id="XMLID_331_" class="st18" d="M439.5,296.8c-0.6,0-1.1-0.3-1.4-0.8c-1-1.4-2.1-2.2-3.2-2.3c-1.8-0.2-3.4,1.3-3.4,1.3
			c-0.7,0.7-1.8,0.6-2.5-0.1s-0.6-1.8,0.1-2.4c0.1-0.1,2.7-2.6,6.1-2.3c2.2,0.2,4.1,1.5,5.7,3.8c0.5,0.8,0.3,1.9-0.4,2.4
			C440.2,296.7,439.9,296.8,439.5,296.8z"/>
	</g>
	<g id="XMLID_198_">
		<path id="XMLID_338_" class="st18" d="M386.2,275.7c-0.3,0-0.6-0.1-0.9-0.2l-4.9-2.9c-0.8-0.5-1.1-1.6-0.6-2.4
			c0.5-0.8,1.6-1.1,2.4-0.6l4.9,2.9c0.8,0.5,1.1,1.6,0.6,2.4C387.3,275.4,386.7,275.7,386.2,275.7z"/>
	</g>
	<g id="XMLID_206_">
		<path id="XMLID_337_" class="st18" d="M391.4,220.2C391.4,220.2,391.4,220.2,391.4,220.2l-5.4,0c-1,0-1.7-0.8-1.7-1.7
			c0-1,0.7-1.7,1.7-1.7l5.4,0c1,0,1.7,0.8,1.7,1.7C393.1,219.4,392.3,220.2,391.4,220.2z"/>
	</g>
	<g id="XMLID_208_">
		<path id="XMLID_333_" class="st18" d="M258.2,313.3c-0.3,0-0.7-0.1-1-0.2c-12.3-5.7-19.2-13-20.6-21.7
			c-1.8-11.4,6.6-21.4,9.8-24.8c-5.3-12.5-5.6-23.7-1-33.3c8.5-17.6,30.3-23.5,31.3-23.7c1.2-0.3,2.5,0.4,2.8,1.7
			c0.3,1.2-0.4,2.5-1.7,2.8l0,0c-0.2,0.1-20.7,5.5-28.2,21.2c-4.2,8.7-3.6,19.1,1.7,30.8l0.7,1.5l-1.2,1.1
			c-0.1,0.1-11.3,10.6-9.5,21.9c1.1,7.1,7.2,13.2,17.9,18.2c1.2,0.5,1.7,1.9,1.1,3.1C259.9,312.8,259.1,313.3,258.2,313.3z"/>
	</g>
	<g id="XMLID_245_">
		<path id="XMLID_335_" class="st18" d="M254.4,260.4c-0.7,0-1.4-0.5-1.7-1.2c-0.1-0.2-7.2-24.5,15.7-34.7c0.9-0.4,1.9,0,2.3,0.9
			c0.4,0.9,0,1.9-0.9,2.3c-20.2,9-14.1,29.6-13.8,30.5c0.3,0.9-0.2,1.9-1.2,2.2C254.7,260.3,254.5,260.4,254.4,260.4z"/>
	</g>
</g>
<g id="Face">
	<g id="XMLID_246_">
		<path id="XMLID_260_" class="st18" d="M350.1,340.3c-1.9,0-3.7-0.4-5.3-1.2c-2.5-1.2-4.2-3.4-4.7-5.8c-0.3-1.3,0.6-2.5,1.8-2.7
			c1.3-0.3,2.5,0.6,2.7,1.8c0.3,1.4,1.5,2.2,2.2,2.6c1.4,0.7,3.1,0.9,4.8,0.5c1.7-0.3,3.3-1.2,4.3-2.4c0.5-0.6,1.3-1.8,1-3.2
			c-0.3-1.3,0.6-2.5,1.8-2.7c1.3-0.3,2.5,0.6,2.7,1.8c0.5,2.5-0.3,5.1-2,7.2c-1.7,2-4.1,3.4-6.9,3.9
			C351.9,340.2,351,340.3,350.1,340.3z"/>
	</g>
	<g id="XMLID_247_">
		<path id="XMLID_259_" class="st18" d="M346.9,361.9c-16.2,0-28.3-7.6-28.5-7.8c-1.1-0.7-1.4-2.1-0.7-3.2c0.7-1.1,2.1-1.4,3.2-0.7
			l0,0c1.4,0.9,35.6,22.2,64.3-13.1c0.8-1,2.3-1.2,3.3-0.3c1,0.8,1.1,2.3,0.3,3.3C374.9,357.1,359.7,361.9,346.9,361.9z"/>
	</g>
	<g id="XMLID_248_">
		<path id="XMLID_258_" class="st18" d="M281.5,313.8c-0.1,0-0.1,0-0.2,0c-1.5-0.1-2.7-1.4-2.6-3c0-0.6,1-14,11.2-22.4
			c6.5-5.4,15.3-7.4,25.9-6.1c1.5,0.2,2.6,1.6,2.4,3.1c-0.2,1.5-1.6,2.6-3.1,2.4c-9.1-1.2-16.3,0.5-21.7,4.9
			c-8.4,6.9-9.2,18.4-9.2,18.5C284.2,312.6,283,313.8,281.5,313.8z"/>
	</g>
	<g id="XMLID_249_">
		<circle class="st18" cx="310.6" cy="312.6" r="6.7"/>
	</g>
	<g id="XMLID_267_">
		<circle class="st18" cx="376.1" cy="302.5" r="6.7"/>
	</g>
</g>
<g id="Ground">
	<g id="XMLID_275_">
		<path id="XMLID_281_" class="st18" d="M117.5,639.7H54.2c-1.3,0-2.3-1-2.3-2.3s1-2.3,2.3-2.3h63.3c1.3,0,2.3,1,2.3,2.3
			S118.8,639.7,117.5,639.7z"/>
	</g>
	<g id="XMLID_283_">
		<path id="XMLID_300_" class="st18" d="M218.9,639.7h-92.4c-1.3,0-2.3-1-2.3-2.3s1-2.3,2.3-2.3h92.4c1.3,0,2.3,1,2.3,2.3
			S220.2,639.7,218.9,639.7z"/>
	</g>
	<g id="XMLID_348_">
		<path id="XMLID_351_" class="st18" d="M237.2,639.7H226c-1.3,0-2.3-1-2.3-2.3s1-2.3,2.3-2.3h11.2c1.3,0,2.3,1,2.3,2.3
			S238.5,639.7,237.2,639.7z"/>
	</g>
	<g id="XMLID_353_">
		<path id="XMLID_354_" class="st18" d="M405,639.7H245.4c-1.3,0-2.3-1-2.3-2.3s1-2.3,2.3-2.3H405c1.3,0,2.3,1,2.3,2.3
			S406.3,639.7,405,639.7z"/>
	</g>
	<g id="XMLID_355_">
		<path id="XMLID_356_" class="st18" d="M554.9,639.7H416.6c-1.3,0-2.3-1-2.3-2.3s1-2.3,2.3-2.3h138.3c1.3,0,2.3,1,2.3,2.3
			S556.1,639.7,554.9,639.7z"/>
	</g>
</g>
</svg>
